G04 #@! TF.GenerationSoftware,KiCad,Pcbnew,(6.0.0)*
G04 #@! TF.CreationDate,2022-01-04T13:58:26+00:00*
G04 #@! TF.ProjectId,Panelized,50616e65-6c69-47a6-9564-2e6b69636164,rev?*
G04 #@! TF.SameCoordinates,Original*
G04 #@! TF.FileFunction,Legend,Bot*
G04 #@! TF.FilePolarity,Positive*
%FSLAX46Y46*%
G04 Gerber Fmt 4.6, Leading zero omitted, Abs format (unit mm)*
G04 Created by KiCad (PCBNEW (6.0.0)) date 2022-01-04 13:58:26*
%MOMM*%
%LPD*%
G01*
G04 APERTURE LIST*
%ADD10C,0.150000*%
%ADD11C,0.200000*%
G04 APERTURE END LIST*
D10*
X63649990Y-112150048D02*
X64149990Y-112150048D01*
X63649990Y-118750048D02*
X63649990Y-112150048D01*
X112650010Y-112150048D02*
X111850010Y-110950048D01*
X63049990Y-118750048D02*
X63649990Y-118750048D01*
X111050010Y-112150048D02*
X111550010Y-112150048D01*
X111850010Y-110950048D02*
X111050010Y-112150048D01*
X111550010Y-112150048D02*
X111550010Y-118750048D01*
X80250010Y-113650048D02*
X80250010Y-121150048D01*
X77250010Y-113650048D02*
X77250010Y-121150048D01*
X63649990Y-51249991D02*
X63649990Y-44649991D01*
X62549990Y-67150010D02*
X63049990Y-67150010D01*
X63049990Y-89650029D02*
X63049990Y-96250029D01*
X111050010Y-44649991D02*
X111550010Y-44649991D01*
X112150010Y-51249991D02*
X112150010Y-44649991D01*
X31749990Y-113650048D02*
X31749990Y-121150048D01*
X64149990Y-89650029D02*
X63349990Y-88450029D01*
X111850010Y-65950010D02*
X111050010Y-67150010D01*
X80250010Y-91150029D02*
X80250010Y-98650029D01*
X63049990Y-44649991D02*
X63049990Y-51249991D01*
X77250010Y-91150029D02*
X77250010Y-98650029D01*
X63349990Y-43449991D02*
X62549990Y-44649991D01*
X111550010Y-89650029D02*
X111550010Y-96250029D01*
X64149990Y-44649991D02*
X63349990Y-43449991D01*
X28749990Y-113650048D02*
X28749990Y-121150048D01*
X31749990Y-68650010D02*
X31749990Y-76150010D01*
X63049990Y-96250029D02*
X63649990Y-96250029D01*
X63049990Y-73750010D02*
X63649990Y-73750010D01*
X63049990Y-51249991D02*
X63649990Y-51249991D01*
X112150010Y-89650029D02*
X112650010Y-89650029D01*
X28749990Y-91150029D02*
X28749990Y-98650029D01*
X63049990Y-67150010D02*
X63049990Y-73750010D01*
X31749990Y-46149991D02*
X31749990Y-53649991D01*
X63649990Y-96250029D02*
X63649990Y-89650029D01*
X77250010Y-46149991D02*
X77250010Y-53649991D01*
X112650010Y-67150010D02*
X111850010Y-65950010D01*
X63349990Y-110950048D02*
X62549990Y-112150048D01*
X112650010Y-89650029D02*
X111850010Y-88450029D01*
X63649990Y-44649991D02*
X64149990Y-44649991D01*
X28749990Y-46149991D02*
X28749990Y-53649991D01*
X62549990Y-89650029D02*
X63049990Y-89650029D01*
X31749990Y-91150029D02*
X31749990Y-98650029D01*
X80250010Y-46149991D02*
X80250010Y-53649991D01*
X62549990Y-112150048D02*
X63049990Y-112150048D01*
X63049990Y-112150048D02*
X63049990Y-118750048D01*
X112150010Y-44649991D02*
X112650010Y-44649991D01*
X63649990Y-89650029D02*
X64149990Y-89650029D01*
X111050010Y-89650029D02*
X111550010Y-89650029D01*
X64149990Y-67150010D02*
X63349990Y-65950010D01*
X63349990Y-88450029D02*
X62549990Y-89650029D01*
X111550010Y-44649991D02*
X111550010Y-51249991D01*
X63349990Y-65950010D02*
X62549990Y-67150010D01*
X112650010Y-44649991D02*
X111850010Y-43449991D01*
X77250010Y-68650010D02*
X77250010Y-76150010D01*
X112150010Y-96250029D02*
X112150010Y-89650029D01*
X28749990Y-68650010D02*
X28749990Y-76150010D01*
X64149990Y-112150048D02*
X63349990Y-110950048D01*
X111550010Y-73750010D02*
X112150010Y-73750010D01*
X111850010Y-88450029D02*
X111050010Y-89650029D01*
X112150010Y-67150010D02*
X112650010Y-67150010D01*
X63649990Y-67150010D02*
X64149990Y-67150010D01*
X112150010Y-118750048D02*
X112150010Y-112150048D01*
X111050010Y-67150010D02*
X111550010Y-67150010D01*
X62549990Y-44649991D02*
X63049990Y-44649991D01*
X111850010Y-43449991D02*
X111050010Y-44649991D01*
X63649990Y-73750010D02*
X63649990Y-67150010D01*
X111550010Y-67150010D02*
X111550010Y-73750010D01*
X112150010Y-73750010D02*
X112150010Y-67150010D01*
X112150010Y-112150048D02*
X112650010Y-112150048D01*
X80250010Y-68650010D02*
X80250010Y-76150010D01*
X111550010Y-96250029D02*
X112150010Y-96250029D01*
X111550010Y-51249991D02*
X112150010Y-51249991D01*
X111550010Y-118750048D02*
X112150010Y-118750048D01*
X112892867Y-95158600D02*
X112845248Y-95206219D01*
X112797629Y-95349076D01*
X112797629Y-95444314D01*
X112845248Y-95587171D01*
X112940486Y-95682409D01*
X113035724Y-95730029D01*
X113226200Y-95777648D01*
X113369057Y-95777648D01*
X113559533Y-95730029D01*
X113654771Y-95682409D01*
X113750010Y-95587171D01*
X113797629Y-95444314D01*
X113797629Y-95349076D01*
X113750010Y-95206219D01*
X113702390Y-95158600D01*
X113464295Y-94301457D02*
X112797629Y-94301457D01*
X113464295Y-94730029D02*
X112940486Y-94730029D01*
X112845248Y-94682409D01*
X112797629Y-94587171D01*
X112797629Y-94444314D01*
X112845248Y-94349076D01*
X112892867Y-94301457D01*
X112797629Y-93825267D02*
X113464295Y-93825267D01*
X113273819Y-93825267D02*
X113369057Y-93777648D01*
X113416676Y-93730029D01*
X113464295Y-93634790D01*
X113464295Y-93539552D01*
X112797629Y-93206219D02*
X113464295Y-93206219D01*
X113273819Y-93206219D02*
X113369057Y-93158600D01*
X113416676Y-93110981D01*
X113464295Y-93015743D01*
X113464295Y-92920505D01*
X112845248Y-92206219D02*
X112797629Y-92301457D01*
X112797629Y-92491933D01*
X112845248Y-92587171D01*
X112940486Y-92634790D01*
X113321438Y-92634790D01*
X113416676Y-92587171D01*
X113464295Y-92491933D01*
X113464295Y-92301457D01*
X113416676Y-92206219D01*
X113321438Y-92158600D01*
X113226200Y-92158600D01*
X113130962Y-92634790D01*
X113464295Y-91730029D02*
X112797629Y-91730029D01*
X113369057Y-91730029D02*
X113416676Y-91682409D01*
X113464295Y-91587171D01*
X113464295Y-91444314D01*
X113416676Y-91349076D01*
X113321438Y-91301457D01*
X112797629Y-91301457D01*
X113464295Y-90968124D02*
X113464295Y-90587171D01*
X113797629Y-90825267D02*
X112940486Y-90825267D01*
X112845248Y-90777648D01*
X112797629Y-90682409D01*
X112797629Y-90587171D01*
X113921438Y-97658600D02*
X113778581Y-97706219D01*
X113730962Y-97753838D01*
X113683343Y-97849076D01*
X113683343Y-97991933D01*
X113730962Y-98087171D01*
X113778581Y-98134790D01*
X113873819Y-98182409D01*
X114254771Y-98182409D01*
X114254771Y-97182409D01*
X113921438Y-97182409D01*
X113826200Y-97230029D01*
X113778581Y-97277648D01*
X113730962Y-97372886D01*
X113730962Y-97468124D01*
X113778581Y-97563362D01*
X113826200Y-97610981D01*
X113921438Y-97658600D01*
X114254771Y-97658600D01*
X112826200Y-98182409D02*
X112826200Y-97658600D01*
X112873819Y-97563362D01*
X112969057Y-97515743D01*
X113159533Y-97515743D01*
X113254771Y-97563362D01*
X112826200Y-98134790D02*
X112921438Y-98182409D01*
X113159533Y-98182409D01*
X113254771Y-98134790D01*
X113302390Y-98039552D01*
X113302390Y-97944314D01*
X113254771Y-97849076D01*
X113159533Y-97801457D01*
X112921438Y-97801457D01*
X112826200Y-97753838D01*
X112492867Y-97515743D02*
X112111914Y-97515743D01*
X112350010Y-97182409D02*
X112350010Y-98039552D01*
X112302390Y-98134790D01*
X112207152Y-98182409D01*
X112111914Y-98182409D01*
X111921438Y-97515743D02*
X111540486Y-97515743D01*
X111778581Y-97182409D02*
X111778581Y-98039552D01*
X111730962Y-98134790D01*
X111635724Y-98182409D01*
X111540486Y-98182409D01*
X110826200Y-98134790D02*
X110921438Y-98182409D01*
X111111914Y-98182409D01*
X111207152Y-98134790D01*
X111254771Y-98039552D01*
X111254771Y-97658600D01*
X111207152Y-97563362D01*
X111111914Y-97515743D01*
X110921438Y-97515743D01*
X110826200Y-97563362D01*
X110778581Y-97658600D01*
X110778581Y-97753838D01*
X111254771Y-97849076D01*
X110350010Y-98182409D02*
X110350010Y-97515743D01*
X110350010Y-97706219D02*
X110302390Y-97610981D01*
X110254771Y-97563362D01*
X110159533Y-97515743D01*
X110064295Y-97515743D01*
X109826200Y-97515743D02*
X109588105Y-98182409D01*
X109350010Y-97515743D02*
X109588105Y-98182409D01*
X109683343Y-98420505D01*
X109730962Y-98468124D01*
X109826200Y-98515743D01*
D11*
X79007152Y-92135743D02*
X79054771Y-92088124D01*
X79102390Y-91945267D01*
X79102390Y-91850029D01*
X79054771Y-91707171D01*
X78959533Y-91611933D01*
X78864295Y-91564314D01*
X78673819Y-91516695D01*
X78530962Y-91516695D01*
X78340486Y-91564314D01*
X78245248Y-91611933D01*
X78150010Y-91707171D01*
X78102390Y-91850029D01*
X78102390Y-91945267D01*
X78150010Y-92088124D01*
X78197629Y-92135743D01*
X79102390Y-92992886D02*
X78578581Y-92992886D01*
X78483343Y-92945267D01*
X78435724Y-92850029D01*
X78435724Y-92659552D01*
X78483343Y-92564314D01*
X79054771Y-92992886D02*
X79102390Y-92897648D01*
X79102390Y-92659552D01*
X79054771Y-92564314D01*
X78959533Y-92516695D01*
X78864295Y-92516695D01*
X78769057Y-92564314D01*
X78721438Y-92659552D01*
X78721438Y-92897648D01*
X78673819Y-92992886D01*
X79102390Y-93469076D02*
X78102390Y-93469076D01*
X78483343Y-93469076D02*
X78435724Y-93564314D01*
X78435724Y-93754790D01*
X78483343Y-93850029D01*
X78530962Y-93897648D01*
X78626200Y-93945267D01*
X78911914Y-93945267D01*
X79007152Y-93897648D01*
X79054771Y-93850029D01*
X79102390Y-93754790D01*
X79102390Y-93564314D01*
X79054771Y-93469076D01*
X79102390Y-94516695D02*
X79054771Y-94421457D01*
X78959533Y-94373838D01*
X78102390Y-94373838D01*
X79054771Y-95278600D02*
X79102390Y-95183362D01*
X79102390Y-94992886D01*
X79054771Y-94897648D01*
X78959533Y-94850029D01*
X78578581Y-94850029D01*
X78483343Y-94897648D01*
X78435724Y-94992886D01*
X78435724Y-95183362D01*
X78483343Y-95278600D01*
X78578581Y-95326219D01*
X78673819Y-95326219D01*
X78769057Y-94850029D01*
X78102390Y-96373838D02*
X78102390Y-96945267D01*
X79102390Y-96659552D02*
X78102390Y-96659552D01*
X79102390Y-97278600D02*
X78435724Y-97278600D01*
X78102390Y-97278600D02*
X78150010Y-97230981D01*
X78197629Y-97278600D01*
X78150010Y-97326219D01*
X78102390Y-97278600D01*
X78197629Y-97278600D01*
X79054771Y-98135743D02*
X79102390Y-98040505D01*
X79102390Y-97850029D01*
X79054771Y-97754790D01*
X78959533Y-97707171D01*
X78578581Y-97707171D01*
X78483343Y-97754790D01*
X78435724Y-97850029D01*
X78435724Y-98040505D01*
X78483343Y-98135743D01*
X78578581Y-98183362D01*
X78673819Y-98183362D01*
X78769057Y-97707171D01*
D10*
X64297609Y-104107171D02*
X64345228Y-104154790D01*
X64488085Y-104202409D01*
X64583323Y-104202409D01*
X64726180Y-104154790D01*
X64821418Y-104059552D01*
X64869037Y-103964314D01*
X64916656Y-103773838D01*
X64916656Y-103630981D01*
X64869037Y-103440505D01*
X64821418Y-103345267D01*
X64726180Y-103250029D01*
X64583323Y-103202409D01*
X64488085Y-103202409D01*
X64345228Y-103250029D01*
X64297609Y-103297648D01*
X63440466Y-103535743D02*
X63440466Y-104202409D01*
X63869037Y-103535743D02*
X63869037Y-104059552D01*
X63821418Y-104154790D01*
X63726180Y-104202409D01*
X63583323Y-104202409D01*
X63488085Y-104154790D01*
X63440466Y-104107171D01*
X62964275Y-104202409D02*
X62964275Y-103535743D01*
X62964275Y-103726219D02*
X62916656Y-103630981D01*
X62869037Y-103583362D01*
X62773799Y-103535743D01*
X62678561Y-103535743D01*
X62345228Y-104202409D02*
X62345228Y-103535743D01*
X62345228Y-103726219D02*
X62297609Y-103630981D01*
X62249990Y-103583362D01*
X62154751Y-103535743D01*
X62059513Y-103535743D01*
X61345228Y-104154790D02*
X61440466Y-104202409D01*
X61630942Y-104202409D01*
X61726180Y-104154790D01*
X61773799Y-104059552D01*
X61773799Y-103678600D01*
X61726180Y-103583362D01*
X61630942Y-103535743D01*
X61440466Y-103535743D01*
X61345228Y-103583362D01*
X61297609Y-103678600D01*
X61297609Y-103773838D01*
X61773799Y-103869076D01*
X60869037Y-103535743D02*
X60869037Y-104202409D01*
X60869037Y-103630981D02*
X60821418Y-103583362D01*
X60726180Y-103535743D01*
X60583323Y-103535743D01*
X60488085Y-103583362D01*
X60440466Y-103678600D01*
X60440466Y-104202409D01*
X60107132Y-103535743D02*
X59726180Y-103535743D01*
X59964275Y-103202409D02*
X59964275Y-104059552D01*
X59916656Y-104154790D01*
X59821418Y-104202409D01*
X59726180Y-104202409D01*
X58678561Y-104154790D02*
X58535704Y-104202409D01*
X58297609Y-104202409D01*
X58202370Y-104154790D01*
X58154751Y-104107171D01*
X58107132Y-104011933D01*
X58107132Y-103916695D01*
X58154751Y-103821457D01*
X58202370Y-103773838D01*
X58297609Y-103726219D01*
X58488085Y-103678600D01*
X58583323Y-103630981D01*
X58630942Y-103583362D01*
X58678561Y-103488124D01*
X58678561Y-103392886D01*
X58630942Y-103297648D01*
X58583323Y-103250029D01*
X58488085Y-103202409D01*
X58249990Y-103202409D01*
X58107132Y-103250029D01*
X57297609Y-104154790D02*
X57392847Y-104202409D01*
X57583323Y-104202409D01*
X57678561Y-104154790D01*
X57726180Y-104059552D01*
X57726180Y-103678600D01*
X57678561Y-103583362D01*
X57583323Y-103535743D01*
X57392847Y-103535743D01*
X57297609Y-103583362D01*
X57249990Y-103678600D01*
X57249990Y-103773838D01*
X57726180Y-103869076D01*
X56821418Y-103535743D02*
X56821418Y-104202409D01*
X56821418Y-103630981D02*
X56773799Y-103583362D01*
X56678561Y-103535743D01*
X56535704Y-103535743D01*
X56440466Y-103583362D01*
X56392847Y-103678600D01*
X56392847Y-104202409D01*
X55964275Y-104154790D02*
X55869037Y-104202409D01*
X55678561Y-104202409D01*
X55583323Y-104154790D01*
X55535704Y-104059552D01*
X55535704Y-104011933D01*
X55583323Y-103916695D01*
X55678561Y-103869076D01*
X55821418Y-103869076D01*
X55916656Y-103821457D01*
X55964275Y-103726219D01*
X55964275Y-103678600D01*
X55916656Y-103583362D01*
X55821418Y-103535743D01*
X55678561Y-103535743D01*
X55583323Y-103583362D01*
X54964275Y-104202409D02*
X55059513Y-104154790D01*
X55107132Y-104107171D01*
X55154751Y-104011933D01*
X55154751Y-103726219D01*
X55107132Y-103630981D01*
X55059513Y-103583362D01*
X54964275Y-103535743D01*
X54821418Y-103535743D01*
X54726180Y-103583362D01*
X54678561Y-103630981D01*
X54630942Y-103726219D01*
X54630942Y-104011933D01*
X54678561Y-104107171D01*
X54726180Y-104154790D01*
X54821418Y-104202409D01*
X54964275Y-104202409D01*
X54202370Y-104202409D02*
X54202370Y-103535743D01*
X54202370Y-103726219D02*
X54154751Y-103630981D01*
X54107132Y-103583362D01*
X54011894Y-103535743D01*
X53916656Y-103535743D01*
X52488085Y-103678600D02*
X52345228Y-103726219D01*
X52297609Y-103773838D01*
X52249990Y-103869076D01*
X52249990Y-104011933D01*
X52297609Y-104107171D01*
X52345228Y-104154790D01*
X52440466Y-104202409D01*
X52821418Y-104202409D01*
X52821418Y-103202409D01*
X52488085Y-103202409D01*
X52392847Y-103250029D01*
X52345228Y-103297648D01*
X52297609Y-103392886D01*
X52297609Y-103488124D01*
X52345228Y-103583362D01*
X52392847Y-103630981D01*
X52488085Y-103678600D01*
X52821418Y-103678600D01*
X51821418Y-104202409D02*
X51821418Y-103535743D01*
X51821418Y-103726219D02*
X51773799Y-103630981D01*
X51726180Y-103583362D01*
X51630942Y-103535743D01*
X51535704Y-103535743D01*
X50821418Y-104154790D02*
X50916656Y-104202409D01*
X51107132Y-104202409D01*
X51202370Y-104154790D01*
X51249990Y-104059552D01*
X51249990Y-103678600D01*
X51202370Y-103583362D01*
X51107132Y-103535743D01*
X50916656Y-103535743D01*
X50821418Y-103583362D01*
X50773799Y-103678600D01*
X50773799Y-103773838D01*
X51249990Y-103869076D01*
X49916656Y-104202409D02*
X49916656Y-103678600D01*
X49964275Y-103583362D01*
X50059513Y-103535743D01*
X50249990Y-103535743D01*
X50345228Y-103583362D01*
X49916656Y-104154790D02*
X50011894Y-104202409D01*
X50249990Y-104202409D01*
X50345228Y-104154790D01*
X50392847Y-104059552D01*
X50392847Y-103964314D01*
X50345228Y-103869076D01*
X50249990Y-103821457D01*
X50011894Y-103821457D01*
X49916656Y-103773838D01*
X49440466Y-104202409D02*
X49440466Y-103202409D01*
X49345228Y-103821457D02*
X49059513Y-104202409D01*
X49059513Y-103535743D02*
X49440466Y-103916695D01*
X48488085Y-104202409D02*
X48583323Y-104154790D01*
X48630942Y-104107171D01*
X48678561Y-104011933D01*
X48678561Y-103726219D01*
X48630942Y-103630981D01*
X48583323Y-103583362D01*
X48488085Y-103535743D01*
X48345228Y-103535743D01*
X48249990Y-103583362D01*
X48202370Y-103630981D01*
X48154751Y-103726219D01*
X48154751Y-104011933D01*
X48202370Y-104107171D01*
X48249990Y-104154790D01*
X48345228Y-104202409D01*
X48488085Y-104202409D01*
X47297609Y-103535743D02*
X47297609Y-104202409D01*
X47726180Y-103535743D02*
X47726180Y-104059552D01*
X47678561Y-104154790D01*
X47583323Y-104202409D01*
X47440466Y-104202409D01*
X47345228Y-104154790D01*
X47297609Y-104107171D01*
X46964275Y-103535743D02*
X46583323Y-103535743D01*
X46821418Y-103202409D02*
X46821418Y-104059552D01*
X46773799Y-104154790D01*
X46678561Y-104202409D01*
X46583323Y-104202409D01*
X45154751Y-103678600D02*
X45011894Y-103726219D01*
X44964275Y-103773838D01*
X44916656Y-103869076D01*
X44916656Y-104011933D01*
X44964275Y-104107171D01*
X45011894Y-104154790D01*
X45107132Y-104202409D01*
X45488085Y-104202409D01*
X45488085Y-103202409D01*
X45154751Y-103202409D01*
X45059513Y-103250029D01*
X45011894Y-103297648D01*
X44964275Y-103392886D01*
X44964275Y-103488124D01*
X45011894Y-103583362D01*
X45059513Y-103630981D01*
X45154751Y-103678600D01*
X45488085Y-103678600D01*
X44345228Y-104202409D02*
X44440466Y-104154790D01*
X44488085Y-104107171D01*
X44535704Y-104011933D01*
X44535704Y-103726219D01*
X44488085Y-103630981D01*
X44440466Y-103583362D01*
X44345228Y-103535743D01*
X44202370Y-103535743D01*
X44107132Y-103583362D01*
X44059513Y-103630981D01*
X44011894Y-103726219D01*
X44011894Y-104011933D01*
X44059513Y-104107171D01*
X44107132Y-104154790D01*
X44202370Y-104202409D01*
X44345228Y-104202409D01*
X43154751Y-104202409D02*
X43154751Y-103678600D01*
X43202370Y-103583362D01*
X43297609Y-103535743D01*
X43488085Y-103535743D01*
X43583323Y-103583362D01*
X43154751Y-104154790D02*
X43249990Y-104202409D01*
X43488085Y-104202409D01*
X43583323Y-104154790D01*
X43630942Y-104059552D01*
X43630942Y-103964314D01*
X43583323Y-103869076D01*
X43488085Y-103821457D01*
X43249990Y-103821457D01*
X43154751Y-103773838D01*
X42678561Y-104202409D02*
X42678561Y-103535743D01*
X42678561Y-103726219D02*
X42630942Y-103630981D01*
X42583323Y-103583362D01*
X42488085Y-103535743D01*
X42392847Y-103535743D01*
X41630942Y-104202409D02*
X41630942Y-103202409D01*
X41630942Y-104154790D02*
X41726180Y-104202409D01*
X41916656Y-104202409D01*
X42011894Y-104154790D01*
X42059513Y-104107171D01*
X42107132Y-104011933D01*
X42107132Y-103726219D01*
X42059513Y-103630981D01*
X42011894Y-103583362D01*
X41916656Y-103535743D01*
X41726180Y-103535743D01*
X41630942Y-103583362D01*
X112892867Y-72658581D02*
X112845248Y-72706200D01*
X112797629Y-72849057D01*
X112797629Y-72944295D01*
X112845248Y-73087152D01*
X112940486Y-73182390D01*
X113035724Y-73230010D01*
X113226200Y-73277629D01*
X113369057Y-73277629D01*
X113559533Y-73230010D01*
X113654771Y-73182390D01*
X113750010Y-73087152D01*
X113797629Y-72944295D01*
X113797629Y-72849057D01*
X113750010Y-72706200D01*
X113702390Y-72658581D01*
X113464295Y-71801438D02*
X112797629Y-71801438D01*
X113464295Y-72230010D02*
X112940486Y-72230010D01*
X112845248Y-72182390D01*
X112797629Y-72087152D01*
X112797629Y-71944295D01*
X112845248Y-71849057D01*
X112892867Y-71801438D01*
X112797629Y-71325248D02*
X113464295Y-71325248D01*
X113273819Y-71325248D02*
X113369057Y-71277629D01*
X113416676Y-71230010D01*
X113464295Y-71134771D01*
X113464295Y-71039533D01*
X112797629Y-70706200D02*
X113464295Y-70706200D01*
X113273819Y-70706200D02*
X113369057Y-70658581D01*
X113416676Y-70610962D01*
X113464295Y-70515724D01*
X113464295Y-70420486D01*
X112845248Y-69706200D02*
X112797629Y-69801438D01*
X112797629Y-69991914D01*
X112845248Y-70087152D01*
X112940486Y-70134771D01*
X113321438Y-70134771D01*
X113416676Y-70087152D01*
X113464295Y-69991914D01*
X113464295Y-69801438D01*
X113416676Y-69706200D01*
X113321438Y-69658581D01*
X113226200Y-69658581D01*
X113130962Y-70134771D01*
X113464295Y-69230010D02*
X112797629Y-69230010D01*
X113369057Y-69230010D02*
X113416676Y-69182390D01*
X113464295Y-69087152D01*
X113464295Y-68944295D01*
X113416676Y-68849057D01*
X113321438Y-68801438D01*
X112797629Y-68801438D01*
X113464295Y-68468105D02*
X113464295Y-68087152D01*
X113797629Y-68325248D02*
X112940486Y-68325248D01*
X112845248Y-68277629D01*
X112797629Y-68182390D01*
X112797629Y-68087152D01*
X65183323Y-109982428D02*
X65183323Y-108982428D01*
X64849990Y-109696714D01*
X64516656Y-108982428D01*
X64516656Y-109982428D01*
X63897609Y-109982428D02*
X63992847Y-109934809D01*
X64040466Y-109887190D01*
X64088085Y-109791952D01*
X64088085Y-109506238D01*
X64040466Y-109411000D01*
X63992847Y-109363381D01*
X63897609Y-109315762D01*
X63754751Y-109315762D01*
X63659513Y-109363381D01*
X63611894Y-109411000D01*
X63564275Y-109506238D01*
X63564275Y-109791952D01*
X63611894Y-109887190D01*
X63659513Y-109934809D01*
X63754751Y-109982428D01*
X63897609Y-109982428D01*
X63278561Y-109315762D02*
X62897609Y-109315762D01*
X63135704Y-108982428D02*
X63135704Y-109839571D01*
X63088085Y-109934809D01*
X62992847Y-109982428D01*
X62897609Y-109982428D01*
X62421418Y-109982428D02*
X62516656Y-109934809D01*
X62564275Y-109887190D01*
X62611894Y-109791952D01*
X62611894Y-109506238D01*
X62564275Y-109411000D01*
X62516656Y-109363381D01*
X62421418Y-109315762D01*
X62278561Y-109315762D01*
X62183323Y-109363381D01*
X62135704Y-109411000D01*
X62088085Y-109506238D01*
X62088085Y-109791952D01*
X62135704Y-109887190D01*
X62183323Y-109934809D01*
X62278561Y-109982428D01*
X62421418Y-109982428D01*
X61659513Y-109982428D02*
X61659513Y-109315762D01*
X61659513Y-109506238D02*
X61611894Y-109411000D01*
X61564275Y-109363381D01*
X61469037Y-109315762D01*
X61373799Y-109315762D01*
X113683343Y-87482409D02*
X113683343Y-86482409D01*
X113350010Y-87196695D01*
X113016676Y-86482409D01*
X113016676Y-87482409D01*
X112397629Y-87482409D02*
X112492867Y-87434790D01*
X112540486Y-87387171D01*
X112588105Y-87291933D01*
X112588105Y-87006219D01*
X112540486Y-86910981D01*
X112492867Y-86863362D01*
X112397629Y-86815743D01*
X112254771Y-86815743D01*
X112159533Y-86863362D01*
X112111914Y-86910981D01*
X112064295Y-87006219D01*
X112064295Y-87291933D01*
X112111914Y-87387171D01*
X112159533Y-87434790D01*
X112254771Y-87482409D01*
X112397629Y-87482409D01*
X111778581Y-86815743D02*
X111397629Y-86815743D01*
X111635724Y-86482409D02*
X111635724Y-87339552D01*
X111588105Y-87434790D01*
X111492867Y-87482409D01*
X111397629Y-87482409D01*
X110921438Y-87482409D02*
X111016676Y-87434790D01*
X111064295Y-87387171D01*
X111111914Y-87291933D01*
X111111914Y-87006219D01*
X111064295Y-86910981D01*
X111016676Y-86863362D01*
X110921438Y-86815743D01*
X110778581Y-86815743D01*
X110683343Y-86863362D01*
X110635724Y-86910981D01*
X110588105Y-87006219D01*
X110588105Y-87291933D01*
X110635724Y-87387171D01*
X110683343Y-87434790D01*
X110778581Y-87482409D01*
X110921438Y-87482409D01*
X110159533Y-87482409D02*
X110159533Y-86815743D01*
X110159533Y-87006219D02*
X110111914Y-86910981D01*
X110064295Y-86863362D01*
X109969057Y-86815743D01*
X109873819Y-86815743D01*
D11*
X79007152Y-69635724D02*
X79054771Y-69588105D01*
X79102390Y-69445248D01*
X79102390Y-69350010D01*
X79054771Y-69207152D01*
X78959533Y-69111914D01*
X78864295Y-69064295D01*
X78673819Y-69016676D01*
X78530962Y-69016676D01*
X78340486Y-69064295D01*
X78245248Y-69111914D01*
X78150010Y-69207152D01*
X78102390Y-69350010D01*
X78102390Y-69445248D01*
X78150010Y-69588105D01*
X78197629Y-69635724D01*
X79102390Y-70492867D02*
X78578581Y-70492867D01*
X78483343Y-70445248D01*
X78435724Y-70350010D01*
X78435724Y-70159533D01*
X78483343Y-70064295D01*
X79054771Y-70492867D02*
X79102390Y-70397629D01*
X79102390Y-70159533D01*
X79054771Y-70064295D01*
X78959533Y-70016676D01*
X78864295Y-70016676D01*
X78769057Y-70064295D01*
X78721438Y-70159533D01*
X78721438Y-70397629D01*
X78673819Y-70492867D01*
X79102390Y-70969057D02*
X78102390Y-70969057D01*
X78483343Y-70969057D02*
X78435724Y-71064295D01*
X78435724Y-71254771D01*
X78483343Y-71350010D01*
X78530962Y-71397629D01*
X78626200Y-71445248D01*
X78911914Y-71445248D01*
X79007152Y-71397629D01*
X79054771Y-71350010D01*
X79102390Y-71254771D01*
X79102390Y-71064295D01*
X79054771Y-70969057D01*
X79102390Y-72016676D02*
X79054771Y-71921438D01*
X78959533Y-71873819D01*
X78102390Y-71873819D01*
X79054771Y-72778581D02*
X79102390Y-72683343D01*
X79102390Y-72492867D01*
X79054771Y-72397629D01*
X78959533Y-72350010D01*
X78578581Y-72350010D01*
X78483343Y-72397629D01*
X78435724Y-72492867D01*
X78435724Y-72683343D01*
X78483343Y-72778581D01*
X78578581Y-72826200D01*
X78673819Y-72826200D01*
X78769057Y-72350010D01*
X78102390Y-73873819D02*
X78102390Y-74445248D01*
X79102390Y-74159533D02*
X78102390Y-74159533D01*
X79102390Y-74778581D02*
X78435724Y-74778581D01*
X78102390Y-74778581D02*
X78150010Y-74730962D01*
X78197629Y-74778581D01*
X78150010Y-74826200D01*
X78102390Y-74778581D01*
X78197629Y-74778581D01*
X79054771Y-75635724D02*
X79102390Y-75540486D01*
X79102390Y-75350010D01*
X79054771Y-75254771D01*
X78959533Y-75207152D01*
X78578581Y-75207152D01*
X78483343Y-75254771D01*
X78435724Y-75350010D01*
X78435724Y-75540486D01*
X78483343Y-75635724D01*
X78578581Y-75683343D01*
X78673819Y-75683343D01*
X78769057Y-75207152D01*
D10*
X113921438Y-52658562D02*
X113778581Y-52706181D01*
X113730962Y-52753800D01*
X113683343Y-52849038D01*
X113683343Y-52991895D01*
X113730962Y-53087133D01*
X113778581Y-53134752D01*
X113873819Y-53182371D01*
X114254771Y-53182371D01*
X114254771Y-52182371D01*
X113921438Y-52182371D01*
X113826200Y-52229991D01*
X113778581Y-52277610D01*
X113730962Y-52372848D01*
X113730962Y-52468086D01*
X113778581Y-52563324D01*
X113826200Y-52610943D01*
X113921438Y-52658562D01*
X114254771Y-52658562D01*
X112826200Y-53182371D02*
X112826200Y-52658562D01*
X112873819Y-52563324D01*
X112969057Y-52515705D01*
X113159533Y-52515705D01*
X113254771Y-52563324D01*
X112826200Y-53134752D02*
X112921438Y-53182371D01*
X113159533Y-53182371D01*
X113254771Y-53134752D01*
X113302390Y-53039514D01*
X113302390Y-52944276D01*
X113254771Y-52849038D01*
X113159533Y-52801419D01*
X112921438Y-52801419D01*
X112826200Y-52753800D01*
X112492867Y-52515705D02*
X112111914Y-52515705D01*
X112350010Y-52182371D02*
X112350010Y-53039514D01*
X112302390Y-53134752D01*
X112207152Y-53182371D01*
X112111914Y-53182371D01*
X111921438Y-52515705D02*
X111540486Y-52515705D01*
X111778581Y-52182371D02*
X111778581Y-53039514D01*
X111730962Y-53134752D01*
X111635724Y-53182371D01*
X111540486Y-53182371D01*
X110826200Y-53134752D02*
X110921438Y-53182371D01*
X111111914Y-53182371D01*
X111207152Y-53134752D01*
X111254771Y-53039514D01*
X111254771Y-52658562D01*
X111207152Y-52563324D01*
X111111914Y-52515705D01*
X110921438Y-52515705D01*
X110826200Y-52563324D01*
X110778581Y-52658562D01*
X110778581Y-52753800D01*
X111254771Y-52849038D01*
X110350010Y-53182371D02*
X110350010Y-52515705D01*
X110350010Y-52706181D02*
X110302390Y-52610943D01*
X110254771Y-52563324D01*
X110159533Y-52515705D01*
X110064295Y-52515705D01*
X109826200Y-52515705D02*
X109588105Y-53182371D01*
X109350010Y-52515705D02*
X109588105Y-53182371D01*
X109683343Y-53420467D01*
X109730962Y-53468086D01*
X109826200Y-53515705D01*
X113921438Y-120158619D02*
X113778581Y-120206238D01*
X113730962Y-120253857D01*
X113683343Y-120349095D01*
X113683343Y-120491952D01*
X113730962Y-120587190D01*
X113778581Y-120634809D01*
X113873819Y-120682428D01*
X114254771Y-120682428D01*
X114254771Y-119682428D01*
X113921438Y-119682428D01*
X113826200Y-119730048D01*
X113778581Y-119777667D01*
X113730962Y-119872905D01*
X113730962Y-119968143D01*
X113778581Y-120063381D01*
X113826200Y-120111000D01*
X113921438Y-120158619D01*
X114254771Y-120158619D01*
X112826200Y-120682428D02*
X112826200Y-120158619D01*
X112873819Y-120063381D01*
X112969057Y-120015762D01*
X113159533Y-120015762D01*
X113254771Y-120063381D01*
X112826200Y-120634809D02*
X112921438Y-120682428D01*
X113159533Y-120682428D01*
X113254771Y-120634809D01*
X113302390Y-120539571D01*
X113302390Y-120444333D01*
X113254771Y-120349095D01*
X113159533Y-120301476D01*
X112921438Y-120301476D01*
X112826200Y-120253857D01*
X112492867Y-120015762D02*
X112111914Y-120015762D01*
X112350010Y-119682428D02*
X112350010Y-120539571D01*
X112302390Y-120634809D01*
X112207152Y-120682428D01*
X112111914Y-120682428D01*
X111921438Y-120015762D02*
X111540486Y-120015762D01*
X111778581Y-119682428D02*
X111778581Y-120539571D01*
X111730962Y-120634809D01*
X111635724Y-120682428D01*
X111540486Y-120682428D01*
X110826200Y-120634809D02*
X110921438Y-120682428D01*
X111111914Y-120682428D01*
X111207152Y-120634809D01*
X111254771Y-120539571D01*
X111254771Y-120158619D01*
X111207152Y-120063381D01*
X111111914Y-120015762D01*
X110921438Y-120015762D01*
X110826200Y-120063381D01*
X110778581Y-120158619D01*
X110778581Y-120253857D01*
X111254771Y-120349095D01*
X110350010Y-120682428D02*
X110350010Y-120015762D01*
X110350010Y-120206238D02*
X110302390Y-120111000D01*
X110254771Y-120063381D01*
X110159533Y-120015762D01*
X110064295Y-120015762D01*
X109826200Y-120015762D02*
X109588105Y-120682428D01*
X109350010Y-120015762D02*
X109588105Y-120682428D01*
X109683343Y-120920524D01*
X109730962Y-120968143D01*
X109826200Y-121015762D01*
X64392847Y-95158600D02*
X64345228Y-95206219D01*
X64297609Y-95349076D01*
X64297609Y-95444314D01*
X64345228Y-95587171D01*
X64440466Y-95682409D01*
X64535704Y-95730029D01*
X64726180Y-95777648D01*
X64869037Y-95777648D01*
X65059513Y-95730029D01*
X65154751Y-95682409D01*
X65249990Y-95587171D01*
X65297609Y-95444314D01*
X65297609Y-95349076D01*
X65249990Y-95206219D01*
X65202370Y-95158600D01*
X64964275Y-94301457D02*
X64297609Y-94301457D01*
X64964275Y-94730029D02*
X64440466Y-94730029D01*
X64345228Y-94682409D01*
X64297609Y-94587171D01*
X64297609Y-94444314D01*
X64345228Y-94349076D01*
X64392847Y-94301457D01*
X64297609Y-93825267D02*
X64964275Y-93825267D01*
X64773799Y-93825267D02*
X64869037Y-93777648D01*
X64916656Y-93730029D01*
X64964275Y-93634790D01*
X64964275Y-93539552D01*
X64297609Y-93206219D02*
X64964275Y-93206219D01*
X64773799Y-93206219D02*
X64869037Y-93158600D01*
X64916656Y-93110981D01*
X64964275Y-93015743D01*
X64964275Y-92920505D01*
X64345228Y-92206219D02*
X64297609Y-92301457D01*
X64297609Y-92491933D01*
X64345228Y-92587171D01*
X64440466Y-92634790D01*
X64821418Y-92634790D01*
X64916656Y-92587171D01*
X64964275Y-92491933D01*
X64964275Y-92301457D01*
X64916656Y-92206219D01*
X64821418Y-92158600D01*
X64726180Y-92158600D01*
X64630942Y-92634790D01*
X64964275Y-91730029D02*
X64297609Y-91730029D01*
X64869037Y-91730029D02*
X64916656Y-91682409D01*
X64964275Y-91587171D01*
X64964275Y-91444314D01*
X64916656Y-91349076D01*
X64821418Y-91301457D01*
X64297609Y-91301457D01*
X64964275Y-90968124D02*
X64964275Y-90587171D01*
X65297609Y-90825267D02*
X64440466Y-90825267D01*
X64345228Y-90777648D01*
X64297609Y-90682409D01*
X64297609Y-90587171D01*
X64297609Y-59107133D02*
X64345228Y-59154752D01*
X64488085Y-59202371D01*
X64583323Y-59202371D01*
X64726180Y-59154752D01*
X64821418Y-59059514D01*
X64869037Y-58964276D01*
X64916656Y-58773800D01*
X64916656Y-58630943D01*
X64869037Y-58440467D01*
X64821418Y-58345229D01*
X64726180Y-58249991D01*
X64583323Y-58202371D01*
X64488085Y-58202371D01*
X64345228Y-58249991D01*
X64297609Y-58297610D01*
X63440466Y-58535705D02*
X63440466Y-59202371D01*
X63869037Y-58535705D02*
X63869037Y-59059514D01*
X63821418Y-59154752D01*
X63726180Y-59202371D01*
X63583323Y-59202371D01*
X63488085Y-59154752D01*
X63440466Y-59107133D01*
X62964275Y-59202371D02*
X62964275Y-58535705D01*
X62964275Y-58726181D02*
X62916656Y-58630943D01*
X62869037Y-58583324D01*
X62773799Y-58535705D01*
X62678561Y-58535705D01*
X62345228Y-59202371D02*
X62345228Y-58535705D01*
X62345228Y-58726181D02*
X62297609Y-58630943D01*
X62249990Y-58583324D01*
X62154751Y-58535705D01*
X62059513Y-58535705D01*
X61345228Y-59154752D02*
X61440466Y-59202371D01*
X61630942Y-59202371D01*
X61726180Y-59154752D01*
X61773799Y-59059514D01*
X61773799Y-58678562D01*
X61726180Y-58583324D01*
X61630942Y-58535705D01*
X61440466Y-58535705D01*
X61345228Y-58583324D01*
X61297609Y-58678562D01*
X61297609Y-58773800D01*
X61773799Y-58869038D01*
X60869037Y-58535705D02*
X60869037Y-59202371D01*
X60869037Y-58630943D02*
X60821418Y-58583324D01*
X60726180Y-58535705D01*
X60583323Y-58535705D01*
X60488085Y-58583324D01*
X60440466Y-58678562D01*
X60440466Y-59202371D01*
X60107132Y-58535705D02*
X59726180Y-58535705D01*
X59964275Y-58202371D02*
X59964275Y-59059514D01*
X59916656Y-59154752D01*
X59821418Y-59202371D01*
X59726180Y-59202371D01*
X58678561Y-59154752D02*
X58535704Y-59202371D01*
X58297609Y-59202371D01*
X58202370Y-59154752D01*
X58154751Y-59107133D01*
X58107132Y-59011895D01*
X58107132Y-58916657D01*
X58154751Y-58821419D01*
X58202370Y-58773800D01*
X58297609Y-58726181D01*
X58488085Y-58678562D01*
X58583323Y-58630943D01*
X58630942Y-58583324D01*
X58678561Y-58488086D01*
X58678561Y-58392848D01*
X58630942Y-58297610D01*
X58583323Y-58249991D01*
X58488085Y-58202371D01*
X58249990Y-58202371D01*
X58107132Y-58249991D01*
X57297609Y-59154752D02*
X57392847Y-59202371D01*
X57583323Y-59202371D01*
X57678561Y-59154752D01*
X57726180Y-59059514D01*
X57726180Y-58678562D01*
X57678561Y-58583324D01*
X57583323Y-58535705D01*
X57392847Y-58535705D01*
X57297609Y-58583324D01*
X57249990Y-58678562D01*
X57249990Y-58773800D01*
X57726180Y-58869038D01*
X56821418Y-58535705D02*
X56821418Y-59202371D01*
X56821418Y-58630943D02*
X56773799Y-58583324D01*
X56678561Y-58535705D01*
X56535704Y-58535705D01*
X56440466Y-58583324D01*
X56392847Y-58678562D01*
X56392847Y-59202371D01*
X55964275Y-59154752D02*
X55869037Y-59202371D01*
X55678561Y-59202371D01*
X55583323Y-59154752D01*
X55535704Y-59059514D01*
X55535704Y-59011895D01*
X55583323Y-58916657D01*
X55678561Y-58869038D01*
X55821418Y-58869038D01*
X55916656Y-58821419D01*
X55964275Y-58726181D01*
X55964275Y-58678562D01*
X55916656Y-58583324D01*
X55821418Y-58535705D01*
X55678561Y-58535705D01*
X55583323Y-58583324D01*
X54964275Y-59202371D02*
X55059513Y-59154752D01*
X55107132Y-59107133D01*
X55154751Y-59011895D01*
X55154751Y-58726181D01*
X55107132Y-58630943D01*
X55059513Y-58583324D01*
X54964275Y-58535705D01*
X54821418Y-58535705D01*
X54726180Y-58583324D01*
X54678561Y-58630943D01*
X54630942Y-58726181D01*
X54630942Y-59011895D01*
X54678561Y-59107133D01*
X54726180Y-59154752D01*
X54821418Y-59202371D01*
X54964275Y-59202371D01*
X54202370Y-59202371D02*
X54202370Y-58535705D01*
X54202370Y-58726181D02*
X54154751Y-58630943D01*
X54107132Y-58583324D01*
X54011894Y-58535705D01*
X53916656Y-58535705D01*
X52488085Y-58678562D02*
X52345228Y-58726181D01*
X52297609Y-58773800D01*
X52249990Y-58869038D01*
X52249990Y-59011895D01*
X52297609Y-59107133D01*
X52345228Y-59154752D01*
X52440466Y-59202371D01*
X52821418Y-59202371D01*
X52821418Y-58202371D01*
X52488085Y-58202371D01*
X52392847Y-58249991D01*
X52345228Y-58297610D01*
X52297609Y-58392848D01*
X52297609Y-58488086D01*
X52345228Y-58583324D01*
X52392847Y-58630943D01*
X52488085Y-58678562D01*
X52821418Y-58678562D01*
X51821418Y-59202371D02*
X51821418Y-58535705D01*
X51821418Y-58726181D02*
X51773799Y-58630943D01*
X51726180Y-58583324D01*
X51630942Y-58535705D01*
X51535704Y-58535705D01*
X50821418Y-59154752D02*
X50916656Y-59202371D01*
X51107132Y-59202371D01*
X51202370Y-59154752D01*
X51249990Y-59059514D01*
X51249990Y-58678562D01*
X51202370Y-58583324D01*
X51107132Y-58535705D01*
X50916656Y-58535705D01*
X50821418Y-58583324D01*
X50773799Y-58678562D01*
X50773799Y-58773800D01*
X51249990Y-58869038D01*
X49916656Y-59202371D02*
X49916656Y-58678562D01*
X49964275Y-58583324D01*
X50059513Y-58535705D01*
X50249990Y-58535705D01*
X50345228Y-58583324D01*
X49916656Y-59154752D02*
X50011894Y-59202371D01*
X50249990Y-59202371D01*
X50345228Y-59154752D01*
X50392847Y-59059514D01*
X50392847Y-58964276D01*
X50345228Y-58869038D01*
X50249990Y-58821419D01*
X50011894Y-58821419D01*
X49916656Y-58773800D01*
X49440466Y-59202371D02*
X49440466Y-58202371D01*
X49345228Y-58821419D02*
X49059513Y-59202371D01*
X49059513Y-58535705D02*
X49440466Y-58916657D01*
X48488085Y-59202371D02*
X48583323Y-59154752D01*
X48630942Y-59107133D01*
X48678561Y-59011895D01*
X48678561Y-58726181D01*
X48630942Y-58630943D01*
X48583323Y-58583324D01*
X48488085Y-58535705D01*
X48345228Y-58535705D01*
X48249990Y-58583324D01*
X48202370Y-58630943D01*
X48154751Y-58726181D01*
X48154751Y-59011895D01*
X48202370Y-59107133D01*
X48249990Y-59154752D01*
X48345228Y-59202371D01*
X48488085Y-59202371D01*
X47297609Y-58535705D02*
X47297609Y-59202371D01*
X47726180Y-58535705D02*
X47726180Y-59059514D01*
X47678561Y-59154752D01*
X47583323Y-59202371D01*
X47440466Y-59202371D01*
X47345228Y-59154752D01*
X47297609Y-59107133D01*
X46964275Y-58535705D02*
X46583323Y-58535705D01*
X46821418Y-58202371D02*
X46821418Y-59059514D01*
X46773799Y-59154752D01*
X46678561Y-59202371D01*
X46583323Y-59202371D01*
X45154751Y-58678562D02*
X45011894Y-58726181D01*
X44964275Y-58773800D01*
X44916656Y-58869038D01*
X44916656Y-59011895D01*
X44964275Y-59107133D01*
X45011894Y-59154752D01*
X45107132Y-59202371D01*
X45488085Y-59202371D01*
X45488085Y-58202371D01*
X45154751Y-58202371D01*
X45059513Y-58249991D01*
X45011894Y-58297610D01*
X44964275Y-58392848D01*
X44964275Y-58488086D01*
X45011894Y-58583324D01*
X45059513Y-58630943D01*
X45154751Y-58678562D01*
X45488085Y-58678562D01*
X44345228Y-59202371D02*
X44440466Y-59154752D01*
X44488085Y-59107133D01*
X44535704Y-59011895D01*
X44535704Y-58726181D01*
X44488085Y-58630943D01*
X44440466Y-58583324D01*
X44345228Y-58535705D01*
X44202370Y-58535705D01*
X44107132Y-58583324D01*
X44059513Y-58630943D01*
X44011894Y-58726181D01*
X44011894Y-59011895D01*
X44059513Y-59107133D01*
X44107132Y-59154752D01*
X44202370Y-59202371D01*
X44345228Y-59202371D01*
X43154751Y-59202371D02*
X43154751Y-58678562D01*
X43202370Y-58583324D01*
X43297609Y-58535705D01*
X43488085Y-58535705D01*
X43583323Y-58583324D01*
X43154751Y-59154752D02*
X43249990Y-59202371D01*
X43488085Y-59202371D01*
X43583323Y-59154752D01*
X43630942Y-59059514D01*
X43630942Y-58964276D01*
X43583323Y-58869038D01*
X43488085Y-58821419D01*
X43249990Y-58821419D01*
X43154751Y-58773800D01*
X42678561Y-59202371D02*
X42678561Y-58535705D01*
X42678561Y-58726181D02*
X42630942Y-58630943D01*
X42583323Y-58583324D01*
X42488085Y-58535705D01*
X42392847Y-58535705D01*
X41630942Y-59202371D02*
X41630942Y-58202371D01*
X41630942Y-59154752D02*
X41726180Y-59202371D01*
X41916656Y-59202371D01*
X42011894Y-59154752D01*
X42059513Y-59107133D01*
X42107132Y-59011895D01*
X42107132Y-58726181D01*
X42059513Y-58630943D01*
X42011894Y-58583324D01*
X41916656Y-58535705D01*
X41726180Y-58535705D01*
X41630942Y-58583324D01*
D11*
X30507132Y-92135743D02*
X30554751Y-92088124D01*
X30602370Y-91945267D01*
X30602370Y-91850029D01*
X30554751Y-91707171D01*
X30459513Y-91611933D01*
X30364275Y-91564314D01*
X30173799Y-91516695D01*
X30030942Y-91516695D01*
X29840466Y-91564314D01*
X29745228Y-91611933D01*
X29649990Y-91707171D01*
X29602370Y-91850029D01*
X29602370Y-91945267D01*
X29649990Y-92088124D01*
X29697609Y-92135743D01*
X30602370Y-92992886D02*
X30078561Y-92992886D01*
X29983323Y-92945267D01*
X29935704Y-92850029D01*
X29935704Y-92659552D01*
X29983323Y-92564314D01*
X30554751Y-92992886D02*
X30602370Y-92897648D01*
X30602370Y-92659552D01*
X30554751Y-92564314D01*
X30459513Y-92516695D01*
X30364275Y-92516695D01*
X30269037Y-92564314D01*
X30221418Y-92659552D01*
X30221418Y-92897648D01*
X30173799Y-92992886D01*
X30602370Y-93469076D02*
X29602370Y-93469076D01*
X29983323Y-93469076D02*
X29935704Y-93564314D01*
X29935704Y-93754790D01*
X29983323Y-93850029D01*
X30030942Y-93897648D01*
X30126180Y-93945267D01*
X30411894Y-93945267D01*
X30507132Y-93897648D01*
X30554751Y-93850029D01*
X30602370Y-93754790D01*
X30602370Y-93564314D01*
X30554751Y-93469076D01*
X30602370Y-94516695D02*
X30554751Y-94421457D01*
X30459513Y-94373838D01*
X29602370Y-94373838D01*
X30554751Y-95278600D02*
X30602370Y-95183362D01*
X30602370Y-94992886D01*
X30554751Y-94897648D01*
X30459513Y-94850029D01*
X30078561Y-94850029D01*
X29983323Y-94897648D01*
X29935704Y-94992886D01*
X29935704Y-95183362D01*
X29983323Y-95278600D01*
X30078561Y-95326219D01*
X30173799Y-95326219D01*
X30269037Y-94850029D01*
X29602370Y-96373838D02*
X29602370Y-96945267D01*
X30602370Y-96659552D02*
X29602370Y-96659552D01*
X30602370Y-97278600D02*
X29935704Y-97278600D01*
X29602370Y-97278600D02*
X29649990Y-97230981D01*
X29697609Y-97278600D01*
X29649990Y-97326219D01*
X29602370Y-97278600D01*
X29697609Y-97278600D01*
X30554751Y-98135743D02*
X30602370Y-98040505D01*
X30602370Y-97850029D01*
X30554751Y-97754790D01*
X30459513Y-97707171D01*
X30078561Y-97707171D01*
X29983323Y-97754790D01*
X29935704Y-97850029D01*
X29935704Y-98040505D01*
X29983323Y-98135743D01*
X30078561Y-98183362D01*
X30173799Y-98183362D01*
X30269037Y-97707171D01*
D10*
X112797629Y-126607190D02*
X112845248Y-126654809D01*
X112988105Y-126702428D01*
X113083343Y-126702428D01*
X113226200Y-126654809D01*
X113321438Y-126559571D01*
X113369057Y-126464333D01*
X113416676Y-126273857D01*
X113416676Y-126131000D01*
X113369057Y-125940524D01*
X113321438Y-125845286D01*
X113226200Y-125750048D01*
X113083343Y-125702428D01*
X112988105Y-125702428D01*
X112845248Y-125750048D01*
X112797629Y-125797667D01*
X111940486Y-126035762D02*
X111940486Y-126702428D01*
X112369057Y-126035762D02*
X112369057Y-126559571D01*
X112321438Y-126654809D01*
X112226200Y-126702428D01*
X112083343Y-126702428D01*
X111988105Y-126654809D01*
X111940486Y-126607190D01*
X111464295Y-126702428D02*
X111464295Y-126035762D01*
X111464295Y-126226238D02*
X111416676Y-126131000D01*
X111369057Y-126083381D01*
X111273819Y-126035762D01*
X111178581Y-126035762D01*
X110845248Y-126702428D02*
X110845248Y-126035762D01*
X110845248Y-126226238D02*
X110797629Y-126131000D01*
X110750010Y-126083381D01*
X110654771Y-126035762D01*
X110559533Y-126035762D01*
X109845248Y-126654809D02*
X109940486Y-126702428D01*
X110130962Y-126702428D01*
X110226200Y-126654809D01*
X110273819Y-126559571D01*
X110273819Y-126178619D01*
X110226200Y-126083381D01*
X110130962Y-126035762D01*
X109940486Y-126035762D01*
X109845248Y-126083381D01*
X109797629Y-126178619D01*
X109797629Y-126273857D01*
X110273819Y-126369095D01*
X109369057Y-126035762D02*
X109369057Y-126702428D01*
X109369057Y-126131000D02*
X109321438Y-126083381D01*
X109226200Y-126035762D01*
X109083343Y-126035762D01*
X108988105Y-126083381D01*
X108940486Y-126178619D01*
X108940486Y-126702428D01*
X108607152Y-126035762D02*
X108226200Y-126035762D01*
X108464295Y-125702428D02*
X108464295Y-126559571D01*
X108416676Y-126654809D01*
X108321438Y-126702428D01*
X108226200Y-126702428D01*
X107178581Y-126654809D02*
X107035724Y-126702428D01*
X106797629Y-126702428D01*
X106702390Y-126654809D01*
X106654771Y-126607190D01*
X106607152Y-126511952D01*
X106607152Y-126416714D01*
X106654771Y-126321476D01*
X106702390Y-126273857D01*
X106797629Y-126226238D01*
X106988105Y-126178619D01*
X107083343Y-126131000D01*
X107130962Y-126083381D01*
X107178581Y-125988143D01*
X107178581Y-125892905D01*
X107130962Y-125797667D01*
X107083343Y-125750048D01*
X106988105Y-125702428D01*
X106750010Y-125702428D01*
X106607152Y-125750048D01*
X105797629Y-126654809D02*
X105892867Y-126702428D01*
X106083343Y-126702428D01*
X106178581Y-126654809D01*
X106226200Y-126559571D01*
X106226200Y-126178619D01*
X106178581Y-126083381D01*
X106083343Y-126035762D01*
X105892867Y-126035762D01*
X105797629Y-126083381D01*
X105750010Y-126178619D01*
X105750010Y-126273857D01*
X106226200Y-126369095D01*
X105321438Y-126035762D02*
X105321438Y-126702428D01*
X105321438Y-126131000D02*
X105273819Y-126083381D01*
X105178581Y-126035762D01*
X105035724Y-126035762D01*
X104940486Y-126083381D01*
X104892867Y-126178619D01*
X104892867Y-126702428D01*
X104464295Y-126654809D02*
X104369057Y-126702428D01*
X104178581Y-126702428D01*
X104083343Y-126654809D01*
X104035724Y-126559571D01*
X104035724Y-126511952D01*
X104083343Y-126416714D01*
X104178581Y-126369095D01*
X104321438Y-126369095D01*
X104416676Y-126321476D01*
X104464295Y-126226238D01*
X104464295Y-126178619D01*
X104416676Y-126083381D01*
X104321438Y-126035762D01*
X104178581Y-126035762D01*
X104083343Y-126083381D01*
X103464295Y-126702428D02*
X103559533Y-126654809D01*
X103607152Y-126607190D01*
X103654771Y-126511952D01*
X103654771Y-126226238D01*
X103607152Y-126131000D01*
X103559533Y-126083381D01*
X103464295Y-126035762D01*
X103321438Y-126035762D01*
X103226200Y-126083381D01*
X103178581Y-126131000D01*
X103130962Y-126226238D01*
X103130962Y-126511952D01*
X103178581Y-126607190D01*
X103226200Y-126654809D01*
X103321438Y-126702428D01*
X103464295Y-126702428D01*
X102702390Y-126702428D02*
X102702390Y-126035762D01*
X102702390Y-126226238D02*
X102654771Y-126131000D01*
X102607152Y-126083381D01*
X102511914Y-126035762D01*
X102416676Y-126035762D01*
X100988105Y-126178619D02*
X100845248Y-126226238D01*
X100797629Y-126273857D01*
X100750010Y-126369095D01*
X100750010Y-126511952D01*
X100797629Y-126607190D01*
X100845248Y-126654809D01*
X100940486Y-126702428D01*
X101321438Y-126702428D01*
X101321438Y-125702428D01*
X100988105Y-125702428D01*
X100892867Y-125750048D01*
X100845248Y-125797667D01*
X100797629Y-125892905D01*
X100797629Y-125988143D01*
X100845248Y-126083381D01*
X100892867Y-126131000D01*
X100988105Y-126178619D01*
X101321438Y-126178619D01*
X100321438Y-126702428D02*
X100321438Y-126035762D01*
X100321438Y-126226238D02*
X100273819Y-126131000D01*
X100226200Y-126083381D01*
X100130962Y-126035762D01*
X100035724Y-126035762D01*
X99321438Y-126654809D02*
X99416676Y-126702428D01*
X99607152Y-126702428D01*
X99702390Y-126654809D01*
X99750010Y-126559571D01*
X99750010Y-126178619D01*
X99702390Y-126083381D01*
X99607152Y-126035762D01*
X99416676Y-126035762D01*
X99321438Y-126083381D01*
X99273819Y-126178619D01*
X99273819Y-126273857D01*
X99750010Y-126369095D01*
X98416676Y-126702428D02*
X98416676Y-126178619D01*
X98464295Y-126083381D01*
X98559533Y-126035762D01*
X98750010Y-126035762D01*
X98845248Y-126083381D01*
X98416676Y-126654809D02*
X98511914Y-126702428D01*
X98750010Y-126702428D01*
X98845248Y-126654809D01*
X98892867Y-126559571D01*
X98892867Y-126464333D01*
X98845248Y-126369095D01*
X98750010Y-126321476D01*
X98511914Y-126321476D01*
X98416676Y-126273857D01*
X97940486Y-126702428D02*
X97940486Y-125702428D01*
X97845248Y-126321476D02*
X97559533Y-126702428D01*
X97559533Y-126035762D02*
X97940486Y-126416714D01*
X96988105Y-126702428D02*
X97083343Y-126654809D01*
X97130962Y-126607190D01*
X97178581Y-126511952D01*
X97178581Y-126226238D01*
X97130962Y-126131000D01*
X97083343Y-126083381D01*
X96988105Y-126035762D01*
X96845248Y-126035762D01*
X96750010Y-126083381D01*
X96702390Y-126131000D01*
X96654771Y-126226238D01*
X96654771Y-126511952D01*
X96702390Y-126607190D01*
X96750010Y-126654809D01*
X96845248Y-126702428D01*
X96988105Y-126702428D01*
X95797629Y-126035762D02*
X95797629Y-126702428D01*
X96226200Y-126035762D02*
X96226200Y-126559571D01*
X96178581Y-126654809D01*
X96083343Y-126702428D01*
X95940486Y-126702428D01*
X95845248Y-126654809D01*
X95797629Y-126607190D01*
X95464295Y-126035762D02*
X95083343Y-126035762D01*
X95321438Y-125702428D02*
X95321438Y-126559571D01*
X95273819Y-126654809D01*
X95178581Y-126702428D01*
X95083343Y-126702428D01*
X93654771Y-126178619D02*
X93511914Y-126226238D01*
X93464295Y-126273857D01*
X93416676Y-126369095D01*
X93416676Y-126511952D01*
X93464295Y-126607190D01*
X93511914Y-126654809D01*
X93607152Y-126702428D01*
X93988105Y-126702428D01*
X93988105Y-125702428D01*
X93654771Y-125702428D01*
X93559533Y-125750048D01*
X93511914Y-125797667D01*
X93464295Y-125892905D01*
X93464295Y-125988143D01*
X93511914Y-126083381D01*
X93559533Y-126131000D01*
X93654771Y-126178619D01*
X93988105Y-126178619D01*
X92845248Y-126702428D02*
X92940486Y-126654809D01*
X92988105Y-126607190D01*
X93035724Y-126511952D01*
X93035724Y-126226238D01*
X92988105Y-126131000D01*
X92940486Y-126083381D01*
X92845248Y-126035762D01*
X92702390Y-126035762D01*
X92607152Y-126083381D01*
X92559533Y-126131000D01*
X92511914Y-126226238D01*
X92511914Y-126511952D01*
X92559533Y-126607190D01*
X92607152Y-126654809D01*
X92702390Y-126702428D01*
X92845248Y-126702428D01*
X91654771Y-126702428D02*
X91654771Y-126178619D01*
X91702390Y-126083381D01*
X91797629Y-126035762D01*
X91988105Y-126035762D01*
X92083343Y-126083381D01*
X91654771Y-126654809D02*
X91750010Y-126702428D01*
X91988105Y-126702428D01*
X92083343Y-126654809D01*
X92130962Y-126559571D01*
X92130962Y-126464333D01*
X92083343Y-126369095D01*
X91988105Y-126321476D01*
X91750010Y-126321476D01*
X91654771Y-126273857D01*
X91178581Y-126702428D02*
X91178581Y-126035762D01*
X91178581Y-126226238D02*
X91130962Y-126131000D01*
X91083343Y-126083381D01*
X90988105Y-126035762D01*
X90892867Y-126035762D01*
X90130962Y-126702428D02*
X90130962Y-125702428D01*
X90130962Y-126654809D02*
X90226200Y-126702428D01*
X90416676Y-126702428D01*
X90511914Y-126654809D01*
X90559533Y-126607190D01*
X90607152Y-126511952D01*
X90607152Y-126226238D01*
X90559533Y-126131000D01*
X90511914Y-126083381D01*
X90416676Y-126035762D01*
X90226200Y-126035762D01*
X90130962Y-126083381D01*
X113683343Y-64982390D02*
X113683343Y-63982390D01*
X113350010Y-64696676D01*
X113016676Y-63982390D01*
X113016676Y-64982390D01*
X112397629Y-64982390D02*
X112492867Y-64934771D01*
X112540486Y-64887152D01*
X112588105Y-64791914D01*
X112588105Y-64506200D01*
X112540486Y-64410962D01*
X112492867Y-64363343D01*
X112397629Y-64315724D01*
X112254771Y-64315724D01*
X112159533Y-64363343D01*
X112111914Y-64410962D01*
X112064295Y-64506200D01*
X112064295Y-64791914D01*
X112111914Y-64887152D01*
X112159533Y-64934771D01*
X112254771Y-64982390D01*
X112397629Y-64982390D01*
X111778581Y-64315724D02*
X111397629Y-64315724D01*
X111635724Y-63982390D02*
X111635724Y-64839533D01*
X111588105Y-64934771D01*
X111492867Y-64982390D01*
X111397629Y-64982390D01*
X110921438Y-64982390D02*
X111016676Y-64934771D01*
X111064295Y-64887152D01*
X111111914Y-64791914D01*
X111111914Y-64506200D01*
X111064295Y-64410962D01*
X111016676Y-64363343D01*
X110921438Y-64315724D01*
X110778581Y-64315724D01*
X110683343Y-64363343D01*
X110635724Y-64410962D01*
X110588105Y-64506200D01*
X110588105Y-64791914D01*
X110635724Y-64887152D01*
X110683343Y-64934771D01*
X110778581Y-64982390D01*
X110921438Y-64982390D01*
X110159533Y-64982390D02*
X110159533Y-64315724D01*
X110159533Y-64506200D02*
X110111914Y-64410962D01*
X110064295Y-64363343D01*
X109969057Y-64315724D01*
X109873819Y-64315724D01*
X112892867Y-50158562D02*
X112845248Y-50206181D01*
X112797629Y-50349038D01*
X112797629Y-50444276D01*
X112845248Y-50587133D01*
X112940486Y-50682371D01*
X113035724Y-50729991D01*
X113226200Y-50777610D01*
X113369057Y-50777610D01*
X113559533Y-50729991D01*
X113654771Y-50682371D01*
X113750010Y-50587133D01*
X113797629Y-50444276D01*
X113797629Y-50349038D01*
X113750010Y-50206181D01*
X113702390Y-50158562D01*
X113464295Y-49301419D02*
X112797629Y-49301419D01*
X113464295Y-49729991D02*
X112940486Y-49729991D01*
X112845248Y-49682371D01*
X112797629Y-49587133D01*
X112797629Y-49444276D01*
X112845248Y-49349038D01*
X112892867Y-49301419D01*
X112797629Y-48825229D02*
X113464295Y-48825229D01*
X113273819Y-48825229D02*
X113369057Y-48777610D01*
X113416676Y-48729991D01*
X113464295Y-48634752D01*
X113464295Y-48539514D01*
X112797629Y-48206181D02*
X113464295Y-48206181D01*
X113273819Y-48206181D02*
X113369057Y-48158562D01*
X113416676Y-48110943D01*
X113464295Y-48015705D01*
X113464295Y-47920467D01*
X112845248Y-47206181D02*
X112797629Y-47301419D01*
X112797629Y-47491895D01*
X112845248Y-47587133D01*
X112940486Y-47634752D01*
X113321438Y-47634752D01*
X113416676Y-47587133D01*
X113464295Y-47491895D01*
X113464295Y-47301419D01*
X113416676Y-47206181D01*
X113321438Y-47158562D01*
X113226200Y-47158562D01*
X113130962Y-47634752D01*
X113464295Y-46729991D02*
X112797629Y-46729991D01*
X113369057Y-46729991D02*
X113416676Y-46682371D01*
X113464295Y-46587133D01*
X113464295Y-46444276D01*
X113416676Y-46349038D01*
X113321438Y-46301419D01*
X112797629Y-46301419D01*
X113464295Y-45968086D02*
X113464295Y-45587133D01*
X113797629Y-45825229D02*
X112940486Y-45825229D01*
X112845248Y-45777610D01*
X112797629Y-45682371D01*
X112797629Y-45587133D01*
X65421418Y-120158619D02*
X65278561Y-120206238D01*
X65230942Y-120253857D01*
X65183323Y-120349095D01*
X65183323Y-120491952D01*
X65230942Y-120587190D01*
X65278561Y-120634809D01*
X65373799Y-120682428D01*
X65754751Y-120682428D01*
X65754751Y-119682428D01*
X65421418Y-119682428D01*
X65326180Y-119730048D01*
X65278561Y-119777667D01*
X65230942Y-119872905D01*
X65230942Y-119968143D01*
X65278561Y-120063381D01*
X65326180Y-120111000D01*
X65421418Y-120158619D01*
X65754751Y-120158619D01*
X64326180Y-120682428D02*
X64326180Y-120158619D01*
X64373799Y-120063381D01*
X64469037Y-120015762D01*
X64659513Y-120015762D01*
X64754751Y-120063381D01*
X64326180Y-120634809D02*
X64421418Y-120682428D01*
X64659513Y-120682428D01*
X64754751Y-120634809D01*
X64802370Y-120539571D01*
X64802370Y-120444333D01*
X64754751Y-120349095D01*
X64659513Y-120301476D01*
X64421418Y-120301476D01*
X64326180Y-120253857D01*
X63992847Y-120015762D02*
X63611894Y-120015762D01*
X63849990Y-119682428D02*
X63849990Y-120539571D01*
X63802370Y-120634809D01*
X63707132Y-120682428D01*
X63611894Y-120682428D01*
X63421418Y-120015762D02*
X63040466Y-120015762D01*
X63278561Y-119682428D02*
X63278561Y-120539571D01*
X63230942Y-120634809D01*
X63135704Y-120682428D01*
X63040466Y-120682428D01*
X62326180Y-120634809D02*
X62421418Y-120682428D01*
X62611894Y-120682428D01*
X62707132Y-120634809D01*
X62754751Y-120539571D01*
X62754751Y-120158619D01*
X62707132Y-120063381D01*
X62611894Y-120015762D01*
X62421418Y-120015762D01*
X62326180Y-120063381D01*
X62278561Y-120158619D01*
X62278561Y-120253857D01*
X62754751Y-120349095D01*
X61849990Y-120682428D02*
X61849990Y-120015762D01*
X61849990Y-120206238D02*
X61802370Y-120111000D01*
X61754751Y-120063381D01*
X61659513Y-120015762D01*
X61564275Y-120015762D01*
X61326180Y-120015762D02*
X61088085Y-120682428D01*
X60849990Y-120015762D02*
X61088085Y-120682428D01*
X61183323Y-120920524D01*
X61230942Y-120968143D01*
X61326180Y-121015762D01*
X65183323Y-42482371D02*
X65183323Y-41482371D01*
X64849990Y-42196657D01*
X64516656Y-41482371D01*
X64516656Y-42482371D01*
X63897609Y-42482371D02*
X63992847Y-42434752D01*
X64040466Y-42387133D01*
X64088085Y-42291895D01*
X64088085Y-42006181D01*
X64040466Y-41910943D01*
X63992847Y-41863324D01*
X63897609Y-41815705D01*
X63754751Y-41815705D01*
X63659513Y-41863324D01*
X63611894Y-41910943D01*
X63564275Y-42006181D01*
X63564275Y-42291895D01*
X63611894Y-42387133D01*
X63659513Y-42434752D01*
X63754751Y-42482371D01*
X63897609Y-42482371D01*
X63278561Y-41815705D02*
X62897609Y-41815705D01*
X63135704Y-41482371D02*
X63135704Y-42339514D01*
X63088085Y-42434752D01*
X62992847Y-42482371D01*
X62897609Y-42482371D01*
X62421418Y-42482371D02*
X62516656Y-42434752D01*
X62564275Y-42387133D01*
X62611894Y-42291895D01*
X62611894Y-42006181D01*
X62564275Y-41910943D01*
X62516656Y-41863324D01*
X62421418Y-41815705D01*
X62278561Y-41815705D01*
X62183323Y-41863324D01*
X62135704Y-41910943D01*
X62088085Y-42006181D01*
X62088085Y-42291895D01*
X62135704Y-42387133D01*
X62183323Y-42434752D01*
X62278561Y-42482371D01*
X62421418Y-42482371D01*
X61659513Y-42482371D02*
X61659513Y-41815705D01*
X61659513Y-42006181D02*
X61611894Y-41910943D01*
X61564275Y-41863324D01*
X61469037Y-41815705D01*
X61373799Y-41815705D01*
D11*
X30507132Y-114635762D02*
X30554751Y-114588143D01*
X30602370Y-114445286D01*
X30602370Y-114350048D01*
X30554751Y-114207190D01*
X30459513Y-114111952D01*
X30364275Y-114064333D01*
X30173799Y-114016714D01*
X30030942Y-114016714D01*
X29840466Y-114064333D01*
X29745228Y-114111952D01*
X29649990Y-114207190D01*
X29602370Y-114350048D01*
X29602370Y-114445286D01*
X29649990Y-114588143D01*
X29697609Y-114635762D01*
X30602370Y-115492905D02*
X30078561Y-115492905D01*
X29983323Y-115445286D01*
X29935704Y-115350048D01*
X29935704Y-115159571D01*
X29983323Y-115064333D01*
X30554751Y-115492905D02*
X30602370Y-115397667D01*
X30602370Y-115159571D01*
X30554751Y-115064333D01*
X30459513Y-115016714D01*
X30364275Y-115016714D01*
X30269037Y-115064333D01*
X30221418Y-115159571D01*
X30221418Y-115397667D01*
X30173799Y-115492905D01*
X30602370Y-115969095D02*
X29602370Y-115969095D01*
X29983323Y-115969095D02*
X29935704Y-116064333D01*
X29935704Y-116254809D01*
X29983323Y-116350048D01*
X30030942Y-116397667D01*
X30126180Y-116445286D01*
X30411894Y-116445286D01*
X30507132Y-116397667D01*
X30554751Y-116350048D01*
X30602370Y-116254809D01*
X30602370Y-116064333D01*
X30554751Y-115969095D01*
X30602370Y-117016714D02*
X30554751Y-116921476D01*
X30459513Y-116873857D01*
X29602370Y-116873857D01*
X30554751Y-117778619D02*
X30602370Y-117683381D01*
X30602370Y-117492905D01*
X30554751Y-117397667D01*
X30459513Y-117350048D01*
X30078561Y-117350048D01*
X29983323Y-117397667D01*
X29935704Y-117492905D01*
X29935704Y-117683381D01*
X29983323Y-117778619D01*
X30078561Y-117826238D01*
X30173799Y-117826238D01*
X30269037Y-117350048D01*
X29602370Y-118873857D02*
X29602370Y-119445286D01*
X30602370Y-119159571D02*
X29602370Y-119159571D01*
X30602370Y-119778619D02*
X29935704Y-119778619D01*
X29602370Y-119778619D02*
X29649990Y-119731000D01*
X29697609Y-119778619D01*
X29649990Y-119826238D01*
X29602370Y-119778619D01*
X29697609Y-119778619D01*
X30554751Y-120635762D02*
X30602370Y-120540524D01*
X30602370Y-120350048D01*
X30554751Y-120254809D01*
X30459513Y-120207190D01*
X30078561Y-120207190D01*
X29983323Y-120254809D01*
X29935704Y-120350048D01*
X29935704Y-120540524D01*
X29983323Y-120635762D01*
X30078561Y-120683381D01*
X30173799Y-120683381D01*
X30269037Y-120207190D01*
D10*
X113921438Y-75158581D02*
X113778581Y-75206200D01*
X113730962Y-75253819D01*
X113683343Y-75349057D01*
X113683343Y-75491914D01*
X113730962Y-75587152D01*
X113778581Y-75634771D01*
X113873819Y-75682390D01*
X114254771Y-75682390D01*
X114254771Y-74682390D01*
X113921438Y-74682390D01*
X113826200Y-74730010D01*
X113778581Y-74777629D01*
X113730962Y-74872867D01*
X113730962Y-74968105D01*
X113778581Y-75063343D01*
X113826200Y-75110962D01*
X113921438Y-75158581D01*
X114254771Y-75158581D01*
X112826200Y-75682390D02*
X112826200Y-75158581D01*
X112873819Y-75063343D01*
X112969057Y-75015724D01*
X113159533Y-75015724D01*
X113254771Y-75063343D01*
X112826200Y-75634771D02*
X112921438Y-75682390D01*
X113159533Y-75682390D01*
X113254771Y-75634771D01*
X113302390Y-75539533D01*
X113302390Y-75444295D01*
X113254771Y-75349057D01*
X113159533Y-75301438D01*
X112921438Y-75301438D01*
X112826200Y-75253819D01*
X112492867Y-75015724D02*
X112111914Y-75015724D01*
X112350010Y-74682390D02*
X112350010Y-75539533D01*
X112302390Y-75634771D01*
X112207152Y-75682390D01*
X112111914Y-75682390D01*
X111921438Y-75015724D02*
X111540486Y-75015724D01*
X111778581Y-74682390D02*
X111778581Y-75539533D01*
X111730962Y-75634771D01*
X111635724Y-75682390D01*
X111540486Y-75682390D01*
X110826200Y-75634771D02*
X110921438Y-75682390D01*
X111111914Y-75682390D01*
X111207152Y-75634771D01*
X111254771Y-75539533D01*
X111254771Y-75158581D01*
X111207152Y-75063343D01*
X111111914Y-75015724D01*
X110921438Y-75015724D01*
X110826200Y-75063343D01*
X110778581Y-75158581D01*
X110778581Y-75253819D01*
X111254771Y-75349057D01*
X110350010Y-75682390D02*
X110350010Y-75015724D01*
X110350010Y-75206200D02*
X110302390Y-75110962D01*
X110254771Y-75063343D01*
X110159533Y-75015724D01*
X110064295Y-75015724D01*
X109826200Y-75015724D02*
X109588105Y-75682390D01*
X109350010Y-75015724D02*
X109588105Y-75682390D01*
X109683343Y-75920486D01*
X109730962Y-75968105D01*
X109826200Y-76015724D01*
D11*
X79007152Y-47135705D02*
X79054771Y-47088086D01*
X79102390Y-46945229D01*
X79102390Y-46849991D01*
X79054771Y-46707133D01*
X78959533Y-46611895D01*
X78864295Y-46564276D01*
X78673819Y-46516657D01*
X78530962Y-46516657D01*
X78340486Y-46564276D01*
X78245248Y-46611895D01*
X78150010Y-46707133D01*
X78102390Y-46849991D01*
X78102390Y-46945229D01*
X78150010Y-47088086D01*
X78197629Y-47135705D01*
X79102390Y-47992848D02*
X78578581Y-47992848D01*
X78483343Y-47945229D01*
X78435724Y-47849991D01*
X78435724Y-47659514D01*
X78483343Y-47564276D01*
X79054771Y-47992848D02*
X79102390Y-47897610D01*
X79102390Y-47659514D01*
X79054771Y-47564276D01*
X78959533Y-47516657D01*
X78864295Y-47516657D01*
X78769057Y-47564276D01*
X78721438Y-47659514D01*
X78721438Y-47897610D01*
X78673819Y-47992848D01*
X79102390Y-48469038D02*
X78102390Y-48469038D01*
X78483343Y-48469038D02*
X78435724Y-48564276D01*
X78435724Y-48754752D01*
X78483343Y-48849991D01*
X78530962Y-48897610D01*
X78626200Y-48945229D01*
X78911914Y-48945229D01*
X79007152Y-48897610D01*
X79054771Y-48849991D01*
X79102390Y-48754752D01*
X79102390Y-48564276D01*
X79054771Y-48469038D01*
X79102390Y-49516657D02*
X79054771Y-49421419D01*
X78959533Y-49373800D01*
X78102390Y-49373800D01*
X79054771Y-50278562D02*
X79102390Y-50183324D01*
X79102390Y-49992848D01*
X79054771Y-49897610D01*
X78959533Y-49849991D01*
X78578581Y-49849991D01*
X78483343Y-49897610D01*
X78435724Y-49992848D01*
X78435724Y-50183324D01*
X78483343Y-50278562D01*
X78578581Y-50326181D01*
X78673819Y-50326181D01*
X78769057Y-49849991D01*
X78102390Y-51373800D02*
X78102390Y-51945229D01*
X79102390Y-51659514D02*
X78102390Y-51659514D01*
X79102390Y-52278562D02*
X78435724Y-52278562D01*
X78102390Y-52278562D02*
X78150010Y-52230943D01*
X78197629Y-52278562D01*
X78150010Y-52326181D01*
X78102390Y-52278562D01*
X78197629Y-52278562D01*
X79054771Y-53135705D02*
X79102390Y-53040467D01*
X79102390Y-52849991D01*
X79054771Y-52754752D01*
X78959533Y-52707133D01*
X78578581Y-52707133D01*
X78483343Y-52754752D01*
X78435724Y-52849991D01*
X78435724Y-53040467D01*
X78483343Y-53135705D01*
X78578581Y-53183324D01*
X78673819Y-53183324D01*
X78769057Y-52707133D01*
D10*
X64297609Y-81607152D02*
X64345228Y-81654771D01*
X64488085Y-81702390D01*
X64583323Y-81702390D01*
X64726180Y-81654771D01*
X64821418Y-81559533D01*
X64869037Y-81464295D01*
X64916656Y-81273819D01*
X64916656Y-81130962D01*
X64869037Y-80940486D01*
X64821418Y-80845248D01*
X64726180Y-80750010D01*
X64583323Y-80702390D01*
X64488085Y-80702390D01*
X64345228Y-80750010D01*
X64297609Y-80797629D01*
X63440466Y-81035724D02*
X63440466Y-81702390D01*
X63869037Y-81035724D02*
X63869037Y-81559533D01*
X63821418Y-81654771D01*
X63726180Y-81702390D01*
X63583323Y-81702390D01*
X63488085Y-81654771D01*
X63440466Y-81607152D01*
X62964275Y-81702390D02*
X62964275Y-81035724D01*
X62964275Y-81226200D02*
X62916656Y-81130962D01*
X62869037Y-81083343D01*
X62773799Y-81035724D01*
X62678561Y-81035724D01*
X62345228Y-81702390D02*
X62345228Y-81035724D01*
X62345228Y-81226200D02*
X62297609Y-81130962D01*
X62249990Y-81083343D01*
X62154751Y-81035724D01*
X62059513Y-81035724D01*
X61345228Y-81654771D02*
X61440466Y-81702390D01*
X61630942Y-81702390D01*
X61726180Y-81654771D01*
X61773799Y-81559533D01*
X61773799Y-81178581D01*
X61726180Y-81083343D01*
X61630942Y-81035724D01*
X61440466Y-81035724D01*
X61345228Y-81083343D01*
X61297609Y-81178581D01*
X61297609Y-81273819D01*
X61773799Y-81369057D01*
X60869037Y-81035724D02*
X60869037Y-81702390D01*
X60869037Y-81130962D02*
X60821418Y-81083343D01*
X60726180Y-81035724D01*
X60583323Y-81035724D01*
X60488085Y-81083343D01*
X60440466Y-81178581D01*
X60440466Y-81702390D01*
X60107132Y-81035724D02*
X59726180Y-81035724D01*
X59964275Y-80702390D02*
X59964275Y-81559533D01*
X59916656Y-81654771D01*
X59821418Y-81702390D01*
X59726180Y-81702390D01*
X58678561Y-81654771D02*
X58535704Y-81702390D01*
X58297609Y-81702390D01*
X58202370Y-81654771D01*
X58154751Y-81607152D01*
X58107132Y-81511914D01*
X58107132Y-81416676D01*
X58154751Y-81321438D01*
X58202370Y-81273819D01*
X58297609Y-81226200D01*
X58488085Y-81178581D01*
X58583323Y-81130962D01*
X58630942Y-81083343D01*
X58678561Y-80988105D01*
X58678561Y-80892867D01*
X58630942Y-80797629D01*
X58583323Y-80750010D01*
X58488085Y-80702390D01*
X58249990Y-80702390D01*
X58107132Y-80750010D01*
X57297609Y-81654771D02*
X57392847Y-81702390D01*
X57583323Y-81702390D01*
X57678561Y-81654771D01*
X57726180Y-81559533D01*
X57726180Y-81178581D01*
X57678561Y-81083343D01*
X57583323Y-81035724D01*
X57392847Y-81035724D01*
X57297609Y-81083343D01*
X57249990Y-81178581D01*
X57249990Y-81273819D01*
X57726180Y-81369057D01*
X56821418Y-81035724D02*
X56821418Y-81702390D01*
X56821418Y-81130962D02*
X56773799Y-81083343D01*
X56678561Y-81035724D01*
X56535704Y-81035724D01*
X56440466Y-81083343D01*
X56392847Y-81178581D01*
X56392847Y-81702390D01*
X55964275Y-81654771D02*
X55869037Y-81702390D01*
X55678561Y-81702390D01*
X55583323Y-81654771D01*
X55535704Y-81559533D01*
X55535704Y-81511914D01*
X55583323Y-81416676D01*
X55678561Y-81369057D01*
X55821418Y-81369057D01*
X55916656Y-81321438D01*
X55964275Y-81226200D01*
X55964275Y-81178581D01*
X55916656Y-81083343D01*
X55821418Y-81035724D01*
X55678561Y-81035724D01*
X55583323Y-81083343D01*
X54964275Y-81702390D02*
X55059513Y-81654771D01*
X55107132Y-81607152D01*
X55154751Y-81511914D01*
X55154751Y-81226200D01*
X55107132Y-81130962D01*
X55059513Y-81083343D01*
X54964275Y-81035724D01*
X54821418Y-81035724D01*
X54726180Y-81083343D01*
X54678561Y-81130962D01*
X54630942Y-81226200D01*
X54630942Y-81511914D01*
X54678561Y-81607152D01*
X54726180Y-81654771D01*
X54821418Y-81702390D01*
X54964275Y-81702390D01*
X54202370Y-81702390D02*
X54202370Y-81035724D01*
X54202370Y-81226200D02*
X54154751Y-81130962D01*
X54107132Y-81083343D01*
X54011894Y-81035724D01*
X53916656Y-81035724D01*
X52488085Y-81178581D02*
X52345228Y-81226200D01*
X52297609Y-81273819D01*
X52249990Y-81369057D01*
X52249990Y-81511914D01*
X52297609Y-81607152D01*
X52345228Y-81654771D01*
X52440466Y-81702390D01*
X52821418Y-81702390D01*
X52821418Y-80702390D01*
X52488085Y-80702390D01*
X52392847Y-80750010D01*
X52345228Y-80797629D01*
X52297609Y-80892867D01*
X52297609Y-80988105D01*
X52345228Y-81083343D01*
X52392847Y-81130962D01*
X52488085Y-81178581D01*
X52821418Y-81178581D01*
X51821418Y-81702390D02*
X51821418Y-81035724D01*
X51821418Y-81226200D02*
X51773799Y-81130962D01*
X51726180Y-81083343D01*
X51630942Y-81035724D01*
X51535704Y-81035724D01*
X50821418Y-81654771D02*
X50916656Y-81702390D01*
X51107132Y-81702390D01*
X51202370Y-81654771D01*
X51249990Y-81559533D01*
X51249990Y-81178581D01*
X51202370Y-81083343D01*
X51107132Y-81035724D01*
X50916656Y-81035724D01*
X50821418Y-81083343D01*
X50773799Y-81178581D01*
X50773799Y-81273819D01*
X51249990Y-81369057D01*
X49916656Y-81702390D02*
X49916656Y-81178581D01*
X49964275Y-81083343D01*
X50059513Y-81035724D01*
X50249990Y-81035724D01*
X50345228Y-81083343D01*
X49916656Y-81654771D02*
X50011894Y-81702390D01*
X50249990Y-81702390D01*
X50345228Y-81654771D01*
X50392847Y-81559533D01*
X50392847Y-81464295D01*
X50345228Y-81369057D01*
X50249990Y-81321438D01*
X50011894Y-81321438D01*
X49916656Y-81273819D01*
X49440466Y-81702390D02*
X49440466Y-80702390D01*
X49345228Y-81321438D02*
X49059513Y-81702390D01*
X49059513Y-81035724D02*
X49440466Y-81416676D01*
X48488085Y-81702390D02*
X48583323Y-81654771D01*
X48630942Y-81607152D01*
X48678561Y-81511914D01*
X48678561Y-81226200D01*
X48630942Y-81130962D01*
X48583323Y-81083343D01*
X48488085Y-81035724D01*
X48345228Y-81035724D01*
X48249990Y-81083343D01*
X48202370Y-81130962D01*
X48154751Y-81226200D01*
X48154751Y-81511914D01*
X48202370Y-81607152D01*
X48249990Y-81654771D01*
X48345228Y-81702390D01*
X48488085Y-81702390D01*
X47297609Y-81035724D02*
X47297609Y-81702390D01*
X47726180Y-81035724D02*
X47726180Y-81559533D01*
X47678561Y-81654771D01*
X47583323Y-81702390D01*
X47440466Y-81702390D01*
X47345228Y-81654771D01*
X47297609Y-81607152D01*
X46964275Y-81035724D02*
X46583323Y-81035724D01*
X46821418Y-80702390D02*
X46821418Y-81559533D01*
X46773799Y-81654771D01*
X46678561Y-81702390D01*
X46583323Y-81702390D01*
X45154751Y-81178581D02*
X45011894Y-81226200D01*
X44964275Y-81273819D01*
X44916656Y-81369057D01*
X44916656Y-81511914D01*
X44964275Y-81607152D01*
X45011894Y-81654771D01*
X45107132Y-81702390D01*
X45488085Y-81702390D01*
X45488085Y-80702390D01*
X45154751Y-80702390D01*
X45059513Y-80750010D01*
X45011894Y-80797629D01*
X44964275Y-80892867D01*
X44964275Y-80988105D01*
X45011894Y-81083343D01*
X45059513Y-81130962D01*
X45154751Y-81178581D01*
X45488085Y-81178581D01*
X44345228Y-81702390D02*
X44440466Y-81654771D01*
X44488085Y-81607152D01*
X44535704Y-81511914D01*
X44535704Y-81226200D01*
X44488085Y-81130962D01*
X44440466Y-81083343D01*
X44345228Y-81035724D01*
X44202370Y-81035724D01*
X44107132Y-81083343D01*
X44059513Y-81130962D01*
X44011894Y-81226200D01*
X44011894Y-81511914D01*
X44059513Y-81607152D01*
X44107132Y-81654771D01*
X44202370Y-81702390D01*
X44345228Y-81702390D01*
X43154751Y-81702390D02*
X43154751Y-81178581D01*
X43202370Y-81083343D01*
X43297609Y-81035724D01*
X43488085Y-81035724D01*
X43583323Y-81083343D01*
X43154751Y-81654771D02*
X43249990Y-81702390D01*
X43488085Y-81702390D01*
X43583323Y-81654771D01*
X43630942Y-81559533D01*
X43630942Y-81464295D01*
X43583323Y-81369057D01*
X43488085Y-81321438D01*
X43249990Y-81321438D01*
X43154751Y-81273819D01*
X42678561Y-81702390D02*
X42678561Y-81035724D01*
X42678561Y-81226200D02*
X42630942Y-81130962D01*
X42583323Y-81083343D01*
X42488085Y-81035724D01*
X42392847Y-81035724D01*
X41630942Y-81702390D02*
X41630942Y-80702390D01*
X41630942Y-81654771D02*
X41726180Y-81702390D01*
X41916656Y-81702390D01*
X42011894Y-81654771D01*
X42059513Y-81607152D01*
X42107132Y-81511914D01*
X42107132Y-81226200D01*
X42059513Y-81130962D01*
X42011894Y-81083343D01*
X41916656Y-81035724D01*
X41726180Y-81035724D01*
X41630942Y-81083343D01*
D11*
X30507132Y-69635724D02*
X30554751Y-69588105D01*
X30602370Y-69445248D01*
X30602370Y-69350010D01*
X30554751Y-69207152D01*
X30459513Y-69111914D01*
X30364275Y-69064295D01*
X30173799Y-69016676D01*
X30030942Y-69016676D01*
X29840466Y-69064295D01*
X29745228Y-69111914D01*
X29649990Y-69207152D01*
X29602370Y-69350010D01*
X29602370Y-69445248D01*
X29649990Y-69588105D01*
X29697609Y-69635724D01*
X30602370Y-70492867D02*
X30078561Y-70492867D01*
X29983323Y-70445248D01*
X29935704Y-70350010D01*
X29935704Y-70159533D01*
X29983323Y-70064295D01*
X30554751Y-70492867D02*
X30602370Y-70397629D01*
X30602370Y-70159533D01*
X30554751Y-70064295D01*
X30459513Y-70016676D01*
X30364275Y-70016676D01*
X30269037Y-70064295D01*
X30221418Y-70159533D01*
X30221418Y-70397629D01*
X30173799Y-70492867D01*
X30602370Y-70969057D02*
X29602370Y-70969057D01*
X29983323Y-70969057D02*
X29935704Y-71064295D01*
X29935704Y-71254771D01*
X29983323Y-71350010D01*
X30030942Y-71397629D01*
X30126180Y-71445248D01*
X30411894Y-71445248D01*
X30507132Y-71397629D01*
X30554751Y-71350010D01*
X30602370Y-71254771D01*
X30602370Y-71064295D01*
X30554751Y-70969057D01*
X30602370Y-72016676D02*
X30554751Y-71921438D01*
X30459513Y-71873819D01*
X29602370Y-71873819D01*
X30554751Y-72778581D02*
X30602370Y-72683343D01*
X30602370Y-72492867D01*
X30554751Y-72397629D01*
X30459513Y-72350010D01*
X30078561Y-72350010D01*
X29983323Y-72397629D01*
X29935704Y-72492867D01*
X29935704Y-72683343D01*
X29983323Y-72778581D01*
X30078561Y-72826200D01*
X30173799Y-72826200D01*
X30269037Y-72350010D01*
X29602370Y-73873819D02*
X29602370Y-74445248D01*
X30602370Y-74159533D02*
X29602370Y-74159533D01*
X30602370Y-74778581D02*
X29935704Y-74778581D01*
X29602370Y-74778581D02*
X29649990Y-74730962D01*
X29697609Y-74778581D01*
X29649990Y-74826200D01*
X29602370Y-74778581D01*
X29697609Y-74778581D01*
X30554751Y-75635724D02*
X30602370Y-75540486D01*
X30602370Y-75350010D01*
X30554751Y-75254771D01*
X30459513Y-75207152D01*
X30078561Y-75207152D01*
X29983323Y-75254771D01*
X29935704Y-75350010D01*
X29935704Y-75540486D01*
X29983323Y-75635724D01*
X30078561Y-75683343D01*
X30173799Y-75683343D01*
X30269037Y-75207152D01*
D10*
X64392847Y-50158562D02*
X64345228Y-50206181D01*
X64297609Y-50349038D01*
X64297609Y-50444276D01*
X64345228Y-50587133D01*
X64440466Y-50682371D01*
X64535704Y-50729991D01*
X64726180Y-50777610D01*
X64869037Y-50777610D01*
X65059513Y-50729991D01*
X65154751Y-50682371D01*
X65249990Y-50587133D01*
X65297609Y-50444276D01*
X65297609Y-50349038D01*
X65249990Y-50206181D01*
X65202370Y-50158562D01*
X64964275Y-49301419D02*
X64297609Y-49301419D01*
X64964275Y-49729991D02*
X64440466Y-49729991D01*
X64345228Y-49682371D01*
X64297609Y-49587133D01*
X64297609Y-49444276D01*
X64345228Y-49349038D01*
X64392847Y-49301419D01*
X64297609Y-48825229D02*
X64964275Y-48825229D01*
X64773799Y-48825229D02*
X64869037Y-48777610D01*
X64916656Y-48729991D01*
X64964275Y-48634752D01*
X64964275Y-48539514D01*
X64297609Y-48206181D02*
X64964275Y-48206181D01*
X64773799Y-48206181D02*
X64869037Y-48158562D01*
X64916656Y-48110943D01*
X64964275Y-48015705D01*
X64964275Y-47920467D01*
X64345228Y-47206181D02*
X64297609Y-47301419D01*
X64297609Y-47491895D01*
X64345228Y-47587133D01*
X64440466Y-47634752D01*
X64821418Y-47634752D01*
X64916656Y-47587133D01*
X64964275Y-47491895D01*
X64964275Y-47301419D01*
X64916656Y-47206181D01*
X64821418Y-47158562D01*
X64726180Y-47158562D01*
X64630942Y-47634752D01*
X64964275Y-46729991D02*
X64297609Y-46729991D01*
X64869037Y-46729991D02*
X64916656Y-46682371D01*
X64964275Y-46587133D01*
X64964275Y-46444276D01*
X64916656Y-46349038D01*
X64821418Y-46301419D01*
X64297609Y-46301419D01*
X64964275Y-45968086D02*
X64964275Y-45587133D01*
X65297609Y-45825229D02*
X64440466Y-45825229D01*
X64345228Y-45777610D01*
X64297609Y-45682371D01*
X64297609Y-45587133D01*
X64297609Y-126607190D02*
X64345228Y-126654809D01*
X64488085Y-126702428D01*
X64583323Y-126702428D01*
X64726180Y-126654809D01*
X64821418Y-126559571D01*
X64869037Y-126464333D01*
X64916656Y-126273857D01*
X64916656Y-126131000D01*
X64869037Y-125940524D01*
X64821418Y-125845286D01*
X64726180Y-125750048D01*
X64583323Y-125702428D01*
X64488085Y-125702428D01*
X64345228Y-125750048D01*
X64297609Y-125797667D01*
X63440466Y-126035762D02*
X63440466Y-126702428D01*
X63869037Y-126035762D02*
X63869037Y-126559571D01*
X63821418Y-126654809D01*
X63726180Y-126702428D01*
X63583323Y-126702428D01*
X63488085Y-126654809D01*
X63440466Y-126607190D01*
X62964275Y-126702428D02*
X62964275Y-126035762D01*
X62964275Y-126226238D02*
X62916656Y-126131000D01*
X62869037Y-126083381D01*
X62773799Y-126035762D01*
X62678561Y-126035762D01*
X62345228Y-126702428D02*
X62345228Y-126035762D01*
X62345228Y-126226238D02*
X62297609Y-126131000D01*
X62249990Y-126083381D01*
X62154751Y-126035762D01*
X62059513Y-126035762D01*
X61345228Y-126654809D02*
X61440466Y-126702428D01*
X61630942Y-126702428D01*
X61726180Y-126654809D01*
X61773799Y-126559571D01*
X61773799Y-126178619D01*
X61726180Y-126083381D01*
X61630942Y-126035762D01*
X61440466Y-126035762D01*
X61345228Y-126083381D01*
X61297609Y-126178619D01*
X61297609Y-126273857D01*
X61773799Y-126369095D01*
X60869037Y-126035762D02*
X60869037Y-126702428D01*
X60869037Y-126131000D02*
X60821418Y-126083381D01*
X60726180Y-126035762D01*
X60583323Y-126035762D01*
X60488085Y-126083381D01*
X60440466Y-126178619D01*
X60440466Y-126702428D01*
X60107132Y-126035762D02*
X59726180Y-126035762D01*
X59964275Y-125702428D02*
X59964275Y-126559571D01*
X59916656Y-126654809D01*
X59821418Y-126702428D01*
X59726180Y-126702428D01*
X58678561Y-126654809D02*
X58535704Y-126702428D01*
X58297609Y-126702428D01*
X58202370Y-126654809D01*
X58154751Y-126607190D01*
X58107132Y-126511952D01*
X58107132Y-126416714D01*
X58154751Y-126321476D01*
X58202370Y-126273857D01*
X58297609Y-126226238D01*
X58488085Y-126178619D01*
X58583323Y-126131000D01*
X58630942Y-126083381D01*
X58678561Y-125988143D01*
X58678561Y-125892905D01*
X58630942Y-125797667D01*
X58583323Y-125750048D01*
X58488085Y-125702428D01*
X58249990Y-125702428D01*
X58107132Y-125750048D01*
X57297609Y-126654809D02*
X57392847Y-126702428D01*
X57583323Y-126702428D01*
X57678561Y-126654809D01*
X57726180Y-126559571D01*
X57726180Y-126178619D01*
X57678561Y-126083381D01*
X57583323Y-126035762D01*
X57392847Y-126035762D01*
X57297609Y-126083381D01*
X57249990Y-126178619D01*
X57249990Y-126273857D01*
X57726180Y-126369095D01*
X56821418Y-126035762D02*
X56821418Y-126702428D01*
X56821418Y-126131000D02*
X56773799Y-126083381D01*
X56678561Y-126035762D01*
X56535704Y-126035762D01*
X56440466Y-126083381D01*
X56392847Y-126178619D01*
X56392847Y-126702428D01*
X55964275Y-126654809D02*
X55869037Y-126702428D01*
X55678561Y-126702428D01*
X55583323Y-126654809D01*
X55535704Y-126559571D01*
X55535704Y-126511952D01*
X55583323Y-126416714D01*
X55678561Y-126369095D01*
X55821418Y-126369095D01*
X55916656Y-126321476D01*
X55964275Y-126226238D01*
X55964275Y-126178619D01*
X55916656Y-126083381D01*
X55821418Y-126035762D01*
X55678561Y-126035762D01*
X55583323Y-126083381D01*
X54964275Y-126702428D02*
X55059513Y-126654809D01*
X55107132Y-126607190D01*
X55154751Y-126511952D01*
X55154751Y-126226238D01*
X55107132Y-126131000D01*
X55059513Y-126083381D01*
X54964275Y-126035762D01*
X54821418Y-126035762D01*
X54726180Y-126083381D01*
X54678561Y-126131000D01*
X54630942Y-126226238D01*
X54630942Y-126511952D01*
X54678561Y-126607190D01*
X54726180Y-126654809D01*
X54821418Y-126702428D01*
X54964275Y-126702428D01*
X54202370Y-126702428D02*
X54202370Y-126035762D01*
X54202370Y-126226238D02*
X54154751Y-126131000D01*
X54107132Y-126083381D01*
X54011894Y-126035762D01*
X53916656Y-126035762D01*
X52488085Y-126178619D02*
X52345228Y-126226238D01*
X52297609Y-126273857D01*
X52249990Y-126369095D01*
X52249990Y-126511952D01*
X52297609Y-126607190D01*
X52345228Y-126654809D01*
X52440466Y-126702428D01*
X52821418Y-126702428D01*
X52821418Y-125702428D01*
X52488085Y-125702428D01*
X52392847Y-125750048D01*
X52345228Y-125797667D01*
X52297609Y-125892905D01*
X52297609Y-125988143D01*
X52345228Y-126083381D01*
X52392847Y-126131000D01*
X52488085Y-126178619D01*
X52821418Y-126178619D01*
X51821418Y-126702428D02*
X51821418Y-126035762D01*
X51821418Y-126226238D02*
X51773799Y-126131000D01*
X51726180Y-126083381D01*
X51630942Y-126035762D01*
X51535704Y-126035762D01*
X50821418Y-126654809D02*
X50916656Y-126702428D01*
X51107132Y-126702428D01*
X51202370Y-126654809D01*
X51249990Y-126559571D01*
X51249990Y-126178619D01*
X51202370Y-126083381D01*
X51107132Y-126035762D01*
X50916656Y-126035762D01*
X50821418Y-126083381D01*
X50773799Y-126178619D01*
X50773799Y-126273857D01*
X51249990Y-126369095D01*
X49916656Y-126702428D02*
X49916656Y-126178619D01*
X49964275Y-126083381D01*
X50059513Y-126035762D01*
X50249990Y-126035762D01*
X50345228Y-126083381D01*
X49916656Y-126654809D02*
X50011894Y-126702428D01*
X50249990Y-126702428D01*
X50345228Y-126654809D01*
X50392847Y-126559571D01*
X50392847Y-126464333D01*
X50345228Y-126369095D01*
X50249990Y-126321476D01*
X50011894Y-126321476D01*
X49916656Y-126273857D01*
X49440466Y-126702428D02*
X49440466Y-125702428D01*
X49345228Y-126321476D02*
X49059513Y-126702428D01*
X49059513Y-126035762D02*
X49440466Y-126416714D01*
X48488085Y-126702428D02*
X48583323Y-126654809D01*
X48630942Y-126607190D01*
X48678561Y-126511952D01*
X48678561Y-126226238D01*
X48630942Y-126131000D01*
X48583323Y-126083381D01*
X48488085Y-126035762D01*
X48345228Y-126035762D01*
X48249990Y-126083381D01*
X48202370Y-126131000D01*
X48154751Y-126226238D01*
X48154751Y-126511952D01*
X48202370Y-126607190D01*
X48249990Y-126654809D01*
X48345228Y-126702428D01*
X48488085Y-126702428D01*
X47297609Y-126035762D02*
X47297609Y-126702428D01*
X47726180Y-126035762D02*
X47726180Y-126559571D01*
X47678561Y-126654809D01*
X47583323Y-126702428D01*
X47440466Y-126702428D01*
X47345228Y-126654809D01*
X47297609Y-126607190D01*
X46964275Y-126035762D02*
X46583323Y-126035762D01*
X46821418Y-125702428D02*
X46821418Y-126559571D01*
X46773799Y-126654809D01*
X46678561Y-126702428D01*
X46583323Y-126702428D01*
X45154751Y-126178619D02*
X45011894Y-126226238D01*
X44964275Y-126273857D01*
X44916656Y-126369095D01*
X44916656Y-126511952D01*
X44964275Y-126607190D01*
X45011894Y-126654809D01*
X45107132Y-126702428D01*
X45488085Y-126702428D01*
X45488085Y-125702428D01*
X45154751Y-125702428D01*
X45059513Y-125750048D01*
X45011894Y-125797667D01*
X44964275Y-125892905D01*
X44964275Y-125988143D01*
X45011894Y-126083381D01*
X45059513Y-126131000D01*
X45154751Y-126178619D01*
X45488085Y-126178619D01*
X44345228Y-126702428D02*
X44440466Y-126654809D01*
X44488085Y-126607190D01*
X44535704Y-126511952D01*
X44535704Y-126226238D01*
X44488085Y-126131000D01*
X44440466Y-126083381D01*
X44345228Y-126035762D01*
X44202370Y-126035762D01*
X44107132Y-126083381D01*
X44059513Y-126131000D01*
X44011894Y-126226238D01*
X44011894Y-126511952D01*
X44059513Y-126607190D01*
X44107132Y-126654809D01*
X44202370Y-126702428D01*
X44345228Y-126702428D01*
X43154751Y-126702428D02*
X43154751Y-126178619D01*
X43202370Y-126083381D01*
X43297609Y-126035762D01*
X43488085Y-126035762D01*
X43583323Y-126083381D01*
X43154751Y-126654809D02*
X43249990Y-126702428D01*
X43488085Y-126702428D01*
X43583323Y-126654809D01*
X43630942Y-126559571D01*
X43630942Y-126464333D01*
X43583323Y-126369095D01*
X43488085Y-126321476D01*
X43249990Y-126321476D01*
X43154751Y-126273857D01*
X42678561Y-126702428D02*
X42678561Y-126035762D01*
X42678561Y-126226238D02*
X42630942Y-126131000D01*
X42583323Y-126083381D01*
X42488085Y-126035762D01*
X42392847Y-126035762D01*
X41630942Y-126702428D02*
X41630942Y-125702428D01*
X41630942Y-126654809D02*
X41726180Y-126702428D01*
X41916656Y-126702428D01*
X42011894Y-126654809D01*
X42059513Y-126607190D01*
X42107132Y-126511952D01*
X42107132Y-126226238D01*
X42059513Y-126131000D01*
X42011894Y-126083381D01*
X41916656Y-126035762D01*
X41726180Y-126035762D01*
X41630942Y-126083381D01*
D11*
X30507132Y-47135705D02*
X30554751Y-47088086D01*
X30602370Y-46945229D01*
X30602370Y-46849991D01*
X30554751Y-46707133D01*
X30459513Y-46611895D01*
X30364275Y-46564276D01*
X30173799Y-46516657D01*
X30030942Y-46516657D01*
X29840466Y-46564276D01*
X29745228Y-46611895D01*
X29649990Y-46707133D01*
X29602370Y-46849991D01*
X29602370Y-46945229D01*
X29649990Y-47088086D01*
X29697609Y-47135705D01*
X30602370Y-47992848D02*
X30078561Y-47992848D01*
X29983323Y-47945229D01*
X29935704Y-47849991D01*
X29935704Y-47659514D01*
X29983323Y-47564276D01*
X30554751Y-47992848D02*
X30602370Y-47897610D01*
X30602370Y-47659514D01*
X30554751Y-47564276D01*
X30459513Y-47516657D01*
X30364275Y-47516657D01*
X30269037Y-47564276D01*
X30221418Y-47659514D01*
X30221418Y-47897610D01*
X30173799Y-47992848D01*
X30602370Y-48469038D02*
X29602370Y-48469038D01*
X29983323Y-48469038D02*
X29935704Y-48564276D01*
X29935704Y-48754752D01*
X29983323Y-48849991D01*
X30030942Y-48897610D01*
X30126180Y-48945229D01*
X30411894Y-48945229D01*
X30507132Y-48897610D01*
X30554751Y-48849991D01*
X30602370Y-48754752D01*
X30602370Y-48564276D01*
X30554751Y-48469038D01*
X30602370Y-49516657D02*
X30554751Y-49421419D01*
X30459513Y-49373800D01*
X29602370Y-49373800D01*
X30554751Y-50278562D02*
X30602370Y-50183324D01*
X30602370Y-49992848D01*
X30554751Y-49897610D01*
X30459513Y-49849991D01*
X30078561Y-49849991D01*
X29983323Y-49897610D01*
X29935704Y-49992848D01*
X29935704Y-50183324D01*
X29983323Y-50278562D01*
X30078561Y-50326181D01*
X30173799Y-50326181D01*
X30269037Y-49849991D01*
X29602370Y-51373800D02*
X29602370Y-51945229D01*
X30602370Y-51659514D02*
X29602370Y-51659514D01*
X30602370Y-52278562D02*
X29935704Y-52278562D01*
X29602370Y-52278562D02*
X29649990Y-52230943D01*
X29697609Y-52278562D01*
X29649990Y-52326181D01*
X29602370Y-52278562D01*
X29697609Y-52278562D01*
X30554751Y-53135705D02*
X30602370Y-53040467D01*
X30602370Y-52849991D01*
X30554751Y-52754752D01*
X30459513Y-52707133D01*
X30078561Y-52707133D01*
X29983323Y-52754752D01*
X29935704Y-52849991D01*
X29935704Y-53040467D01*
X29983323Y-53135705D01*
X30078561Y-53183324D01*
X30173799Y-53183324D01*
X30269037Y-52707133D01*
D10*
X64392847Y-117658619D02*
X64345228Y-117706238D01*
X64297609Y-117849095D01*
X64297609Y-117944333D01*
X64345228Y-118087190D01*
X64440466Y-118182428D01*
X64535704Y-118230048D01*
X64726180Y-118277667D01*
X64869037Y-118277667D01*
X65059513Y-118230048D01*
X65154751Y-118182428D01*
X65249990Y-118087190D01*
X65297609Y-117944333D01*
X65297609Y-117849095D01*
X65249990Y-117706238D01*
X65202370Y-117658619D01*
X64964275Y-116801476D02*
X64297609Y-116801476D01*
X64964275Y-117230048D02*
X64440466Y-117230048D01*
X64345228Y-117182428D01*
X64297609Y-117087190D01*
X64297609Y-116944333D01*
X64345228Y-116849095D01*
X64392847Y-116801476D01*
X64297609Y-116325286D02*
X64964275Y-116325286D01*
X64773799Y-116325286D02*
X64869037Y-116277667D01*
X64916656Y-116230048D01*
X64964275Y-116134809D01*
X64964275Y-116039571D01*
X64297609Y-115706238D02*
X64964275Y-115706238D01*
X64773799Y-115706238D02*
X64869037Y-115658619D01*
X64916656Y-115611000D01*
X64964275Y-115515762D01*
X64964275Y-115420524D01*
X64345228Y-114706238D02*
X64297609Y-114801476D01*
X64297609Y-114991952D01*
X64345228Y-115087190D01*
X64440466Y-115134809D01*
X64821418Y-115134809D01*
X64916656Y-115087190D01*
X64964275Y-114991952D01*
X64964275Y-114801476D01*
X64916656Y-114706238D01*
X64821418Y-114658619D01*
X64726180Y-114658619D01*
X64630942Y-115134809D01*
X64964275Y-114230048D02*
X64297609Y-114230048D01*
X64869037Y-114230048D02*
X64916656Y-114182428D01*
X64964275Y-114087190D01*
X64964275Y-113944333D01*
X64916656Y-113849095D01*
X64821418Y-113801476D01*
X64297609Y-113801476D01*
X64964275Y-113468143D02*
X64964275Y-113087190D01*
X65297609Y-113325286D02*
X64440466Y-113325286D01*
X64345228Y-113277667D01*
X64297609Y-113182428D01*
X64297609Y-113087190D01*
X65421418Y-75158581D02*
X65278561Y-75206200D01*
X65230942Y-75253819D01*
X65183323Y-75349057D01*
X65183323Y-75491914D01*
X65230942Y-75587152D01*
X65278561Y-75634771D01*
X65373799Y-75682390D01*
X65754751Y-75682390D01*
X65754751Y-74682390D01*
X65421418Y-74682390D01*
X65326180Y-74730010D01*
X65278561Y-74777629D01*
X65230942Y-74872867D01*
X65230942Y-74968105D01*
X65278561Y-75063343D01*
X65326180Y-75110962D01*
X65421418Y-75158581D01*
X65754751Y-75158581D01*
X64326180Y-75682390D02*
X64326180Y-75158581D01*
X64373799Y-75063343D01*
X64469037Y-75015724D01*
X64659513Y-75015724D01*
X64754751Y-75063343D01*
X64326180Y-75634771D02*
X64421418Y-75682390D01*
X64659513Y-75682390D01*
X64754751Y-75634771D01*
X64802370Y-75539533D01*
X64802370Y-75444295D01*
X64754751Y-75349057D01*
X64659513Y-75301438D01*
X64421418Y-75301438D01*
X64326180Y-75253819D01*
X63992847Y-75015724D02*
X63611894Y-75015724D01*
X63849990Y-74682390D02*
X63849990Y-75539533D01*
X63802370Y-75634771D01*
X63707132Y-75682390D01*
X63611894Y-75682390D01*
X63421418Y-75015724D02*
X63040466Y-75015724D01*
X63278561Y-74682390D02*
X63278561Y-75539533D01*
X63230942Y-75634771D01*
X63135704Y-75682390D01*
X63040466Y-75682390D01*
X62326180Y-75634771D02*
X62421418Y-75682390D01*
X62611894Y-75682390D01*
X62707132Y-75634771D01*
X62754751Y-75539533D01*
X62754751Y-75158581D01*
X62707132Y-75063343D01*
X62611894Y-75015724D01*
X62421418Y-75015724D01*
X62326180Y-75063343D01*
X62278561Y-75158581D01*
X62278561Y-75253819D01*
X62754751Y-75349057D01*
X61849990Y-75682390D02*
X61849990Y-75015724D01*
X61849990Y-75206200D02*
X61802370Y-75110962D01*
X61754751Y-75063343D01*
X61659513Y-75015724D01*
X61564275Y-75015724D01*
X61326180Y-75015724D02*
X61088085Y-75682390D01*
X60849990Y-75015724D02*
X61088085Y-75682390D01*
X61183323Y-75920486D01*
X61230942Y-75968105D01*
X61326180Y-76015724D01*
X64392847Y-72658581D02*
X64345228Y-72706200D01*
X64297609Y-72849057D01*
X64297609Y-72944295D01*
X64345228Y-73087152D01*
X64440466Y-73182390D01*
X64535704Y-73230010D01*
X64726180Y-73277629D01*
X64869037Y-73277629D01*
X65059513Y-73230010D01*
X65154751Y-73182390D01*
X65249990Y-73087152D01*
X65297609Y-72944295D01*
X65297609Y-72849057D01*
X65249990Y-72706200D01*
X65202370Y-72658581D01*
X64964275Y-71801438D02*
X64297609Y-71801438D01*
X64964275Y-72230010D02*
X64440466Y-72230010D01*
X64345228Y-72182390D01*
X64297609Y-72087152D01*
X64297609Y-71944295D01*
X64345228Y-71849057D01*
X64392847Y-71801438D01*
X64297609Y-71325248D02*
X64964275Y-71325248D01*
X64773799Y-71325248D02*
X64869037Y-71277629D01*
X64916656Y-71230010D01*
X64964275Y-71134771D01*
X64964275Y-71039533D01*
X64297609Y-70706200D02*
X64964275Y-70706200D01*
X64773799Y-70706200D02*
X64869037Y-70658581D01*
X64916656Y-70610962D01*
X64964275Y-70515724D01*
X64964275Y-70420486D01*
X64345228Y-69706200D02*
X64297609Y-69801438D01*
X64297609Y-69991914D01*
X64345228Y-70087152D01*
X64440466Y-70134771D01*
X64821418Y-70134771D01*
X64916656Y-70087152D01*
X64964275Y-69991914D01*
X64964275Y-69801438D01*
X64916656Y-69706200D01*
X64821418Y-69658581D01*
X64726180Y-69658581D01*
X64630942Y-70134771D01*
X64964275Y-69230010D02*
X64297609Y-69230010D01*
X64869037Y-69230010D02*
X64916656Y-69182390D01*
X64964275Y-69087152D01*
X64964275Y-68944295D01*
X64916656Y-68849057D01*
X64821418Y-68801438D01*
X64297609Y-68801438D01*
X64964275Y-68468105D02*
X64964275Y-68087152D01*
X65297609Y-68325248D02*
X64440466Y-68325248D01*
X64345228Y-68277629D01*
X64297609Y-68182390D01*
X64297609Y-68087152D01*
D11*
X79007152Y-114635762D02*
X79054771Y-114588143D01*
X79102390Y-114445286D01*
X79102390Y-114350048D01*
X79054771Y-114207190D01*
X78959533Y-114111952D01*
X78864295Y-114064333D01*
X78673819Y-114016714D01*
X78530962Y-114016714D01*
X78340486Y-114064333D01*
X78245248Y-114111952D01*
X78150010Y-114207190D01*
X78102390Y-114350048D01*
X78102390Y-114445286D01*
X78150010Y-114588143D01*
X78197629Y-114635762D01*
X79102390Y-115492905D02*
X78578581Y-115492905D01*
X78483343Y-115445286D01*
X78435724Y-115350048D01*
X78435724Y-115159571D01*
X78483343Y-115064333D01*
X79054771Y-115492905D02*
X79102390Y-115397667D01*
X79102390Y-115159571D01*
X79054771Y-115064333D01*
X78959533Y-115016714D01*
X78864295Y-115016714D01*
X78769057Y-115064333D01*
X78721438Y-115159571D01*
X78721438Y-115397667D01*
X78673819Y-115492905D01*
X79102390Y-115969095D02*
X78102390Y-115969095D01*
X78483343Y-115969095D02*
X78435724Y-116064333D01*
X78435724Y-116254809D01*
X78483343Y-116350048D01*
X78530962Y-116397667D01*
X78626200Y-116445286D01*
X78911914Y-116445286D01*
X79007152Y-116397667D01*
X79054771Y-116350048D01*
X79102390Y-116254809D01*
X79102390Y-116064333D01*
X79054771Y-115969095D01*
X79102390Y-117016714D02*
X79054771Y-116921476D01*
X78959533Y-116873857D01*
X78102390Y-116873857D01*
X79054771Y-117778619D02*
X79102390Y-117683381D01*
X79102390Y-117492905D01*
X79054771Y-117397667D01*
X78959533Y-117350048D01*
X78578581Y-117350048D01*
X78483343Y-117397667D01*
X78435724Y-117492905D01*
X78435724Y-117683381D01*
X78483343Y-117778619D01*
X78578581Y-117826238D01*
X78673819Y-117826238D01*
X78769057Y-117350048D01*
X78102390Y-118873857D02*
X78102390Y-119445286D01*
X79102390Y-119159571D02*
X78102390Y-119159571D01*
X79102390Y-119778619D02*
X78435724Y-119778619D01*
X78102390Y-119778619D02*
X78150010Y-119731000D01*
X78197629Y-119778619D01*
X78150010Y-119826238D01*
X78102390Y-119778619D01*
X78197629Y-119778619D01*
X79054771Y-120635762D02*
X79102390Y-120540524D01*
X79102390Y-120350048D01*
X79054771Y-120254809D01*
X78959533Y-120207190D01*
X78578581Y-120207190D01*
X78483343Y-120254809D01*
X78435724Y-120350048D01*
X78435724Y-120540524D01*
X78483343Y-120635762D01*
X78578581Y-120683381D01*
X78673819Y-120683381D01*
X78769057Y-120207190D01*
D10*
X113683343Y-42482371D02*
X113683343Y-41482371D01*
X113350010Y-42196657D01*
X113016676Y-41482371D01*
X113016676Y-42482371D01*
X112397629Y-42482371D02*
X112492867Y-42434752D01*
X112540486Y-42387133D01*
X112588105Y-42291895D01*
X112588105Y-42006181D01*
X112540486Y-41910943D01*
X112492867Y-41863324D01*
X112397629Y-41815705D01*
X112254771Y-41815705D01*
X112159533Y-41863324D01*
X112111914Y-41910943D01*
X112064295Y-42006181D01*
X112064295Y-42291895D01*
X112111914Y-42387133D01*
X112159533Y-42434752D01*
X112254771Y-42482371D01*
X112397629Y-42482371D01*
X111778581Y-41815705D02*
X111397629Y-41815705D01*
X111635724Y-41482371D02*
X111635724Y-42339514D01*
X111588105Y-42434752D01*
X111492867Y-42482371D01*
X111397629Y-42482371D01*
X110921438Y-42482371D02*
X111016676Y-42434752D01*
X111064295Y-42387133D01*
X111111914Y-42291895D01*
X111111914Y-42006181D01*
X111064295Y-41910943D01*
X111016676Y-41863324D01*
X110921438Y-41815705D01*
X110778581Y-41815705D01*
X110683343Y-41863324D01*
X110635724Y-41910943D01*
X110588105Y-42006181D01*
X110588105Y-42291895D01*
X110635724Y-42387133D01*
X110683343Y-42434752D01*
X110778581Y-42482371D01*
X110921438Y-42482371D01*
X110159533Y-42482371D02*
X110159533Y-41815705D01*
X110159533Y-42006181D02*
X110111914Y-41910943D01*
X110064295Y-41863324D01*
X109969057Y-41815705D01*
X109873819Y-41815705D01*
X112892867Y-117658619D02*
X112845248Y-117706238D01*
X112797629Y-117849095D01*
X112797629Y-117944333D01*
X112845248Y-118087190D01*
X112940486Y-118182428D01*
X113035724Y-118230048D01*
X113226200Y-118277667D01*
X113369057Y-118277667D01*
X113559533Y-118230048D01*
X113654771Y-118182428D01*
X113750010Y-118087190D01*
X113797629Y-117944333D01*
X113797629Y-117849095D01*
X113750010Y-117706238D01*
X113702390Y-117658619D01*
X113464295Y-116801476D02*
X112797629Y-116801476D01*
X113464295Y-117230048D02*
X112940486Y-117230048D01*
X112845248Y-117182428D01*
X112797629Y-117087190D01*
X112797629Y-116944333D01*
X112845248Y-116849095D01*
X112892867Y-116801476D01*
X112797629Y-116325286D02*
X113464295Y-116325286D01*
X113273819Y-116325286D02*
X113369057Y-116277667D01*
X113416676Y-116230048D01*
X113464295Y-116134809D01*
X113464295Y-116039571D01*
X112797629Y-115706238D02*
X113464295Y-115706238D01*
X113273819Y-115706238D02*
X113369057Y-115658619D01*
X113416676Y-115611000D01*
X113464295Y-115515762D01*
X113464295Y-115420524D01*
X112845248Y-114706238D02*
X112797629Y-114801476D01*
X112797629Y-114991952D01*
X112845248Y-115087190D01*
X112940486Y-115134809D01*
X113321438Y-115134809D01*
X113416676Y-115087190D01*
X113464295Y-114991952D01*
X113464295Y-114801476D01*
X113416676Y-114706238D01*
X113321438Y-114658619D01*
X113226200Y-114658619D01*
X113130962Y-115134809D01*
X113464295Y-114230048D02*
X112797629Y-114230048D01*
X113369057Y-114230048D02*
X113416676Y-114182428D01*
X113464295Y-114087190D01*
X113464295Y-113944333D01*
X113416676Y-113849095D01*
X113321438Y-113801476D01*
X112797629Y-113801476D01*
X113464295Y-113468143D02*
X113464295Y-113087190D01*
X113797629Y-113325286D02*
X112940486Y-113325286D01*
X112845248Y-113277667D01*
X112797629Y-113182428D01*
X112797629Y-113087190D01*
X65421418Y-52658562D02*
X65278561Y-52706181D01*
X65230942Y-52753800D01*
X65183323Y-52849038D01*
X65183323Y-52991895D01*
X65230942Y-53087133D01*
X65278561Y-53134752D01*
X65373799Y-53182371D01*
X65754751Y-53182371D01*
X65754751Y-52182371D01*
X65421418Y-52182371D01*
X65326180Y-52229991D01*
X65278561Y-52277610D01*
X65230942Y-52372848D01*
X65230942Y-52468086D01*
X65278561Y-52563324D01*
X65326180Y-52610943D01*
X65421418Y-52658562D01*
X65754751Y-52658562D01*
X64326180Y-53182371D02*
X64326180Y-52658562D01*
X64373799Y-52563324D01*
X64469037Y-52515705D01*
X64659513Y-52515705D01*
X64754751Y-52563324D01*
X64326180Y-53134752D02*
X64421418Y-53182371D01*
X64659513Y-53182371D01*
X64754751Y-53134752D01*
X64802370Y-53039514D01*
X64802370Y-52944276D01*
X64754751Y-52849038D01*
X64659513Y-52801419D01*
X64421418Y-52801419D01*
X64326180Y-52753800D01*
X63992847Y-52515705D02*
X63611894Y-52515705D01*
X63849990Y-52182371D02*
X63849990Y-53039514D01*
X63802370Y-53134752D01*
X63707132Y-53182371D01*
X63611894Y-53182371D01*
X63421418Y-52515705D02*
X63040466Y-52515705D01*
X63278561Y-52182371D02*
X63278561Y-53039514D01*
X63230942Y-53134752D01*
X63135704Y-53182371D01*
X63040466Y-53182371D01*
X62326180Y-53134752D02*
X62421418Y-53182371D01*
X62611894Y-53182371D01*
X62707132Y-53134752D01*
X62754751Y-53039514D01*
X62754751Y-52658562D01*
X62707132Y-52563324D01*
X62611894Y-52515705D01*
X62421418Y-52515705D01*
X62326180Y-52563324D01*
X62278561Y-52658562D01*
X62278561Y-52753800D01*
X62754751Y-52849038D01*
X61849990Y-53182371D02*
X61849990Y-52515705D01*
X61849990Y-52706181D02*
X61802370Y-52610943D01*
X61754751Y-52563324D01*
X61659513Y-52515705D01*
X61564275Y-52515705D01*
X61326180Y-52515705D02*
X61088085Y-53182371D01*
X60849990Y-52515705D02*
X61088085Y-53182371D01*
X61183323Y-53420467D01*
X61230942Y-53468086D01*
X61326180Y-53515705D01*
X112797629Y-59107133D02*
X112845248Y-59154752D01*
X112988105Y-59202371D01*
X113083343Y-59202371D01*
X113226200Y-59154752D01*
X113321438Y-59059514D01*
X113369057Y-58964276D01*
X113416676Y-58773800D01*
X113416676Y-58630943D01*
X113369057Y-58440467D01*
X113321438Y-58345229D01*
X113226200Y-58249991D01*
X113083343Y-58202371D01*
X112988105Y-58202371D01*
X112845248Y-58249991D01*
X112797629Y-58297610D01*
X111940486Y-58535705D02*
X111940486Y-59202371D01*
X112369057Y-58535705D02*
X112369057Y-59059514D01*
X112321438Y-59154752D01*
X112226200Y-59202371D01*
X112083343Y-59202371D01*
X111988105Y-59154752D01*
X111940486Y-59107133D01*
X111464295Y-59202371D02*
X111464295Y-58535705D01*
X111464295Y-58726181D02*
X111416676Y-58630943D01*
X111369057Y-58583324D01*
X111273819Y-58535705D01*
X111178581Y-58535705D01*
X110845248Y-59202371D02*
X110845248Y-58535705D01*
X110845248Y-58726181D02*
X110797629Y-58630943D01*
X110750010Y-58583324D01*
X110654771Y-58535705D01*
X110559533Y-58535705D01*
X109845248Y-59154752D02*
X109940486Y-59202371D01*
X110130962Y-59202371D01*
X110226200Y-59154752D01*
X110273819Y-59059514D01*
X110273819Y-58678562D01*
X110226200Y-58583324D01*
X110130962Y-58535705D01*
X109940486Y-58535705D01*
X109845248Y-58583324D01*
X109797629Y-58678562D01*
X109797629Y-58773800D01*
X110273819Y-58869038D01*
X109369057Y-58535705D02*
X109369057Y-59202371D01*
X109369057Y-58630943D02*
X109321438Y-58583324D01*
X109226200Y-58535705D01*
X109083343Y-58535705D01*
X108988105Y-58583324D01*
X108940486Y-58678562D01*
X108940486Y-59202371D01*
X108607152Y-58535705D02*
X108226200Y-58535705D01*
X108464295Y-58202371D02*
X108464295Y-59059514D01*
X108416676Y-59154752D01*
X108321438Y-59202371D01*
X108226200Y-59202371D01*
X107178581Y-59154752D02*
X107035724Y-59202371D01*
X106797629Y-59202371D01*
X106702390Y-59154752D01*
X106654771Y-59107133D01*
X106607152Y-59011895D01*
X106607152Y-58916657D01*
X106654771Y-58821419D01*
X106702390Y-58773800D01*
X106797629Y-58726181D01*
X106988105Y-58678562D01*
X107083343Y-58630943D01*
X107130962Y-58583324D01*
X107178581Y-58488086D01*
X107178581Y-58392848D01*
X107130962Y-58297610D01*
X107083343Y-58249991D01*
X106988105Y-58202371D01*
X106750010Y-58202371D01*
X106607152Y-58249991D01*
X105797629Y-59154752D02*
X105892867Y-59202371D01*
X106083343Y-59202371D01*
X106178581Y-59154752D01*
X106226200Y-59059514D01*
X106226200Y-58678562D01*
X106178581Y-58583324D01*
X106083343Y-58535705D01*
X105892867Y-58535705D01*
X105797629Y-58583324D01*
X105750010Y-58678562D01*
X105750010Y-58773800D01*
X106226200Y-58869038D01*
X105321438Y-58535705D02*
X105321438Y-59202371D01*
X105321438Y-58630943D02*
X105273819Y-58583324D01*
X105178581Y-58535705D01*
X105035724Y-58535705D01*
X104940486Y-58583324D01*
X104892867Y-58678562D01*
X104892867Y-59202371D01*
X104464295Y-59154752D02*
X104369057Y-59202371D01*
X104178581Y-59202371D01*
X104083343Y-59154752D01*
X104035724Y-59059514D01*
X104035724Y-59011895D01*
X104083343Y-58916657D01*
X104178581Y-58869038D01*
X104321438Y-58869038D01*
X104416676Y-58821419D01*
X104464295Y-58726181D01*
X104464295Y-58678562D01*
X104416676Y-58583324D01*
X104321438Y-58535705D01*
X104178581Y-58535705D01*
X104083343Y-58583324D01*
X103464295Y-59202371D02*
X103559533Y-59154752D01*
X103607152Y-59107133D01*
X103654771Y-59011895D01*
X103654771Y-58726181D01*
X103607152Y-58630943D01*
X103559533Y-58583324D01*
X103464295Y-58535705D01*
X103321438Y-58535705D01*
X103226200Y-58583324D01*
X103178581Y-58630943D01*
X103130962Y-58726181D01*
X103130962Y-59011895D01*
X103178581Y-59107133D01*
X103226200Y-59154752D01*
X103321438Y-59202371D01*
X103464295Y-59202371D01*
X102702390Y-59202371D02*
X102702390Y-58535705D01*
X102702390Y-58726181D02*
X102654771Y-58630943D01*
X102607152Y-58583324D01*
X102511914Y-58535705D01*
X102416676Y-58535705D01*
X100988105Y-58678562D02*
X100845248Y-58726181D01*
X100797629Y-58773800D01*
X100750010Y-58869038D01*
X100750010Y-59011895D01*
X100797629Y-59107133D01*
X100845248Y-59154752D01*
X100940486Y-59202371D01*
X101321438Y-59202371D01*
X101321438Y-58202371D01*
X100988105Y-58202371D01*
X100892867Y-58249991D01*
X100845248Y-58297610D01*
X100797629Y-58392848D01*
X100797629Y-58488086D01*
X100845248Y-58583324D01*
X100892867Y-58630943D01*
X100988105Y-58678562D01*
X101321438Y-58678562D01*
X100321438Y-59202371D02*
X100321438Y-58535705D01*
X100321438Y-58726181D02*
X100273819Y-58630943D01*
X100226200Y-58583324D01*
X100130962Y-58535705D01*
X100035724Y-58535705D01*
X99321438Y-59154752D02*
X99416676Y-59202371D01*
X99607152Y-59202371D01*
X99702390Y-59154752D01*
X99750010Y-59059514D01*
X99750010Y-58678562D01*
X99702390Y-58583324D01*
X99607152Y-58535705D01*
X99416676Y-58535705D01*
X99321438Y-58583324D01*
X99273819Y-58678562D01*
X99273819Y-58773800D01*
X99750010Y-58869038D01*
X98416676Y-59202371D02*
X98416676Y-58678562D01*
X98464295Y-58583324D01*
X98559533Y-58535705D01*
X98750010Y-58535705D01*
X98845248Y-58583324D01*
X98416676Y-59154752D02*
X98511914Y-59202371D01*
X98750010Y-59202371D01*
X98845248Y-59154752D01*
X98892867Y-59059514D01*
X98892867Y-58964276D01*
X98845248Y-58869038D01*
X98750010Y-58821419D01*
X98511914Y-58821419D01*
X98416676Y-58773800D01*
X97940486Y-59202371D02*
X97940486Y-58202371D01*
X97845248Y-58821419D02*
X97559533Y-59202371D01*
X97559533Y-58535705D02*
X97940486Y-58916657D01*
X96988105Y-59202371D02*
X97083343Y-59154752D01*
X97130962Y-59107133D01*
X97178581Y-59011895D01*
X97178581Y-58726181D01*
X97130962Y-58630943D01*
X97083343Y-58583324D01*
X96988105Y-58535705D01*
X96845248Y-58535705D01*
X96750010Y-58583324D01*
X96702390Y-58630943D01*
X96654771Y-58726181D01*
X96654771Y-59011895D01*
X96702390Y-59107133D01*
X96750010Y-59154752D01*
X96845248Y-59202371D01*
X96988105Y-59202371D01*
X95797629Y-58535705D02*
X95797629Y-59202371D01*
X96226200Y-58535705D02*
X96226200Y-59059514D01*
X96178581Y-59154752D01*
X96083343Y-59202371D01*
X95940486Y-59202371D01*
X95845248Y-59154752D01*
X95797629Y-59107133D01*
X95464295Y-58535705D02*
X95083343Y-58535705D01*
X95321438Y-58202371D02*
X95321438Y-59059514D01*
X95273819Y-59154752D01*
X95178581Y-59202371D01*
X95083343Y-59202371D01*
X93654771Y-58678562D02*
X93511914Y-58726181D01*
X93464295Y-58773800D01*
X93416676Y-58869038D01*
X93416676Y-59011895D01*
X93464295Y-59107133D01*
X93511914Y-59154752D01*
X93607152Y-59202371D01*
X93988105Y-59202371D01*
X93988105Y-58202371D01*
X93654771Y-58202371D01*
X93559533Y-58249991D01*
X93511914Y-58297610D01*
X93464295Y-58392848D01*
X93464295Y-58488086D01*
X93511914Y-58583324D01*
X93559533Y-58630943D01*
X93654771Y-58678562D01*
X93988105Y-58678562D01*
X92845248Y-59202371D02*
X92940486Y-59154752D01*
X92988105Y-59107133D01*
X93035724Y-59011895D01*
X93035724Y-58726181D01*
X92988105Y-58630943D01*
X92940486Y-58583324D01*
X92845248Y-58535705D01*
X92702390Y-58535705D01*
X92607152Y-58583324D01*
X92559533Y-58630943D01*
X92511914Y-58726181D01*
X92511914Y-59011895D01*
X92559533Y-59107133D01*
X92607152Y-59154752D01*
X92702390Y-59202371D01*
X92845248Y-59202371D01*
X91654771Y-59202371D02*
X91654771Y-58678562D01*
X91702390Y-58583324D01*
X91797629Y-58535705D01*
X91988105Y-58535705D01*
X92083343Y-58583324D01*
X91654771Y-59154752D02*
X91750010Y-59202371D01*
X91988105Y-59202371D01*
X92083343Y-59154752D01*
X92130962Y-59059514D01*
X92130962Y-58964276D01*
X92083343Y-58869038D01*
X91988105Y-58821419D01*
X91750010Y-58821419D01*
X91654771Y-58773800D01*
X91178581Y-59202371D02*
X91178581Y-58535705D01*
X91178581Y-58726181D02*
X91130962Y-58630943D01*
X91083343Y-58583324D01*
X90988105Y-58535705D01*
X90892867Y-58535705D01*
X90130962Y-59202371D02*
X90130962Y-58202371D01*
X90130962Y-59154752D02*
X90226200Y-59202371D01*
X90416676Y-59202371D01*
X90511914Y-59154752D01*
X90559533Y-59107133D01*
X90607152Y-59011895D01*
X90607152Y-58726181D01*
X90559533Y-58630943D01*
X90511914Y-58583324D01*
X90416676Y-58535705D01*
X90226200Y-58535705D01*
X90130962Y-58583324D01*
X113683343Y-109982428D02*
X113683343Y-108982428D01*
X113350010Y-109696714D01*
X113016676Y-108982428D01*
X113016676Y-109982428D01*
X112397629Y-109982428D02*
X112492867Y-109934809D01*
X112540486Y-109887190D01*
X112588105Y-109791952D01*
X112588105Y-109506238D01*
X112540486Y-109411000D01*
X112492867Y-109363381D01*
X112397629Y-109315762D01*
X112254771Y-109315762D01*
X112159533Y-109363381D01*
X112111914Y-109411000D01*
X112064295Y-109506238D01*
X112064295Y-109791952D01*
X112111914Y-109887190D01*
X112159533Y-109934809D01*
X112254771Y-109982428D01*
X112397629Y-109982428D01*
X111778581Y-109315762D02*
X111397629Y-109315762D01*
X111635724Y-108982428D02*
X111635724Y-109839571D01*
X111588105Y-109934809D01*
X111492867Y-109982428D01*
X111397629Y-109982428D01*
X110921438Y-109982428D02*
X111016676Y-109934809D01*
X111064295Y-109887190D01*
X111111914Y-109791952D01*
X111111914Y-109506238D01*
X111064295Y-109411000D01*
X111016676Y-109363381D01*
X110921438Y-109315762D01*
X110778581Y-109315762D01*
X110683343Y-109363381D01*
X110635724Y-109411000D01*
X110588105Y-109506238D01*
X110588105Y-109791952D01*
X110635724Y-109887190D01*
X110683343Y-109934809D01*
X110778581Y-109982428D01*
X110921438Y-109982428D01*
X110159533Y-109982428D02*
X110159533Y-109315762D01*
X110159533Y-109506238D02*
X110111914Y-109411000D01*
X110064295Y-109363381D01*
X109969057Y-109315762D01*
X109873819Y-109315762D01*
X65421418Y-97658600D02*
X65278561Y-97706219D01*
X65230942Y-97753838D01*
X65183323Y-97849076D01*
X65183323Y-97991933D01*
X65230942Y-98087171D01*
X65278561Y-98134790D01*
X65373799Y-98182409D01*
X65754751Y-98182409D01*
X65754751Y-97182409D01*
X65421418Y-97182409D01*
X65326180Y-97230029D01*
X65278561Y-97277648D01*
X65230942Y-97372886D01*
X65230942Y-97468124D01*
X65278561Y-97563362D01*
X65326180Y-97610981D01*
X65421418Y-97658600D01*
X65754751Y-97658600D01*
X64326180Y-98182409D02*
X64326180Y-97658600D01*
X64373799Y-97563362D01*
X64469037Y-97515743D01*
X64659513Y-97515743D01*
X64754751Y-97563362D01*
X64326180Y-98134790D02*
X64421418Y-98182409D01*
X64659513Y-98182409D01*
X64754751Y-98134790D01*
X64802370Y-98039552D01*
X64802370Y-97944314D01*
X64754751Y-97849076D01*
X64659513Y-97801457D01*
X64421418Y-97801457D01*
X64326180Y-97753838D01*
X63992847Y-97515743D02*
X63611894Y-97515743D01*
X63849990Y-97182409D02*
X63849990Y-98039552D01*
X63802370Y-98134790D01*
X63707132Y-98182409D01*
X63611894Y-98182409D01*
X63421418Y-97515743D02*
X63040466Y-97515743D01*
X63278561Y-97182409D02*
X63278561Y-98039552D01*
X63230942Y-98134790D01*
X63135704Y-98182409D01*
X63040466Y-98182409D01*
X62326180Y-98134790D02*
X62421418Y-98182409D01*
X62611894Y-98182409D01*
X62707132Y-98134790D01*
X62754751Y-98039552D01*
X62754751Y-97658600D01*
X62707132Y-97563362D01*
X62611894Y-97515743D01*
X62421418Y-97515743D01*
X62326180Y-97563362D01*
X62278561Y-97658600D01*
X62278561Y-97753838D01*
X62754751Y-97849076D01*
X61849990Y-98182409D02*
X61849990Y-97515743D01*
X61849990Y-97706219D02*
X61802370Y-97610981D01*
X61754751Y-97563362D01*
X61659513Y-97515743D01*
X61564275Y-97515743D01*
X61326180Y-97515743D02*
X61088085Y-98182409D01*
X60849990Y-97515743D02*
X61088085Y-98182409D01*
X61183323Y-98420505D01*
X61230942Y-98468124D01*
X61326180Y-98515743D01*
X112797629Y-104107171D02*
X112845248Y-104154790D01*
X112988105Y-104202409D01*
X113083343Y-104202409D01*
X113226200Y-104154790D01*
X113321438Y-104059552D01*
X113369057Y-103964314D01*
X113416676Y-103773838D01*
X113416676Y-103630981D01*
X113369057Y-103440505D01*
X113321438Y-103345267D01*
X113226200Y-103250029D01*
X113083343Y-103202409D01*
X112988105Y-103202409D01*
X112845248Y-103250029D01*
X112797629Y-103297648D01*
X111940486Y-103535743D02*
X111940486Y-104202409D01*
X112369057Y-103535743D02*
X112369057Y-104059552D01*
X112321438Y-104154790D01*
X112226200Y-104202409D01*
X112083343Y-104202409D01*
X111988105Y-104154790D01*
X111940486Y-104107171D01*
X111464295Y-104202409D02*
X111464295Y-103535743D01*
X111464295Y-103726219D02*
X111416676Y-103630981D01*
X111369057Y-103583362D01*
X111273819Y-103535743D01*
X111178581Y-103535743D01*
X110845248Y-104202409D02*
X110845248Y-103535743D01*
X110845248Y-103726219D02*
X110797629Y-103630981D01*
X110750010Y-103583362D01*
X110654771Y-103535743D01*
X110559533Y-103535743D01*
X109845248Y-104154790D02*
X109940486Y-104202409D01*
X110130962Y-104202409D01*
X110226200Y-104154790D01*
X110273819Y-104059552D01*
X110273819Y-103678600D01*
X110226200Y-103583362D01*
X110130962Y-103535743D01*
X109940486Y-103535743D01*
X109845248Y-103583362D01*
X109797629Y-103678600D01*
X109797629Y-103773838D01*
X110273819Y-103869076D01*
X109369057Y-103535743D02*
X109369057Y-104202409D01*
X109369057Y-103630981D02*
X109321438Y-103583362D01*
X109226200Y-103535743D01*
X109083343Y-103535743D01*
X108988105Y-103583362D01*
X108940486Y-103678600D01*
X108940486Y-104202409D01*
X108607152Y-103535743D02*
X108226200Y-103535743D01*
X108464295Y-103202409D02*
X108464295Y-104059552D01*
X108416676Y-104154790D01*
X108321438Y-104202409D01*
X108226200Y-104202409D01*
X107178581Y-104154790D02*
X107035724Y-104202409D01*
X106797629Y-104202409D01*
X106702390Y-104154790D01*
X106654771Y-104107171D01*
X106607152Y-104011933D01*
X106607152Y-103916695D01*
X106654771Y-103821457D01*
X106702390Y-103773838D01*
X106797629Y-103726219D01*
X106988105Y-103678600D01*
X107083343Y-103630981D01*
X107130962Y-103583362D01*
X107178581Y-103488124D01*
X107178581Y-103392886D01*
X107130962Y-103297648D01*
X107083343Y-103250029D01*
X106988105Y-103202409D01*
X106750010Y-103202409D01*
X106607152Y-103250029D01*
X105797629Y-104154790D02*
X105892867Y-104202409D01*
X106083343Y-104202409D01*
X106178581Y-104154790D01*
X106226200Y-104059552D01*
X106226200Y-103678600D01*
X106178581Y-103583362D01*
X106083343Y-103535743D01*
X105892867Y-103535743D01*
X105797629Y-103583362D01*
X105750010Y-103678600D01*
X105750010Y-103773838D01*
X106226200Y-103869076D01*
X105321438Y-103535743D02*
X105321438Y-104202409D01*
X105321438Y-103630981D02*
X105273819Y-103583362D01*
X105178581Y-103535743D01*
X105035724Y-103535743D01*
X104940486Y-103583362D01*
X104892867Y-103678600D01*
X104892867Y-104202409D01*
X104464295Y-104154790D02*
X104369057Y-104202409D01*
X104178581Y-104202409D01*
X104083343Y-104154790D01*
X104035724Y-104059552D01*
X104035724Y-104011933D01*
X104083343Y-103916695D01*
X104178581Y-103869076D01*
X104321438Y-103869076D01*
X104416676Y-103821457D01*
X104464295Y-103726219D01*
X104464295Y-103678600D01*
X104416676Y-103583362D01*
X104321438Y-103535743D01*
X104178581Y-103535743D01*
X104083343Y-103583362D01*
X103464295Y-104202409D02*
X103559533Y-104154790D01*
X103607152Y-104107171D01*
X103654771Y-104011933D01*
X103654771Y-103726219D01*
X103607152Y-103630981D01*
X103559533Y-103583362D01*
X103464295Y-103535743D01*
X103321438Y-103535743D01*
X103226200Y-103583362D01*
X103178581Y-103630981D01*
X103130962Y-103726219D01*
X103130962Y-104011933D01*
X103178581Y-104107171D01*
X103226200Y-104154790D01*
X103321438Y-104202409D01*
X103464295Y-104202409D01*
X102702390Y-104202409D02*
X102702390Y-103535743D01*
X102702390Y-103726219D02*
X102654771Y-103630981D01*
X102607152Y-103583362D01*
X102511914Y-103535743D01*
X102416676Y-103535743D01*
X100988105Y-103678600D02*
X100845248Y-103726219D01*
X100797629Y-103773838D01*
X100750010Y-103869076D01*
X100750010Y-104011933D01*
X100797629Y-104107171D01*
X100845248Y-104154790D01*
X100940486Y-104202409D01*
X101321438Y-104202409D01*
X101321438Y-103202409D01*
X100988105Y-103202409D01*
X100892867Y-103250029D01*
X100845248Y-103297648D01*
X100797629Y-103392886D01*
X100797629Y-103488124D01*
X100845248Y-103583362D01*
X100892867Y-103630981D01*
X100988105Y-103678600D01*
X101321438Y-103678600D01*
X100321438Y-104202409D02*
X100321438Y-103535743D01*
X100321438Y-103726219D02*
X100273819Y-103630981D01*
X100226200Y-103583362D01*
X100130962Y-103535743D01*
X100035724Y-103535743D01*
X99321438Y-104154790D02*
X99416676Y-104202409D01*
X99607152Y-104202409D01*
X99702390Y-104154790D01*
X99750010Y-104059552D01*
X99750010Y-103678600D01*
X99702390Y-103583362D01*
X99607152Y-103535743D01*
X99416676Y-103535743D01*
X99321438Y-103583362D01*
X99273819Y-103678600D01*
X99273819Y-103773838D01*
X99750010Y-103869076D01*
X98416676Y-104202409D02*
X98416676Y-103678600D01*
X98464295Y-103583362D01*
X98559533Y-103535743D01*
X98750010Y-103535743D01*
X98845248Y-103583362D01*
X98416676Y-104154790D02*
X98511914Y-104202409D01*
X98750010Y-104202409D01*
X98845248Y-104154790D01*
X98892867Y-104059552D01*
X98892867Y-103964314D01*
X98845248Y-103869076D01*
X98750010Y-103821457D01*
X98511914Y-103821457D01*
X98416676Y-103773838D01*
X97940486Y-104202409D02*
X97940486Y-103202409D01*
X97845248Y-103821457D02*
X97559533Y-104202409D01*
X97559533Y-103535743D02*
X97940486Y-103916695D01*
X96988105Y-104202409D02*
X97083343Y-104154790D01*
X97130962Y-104107171D01*
X97178581Y-104011933D01*
X97178581Y-103726219D01*
X97130962Y-103630981D01*
X97083343Y-103583362D01*
X96988105Y-103535743D01*
X96845248Y-103535743D01*
X96750010Y-103583362D01*
X96702390Y-103630981D01*
X96654771Y-103726219D01*
X96654771Y-104011933D01*
X96702390Y-104107171D01*
X96750010Y-104154790D01*
X96845248Y-104202409D01*
X96988105Y-104202409D01*
X95797629Y-103535743D02*
X95797629Y-104202409D01*
X96226200Y-103535743D02*
X96226200Y-104059552D01*
X96178581Y-104154790D01*
X96083343Y-104202409D01*
X95940486Y-104202409D01*
X95845248Y-104154790D01*
X95797629Y-104107171D01*
X95464295Y-103535743D02*
X95083343Y-103535743D01*
X95321438Y-103202409D02*
X95321438Y-104059552D01*
X95273819Y-104154790D01*
X95178581Y-104202409D01*
X95083343Y-104202409D01*
X93654771Y-103678600D02*
X93511914Y-103726219D01*
X93464295Y-103773838D01*
X93416676Y-103869076D01*
X93416676Y-104011933D01*
X93464295Y-104107171D01*
X93511914Y-104154790D01*
X93607152Y-104202409D01*
X93988105Y-104202409D01*
X93988105Y-103202409D01*
X93654771Y-103202409D01*
X93559533Y-103250029D01*
X93511914Y-103297648D01*
X93464295Y-103392886D01*
X93464295Y-103488124D01*
X93511914Y-103583362D01*
X93559533Y-103630981D01*
X93654771Y-103678600D01*
X93988105Y-103678600D01*
X92845248Y-104202409D02*
X92940486Y-104154790D01*
X92988105Y-104107171D01*
X93035724Y-104011933D01*
X93035724Y-103726219D01*
X92988105Y-103630981D01*
X92940486Y-103583362D01*
X92845248Y-103535743D01*
X92702390Y-103535743D01*
X92607152Y-103583362D01*
X92559533Y-103630981D01*
X92511914Y-103726219D01*
X92511914Y-104011933D01*
X92559533Y-104107171D01*
X92607152Y-104154790D01*
X92702390Y-104202409D01*
X92845248Y-104202409D01*
X91654771Y-104202409D02*
X91654771Y-103678600D01*
X91702390Y-103583362D01*
X91797629Y-103535743D01*
X91988105Y-103535743D01*
X92083343Y-103583362D01*
X91654771Y-104154790D02*
X91750010Y-104202409D01*
X91988105Y-104202409D01*
X92083343Y-104154790D01*
X92130962Y-104059552D01*
X92130962Y-103964314D01*
X92083343Y-103869076D01*
X91988105Y-103821457D01*
X91750010Y-103821457D01*
X91654771Y-103773838D01*
X91178581Y-104202409D02*
X91178581Y-103535743D01*
X91178581Y-103726219D02*
X91130962Y-103630981D01*
X91083343Y-103583362D01*
X90988105Y-103535743D01*
X90892867Y-103535743D01*
X90130962Y-104202409D02*
X90130962Y-103202409D01*
X90130962Y-104154790D02*
X90226200Y-104202409D01*
X90416676Y-104202409D01*
X90511914Y-104154790D01*
X90559533Y-104107171D01*
X90607152Y-104011933D01*
X90607152Y-103726219D01*
X90559533Y-103630981D01*
X90511914Y-103583362D01*
X90416676Y-103535743D01*
X90226200Y-103535743D01*
X90130962Y-103583362D01*
X65183323Y-87482409D02*
X65183323Y-86482409D01*
X64849990Y-87196695D01*
X64516656Y-86482409D01*
X64516656Y-87482409D01*
X63897609Y-87482409D02*
X63992847Y-87434790D01*
X64040466Y-87387171D01*
X64088085Y-87291933D01*
X64088085Y-87006219D01*
X64040466Y-86910981D01*
X63992847Y-86863362D01*
X63897609Y-86815743D01*
X63754751Y-86815743D01*
X63659513Y-86863362D01*
X63611894Y-86910981D01*
X63564275Y-87006219D01*
X63564275Y-87291933D01*
X63611894Y-87387171D01*
X63659513Y-87434790D01*
X63754751Y-87482409D01*
X63897609Y-87482409D01*
X63278561Y-86815743D02*
X62897609Y-86815743D01*
X63135704Y-86482409D02*
X63135704Y-87339552D01*
X63088085Y-87434790D01*
X62992847Y-87482409D01*
X62897609Y-87482409D01*
X62421418Y-87482409D02*
X62516656Y-87434790D01*
X62564275Y-87387171D01*
X62611894Y-87291933D01*
X62611894Y-87006219D01*
X62564275Y-86910981D01*
X62516656Y-86863362D01*
X62421418Y-86815743D01*
X62278561Y-86815743D01*
X62183323Y-86863362D01*
X62135704Y-86910981D01*
X62088085Y-87006219D01*
X62088085Y-87291933D01*
X62135704Y-87387171D01*
X62183323Y-87434790D01*
X62278561Y-87482409D01*
X62421418Y-87482409D01*
X61659513Y-87482409D02*
X61659513Y-86815743D01*
X61659513Y-87006219D02*
X61611894Y-86910981D01*
X61564275Y-86863362D01*
X61469037Y-86815743D01*
X61373799Y-86815743D01*
X112797629Y-81607152D02*
X112845248Y-81654771D01*
X112988105Y-81702390D01*
X113083343Y-81702390D01*
X113226200Y-81654771D01*
X113321438Y-81559533D01*
X113369057Y-81464295D01*
X113416676Y-81273819D01*
X113416676Y-81130962D01*
X113369057Y-80940486D01*
X113321438Y-80845248D01*
X113226200Y-80750010D01*
X113083343Y-80702390D01*
X112988105Y-80702390D01*
X112845248Y-80750010D01*
X112797629Y-80797629D01*
X111940486Y-81035724D02*
X111940486Y-81702390D01*
X112369057Y-81035724D02*
X112369057Y-81559533D01*
X112321438Y-81654771D01*
X112226200Y-81702390D01*
X112083343Y-81702390D01*
X111988105Y-81654771D01*
X111940486Y-81607152D01*
X111464295Y-81702390D02*
X111464295Y-81035724D01*
X111464295Y-81226200D02*
X111416676Y-81130962D01*
X111369057Y-81083343D01*
X111273819Y-81035724D01*
X111178581Y-81035724D01*
X110845248Y-81702390D02*
X110845248Y-81035724D01*
X110845248Y-81226200D02*
X110797629Y-81130962D01*
X110750010Y-81083343D01*
X110654771Y-81035724D01*
X110559533Y-81035724D01*
X109845248Y-81654771D02*
X109940486Y-81702390D01*
X110130962Y-81702390D01*
X110226200Y-81654771D01*
X110273819Y-81559533D01*
X110273819Y-81178581D01*
X110226200Y-81083343D01*
X110130962Y-81035724D01*
X109940486Y-81035724D01*
X109845248Y-81083343D01*
X109797629Y-81178581D01*
X109797629Y-81273819D01*
X110273819Y-81369057D01*
X109369057Y-81035724D02*
X109369057Y-81702390D01*
X109369057Y-81130962D02*
X109321438Y-81083343D01*
X109226200Y-81035724D01*
X109083343Y-81035724D01*
X108988105Y-81083343D01*
X108940486Y-81178581D01*
X108940486Y-81702390D01*
X108607152Y-81035724D02*
X108226200Y-81035724D01*
X108464295Y-80702390D02*
X108464295Y-81559533D01*
X108416676Y-81654771D01*
X108321438Y-81702390D01*
X108226200Y-81702390D01*
X107178581Y-81654771D02*
X107035724Y-81702390D01*
X106797629Y-81702390D01*
X106702390Y-81654771D01*
X106654771Y-81607152D01*
X106607152Y-81511914D01*
X106607152Y-81416676D01*
X106654771Y-81321438D01*
X106702390Y-81273819D01*
X106797629Y-81226200D01*
X106988105Y-81178581D01*
X107083343Y-81130962D01*
X107130962Y-81083343D01*
X107178581Y-80988105D01*
X107178581Y-80892867D01*
X107130962Y-80797629D01*
X107083343Y-80750010D01*
X106988105Y-80702390D01*
X106750010Y-80702390D01*
X106607152Y-80750010D01*
X105797629Y-81654771D02*
X105892867Y-81702390D01*
X106083343Y-81702390D01*
X106178581Y-81654771D01*
X106226200Y-81559533D01*
X106226200Y-81178581D01*
X106178581Y-81083343D01*
X106083343Y-81035724D01*
X105892867Y-81035724D01*
X105797629Y-81083343D01*
X105750010Y-81178581D01*
X105750010Y-81273819D01*
X106226200Y-81369057D01*
X105321438Y-81035724D02*
X105321438Y-81702390D01*
X105321438Y-81130962D02*
X105273819Y-81083343D01*
X105178581Y-81035724D01*
X105035724Y-81035724D01*
X104940486Y-81083343D01*
X104892867Y-81178581D01*
X104892867Y-81702390D01*
X104464295Y-81654771D02*
X104369057Y-81702390D01*
X104178581Y-81702390D01*
X104083343Y-81654771D01*
X104035724Y-81559533D01*
X104035724Y-81511914D01*
X104083343Y-81416676D01*
X104178581Y-81369057D01*
X104321438Y-81369057D01*
X104416676Y-81321438D01*
X104464295Y-81226200D01*
X104464295Y-81178581D01*
X104416676Y-81083343D01*
X104321438Y-81035724D01*
X104178581Y-81035724D01*
X104083343Y-81083343D01*
X103464295Y-81702390D02*
X103559533Y-81654771D01*
X103607152Y-81607152D01*
X103654771Y-81511914D01*
X103654771Y-81226200D01*
X103607152Y-81130962D01*
X103559533Y-81083343D01*
X103464295Y-81035724D01*
X103321438Y-81035724D01*
X103226200Y-81083343D01*
X103178581Y-81130962D01*
X103130962Y-81226200D01*
X103130962Y-81511914D01*
X103178581Y-81607152D01*
X103226200Y-81654771D01*
X103321438Y-81702390D01*
X103464295Y-81702390D01*
X102702390Y-81702390D02*
X102702390Y-81035724D01*
X102702390Y-81226200D02*
X102654771Y-81130962D01*
X102607152Y-81083343D01*
X102511914Y-81035724D01*
X102416676Y-81035724D01*
X100988105Y-81178581D02*
X100845248Y-81226200D01*
X100797629Y-81273819D01*
X100750010Y-81369057D01*
X100750010Y-81511914D01*
X100797629Y-81607152D01*
X100845248Y-81654771D01*
X100940486Y-81702390D01*
X101321438Y-81702390D01*
X101321438Y-80702390D01*
X100988105Y-80702390D01*
X100892867Y-80750010D01*
X100845248Y-80797629D01*
X100797629Y-80892867D01*
X100797629Y-80988105D01*
X100845248Y-81083343D01*
X100892867Y-81130962D01*
X100988105Y-81178581D01*
X101321438Y-81178581D01*
X100321438Y-81702390D02*
X100321438Y-81035724D01*
X100321438Y-81226200D02*
X100273819Y-81130962D01*
X100226200Y-81083343D01*
X100130962Y-81035724D01*
X100035724Y-81035724D01*
X99321438Y-81654771D02*
X99416676Y-81702390D01*
X99607152Y-81702390D01*
X99702390Y-81654771D01*
X99750010Y-81559533D01*
X99750010Y-81178581D01*
X99702390Y-81083343D01*
X99607152Y-81035724D01*
X99416676Y-81035724D01*
X99321438Y-81083343D01*
X99273819Y-81178581D01*
X99273819Y-81273819D01*
X99750010Y-81369057D01*
X98416676Y-81702390D02*
X98416676Y-81178581D01*
X98464295Y-81083343D01*
X98559533Y-81035724D01*
X98750010Y-81035724D01*
X98845248Y-81083343D01*
X98416676Y-81654771D02*
X98511914Y-81702390D01*
X98750010Y-81702390D01*
X98845248Y-81654771D01*
X98892867Y-81559533D01*
X98892867Y-81464295D01*
X98845248Y-81369057D01*
X98750010Y-81321438D01*
X98511914Y-81321438D01*
X98416676Y-81273819D01*
X97940486Y-81702390D02*
X97940486Y-80702390D01*
X97845248Y-81321438D02*
X97559533Y-81702390D01*
X97559533Y-81035724D02*
X97940486Y-81416676D01*
X96988105Y-81702390D02*
X97083343Y-81654771D01*
X97130962Y-81607152D01*
X97178581Y-81511914D01*
X97178581Y-81226200D01*
X97130962Y-81130962D01*
X97083343Y-81083343D01*
X96988105Y-81035724D01*
X96845248Y-81035724D01*
X96750010Y-81083343D01*
X96702390Y-81130962D01*
X96654771Y-81226200D01*
X96654771Y-81511914D01*
X96702390Y-81607152D01*
X96750010Y-81654771D01*
X96845248Y-81702390D01*
X96988105Y-81702390D01*
X95797629Y-81035724D02*
X95797629Y-81702390D01*
X96226200Y-81035724D02*
X96226200Y-81559533D01*
X96178581Y-81654771D01*
X96083343Y-81702390D01*
X95940486Y-81702390D01*
X95845248Y-81654771D01*
X95797629Y-81607152D01*
X95464295Y-81035724D02*
X95083343Y-81035724D01*
X95321438Y-80702390D02*
X95321438Y-81559533D01*
X95273819Y-81654771D01*
X95178581Y-81702390D01*
X95083343Y-81702390D01*
X93654771Y-81178581D02*
X93511914Y-81226200D01*
X93464295Y-81273819D01*
X93416676Y-81369057D01*
X93416676Y-81511914D01*
X93464295Y-81607152D01*
X93511914Y-81654771D01*
X93607152Y-81702390D01*
X93988105Y-81702390D01*
X93988105Y-80702390D01*
X93654771Y-80702390D01*
X93559533Y-80750010D01*
X93511914Y-80797629D01*
X93464295Y-80892867D01*
X93464295Y-80988105D01*
X93511914Y-81083343D01*
X93559533Y-81130962D01*
X93654771Y-81178581D01*
X93988105Y-81178581D01*
X92845248Y-81702390D02*
X92940486Y-81654771D01*
X92988105Y-81607152D01*
X93035724Y-81511914D01*
X93035724Y-81226200D01*
X92988105Y-81130962D01*
X92940486Y-81083343D01*
X92845248Y-81035724D01*
X92702390Y-81035724D01*
X92607152Y-81083343D01*
X92559533Y-81130962D01*
X92511914Y-81226200D01*
X92511914Y-81511914D01*
X92559533Y-81607152D01*
X92607152Y-81654771D01*
X92702390Y-81702390D01*
X92845248Y-81702390D01*
X91654771Y-81702390D02*
X91654771Y-81178581D01*
X91702390Y-81083343D01*
X91797629Y-81035724D01*
X91988105Y-81035724D01*
X92083343Y-81083343D01*
X91654771Y-81654771D02*
X91750010Y-81702390D01*
X91988105Y-81702390D01*
X92083343Y-81654771D01*
X92130962Y-81559533D01*
X92130962Y-81464295D01*
X92083343Y-81369057D01*
X91988105Y-81321438D01*
X91750010Y-81321438D01*
X91654771Y-81273819D01*
X91178581Y-81702390D02*
X91178581Y-81035724D01*
X91178581Y-81226200D02*
X91130962Y-81130962D01*
X91083343Y-81083343D01*
X90988105Y-81035724D01*
X90892867Y-81035724D01*
X90130962Y-81702390D02*
X90130962Y-80702390D01*
X90130962Y-81654771D02*
X90226200Y-81702390D01*
X90416676Y-81702390D01*
X90511914Y-81654771D01*
X90559533Y-81607152D01*
X90607152Y-81511914D01*
X90607152Y-81226200D01*
X90559533Y-81130962D01*
X90511914Y-81083343D01*
X90416676Y-81035724D01*
X90226200Y-81035724D01*
X90130962Y-81083343D01*
X65183323Y-64982390D02*
X65183323Y-63982390D01*
X64849990Y-64696676D01*
X64516656Y-63982390D01*
X64516656Y-64982390D01*
X63897609Y-64982390D02*
X63992847Y-64934771D01*
X64040466Y-64887152D01*
X64088085Y-64791914D01*
X64088085Y-64506200D01*
X64040466Y-64410962D01*
X63992847Y-64363343D01*
X63897609Y-64315724D01*
X63754751Y-64315724D01*
X63659513Y-64363343D01*
X63611894Y-64410962D01*
X63564275Y-64506200D01*
X63564275Y-64791914D01*
X63611894Y-64887152D01*
X63659513Y-64934771D01*
X63754751Y-64982390D01*
X63897609Y-64982390D01*
X63278561Y-64315724D02*
X62897609Y-64315724D01*
X63135704Y-63982390D02*
X63135704Y-64839533D01*
X63088085Y-64934771D01*
X62992847Y-64982390D01*
X62897609Y-64982390D01*
X62421418Y-64982390D02*
X62516656Y-64934771D01*
X62564275Y-64887152D01*
X62611894Y-64791914D01*
X62611894Y-64506200D01*
X62564275Y-64410962D01*
X62516656Y-64363343D01*
X62421418Y-64315724D01*
X62278561Y-64315724D01*
X62183323Y-64363343D01*
X62135704Y-64410962D01*
X62088085Y-64506200D01*
X62088085Y-64791914D01*
X62135704Y-64887152D01*
X62183323Y-64934771D01*
X62278561Y-64982390D01*
X62421418Y-64982390D01*
X61659513Y-64982390D02*
X61659513Y-64315724D01*
X61659513Y-64506200D02*
X61611894Y-64410962D01*
X61564275Y-64363343D01*
X61469037Y-64315724D01*
X61373799Y-64315724D01*
M02*
