G04 #@! TF.GenerationSoftware,KiCad,Pcbnew,(6.0.0)*
G04 #@! TF.CreationDate,2022-01-04T13:58:26+00:00*
G04 #@! TF.ProjectId,Panelized,50616e65-6c69-47a6-9564-2e6b69636164,rev?*
G04 #@! TF.SameCoordinates,Original*
G04 #@! TF.FileFunction,Profile,NP*
%FSLAX46Y46*%
G04 Gerber Fmt 4.6, Leading zero omitted, Abs format (unit mm)*
G04 Created by KiCad (PCBNEW (6.0.0)) date 2022-01-04 13:58:26*
%MOMM*%
%LPD*%
G01*
G04 APERTURE LIST*
G04 #@! TA.AperFunction,Profile*
%ADD10C,0.100000*%
G04 #@! TD*
G04 APERTURE END LIST*
D10*
X31549984Y-121351000D02*
X31570791Y-121352138D01*
X32548465Y-39769486D02*
X32499062Y-39780952D01*
X27206922Y-55690870D02*
X27249511Y-55716894D01*
X77277671Y-90749528D02*
X77268215Y-90730969D01*
X72549628Y-82705110D02*
X72597666Y-82688691D01*
X75665703Y-78162774D02*
X75706942Y-78190889D01*
X32060315Y-85024528D02*
X32024454Y-85060391D01*
X31570791Y-113347957D02*
X31549976Y-113349047D01*
X41000326Y-84749006D02*
X32750000Y-84749000D01*
X75309386Y-112007662D02*
X75293489Y-112054974D01*
X32749964Y-105251028D02*
X41000326Y-105251022D01*
X75422959Y-122913951D02*
X75452095Y-122954475D01*
X77350510Y-113322386D02*
X77324775Y-113304699D01*
X121571579Y-59821851D02*
X121599516Y-59779462D01*
X27384306Y-123281861D02*
X27431208Y-123298930D01*
X76175230Y-88851826D02*
X76125566Y-88856794D01*
X72300663Y-127749764D02*
X72351234Y-127745914D01*
X121599489Y-85220514D02*
X121571608Y-85178210D01*
X75931228Y-43901108D02*
X75884326Y-43918177D01*
X121144783Y-107330181D02*
X121097686Y-107311366D01*
X75249010Y-89850028D02*
X75249006Y-93750014D01*
X27125857Y-100632626D02*
X27165642Y-100662764D01*
X73099496Y-107720576D02*
X73071588Y-107678229D01*
X73169876Y-62855283D02*
X73148681Y-62809152D01*
X28739813Y-89700862D02*
X28731147Y-89651709D01*
X75422931Y-89286166D02*
X75395853Y-89328093D01*
X80149509Y-76377671D02*
X80175244Y-76395358D01*
X31769485Y-85548504D02*
X31760537Y-85598424D01*
X77418879Y-68346559D02*
X77398505Y-68342228D01*
X73230504Y-126951523D02*
X73239450Y-126901602D01*
X121705110Y-127049686D02*
X121719061Y-127000926D01*
X28878675Y-98864247D02*
X28898485Y-98857810D01*
X76472729Y-100825937D02*
X76521097Y-100813622D01*
X26753962Y-89750386D02*
X26750233Y-89800158D01*
X31748999Y-68149986D02*
X31746539Y-68181140D01*
X77206545Y-112055021D02*
X77190650Y-112007709D01*
X73125198Y-127235857D02*
X73148703Y-127190859D01*
X72690801Y-60148704D02*
X72735755Y-60125224D01*
X72597666Y-107311366D02*
X72549676Y-107294962D01*
X76027242Y-123325944D02*
X76076212Y-123335844D01*
X121190821Y-82648723D02*
X121235775Y-82625243D01*
X28918859Y-113346597D02*
X28888495Y-113339307D01*
X27824769Y-111351845D02*
X27774920Y-111349358D01*
X32097946Y-127509548D02*
X32137251Y-127541599D01*
X76793077Y-123190927D02*
X76834316Y-123162812D01*
X121475545Y-85060391D02*
X121439684Y-85024528D01*
X76374502Y-55843219D02*
X76423856Y-55835778D01*
X26768842Y-89651660D02*
X26760174Y-89700813D01*
X27206880Y-100690881D02*
X27249468Y-100716907D01*
X72644716Y-39830104D02*
X72597618Y-39811292D01*
X80250296Y-104300754D02*
X80254148Y-104351323D01*
X43500326Y-82751007D02*
X56499663Y-82751003D01*
X75978922Y-43886397D02*
X75931228Y-43901108D01*
X77231157Y-44651622D02*
X77220049Y-44602962D01*
X80720495Y-107400568D02*
X80678149Y-107428478D01*
X75422931Y-66786147D02*
X75395853Y-66828074D01*
X121541561Y-104862767D02*
X121571579Y-104821889D01*
X32548465Y-62269505D02*
X32499062Y-62280971D01*
X76793077Y-100690908D02*
X76834316Y-100662793D01*
X76472729Y-88874120D02*
X76423807Y-88864232D01*
X80902333Y-82688691D02*
X80950371Y-82705110D01*
X28250511Y-100716907D02*
X28293099Y-100690881D01*
X32137251Y-62458458D02*
X32097946Y-62490509D01*
X76423856Y-55835778D02*
X76472777Y-55825887D01*
X27576192Y-55835787D02*
X27625546Y-55843225D01*
X80855236Y-127669914D02*
X80902333Y-127688729D01*
X121279481Y-60099497D02*
X121321828Y-60071589D01*
X120951485Y-62269495D02*
X120901564Y-62260549D01*
X75793365Y-66459237D02*
X75749488Y-66483131D01*
X80490509Y-127402091D02*
X80524474Y-127439685D01*
X121190821Y-105148742D02*
X121235775Y-105125262D01*
X80764244Y-62374776D02*
X80720495Y-62400530D01*
X26848131Y-100284368D02*
X26870878Y-100328739D01*
X80249010Y-63250009D02*
X80249000Y-68149987D01*
X75793321Y-100740779D02*
X75838334Y-100762456D01*
X89500336Y-84749006D02*
X81249974Y-84749000D01*
X77378695Y-45835772D02*
X77350510Y-45822329D01*
X73099469Y-104779543D02*
X73125198Y-104735838D01*
X31754123Y-85648784D02*
X31750273Y-85699354D01*
X72735799Y-127625256D02*
X72779504Y-127599527D01*
X77272700Y-53959647D02*
X77289016Y-53933022D01*
X76948926Y-66633410D02*
X76912376Y-66599495D01*
X31630930Y-90831823D02*
X31611484Y-90839288D01*
X81249984Y-82751009D02*
X89500336Y-82751007D01*
X28809276Y-98909315D02*
X28833021Y-98889035D01*
X31742208Y-45701495D02*
X31735771Y-45721305D01*
X76125517Y-111356819D02*
X76076163Y-111364260D01*
X27972757Y-55825887D02*
X28021125Y-55813570D01*
X28750999Y-89850000D02*
X28749744Y-89800108D01*
X32598385Y-127739500D02*
X32648695Y-127745909D01*
X32137291Y-84958446D02*
X32097946Y-84990528D01*
X73009490Y-107598004D02*
X72975490Y-107560373D01*
X32699315Y-39750274D02*
X32648745Y-39754124D01*
X80902333Y-60188672D02*
X80950323Y-60205076D01*
X31851276Y-127190859D02*
X31874756Y-127235813D01*
X75978922Y-66386416D02*
X75931228Y-66401127D01*
X76661685Y-78262437D02*
X76706654Y-78240782D01*
X28757771Y-68201514D02*
X28753440Y-68181140D01*
X32749964Y-60250990D02*
X41000326Y-60250992D01*
X28161665Y-111437620D02*
X28115673Y-111418234D01*
X73249706Y-108199373D02*
X73245851Y-108148753D01*
X28629101Y-66871299D02*
X28604120Y-66828032D01*
X121571608Y-127321866D02*
X121599516Y-127279519D01*
X27576143Y-100835816D02*
X27625497Y-100843257D01*
X80280958Y-40499112D02*
X80269505Y-40548466D01*
X27874433Y-111356813D02*
X27824769Y-111351845D01*
X26848131Y-122784387D02*
X26870902Y-122828801D01*
X121745876Y-104351273D02*
X121749726Y-104300703D01*
X121362748Y-127541599D02*
X121402053Y-127509548D01*
X80330143Y-127144821D02*
X80351296Y-127190859D01*
X28739805Y-112200832D02*
X28731137Y-112151679D01*
X76615739Y-78281805D02*
X76661685Y-78262437D01*
X73230494Y-63048485D02*
X73219041Y-62999131D01*
X77231157Y-112151679D02*
X77220049Y-112103019D01*
X31727299Y-45740334D02*
X31716884Y-45758373D01*
X32750000Y-84749000D02*
X32699314Y-84750312D01*
X75348151Y-66915670D02*
X75327602Y-66961209D01*
X121000888Y-62280958D02*
X120951485Y-62269495D01*
X28753440Y-90681159D02*
X28750990Y-90650015D01*
X77246037Y-89750386D02*
X77239825Y-89700813D01*
X80855236Y-84830162D02*
X80809198Y-84851315D01*
X75268862Y-67151641D02*
X75260194Y-67200794D01*
X104999673Y-62249006D02*
X92000336Y-62249002D01*
X27576192Y-123335844D02*
X27625546Y-123343282D01*
X28334337Y-66537274D02*
X28293057Y-66509130D01*
X27384260Y-100781824D02*
X27431161Y-100798896D01*
X75370922Y-55328744D02*
X75395853Y-55371926D01*
X121362708Y-105041611D02*
X121402053Y-105009529D01*
X31990456Y-40097986D02*
X31958438Y-40137252D01*
X32097946Y-62490509D02*
X32060315Y-62524509D01*
X28731137Y-112151679D02*
X28720029Y-112103019D01*
X76423807Y-88864232D02*
X76374453Y-88856794D01*
X73245856Y-126851292D02*
X73249706Y-126800722D01*
X27249468Y-111483169D02*
X27206880Y-111509195D01*
X77324775Y-53895339D02*
X77341627Y-53883096D01*
X72939627Y-85024493D02*
X72902033Y-84990528D01*
X31731784Y-113230988D02*
X31716884Y-113258430D01*
X26983163Y-77993421D02*
X27016188Y-78030844D01*
X28777651Y-53950491D02*
X28795338Y-53924756D01*
X80428411Y-62678191D02*
X80400503Y-62720538D01*
X31874781Y-107764238D02*
X31851298Y-107809190D01*
X26793469Y-122645121D02*
X26809366Y-122692433D01*
X27923787Y-111364251D02*
X27874433Y-111356813D01*
X72821850Y-39928421D02*
X72779504Y-39900511D01*
X27384260Y-43918195D02*
X27338269Y-43937584D01*
X27431161Y-88901161D02*
X27384260Y-88918233D01*
X27675160Y-111351849D02*
X27625497Y-111356819D01*
X28950013Y-45848999D02*
X28918859Y-45846540D01*
X43500326Y-107249013D02*
X43500326Y-105251021D01*
X27675160Y-43851792D02*
X27625546Y-43856756D01*
X120750010Y-84749029D02*
X107499673Y-84749019D01*
X80111504Y-53860731D02*
X80130950Y-53868196D01*
X26753962Y-54949633D02*
X26760166Y-54999157D01*
X121688691Y-59597667D02*
X121705095Y-59549677D01*
X120901614Y-60239443D02*
X120951534Y-60230495D01*
X81199335Y-127749764D02*
X81250010Y-127751047D01*
X28833021Y-76389016D02*
X28859646Y-76372700D01*
X75309369Y-67007671D02*
X75293474Y-67054983D01*
X28757771Y-121498543D02*
X28768195Y-121469107D01*
X80175244Y-90804680D02*
X80149509Y-90822367D01*
X26848131Y-77784349D02*
X26870878Y-77828720D01*
X27249468Y-123216926D02*
X27293301Y-123240798D01*
X76661730Y-111437641D02*
X76615739Y-111418252D01*
X27338314Y-66437582D02*
X27293345Y-66459237D01*
X75483215Y-89206579D02*
X75452065Y-89245640D01*
X121599489Y-62720495D02*
X121571608Y-62678191D01*
X72939664Y-59975491D02*
X72975525Y-59939628D01*
X75422959Y-77913913D02*
X75452095Y-77954437D01*
X120851304Y-60245852D02*
X120901614Y-60239443D01*
X75452065Y-44245602D02*
X75422931Y-44286128D01*
X77129097Y-122828801D02*
X77151868Y-122784387D01*
X28777651Y-90749528D02*
X28768195Y-90730969D01*
X27675210Y-66351807D02*
X27625546Y-66356775D01*
X80130950Y-90831823D02*
X80111504Y-90839288D01*
X31830123Y-62855236D02*
X31811308Y-62902333D01*
X32097946Y-105009529D02*
X32137291Y-105041611D01*
X76225079Y-66349320D02*
X76175180Y-66351811D01*
X28577040Y-55413894D02*
X28604120Y-55371968D01*
X76274990Y-66349322D02*
X76225079Y-66349320D01*
X27725059Y-66349320D02*
X27675210Y-66351807D01*
X89500336Y-62249002D02*
X81249974Y-62249000D01*
X104999673Y-107249028D02*
X92000336Y-107249013D01*
X28604120Y-111828070D02*
X28577040Y-111786144D01*
X28859646Y-68327319D02*
X28833021Y-68311003D01*
X27972709Y-123325956D02*
X28021077Y-123313641D01*
X43500326Y-62249002D02*
X43500326Y-60250993D01*
X121648701Y-82190867D02*
X121669896Y-82144736D01*
X80260549Y-40598436D02*
X80254143Y-40648746D01*
X121749726Y-81800684D02*
X121751009Y-81750009D01*
X26952045Y-111745659D02*
X26922939Y-111786144D01*
X32598435Y-60239451D02*
X32648745Y-60245857D01*
X28720029Y-55097019D02*
X28731137Y-55048359D01*
X26809349Y-44507652D02*
X26793454Y-44554964D01*
X80149509Y-121377709D02*
X80175244Y-121395396D01*
X75483215Y-111706598D02*
X75452065Y-111745659D01*
X75293489Y-112054974D02*
X75279957Y-112103068D01*
X27016188Y-100530863D02*
X27051037Y-100566594D01*
X28516816Y-100493440D02*
X28547934Y-100454417D01*
X80269505Y-126951572D02*
X80280958Y-127000926D01*
X121730514Y-59451515D02*
X121739462Y-59401595D01*
X27625546Y-66356775D02*
X27576192Y-66364213D01*
X77268215Y-98969088D02*
X77277671Y-98950529D01*
X80294909Y-40450352D02*
X80280958Y-40499112D01*
X28516784Y-89206579D02*
X28483757Y-89169158D01*
X80130950Y-121368253D02*
X80149509Y-121377709D01*
X77408635Y-53855340D02*
X77429208Y-53852081D01*
X27625497Y-78343238D02*
X27675160Y-78348208D01*
X121541561Y-127362786D02*
X121571608Y-127321866D01*
X81199284Y-62250296D02*
X81148715Y-62254148D01*
X80720495Y-62400530D02*
X80678191Y-62428411D01*
X76521097Y-100813622D02*
X76568838Y-100798896D01*
X73009523Y-104902033D02*
X73041572Y-104862727D01*
X80294924Y-107950361D02*
X80280971Y-107999120D01*
X26753966Y-44750298D02*
X26750235Y-44800070D01*
X28878675Y-53864209D02*
X28898485Y-53857772D01*
X43500326Y-105251021D02*
X56499663Y-105251011D01*
X104999673Y-84749017D02*
X92000336Y-84749007D01*
X32355216Y-60169857D02*
X32402313Y-60188672D01*
X32309178Y-127648761D02*
X32355216Y-127669914D01*
X72500868Y-82719061D02*
X72549628Y-82705110D01*
X121571579Y-40178130D02*
X121541561Y-40137252D01*
X121625218Y-62764200D02*
X121599489Y-62720495D01*
X80216904Y-90758411D02*
X80204661Y-90775263D01*
X80330123Y-85355302D02*
X80311311Y-85402400D01*
X31900510Y-62720495D02*
X31874781Y-62764200D01*
X77239825Y-99999244D02*
X77246033Y-99949721D01*
X121049696Y-82705095D02*
X121097686Y-82688691D01*
X77264228Y-53978676D02*
X77272700Y-53959647D01*
X80764244Y-60125224D02*
X80809198Y-60148704D01*
X28374122Y-100632626D02*
X28412356Y-100600543D01*
X121362708Y-82541592D02*
X121402053Y-82509510D01*
X31900510Y-85220514D02*
X31874781Y-85264219D01*
X32648745Y-62254143D02*
X32598435Y-62260549D01*
X28739813Y-77499176D02*
X28746017Y-77449652D01*
X80250296Y-85699303D02*
X80249010Y-85750028D01*
X80249000Y-126749999D02*
X80250293Y-126800722D01*
X75793365Y-43959218D02*
X75749488Y-43983112D01*
X28929188Y-90847938D02*
X28908615Y-90844679D01*
X28833021Y-68311003D02*
X28816833Y-68297895D01*
X28250511Y-123216926D02*
X28293099Y-123190900D01*
X73188671Y-104597705D02*
X73205075Y-104549715D01*
X77277671Y-68249509D02*
X77268215Y-68230950D01*
X72597666Y-60188672D02*
X72644763Y-60169857D01*
X121402053Y-60009491D02*
X121439684Y-59975491D01*
X73071588Y-127321866D02*
X73099469Y-127279562D01*
X41000326Y-82751007D02*
X41000326Y-84749006D01*
X75483183Y-55493402D02*
X75516208Y-55530825D01*
X76793077Y-78190889D02*
X76834316Y-78162774D01*
X26922939Y-55413894D02*
X26952045Y-55454379D01*
X80597966Y-60009491D02*
X80637271Y-60041542D01*
X121402053Y-127509548D02*
X121439647Y-127475583D01*
X28604120Y-44328013D02*
X28577040Y-44286087D01*
X32264180Y-107374839D02*
X32220475Y-107400568D01*
X80400530Y-40220476D02*
X80374801Y-40264181D01*
X80374776Y-62764244D02*
X80351296Y-62809198D01*
X77047954Y-100454417D02*
X77077088Y-100413891D01*
X80130950Y-113331842D02*
X80111504Y-113339307D01*
X27972709Y-88874120D02*
X27923836Y-88864241D01*
X77249764Y-77399930D02*
X77251009Y-77350034D01*
X28795338Y-113275282D02*
X28783095Y-113258430D01*
X73148703Y-107809236D02*
X73125223Y-107764282D01*
X77190650Y-112007709D02*
X77172417Y-111961247D01*
X73169876Y-85355302D02*
X73148681Y-85309171D01*
X72939627Y-107524512D02*
X72901994Y-107490514D01*
X80249009Y-54050004D02*
X80249000Y-59249999D01*
X75483183Y-66706598D02*
X75452065Y-66745621D01*
X80294909Y-62950371D02*
X80280958Y-62999131D01*
X31958438Y-59862729D02*
X31990489Y-59902034D01*
X75587643Y-111599533D02*
X75551057Y-111633482D01*
X80254143Y-59351235D02*
X80260557Y-59401595D01*
X28651848Y-89415689D02*
X28629077Y-89371275D01*
X77316853Y-68297895D02*
X77295358Y-68275244D01*
X75268852Y-100048348D02*
X75279957Y-100097008D01*
X73041541Y-59862729D02*
X73071559Y-59821851D01*
X75327602Y-122738848D02*
X75348129Y-122784343D01*
X28547904Y-122954475D02*
X28577040Y-122913951D01*
X73245851Y-108148753D02*
X73239442Y-108098443D01*
X28516816Y-44206579D02*
X28483757Y-44169120D01*
X80637311Y-62458427D02*
X80598005Y-62490476D01*
X32137291Y-82541592D02*
X32178171Y-82571608D01*
X76374453Y-66356775D02*
X76324839Y-66351811D01*
X28706510Y-77645083D02*
X28720029Y-77597038D01*
X28746017Y-54949633D02*
X28749746Y-54899861D01*
X121739462Y-108098443D02*
X121730524Y-108048572D01*
X80190723Y-68290723D02*
X80175244Y-68304661D01*
X75749488Y-111483169D02*
X75706900Y-111509195D01*
X72549628Y-39794890D02*
X72500868Y-39780939D01*
X31874756Y-127235813D02*
X31900483Y-127279519D01*
X120951485Y-39769476D02*
X120901564Y-39760530D01*
X77206545Y-77645036D02*
X77220049Y-77597038D01*
X80764244Y-39874757D02*
X80720495Y-39900511D01*
X77172417Y-77738810D02*
X77190650Y-77692348D01*
X77239825Y-77499225D02*
X77246033Y-77449702D01*
X80855236Y-82669876D02*
X80902333Y-82688691D01*
X26768842Y-100048397D02*
X26779950Y-100097057D01*
X72975490Y-107560373D02*
X72939627Y-107524512D01*
X81148765Y-39754124D02*
X81098455Y-39760530D01*
X32499062Y-62280971D02*
X32450351Y-62294909D01*
X28412356Y-66599495D02*
X28374122Y-66567412D01*
X73230504Y-104451504D02*
X73239442Y-104401633D01*
X80598005Y-39990457D02*
X80560372Y-40024455D01*
X27774920Y-111349358D02*
X27725009Y-111349360D01*
X121000937Y-60219029D02*
X121049696Y-60205076D01*
X80260557Y-104401633D02*
X80269505Y-104451553D01*
X32355216Y-39830124D02*
X32309178Y-39851277D01*
X73250989Y-81750010D02*
X73250994Y-73750004D01*
X28777651Y-45749490D02*
X28768195Y-45730931D01*
X73205090Y-85450390D02*
X73188688Y-85402400D01*
X28334337Y-100662764D02*
X28374122Y-100632626D01*
X27087623Y-78100524D02*
X27125857Y-78132607D01*
X80330143Y-59644764D02*
X80351318Y-59690848D01*
X31666958Y-98889035D02*
X31690703Y-98909315D01*
X27527270Y-123325956D02*
X27576192Y-123335844D01*
X32024454Y-104939666D02*
X32060315Y-104975529D01*
X77333041Y-45810984D02*
X77316853Y-45797876D01*
X81249999Y-39749000D02*
X81199335Y-39750274D01*
X72779504Y-127599527D02*
X72821850Y-127571617D01*
X76175180Y-123348246D02*
X76225029Y-123350735D01*
X77268215Y-76469069D02*
X77277671Y-76450510D01*
X31874781Y-59735800D02*
X31900483Y-59779462D01*
X31716884Y-113258430D02*
X31697875Y-113283204D01*
X80950371Y-62294909D02*
X80902381Y-62311311D01*
X26895859Y-55371968D02*
X26922939Y-55413894D01*
X72401544Y-39760530D02*
X72351234Y-39754124D01*
X28021077Y-111386454D02*
X27972709Y-111374139D01*
X27725009Y-100850716D02*
X27774970Y-100850716D01*
X77295358Y-68275244D02*
X77277671Y-68249509D01*
X72351234Y-60245857D02*
X72401594Y-60239443D01*
X31591364Y-68344660D02*
X31570791Y-68347919D01*
X121688691Y-104597705D02*
X121705095Y-104549715D01*
X76615739Y-123281843D02*
X76661685Y-123262475D01*
X77450023Y-98851028D02*
X80049985Y-98851000D01*
X27206880Y-111509195D02*
X27165642Y-111537312D01*
X120750000Y-82751000D02*
X120800684Y-82749726D01*
X28334337Y-78162745D02*
X28374122Y-78132607D01*
X27478854Y-78313589D02*
X27527222Y-78325906D01*
X77151868Y-44415651D02*
X77129097Y-44371237D01*
X72351284Y-105245890D02*
X72401594Y-105239481D01*
X73245851Y-63148715D02*
X73239442Y-63098405D01*
X72735755Y-60125224D02*
X72779504Y-60099470D01*
X32024454Y-40060353D02*
X31990456Y-40097986D01*
X121402053Y-62490509D02*
X121362708Y-62458427D01*
X72549628Y-60205091D02*
X72597666Y-60188672D01*
X76423856Y-100835816D02*
X76472729Y-100825937D01*
X31675224Y-113304699D02*
X31658372Y-113316942D01*
X76175230Y-55848193D02*
X76225079Y-55850680D01*
X107499673Y-84749019D02*
X107499673Y-82751003D01*
X32178171Y-84928430D02*
X32137291Y-84958446D01*
X73188688Y-85402400D02*
X73169876Y-85355302D01*
X28833021Y-98889035D02*
X28859646Y-98872719D01*
X73041572Y-127362746D02*
X73071588Y-127321866D01*
X32598385Y-39760538D02*
X32548465Y-39769486D01*
X121599516Y-107720576D02*
X121571608Y-107678229D01*
X26827582Y-122738848D02*
X26848131Y-122784387D01*
X26848109Y-44415695D02*
X26827582Y-44461190D01*
X75706900Y-111509195D02*
X75665703Y-111537283D01*
X77408635Y-113344698D02*
X77388515Y-113339307D01*
X32060352Y-59975526D02*
X32097985Y-60009524D01*
X32499062Y-39780952D02*
X32450351Y-39794890D01*
X28859646Y-113327357D02*
X28841607Y-113316942D01*
X121541561Y-40137252D02*
X121509510Y-40097947D01*
X31690703Y-121409334D02*
X31704641Y-121424813D01*
X73245851Y-59351285D02*
X73249703Y-59300716D01*
X76374453Y-78343244D02*
X76423856Y-78335797D01*
X31690703Y-45790704D02*
X31675224Y-45804642D01*
X77220049Y-89603000D02*
X77206545Y-89555002D01*
X77249764Y-89800108D02*
X77246037Y-89750386D01*
X80216904Y-53941608D02*
X80227319Y-53959647D01*
X77249764Y-99899949D02*
X77251009Y-99850053D01*
X27923836Y-66364222D02*
X27874482Y-66356781D01*
X72862728Y-39958439D02*
X72821850Y-39928421D01*
X31611484Y-90839288D02*
X31591364Y-90844679D01*
X27338269Y-43937584D02*
X27293301Y-43959240D01*
X27016222Y-89169158D02*
X26983195Y-89206579D01*
X72300715Y-105249742D02*
X72351284Y-105245890D01*
X72862688Y-107458465D02*
X72821808Y-107428449D01*
X121739462Y-81901614D02*
X121745876Y-81851254D01*
X31640333Y-76372700D02*
X31666958Y-76389016D01*
X80190723Y-76409296D02*
X80204661Y-76424775D01*
X80294909Y-59549629D02*
X80311311Y-59597619D01*
X73205075Y-40450304D02*
X73188671Y-40402314D01*
X28412356Y-55600505D02*
X28448906Y-55566590D01*
X72597618Y-62311311D02*
X72549628Y-62294909D01*
X80855236Y-62330143D02*
X80809198Y-62351296D01*
X77172417Y-89461228D02*
X77151868Y-89415689D01*
X77220049Y-67102981D02*
X77206545Y-67054983D01*
X121648723Y-40309179D02*
X121625243Y-40264225D01*
X80254148Y-63148715D02*
X80250296Y-63199284D01*
X121144783Y-82669876D02*
X121190821Y-82648723D01*
X77252100Y-68170811D02*
X77251009Y-68149996D01*
X81199284Y-84750315D02*
X81148715Y-84754167D01*
X75309369Y-44507652D02*
X75293474Y-44554964D01*
X121321828Y-107428449D02*
X121279524Y-107400568D01*
X32137251Y-39958439D02*
X32097985Y-39990457D01*
X104999673Y-82751003D02*
X104999673Y-84749017D01*
X31750273Y-104300703D02*
X31754123Y-104351273D01*
X121049648Y-84794928D02*
X121000937Y-84780990D01*
X121599489Y-40220476D02*
X121571579Y-40178130D01*
X32499111Y-127719099D02*
X32548465Y-127730552D01*
X75931181Y-55798858D02*
X75978874Y-55813570D01*
X121669896Y-82144736D02*
X121688691Y-82097686D01*
X73071588Y-62678191D02*
X73041572Y-62637311D01*
X58999663Y-60250996D02*
X72249999Y-60251000D01*
X76027290Y-55825899D02*
X76076163Y-55835778D01*
X32499111Y-84780977D02*
X32450351Y-84794928D01*
X121097638Y-62311311D02*
X121049696Y-62294924D01*
X31727299Y-53959647D02*
X31739249Y-53988496D01*
X27774970Y-78350697D02*
X27824819Y-78348208D01*
X121235775Y-127625281D02*
X121279524Y-127599527D01*
X26809366Y-100192414D02*
X26827602Y-100238875D01*
X31611484Y-53860731D02*
X31640333Y-53872681D01*
X73148681Y-62809152D02*
X73125198Y-62764200D01*
X28206678Y-78240760D02*
X28250511Y-78216888D01*
X28816833Y-90797914D02*
X28802104Y-90783185D01*
X72690801Y-84851315D02*
X72644716Y-84830142D01*
X120851254Y-62254143D02*
X120800735Y-62250296D01*
X80231804Y-76469069D02*
X80242228Y-76498505D01*
X32499111Y-107280996D02*
X32450351Y-107294947D01*
X77268215Y-121469107D02*
X77277671Y-121450548D01*
X80458458Y-127362786D02*
X80490509Y-127402091D01*
X76912376Y-44099476D02*
X76874142Y-44067393D01*
X80269505Y-104451553D02*
X80280958Y-104500907D01*
X80311328Y-127097724D02*
X80330143Y-127144821D01*
X31754123Y-63148765D02*
X31750273Y-63199335D01*
X76175180Y-111351849D02*
X76125517Y-111356819D01*
X76568838Y-88901161D02*
X76521097Y-88886435D01*
X121235775Y-84874795D02*
X121190821Y-84851315D01*
X27016188Y-78030844D02*
X27051037Y-78066575D01*
X28749746Y-112300176D02*
X28746013Y-112250355D01*
X77129097Y-44371237D02*
X77104166Y-44328055D01*
X26895859Y-44328013D02*
X26870902Y-44371237D01*
X76521097Y-43886397D02*
X76472729Y-43874082D01*
X77016836Y-55493402D02*
X77047924Y-55454418D01*
X76274940Y-55850680D02*
X76324839Y-55848189D01*
X28888495Y-113339307D02*
X28859646Y-113327357D01*
X77277671Y-45749490D02*
X77268215Y-45730931D01*
X81148765Y-107254181D02*
X81098455Y-107260587D01*
X77231157Y-122548416D02*
X77239825Y-122499263D01*
X80720538Y-60099497D02*
X80764244Y-60125224D01*
X28841607Y-121383153D02*
X28859646Y-121372738D01*
X80175244Y-53895339D02*
X80190723Y-53909277D01*
X73250994Y-51249995D02*
X75249003Y-51249995D01*
X28888495Y-121360788D02*
X28918859Y-121353498D01*
X28161710Y-55762397D02*
X28206678Y-55740741D01*
X27125857Y-78132607D02*
X27165642Y-78162745D01*
X28809276Y-76409296D02*
X28833021Y-76389016D01*
X26922939Y-122913951D02*
X26952075Y-122954475D01*
X26750235Y-99899949D02*
X26753966Y-99949721D01*
X120851254Y-39754124D02*
X120800735Y-39750277D01*
X76027290Y-111374139D02*
X75978922Y-111386454D01*
X120851304Y-84754167D02*
X120800684Y-84750312D01*
X77252100Y-99029227D02*
X77257791Y-98998524D01*
X77418879Y-121353498D02*
X77450023Y-121351047D01*
X28816833Y-45797876D02*
X28795338Y-45775225D01*
X75587643Y-123100562D02*
X75625916Y-123132676D01*
X73230494Y-108048523D02*
X73219028Y-107999120D01*
X32137291Y-107458465D02*
X32097946Y-107490547D01*
X72351234Y-127745914D02*
X72401544Y-127739508D01*
X73041572Y-107637349D02*
X73009490Y-107598004D01*
X81098405Y-105239481D02*
X81148765Y-105245895D01*
X58999663Y-84749019D02*
X58999663Y-82751003D01*
X77429208Y-45847900D02*
X77408635Y-45844641D01*
X120901564Y-62260549D02*
X120851254Y-62254143D01*
X28731137Y-122548416D02*
X28739805Y-122499263D01*
X76834316Y-89037264D02*
X76793077Y-89009149D01*
X92000336Y-107249013D02*
X92000336Y-105251021D01*
X77295358Y-45775225D02*
X77277671Y-45749490D01*
X77104166Y-89328093D02*
X77077088Y-89286166D01*
X28788996Y-90766997D02*
X28777651Y-90749528D01*
X77246037Y-112250405D02*
X77239825Y-112200832D01*
X80204661Y-113275282D02*
X80190723Y-113290761D01*
X72300715Y-82749723D02*
X72351284Y-82745871D01*
X80374776Y-82235775D02*
X80400503Y-82279481D01*
X120851304Y-127745909D02*
X120901614Y-127739500D01*
X80149509Y-45822329D02*
X80130950Y-45831785D01*
X80269505Y-85548504D02*
X80260557Y-85598424D01*
X28161710Y-88937622D02*
X28115719Y-88918233D01*
X76615739Y-100781824D02*
X76661685Y-100762456D01*
X28412356Y-44099476D02*
X28374122Y-44067393D01*
X76324839Y-88851830D02*
X76274990Y-88849341D01*
X75249010Y-44849990D02*
X75249006Y-48749995D01*
X32097946Y-84990528D02*
X32060315Y-85024528D01*
X80249009Y-121550061D02*
X80249000Y-126749999D01*
X72597666Y-82688691D02*
X72644763Y-82669876D01*
X77398505Y-98857810D02*
X77418879Y-98853479D01*
X80175244Y-121395396D02*
X80190723Y-121409334D01*
X28950003Y-76351009D02*
X31549986Y-76351000D01*
X31710983Y-76433041D02*
X31727299Y-76459666D01*
X76615739Y-43918195D02*
X76568838Y-43901123D01*
X75516242Y-89169158D02*
X75483215Y-89206579D01*
X75250255Y-77399930D02*
X75253986Y-77449702D01*
X73249703Y-104300754D02*
X73250989Y-104250029D01*
X75268852Y-112151728D02*
X75260194Y-112200832D01*
X76274940Y-111349358D02*
X76225029Y-111349360D01*
X80902381Y-62311311D02*
X80855236Y-62330143D01*
X28021077Y-43886397D02*
X27972709Y-43874082D01*
X77257791Y-90701533D02*
X77252100Y-90670830D01*
X80204661Y-53924756D02*
X80216904Y-53941608D01*
X28577040Y-89286125D02*
X28547934Y-89245640D01*
X31750273Y-81800684D02*
X31754123Y-81851254D01*
X27923787Y-123335844D02*
X27972709Y-123325956D01*
X76874142Y-44067393D02*
X76834316Y-44037226D01*
X75452095Y-77954437D02*
X75483215Y-77993459D01*
X80246559Y-113181178D02*
X80239269Y-113211542D01*
X80247919Y-121529246D02*
X80249009Y-121550061D01*
X31780951Y-82000937D02*
X31794904Y-82049696D01*
X31749000Y-59250000D02*
X31750273Y-59300665D01*
X75838334Y-43937563D02*
X75793365Y-43959218D01*
X28161710Y-78262416D02*
X28206678Y-78240760D01*
X31704641Y-68275244D02*
X31690703Y-68290723D01*
X80428411Y-40178172D02*
X80400530Y-40220476D01*
X32402313Y-127688729D02*
X32450351Y-127705148D01*
X121749723Y-108199322D02*
X121745871Y-108148753D01*
X28250511Y-88983150D02*
X28206678Y-88959278D01*
X28483757Y-55530861D02*
X28516816Y-55493402D01*
X81098455Y-107260587D02*
X81048485Y-107269543D01*
X28672397Y-77738810D02*
X28690613Y-77692395D01*
X121745876Y-81851254D02*
X121749726Y-81800684D01*
X73071588Y-107678229D02*
X73041572Y-107637349D01*
X28749744Y-89800108D02*
X28746013Y-89750336D01*
X31611484Y-76360750D02*
X31640333Y-76372700D01*
X80902333Y-105188710D02*
X80950323Y-105205114D01*
X26760174Y-89700813D02*
X26753962Y-89750386D01*
X81048485Y-107269543D02*
X80999082Y-107281009D01*
X32598385Y-105239481D02*
X32648745Y-105245895D01*
X73249703Y-81800735D02*
X73250989Y-81750010D01*
X77206545Y-67054983D02*
X77190650Y-67007671D01*
X76912376Y-100600543D02*
X76948926Y-100566628D01*
X72401594Y-62260557D02*
X72351284Y-62254148D01*
X72250015Y-107249048D02*
X58999663Y-107249031D01*
X73169856Y-59644764D02*
X73188671Y-59597667D01*
X121402053Y-84990528D02*
X121362708Y-84958446D01*
X92000336Y-84749007D02*
X92000336Y-82751007D01*
X32137251Y-127541599D02*
X32178171Y-127571646D01*
X77418879Y-98853479D02*
X77450023Y-98851028D01*
X28783095Y-98941646D02*
X28795338Y-98924794D01*
X120800684Y-107250331D02*
X120750010Y-107249048D01*
X31640333Y-53872681D02*
X31666958Y-53888997D01*
X77324775Y-113304699D02*
X77302124Y-113283204D01*
X75327602Y-77738810D02*
X75348129Y-77784305D01*
X75327602Y-89461228D02*
X75309369Y-89507690D01*
X72351284Y-62254148D02*
X72300715Y-62250296D01*
X26749000Y-99850024D02*
X26750235Y-99899949D01*
X75268862Y-44651622D02*
X75260194Y-44700775D01*
X121362748Y-39958439D02*
X121321870Y-39928421D01*
X121439684Y-85024528D02*
X121402053Y-84990528D01*
X31760537Y-126901652D02*
X31769485Y-126951572D01*
X76423807Y-43864194D02*
X76374453Y-43856756D01*
X80216904Y-121441665D02*
X80231804Y-121469107D01*
X77251000Y-54050013D02*
X77252100Y-54029189D01*
X121719048Y-62999082D02*
X121705095Y-62950323D01*
X121669876Y-85355255D02*
X121648723Y-85309217D01*
X28068818Y-66401142D02*
X28021125Y-66386430D01*
X75978874Y-123313627D02*
X76027242Y-123325944D01*
X72351234Y-39754124D02*
X72300715Y-39750277D01*
X80351296Y-104690840D02*
X80374776Y-104735794D01*
X121730514Y-85548504D02*
X121719061Y-85499150D01*
X26870878Y-77828720D02*
X26895833Y-77871945D01*
X121439684Y-82475510D02*
X121475545Y-82439647D01*
X27874433Y-43856756D02*
X27824769Y-43851788D01*
X31754123Y-108148803D02*
X31750273Y-108199373D01*
X80060424Y-45848717D02*
X77450013Y-45848999D01*
X31549987Y-53851000D02*
X31581120Y-53853441D01*
X77255359Y-113191422D02*
X77252100Y-113170849D01*
X80280971Y-107999120D02*
X80269505Y-108048523D01*
X75665662Y-55662726D02*
X75706942Y-55690870D01*
X77251009Y-90650015D02*
X77250999Y-89849975D01*
X31900510Y-40220476D02*
X31874756Y-40264225D01*
X80216904Y-45758373D02*
X80197895Y-45783147D01*
X80902381Y-84811330D02*
X80855236Y-84830162D01*
X26983163Y-100493440D02*
X27016188Y-100530863D01*
X73148681Y-59690848D02*
X73169856Y-59644764D01*
X75793321Y-55740741D02*
X75838289Y-55762397D01*
X80524474Y-107560410D02*
X80490476Y-107598043D01*
X32402361Y-107311349D02*
X32355263Y-107330161D01*
X28783095Y-76441627D02*
X28795338Y-76424775D01*
X27972709Y-111374139D02*
X27923787Y-111364251D01*
X31794904Y-127049734D02*
X31811308Y-127097724D01*
X121571579Y-104821889D02*
X121599516Y-104779500D01*
X28293099Y-44009138D02*
X28250511Y-43983112D01*
X77151868Y-77784349D02*
X77172417Y-77738810D01*
X77172417Y-111961247D02*
X77151868Y-111915708D01*
X120750010Y-62249010D02*
X107499673Y-62249006D01*
X75249003Y-96250014D02*
X75249000Y-99849999D01*
X121509510Y-85097985D02*
X121475545Y-85060391D01*
X28516784Y-111706598D02*
X28483757Y-111669177D01*
X26779950Y-77597038D02*
X26793469Y-77645083D01*
X72401594Y-60239443D02*
X72451465Y-60230505D01*
X80490509Y-104902072D02*
X80524509Y-104939703D01*
X77350510Y-90822367D02*
X77333041Y-90811022D01*
X72690801Y-105148742D02*
X72735755Y-105125262D01*
X80637311Y-84958446D02*
X80598005Y-84990495D01*
X80247919Y-68170811D02*
X80242228Y-68201514D01*
X32309132Y-62351318D02*
X32264224Y-62374776D01*
X76834357Y-111537312D02*
X76793077Y-111509168D01*
X26870878Y-100328739D02*
X26895833Y-100371964D01*
X77047954Y-111745659D02*
X77016836Y-111706636D01*
X73230504Y-59451466D02*
X73239442Y-59401595D01*
X28115719Y-43918195D02*
X28068818Y-43901123D01*
X120851254Y-105245895D02*
X120901564Y-105239489D01*
X77129097Y-66871256D02*
X77104166Y-66828074D01*
X77388515Y-113339307D02*
X77369069Y-113331842D01*
X27972757Y-66374113D02*
X27923836Y-66364222D01*
X76874142Y-100632626D02*
X76912376Y-100600543D01*
X72735755Y-82625243D02*
X72779504Y-82599489D01*
X28374122Y-55632588D02*
X28412356Y-55600505D01*
X76793077Y-66509130D02*
X76750488Y-66483106D01*
X77016804Y-89206579D02*
X76983777Y-89169158D01*
X72549676Y-127705133D02*
X72597666Y-127688729D01*
X28768195Y-76469069D02*
X28783095Y-76441627D01*
X121571608Y-62678191D02*
X121541561Y-62637271D01*
X27478902Y-66386416D02*
X27431208Y-66401127D01*
X28749746Y-67300138D02*
X28746017Y-67250367D01*
X77129097Y-89371275D02*
X77104166Y-89328093D01*
X75625916Y-123132676D02*
X75665703Y-123162812D01*
X73239442Y-59401595D02*
X73245851Y-59351285D01*
X28731137Y-77548378D02*
X28739813Y-77499176D01*
X28651870Y-55284286D02*
X28672377Y-55238837D01*
X31716884Y-45758373D02*
X31704641Y-45775225D01*
X81250010Y-127751047D02*
X120750000Y-127751000D01*
X28706525Y-55145017D02*
X28720029Y-55097019D01*
X80130950Y-76368215D02*
X80149509Y-76377671D01*
X73250994Y-96250014D02*
X75249003Y-96250014D01*
X80428411Y-104821847D02*
X80458427Y-104862727D01*
X76076212Y-123335844D02*
X76125566Y-123343282D01*
X28334337Y-55662726D02*
X28374122Y-55632588D01*
X75587643Y-55600505D02*
X75625877Y-55632588D01*
X120951534Y-82730514D02*
X121000937Y-82719048D01*
X92000336Y-105251021D02*
X104999673Y-105251011D01*
X31760537Y-40598386D02*
X31754123Y-40648746D01*
X31549985Y-98851000D02*
X31581120Y-98853479D01*
X80250296Y-63199284D02*
X80249010Y-63250009D01*
X28068771Y-88901146D02*
X28021077Y-88886435D01*
X27576143Y-88864241D02*
X27527222Y-88874132D01*
X75587681Y-66599462D02*
X75551093Y-66633410D01*
X121669896Y-59644717D02*
X121688691Y-59597667D01*
X81098405Y-84760576D02*
X81048534Y-84769514D01*
X32097985Y-60009524D02*
X32137291Y-60041573D01*
X32220518Y-62400503D02*
X32178129Y-62428440D01*
X27431208Y-66401127D02*
X27384306Y-66418196D01*
X31621304Y-121364266D02*
X31649489Y-121377709D01*
X80400503Y-104779500D02*
X80428411Y-104821847D01*
X77302124Y-53916834D02*
X77324775Y-53895339D01*
X80764200Y-82625218D02*
X80809198Y-82648723D01*
X32648695Y-127745909D02*
X32699264Y-127749761D01*
X31958438Y-85137290D02*
X31928420Y-85178168D01*
X77047924Y-55454418D02*
X77077060Y-55413894D01*
X32598435Y-107260587D02*
X32548465Y-107269543D01*
X32178129Y-62428440D02*
X32137251Y-62458458D01*
X81148715Y-62254148D02*
X81098455Y-62260549D01*
X80428411Y-82321828D02*
X80458427Y-82362708D01*
X73188688Y-62902381D02*
X73169876Y-62855283D01*
X27431161Y-100798896D02*
X27478854Y-100813608D01*
X28777651Y-68249509D02*
X28768195Y-68230950D01*
X81148765Y-60245857D02*
X81199284Y-60249704D01*
X31851298Y-59690848D02*
X31874781Y-59735800D01*
X28720042Y-89603049D02*
X28706510Y-89554955D01*
X76983811Y-55530825D02*
X77016836Y-55493402D01*
X72300664Y-60249707D02*
X72351234Y-60245857D01*
X75327602Y-55238791D02*
X75348129Y-55284286D01*
X28577040Y-66786106D02*
X28547904Y-66745582D01*
X72500868Y-84780977D02*
X72451514Y-84769524D01*
X77172417Y-55238791D02*
X77190633Y-55192376D01*
X28918859Y-76353460D02*
X28950003Y-76351009D01*
X80764244Y-84874795D02*
X80720495Y-84900549D01*
X73041572Y-82362708D02*
X73071588Y-82321828D01*
X81148765Y-105245895D02*
X81199284Y-105249742D01*
X80049987Y-53851000D02*
X80070811Y-53852081D01*
X89500336Y-107249010D02*
X81249973Y-107249000D01*
X80247919Y-76529208D02*
X80249009Y-76550023D01*
X81249984Y-60250990D02*
X89500336Y-60250992D01*
X75749488Y-43983112D02*
X75706900Y-44009138D01*
X28374083Y-89067400D02*
X28334296Y-89037264D01*
X31746539Y-76518879D02*
X31748990Y-76550023D01*
X28629101Y-77828720D02*
X28651848Y-77784349D01*
X80242228Y-68201514D02*
X80231804Y-68230950D01*
X121279524Y-84900549D02*
X121235775Y-84874795D01*
X75253986Y-67250317D02*
X75250255Y-67300089D01*
X80254143Y-108148803D02*
X80250293Y-108199373D01*
X121321870Y-39928421D02*
X121279481Y-39900484D01*
X27625546Y-88856794D02*
X27576143Y-88864241D01*
X27206880Y-123190900D02*
X27249468Y-123216926D01*
X77251000Y-76550013D02*
X77252100Y-76529208D01*
X121739462Y-59401595D02*
X121745876Y-59351235D01*
X73169856Y-127144821D02*
X73188671Y-127097724D01*
X80269505Y-40548466D02*
X80260549Y-40598436D01*
X31769485Y-40548466D02*
X31760537Y-40598386D01*
X77450023Y-53850991D02*
X80049987Y-53851000D01*
X27923836Y-55835778D02*
X27972757Y-55825887D01*
X80231804Y-121469107D02*
X80242228Y-121498543D01*
X77077088Y-89286166D02*
X77047954Y-89245640D01*
X77252100Y-90670830D02*
X77251009Y-90650015D01*
X28629101Y-122828758D02*
X28651848Y-122784387D01*
X27051073Y-89133429D02*
X27016222Y-89169158D01*
X31851298Y-62809152D02*
X31830123Y-62855236D01*
X76706654Y-78240782D02*
X76750488Y-78216913D01*
X80374801Y-59735800D02*
X80400530Y-59779505D01*
X31621304Y-68335791D02*
X31591364Y-68344660D01*
X121097686Y-60188672D02*
X121144783Y-60169857D01*
X121745871Y-108148753D02*
X121739462Y-108098443D01*
X76793077Y-44009111D02*
X76750488Y-43983087D01*
X26922939Y-44286087D02*
X26895859Y-44328013D01*
X104999673Y-105251011D02*
X104999673Y-107249028D01*
X31928391Y-127321866D02*
X31958438Y-127362786D01*
X121235775Y-105125262D02*
X121279481Y-105099535D01*
X80149509Y-68322348D02*
X80130950Y-68331804D01*
X121688691Y-85402352D02*
X121669876Y-85355255D01*
X75250255Y-99899949D02*
X75253986Y-99949721D01*
X81048485Y-82730514D02*
X81098405Y-82739462D01*
X27824819Y-78348208D02*
X27874482Y-78343238D01*
X27774970Y-55850678D02*
X27824819Y-55848189D01*
X73230494Y-40548466D02*
X73219028Y-40499063D01*
X26827602Y-66961163D02*
X26809366Y-67007624D01*
X80130950Y-45831785D02*
X80101514Y-45842209D01*
X75260194Y-99999244D02*
X75268852Y-100048348D01*
X76274940Y-123350737D02*
X76324789Y-123348250D01*
X76225029Y-100850716D02*
X76274940Y-100850718D01*
X26870902Y-66871256D02*
X26848131Y-66915670D01*
X76948926Y-111633448D02*
X76912376Y-111599533D01*
X73249706Y-126800722D02*
X73250989Y-126750048D01*
X80678191Y-62428411D02*
X80637311Y-62458427D01*
X80764244Y-105125262D02*
X80809198Y-105148742D01*
X27293301Y-88959278D02*
X27249468Y-88983150D01*
X75260194Y-112200832D02*
X75253986Y-112250355D01*
X121049696Y-105205114D02*
X121097686Y-105188710D01*
X77151868Y-111915708D02*
X77129097Y-111871294D01*
X76874142Y-111567450D02*
X76834357Y-111537312D01*
X76568838Y-43901123D02*
X76521097Y-43886397D01*
X72451465Y-60230505D02*
X72500868Y-60219042D01*
X28547934Y-55454379D02*
X28577040Y-55413894D01*
X75978922Y-111386454D02*
X75931181Y-111401180D01*
X28760730Y-45711485D02*
X28753440Y-45681121D01*
X121541561Y-107637309D02*
X121509510Y-107598004D01*
X80190723Y-98909315D02*
X80204661Y-98924794D01*
X80311328Y-40402314D02*
X80294909Y-40450352D01*
X81249974Y-84749000D02*
X81199284Y-84750315D01*
X31830123Y-127144821D02*
X31851276Y-127190859D01*
X28768195Y-121469107D02*
X28783095Y-121441665D01*
X77129097Y-111871294D02*
X77104166Y-111828112D01*
X27625497Y-111356819D02*
X27576143Y-111364260D01*
X32499111Y-105219080D02*
X32548465Y-105230533D01*
X73125198Y-40264181D02*
X73099469Y-40220476D01*
X72901994Y-107490514D02*
X72862688Y-107458465D01*
X72902033Y-39990490D02*
X72862728Y-39958439D01*
X28448906Y-55566590D02*
X28483757Y-55530861D01*
X121751000Y-63249999D02*
X121749726Y-63199335D01*
X80999082Y-107281009D02*
X80950323Y-107294962D01*
X76912376Y-123100562D02*
X76948926Y-123066647D01*
X73009523Y-40097986D02*
X72975525Y-40060353D01*
X75625916Y-44067362D02*
X75587681Y-44099443D01*
X76324839Y-43851792D02*
X76274990Y-43849303D01*
X31851276Y-104690840D02*
X31874756Y-104735794D01*
X76125566Y-78343244D02*
X76175180Y-78348208D01*
X72862728Y-62458458D02*
X72821850Y-62428440D01*
X73250999Y-40749974D02*
X73249703Y-40699265D01*
X31690703Y-98909315D02*
X31710983Y-98933060D01*
X27206922Y-89009149D02*
X27165683Y-89037264D01*
X121669876Y-62855236D02*
X121648723Y-62809198D01*
X73041572Y-40137292D02*
X73009523Y-40097986D01*
X31811308Y-85402352D02*
X31794904Y-85450342D01*
X77378695Y-68335791D02*
X77350510Y-68322348D01*
X120951534Y-105230533D02*
X121000937Y-105219067D01*
X28412356Y-100600543D02*
X28448906Y-100566628D01*
X80239269Y-53988496D02*
X80246559Y-54018860D01*
X76661730Y-43937584D02*
X76615739Y-43918195D01*
X31746539Y-45681121D02*
X31742208Y-45701495D01*
X31760529Y-63098455D02*
X31754123Y-63148765D01*
X75452065Y-66745621D02*
X75422931Y-66786147D01*
X32178171Y-39928392D02*
X32137251Y-39958439D01*
X32309178Y-60148704D02*
X32355216Y-60169857D01*
X31760529Y-81901564D02*
X31769485Y-81951534D01*
X28752080Y-76529208D02*
X28757771Y-76498505D01*
X80250293Y-126800722D02*
X80254143Y-126851292D01*
X75625916Y-111567419D02*
X75587643Y-111599533D01*
X81199284Y-107250334D02*
X81148765Y-107254181D01*
X27293301Y-123240798D02*
X27338314Y-123262475D01*
X41000326Y-107249010D02*
X32750000Y-107249000D01*
X77231157Y-89651660D02*
X77220049Y-89603000D01*
X31739249Y-121488553D02*
X31744640Y-121508673D01*
X107499673Y-62249006D02*
X107499673Y-60250996D01*
X27923787Y-43864194D02*
X27874433Y-43856756D01*
X81199284Y-105249742D02*
X81249984Y-105251028D01*
X121669876Y-107855274D02*
X121648723Y-107809236D01*
X77295358Y-121424813D02*
X77316853Y-121402162D01*
X80216904Y-76441627D02*
X80231804Y-76469069D01*
X28448942Y-111633482D02*
X28412318Y-111599500D01*
X77151868Y-122784387D02*
X77172417Y-122738848D01*
X80950323Y-107294962D02*
X80902333Y-107311366D01*
X120901614Y-84760576D02*
X120851304Y-84754167D01*
X31928391Y-104821847D02*
X31958407Y-104862727D01*
X27125896Y-55632619D02*
X27165683Y-55662755D01*
X76793119Y-55690843D02*
X76834316Y-55662755D01*
X80260557Y-108098443D02*
X80254143Y-108148803D01*
X73041541Y-85137290D02*
X73009490Y-85097985D01*
X27165683Y-55662755D02*
X27206922Y-55690870D01*
X72902033Y-105009529D02*
X72939627Y-104975564D01*
X121362708Y-84958446D02*
X121321828Y-84928430D01*
X27725009Y-111349360D02*
X27675160Y-111351849D01*
X75309369Y-55192329D02*
X75327602Y-55238791D01*
X76912376Y-89099514D02*
X76874142Y-89067431D01*
X27478854Y-100813608D02*
X27527222Y-100825925D01*
X28750990Y-68149996D02*
X28750999Y-67350000D01*
X27527222Y-78325906D02*
X27576143Y-78335797D01*
X120800735Y-62250296D02*
X120750010Y-62249010D01*
X121097686Y-107311366D02*
X121049648Y-107294947D01*
X76423807Y-111364251D02*
X76374453Y-111356813D01*
X27165683Y-89037264D02*
X27125896Y-89067400D01*
X28783095Y-121441665D02*
X28795338Y-121424813D01*
X75293489Y-55145064D02*
X75309369Y-55192329D01*
X32450351Y-60205091D02*
X32499062Y-60219029D01*
X27527222Y-100825925D02*
X27576143Y-100835816D01*
X77220049Y-44602962D02*
X77206545Y-44554964D01*
X80101514Y-45842209D02*
X80081140Y-45846540D01*
X32024489Y-59939665D02*
X32060352Y-59975526D01*
X77378695Y-76364228D02*
X77398505Y-76357791D01*
X28206634Y-111459275D02*
X28161665Y-111437620D01*
X73250995Y-93750014D02*
X73251000Y-85750000D01*
X28412318Y-89099481D02*
X28374083Y-89067400D01*
X28448906Y-78066609D02*
X28483757Y-78030880D01*
X120901564Y-105239489D02*
X120951534Y-105230533D01*
X28672377Y-111961201D02*
X28651848Y-111915708D01*
X76324839Y-111351849D02*
X76274940Y-111349358D01*
X76615739Y-111418252D02*
X76568791Y-111401165D01*
X76225079Y-55850680D02*
X76274940Y-55850680D01*
X77251009Y-54850015D02*
X77251000Y-54050013D01*
X73219041Y-85499150D02*
X73205090Y-85450390D01*
X121509510Y-127402091D02*
X121541561Y-127362786D01*
X120851254Y-82745876D02*
X120901564Y-82739470D01*
X80130950Y-68331804D02*
X80111504Y-68339269D01*
X32178171Y-82571608D02*
X32220475Y-82599489D01*
X80239269Y-113211542D02*
X80231804Y-113230988D01*
X76274990Y-43849303D02*
X76225079Y-43849301D01*
X121599516Y-82279481D02*
X121625218Y-82235819D01*
X80130950Y-98868234D02*
X80149509Y-98877690D01*
X31811308Y-40402314D02*
X31794904Y-40450304D01*
X31731784Y-90730969D02*
X31716884Y-90758411D01*
X26760174Y-122499263D02*
X26768842Y-122548416D01*
X80999131Y-82719061D02*
X81048485Y-82730514D01*
X80175244Y-68304661D02*
X80149509Y-68322348D01*
X28764208Y-53978676D02*
X28777651Y-53950491D01*
X77104166Y-44328055D02*
X77077088Y-44286128D01*
X77151868Y-89415689D02*
X77129097Y-89371275D01*
X28749746Y-99899899D02*
X28750989Y-99850029D01*
X32699264Y-82749723D02*
X32749964Y-82751009D01*
X58999663Y-105251009D02*
X72250000Y-105251000D01*
X28783095Y-113258430D02*
X28768195Y-113230988D01*
X72862728Y-60041542D02*
X72901994Y-60009524D01*
X77206545Y-122645074D02*
X77220049Y-122597076D01*
X77398505Y-76357791D02*
X77418879Y-76353460D01*
X31754123Y-40648746D02*
X31750273Y-40699316D01*
X73219028Y-127000975D02*
X73230504Y-126951523D01*
X76076163Y-111364260D02*
X76027290Y-111374139D01*
X72300715Y-62250296D02*
X72249990Y-62249010D01*
X75309386Y-77692395D02*
X75327602Y-77738810D01*
X107499673Y-60250996D02*
X120749999Y-60251000D01*
X75838334Y-111437620D02*
X75793321Y-111459297D01*
X77429208Y-53852081D02*
X77450023Y-53850991D01*
X80081140Y-98853479D02*
X80101514Y-98857810D01*
X80428411Y-85178210D02*
X80400503Y-85220557D01*
X75253986Y-122449740D02*
X75260194Y-122499263D01*
X32264180Y-60125199D02*
X32309178Y-60148704D01*
X27165642Y-78162745D02*
X27206880Y-78190862D01*
X75749531Y-123216951D02*
X75793321Y-123240798D01*
X80400530Y-107720533D02*
X80374801Y-107764238D01*
X75978874Y-88886449D02*
X75931228Y-88901146D01*
X77316853Y-121402162D02*
X77333041Y-121389054D01*
X32750000Y-62249000D02*
X32699315Y-62250293D01*
X80637271Y-39958439D02*
X80598005Y-39990457D01*
X75279957Y-112103068D02*
X75268852Y-112151728D01*
X31990456Y-107598043D02*
X31958438Y-107637309D01*
X76374453Y-123343282D02*
X76423856Y-123335835D01*
X32220475Y-127599527D02*
X32264180Y-127625256D01*
X31549976Y-68349009D02*
X28950012Y-68349000D01*
X28374083Y-123132676D02*
X28412318Y-123100595D01*
X80250293Y-81800684D02*
X80254143Y-81851254D01*
X28334296Y-89037264D02*
X28293057Y-89009149D01*
X121097686Y-82688691D02*
X121144783Y-82669876D01*
X121751009Y-126750073D02*
X121751000Y-108249999D01*
X26922911Y-100413891D02*
X26952045Y-100454417D01*
X77249764Y-54899911D02*
X77251009Y-54850015D01*
X72939627Y-82475545D02*
X72975525Y-82439647D01*
X75551057Y-78066575D02*
X75587643Y-78100524D01*
X77239825Y-122499263D02*
X77246033Y-122449740D01*
X72862728Y-82541561D02*
X72902033Y-82509510D01*
X72549676Y-107294962D02*
X72500868Y-107280996D01*
X80678149Y-39928421D02*
X80637271Y-39958439D01*
X75452065Y-111745659D02*
X75422959Y-111786144D01*
X32264224Y-62374776D02*
X32220518Y-62400503D01*
X27576143Y-111364260D02*
X27527222Y-111374151D01*
X73099469Y-62720495D02*
X73071588Y-62678191D01*
X77104166Y-66828074D02*
X77077088Y-66786147D01*
X28739805Y-44700775D02*
X28731137Y-44651622D01*
X28859646Y-90827338D02*
X28833021Y-90811022D01*
X27016188Y-111669213D02*
X26983163Y-111706636D01*
X27625546Y-55843225D02*
X27675210Y-55848193D01*
X75370898Y-100328739D02*
X75395853Y-100371964D01*
X76324839Y-55848189D02*
X76374502Y-55843219D01*
X121509510Y-40097947D02*
X121475545Y-40060353D01*
X76948926Y-123066647D02*
X76983777Y-123030918D01*
X75327602Y-100238829D02*
X75348129Y-100284324D01*
X77129097Y-100328782D02*
X77151868Y-100284368D01*
X28753440Y-45681121D02*
X28750990Y-45649977D01*
X28604146Y-77871945D02*
X28629101Y-77828720D01*
X28374083Y-111567419D02*
X28334296Y-111537283D01*
X80190723Y-90790742D02*
X80175244Y-90804680D01*
X80458427Y-107637349D02*
X80428411Y-107678229D01*
X77047954Y-122954436D02*
X77077088Y-122913910D01*
X121648723Y-107809236D02*
X121625243Y-107764282D01*
X75625916Y-89067400D02*
X75587681Y-89099481D01*
X92000336Y-62249002D02*
X92000336Y-60250993D01*
X73250989Y-59249991D02*
X73250994Y-51249995D01*
X80175244Y-98895377D02*
X80190723Y-98909315D01*
X81098455Y-60239451D02*
X81148765Y-60245857D01*
X77378695Y-121364266D02*
X77398505Y-121357829D01*
X27431208Y-123298930D02*
X27478902Y-123313641D01*
X80637271Y-60041542D02*
X80678191Y-60071589D01*
X121190867Y-62351318D02*
X121144736Y-62330123D01*
X77251009Y-122350072D02*
X77251000Y-121550013D01*
X27165642Y-123162783D02*
X27206880Y-123190900D01*
X72975525Y-40060353D02*
X72939664Y-40024490D01*
X28746013Y-89750336D02*
X28739813Y-89700862D01*
X31754123Y-104351273D02*
X31760529Y-104401583D01*
X77172417Y-66961209D02*
X77151868Y-66915670D01*
X80678191Y-60071589D02*
X80720538Y-60099497D01*
X73099469Y-82279524D02*
X73125198Y-82235819D01*
X27016188Y-55530825D02*
X27051073Y-55566590D01*
X31794904Y-104549715D02*
X31811308Y-104597705D01*
X26809366Y-67007624D02*
X26793469Y-67054936D01*
X75327602Y-111961247D02*
X75309386Y-112007662D01*
X77378695Y-98864247D02*
X77398505Y-98857810D01*
X121688691Y-127097724D02*
X121705110Y-127049686D01*
X31748999Y-45649986D02*
X31746539Y-45681121D01*
X73125223Y-107764282D02*
X73099496Y-107720576D01*
X75665703Y-44037226D02*
X75625916Y-44067362D01*
X56499663Y-82751003D02*
X56499663Y-84749017D01*
X121705110Y-107950409D02*
X121688708Y-107902419D01*
X77077088Y-100413891D02*
X77104166Y-100371964D01*
X80158392Y-53883096D02*
X80175244Y-53895339D01*
X121509510Y-107598004D02*
X121475545Y-107560410D01*
X80249010Y-85750028D02*
X80249000Y-90649987D01*
X28448906Y-89133429D02*
X28412318Y-89099481D01*
X121321828Y-60071589D02*
X121362748Y-60041542D01*
X73041572Y-62637311D02*
X73009523Y-62598005D01*
X80400503Y-62720538D02*
X80374776Y-62764244D01*
X32355216Y-105169895D02*
X32402313Y-105188710D01*
X120901564Y-82739470D02*
X120951534Y-82730514D01*
X73009490Y-85097985D02*
X72975490Y-85060354D01*
X77231157Y-55048359D02*
X77239825Y-54999206D01*
X75452095Y-122954475D02*
X75483215Y-122993497D01*
X75327602Y-44461190D02*
X75309369Y-44507652D01*
X28690630Y-55192329D02*
X28706525Y-55145017D01*
X77252100Y-54029189D02*
X77257791Y-53998486D01*
X121439647Y-127475583D02*
X121475545Y-127439685D01*
X72351284Y-84754167D02*
X72300715Y-84750315D01*
X28746013Y-122449740D02*
X28749746Y-122399918D01*
X26753966Y-77449702D02*
X26760174Y-77499225D01*
X28483757Y-111669177D02*
X28448942Y-111633482D01*
X76661730Y-66437603D02*
X76615739Y-66418214D01*
X72597666Y-105188710D02*
X72644763Y-105169895D01*
X121648723Y-127190859D02*
X121669876Y-127144821D01*
X121751000Y-40749999D02*
X121749723Y-40699265D01*
X80249000Y-81749999D02*
X80250293Y-81800684D01*
X75249000Y-54849999D02*
X75250253Y-54899862D01*
X26809366Y-122692433D02*
X26827582Y-122738848D01*
X75348129Y-122784343D02*
X75370898Y-122828758D01*
X75884326Y-66418196D02*
X75838334Y-66437582D01*
X121439684Y-40024490D02*
X121402014Y-39990457D01*
X120851254Y-107254181D02*
X120800684Y-107250331D01*
X26952045Y-55454379D02*
X26983163Y-55493402D01*
X80598005Y-105009562D02*
X80637311Y-105041611D01*
X28374122Y-66567412D02*
X28334337Y-66537274D01*
X28859646Y-98872719D02*
X28878675Y-98864247D01*
X121402053Y-107490547D02*
X121362708Y-107458465D01*
X121321828Y-62428411D02*
X121279524Y-62400530D01*
X31830123Y-82144783D02*
X31851276Y-82190821D01*
X80809198Y-127648761D02*
X80855236Y-127669914D01*
X80175244Y-113304699D02*
X80149509Y-113322386D01*
X80560335Y-59975491D02*
X80597966Y-60009491D01*
X28816833Y-113297933D02*
X28795338Y-113275282D01*
X26750233Y-89800158D02*
X26748990Y-89850029D01*
X80242228Y-45701495D02*
X80231804Y-45730931D01*
X26793454Y-44554964D02*
X26779950Y-44602962D01*
X27972757Y-78325906D02*
X28021125Y-78313589D01*
X72939627Y-104975564D02*
X72975525Y-104939666D01*
X28750999Y-76550012D02*
X28752080Y-76529208D01*
X72939664Y-40024490D02*
X72902033Y-39990490D01*
X31811308Y-127097724D02*
X31830123Y-127144821D01*
X75293489Y-77645083D02*
X75309386Y-77692395D01*
X26870902Y-44371237D02*
X26848109Y-44415695D01*
X80330143Y-82144783D02*
X80351296Y-82190821D01*
X76076163Y-55835778D02*
X76125517Y-55843219D01*
X80524509Y-104939703D02*
X80560372Y-104975564D01*
X77277671Y-113249547D02*
X77264228Y-113221362D01*
X77268215Y-45730931D02*
X77257791Y-45701495D01*
X31748990Y-76550023D02*
X31749000Y-81750000D01*
X31690703Y-53909277D02*
X31710983Y-53933022D01*
X72779504Y-107400568D02*
X72735755Y-107374814D01*
X75260194Y-77499225D02*
X75268852Y-77548329D01*
X120951534Y-107269543D02*
X120901614Y-107260595D01*
X77077088Y-122913910D02*
X77104166Y-122871983D01*
X75249003Y-73750004D02*
X75249000Y-77349999D01*
X80999082Y-62280971D02*
X80950371Y-62294909D01*
X28753440Y-113181178D02*
X28750990Y-113150034D01*
X27125857Y-44067393D02*
X27087623Y-44099476D01*
X27051037Y-78066575D02*
X27087623Y-78100524D01*
X28816833Y-53902105D02*
X28833021Y-53888997D01*
X75327602Y-66961209D02*
X75309369Y-67007671D01*
X121144783Y-84830162D02*
X121097638Y-84811330D01*
X77249764Y-67300089D02*
X77246037Y-67250367D01*
X80231804Y-90730969D02*
X80216904Y-90758411D01*
X121000937Y-39780952D02*
X120951485Y-39769476D01*
X76661685Y-100762456D02*
X76706654Y-100740801D01*
X41000326Y-62249002D02*
X32750000Y-62249000D01*
X73245851Y-104351323D02*
X73249703Y-104300754D01*
X80524509Y-85060354D02*
X80490509Y-85097985D01*
X28577040Y-100413932D02*
X28604146Y-100371964D01*
X75370922Y-44371237D02*
X75348151Y-44415651D01*
X75250255Y-44800070D02*
X75249010Y-44849990D01*
X80902333Y-127688729D02*
X80950323Y-127705133D01*
X76472729Y-123325956D02*
X76521097Y-123313641D01*
X72821850Y-84928459D02*
X72779504Y-84900549D01*
X27051037Y-100566594D02*
X27087623Y-100600543D01*
X26827582Y-111961247D02*
X26809349Y-112007709D01*
X75370898Y-77828720D02*
X75395853Y-77871945D01*
X26827582Y-89461228D02*
X26809349Y-89507690D01*
X72500868Y-107280996D02*
X72451514Y-107269543D01*
X75551093Y-55566590D02*
X75587643Y-55600505D01*
X72902033Y-82509510D02*
X72939627Y-82475545D01*
X121235775Y-82625243D02*
X121279481Y-82599516D01*
X77190650Y-67007671D02*
X77172417Y-66961209D01*
X75706900Y-89009176D02*
X75665662Y-89037293D01*
X72250000Y-82751000D02*
X72300715Y-82749723D01*
X77190650Y-100192367D02*
X77206545Y-100145055D01*
X31830123Y-59644764D02*
X31851298Y-59690848D01*
X73250989Y-104250029D02*
X73250994Y-96250014D01*
X28746013Y-44750298D02*
X28739805Y-44700775D01*
X31716884Y-121441665D02*
X31731784Y-121469107D01*
X77333041Y-68311003D02*
X77316853Y-68297895D01*
X121688691Y-82097686D02*
X121705095Y-82049696D01*
X31704641Y-121424813D02*
X31716884Y-121441665D01*
X28672397Y-66961209D02*
X28651870Y-66915714D01*
X75516208Y-66669175D02*
X75483183Y-66706598D01*
X31928420Y-62678149D02*
X31900510Y-62720495D01*
X75884326Y-55781804D02*
X75931181Y-55798858D01*
X76423807Y-66364213D02*
X76374453Y-66356775D01*
X75253986Y-112250355D02*
X75250255Y-112300127D01*
X72902033Y-84990528D02*
X72862728Y-84958477D01*
X80524474Y-127439685D02*
X80560372Y-127475583D01*
X73169856Y-82144783D02*
X73188671Y-82097686D01*
X81098455Y-127739508D02*
X81148765Y-127745914D01*
X26922911Y-77913872D02*
X26952045Y-77954398D01*
X28768195Y-45730931D02*
X28760730Y-45711485D01*
X32024454Y-107560410D02*
X31990456Y-107598043D01*
X76750488Y-55716894D02*
X76793119Y-55690843D01*
X28757771Y-98998524D02*
X28768195Y-98969088D01*
X75793321Y-123240798D02*
X75838334Y-123262475D01*
X26983195Y-122993497D02*
X27016222Y-123030918D01*
X73249703Y-59300716D02*
X73250989Y-59249991D01*
X73169856Y-104644802D02*
X73188671Y-104597705D01*
X31611484Y-98860769D02*
X31640333Y-98872719D01*
X80374801Y-40264181D02*
X80351296Y-40309179D01*
X75587681Y-44099443D02*
X75551093Y-44133391D01*
X121000937Y-84780990D02*
X120951485Y-84769514D01*
X31749000Y-126750000D02*
X31750276Y-126800773D01*
X80204661Y-121424813D02*
X80216904Y-121441665D01*
X121749723Y-85699303D02*
X121745876Y-85648784D01*
X28950011Y-90849000D02*
X28929188Y-90847938D01*
X80149509Y-90822367D02*
X80130950Y-90831823D01*
X26749000Y-54850024D02*
X26750235Y-54899911D01*
X75706942Y-123190927D02*
X75749531Y-123216951D01*
X76472729Y-78325918D02*
X76521097Y-78313603D01*
X80560372Y-82475545D02*
X80598005Y-82509543D01*
X72351284Y-82745871D02*
X72401594Y-82739462D01*
X75370922Y-89371275D02*
X75348151Y-89415689D01*
X76027242Y-100825925D02*
X76076212Y-100835825D01*
X31749000Y-81750000D02*
X31750273Y-81800684D01*
X76568838Y-100798896D02*
X76615739Y-100781824D01*
X120750000Y-105251000D02*
X120800683Y-105249745D01*
X28833021Y-90811022D02*
X28816833Y-90797914D01*
X77398505Y-121357829D02*
X77418879Y-121353498D01*
X27725059Y-55850680D02*
X27774970Y-55850678D01*
X80149509Y-98877690D02*
X80175244Y-98895377D01*
X80247919Y-90670830D02*
X80242228Y-90701533D01*
X80311311Y-62902381D02*
X80294909Y-62950371D01*
X80269505Y-59451515D02*
X80280958Y-59500869D01*
X76568838Y-123298915D02*
X76615739Y-123281843D01*
X32749999Y-39749000D02*
X32699315Y-39750274D01*
X75309386Y-122692433D02*
X75327602Y-122738848D01*
X26870902Y-122828801D02*
X26895859Y-122872025D01*
X27087623Y-111599533D02*
X27051037Y-111633482D01*
X27527270Y-66374101D02*
X27478902Y-66386416D01*
X26779950Y-67102981D02*
X26768842Y-67151641D01*
X28250511Y-55716869D02*
X28293099Y-55690843D01*
X28788996Y-68266978D02*
X28777651Y-68249509D01*
X121362708Y-107458465D02*
X121321828Y-107428449D01*
X32402361Y-62311311D02*
X32355263Y-62330123D01*
X75838334Y-66437582D02*
X75793365Y-66459237D01*
X28672377Y-89461182D02*
X28651848Y-89415689D01*
X32355263Y-84830142D02*
X32309132Y-84851337D01*
X77206530Y-55145064D02*
X77220049Y-55097019D01*
X28206678Y-123240798D02*
X28250511Y-123216926D01*
X28629101Y-111871337D02*
X28604120Y-111828070D01*
X27576192Y-66364213D02*
X27527270Y-66374101D01*
X28651848Y-77784349D02*
X28672397Y-77738810D01*
X28206634Y-66459237D02*
X28161710Y-66437603D01*
X32178171Y-60071589D02*
X32220518Y-60099497D01*
X121739462Y-104401633D02*
X121745876Y-104351273D01*
X72250015Y-39748991D02*
X32749999Y-39749000D01*
X31769475Y-63048534D02*
X31760529Y-63098455D01*
X72690801Y-62351296D02*
X72644716Y-62330123D01*
X26827602Y-55238837D02*
X26848131Y-55284330D01*
X28115719Y-88918233D02*
X28068771Y-88901146D01*
X32060315Y-107524547D02*
X32024454Y-107560410D01*
X27087661Y-89099481D02*
X27051073Y-89133429D01*
X26748990Y-89850029D02*
X26749000Y-99850024D01*
X26750235Y-77399930D02*
X26753966Y-77449702D01*
X28448906Y-66633410D02*
X28412356Y-66599495D01*
X28739805Y-122499263D02*
X28746013Y-122449740D01*
X31640333Y-68327319D02*
X31621304Y-68335791D01*
X27051037Y-111633482D02*
X27016188Y-111669213D01*
X75309369Y-89507690D02*
X75293474Y-89555002D01*
X27249511Y-66483106D02*
X27206922Y-66509130D01*
X77378695Y-90835810D02*
X77350510Y-90822367D01*
X76706654Y-88959256D02*
X76661685Y-88937601D01*
X28334296Y-111537283D02*
X28293057Y-111509168D01*
X80111504Y-90839288D02*
X80091384Y-90844679D01*
X26983163Y-111706636D02*
X26952045Y-111745659D01*
X76568838Y-55798858D02*
X76615739Y-55781786D01*
X28021125Y-66386430D02*
X27972757Y-66374113D01*
X75931228Y-78298892D02*
X75978874Y-78313589D01*
X28898485Y-98857810D02*
X28918859Y-98853479D01*
X80183166Y-45797876D02*
X80166978Y-45810984D01*
X27675210Y-88851826D02*
X27625546Y-88856794D01*
X32548465Y-127730552D02*
X32598385Y-127739500D01*
X121321828Y-82571608D02*
X121362708Y-82541592D01*
X80231804Y-113230988D02*
X80222348Y-113249547D01*
X76324789Y-123348250D02*
X76374453Y-123343282D01*
X75293474Y-44554964D02*
X75279970Y-44602962D01*
X72401594Y-107260595D02*
X72351234Y-107254181D01*
X89500336Y-60250992D02*
X89500336Y-62249002D01*
X58999663Y-82751003D02*
X72250000Y-82751000D01*
X32220475Y-105099508D02*
X32264180Y-105125237D01*
X76874142Y-123132645D02*
X76912376Y-123100562D01*
X121648701Y-104690886D02*
X121669896Y-104644755D01*
X121000937Y-105219067D02*
X121049696Y-105205114D01*
X75422931Y-55413853D02*
X75452095Y-55454418D01*
X31549976Y-45848991D02*
X28950013Y-45848999D01*
X72644763Y-105169895D02*
X72690801Y-105148742D01*
X28731137Y-55048359D02*
X28739813Y-54999157D01*
X75250255Y-122399968D02*
X75253986Y-122449740D01*
X26779950Y-55097019D02*
X26793469Y-55145064D01*
X80351296Y-40309179D02*
X80330143Y-40355217D01*
X28293057Y-111509168D02*
X28250468Y-111483144D01*
X120901614Y-107260595D02*
X120851254Y-107254181D01*
X120800735Y-39750277D02*
X120750009Y-39748991D01*
X32402313Y-82688691D02*
X32450351Y-82705110D01*
X75884326Y-88918215D02*
X75838334Y-88937601D01*
X80351296Y-127190859D02*
X80374801Y-127235857D01*
X75625877Y-55632588D02*
X75665662Y-55662726D01*
X31742208Y-68201514D02*
X31731784Y-68230950D01*
X31749000Y-104250000D02*
X31750273Y-104300703D01*
X80720495Y-84900549D02*
X80678191Y-84928430D01*
X77172417Y-44461190D02*
X77151868Y-44415651D01*
X81249984Y-105251028D02*
X89500336Y-105251022D01*
X80458427Y-85137330D02*
X80428411Y-85178210D01*
X80999082Y-127719086D02*
X81048534Y-127730562D01*
X75625916Y-78132638D02*
X75665703Y-78162774D01*
X80231804Y-98969088D02*
X80242228Y-98998524D01*
X80950323Y-60205076D02*
X80999082Y-60219029D01*
X75422959Y-111786144D02*
X75395879Y-111828070D01*
X73071559Y-59821851D02*
X73099469Y-59779505D01*
X31750273Y-108199373D02*
X31748990Y-108250048D01*
X73125198Y-82235819D02*
X73148703Y-82190821D01*
X80049984Y-121351000D02*
X80081140Y-121353498D01*
X77077088Y-111786185D02*
X77047954Y-111745659D01*
X121475545Y-104939666D02*
X121509510Y-104902072D01*
X27206880Y-78190862D02*
X27249468Y-78216888D01*
X77206545Y-100145055D02*
X77220049Y-100097057D01*
X107499673Y-82751003D02*
X120750000Y-82751000D01*
X76834316Y-55662755D02*
X76874103Y-55632619D01*
X77104166Y-111828112D02*
X77077088Y-111786185D01*
X76874142Y-78132607D02*
X76912376Y-78100524D01*
X73249703Y-63199284D02*
X73245851Y-63148715D01*
X32024454Y-85060391D02*
X31990456Y-85098024D01*
X28706525Y-44554964D02*
X28690613Y-44507605D01*
X77429208Y-113347957D02*
X77408635Y-113344698D01*
X72451465Y-39769476D02*
X72401544Y-39760530D01*
X80490509Y-59902034D02*
X80524474Y-59939628D01*
X120750010Y-107249048D02*
X107499673Y-107249031D01*
X26753962Y-112250405D02*
X26750233Y-112300177D01*
X28768195Y-113230988D02*
X28757771Y-113201552D01*
X73188671Y-40402314D02*
X73169856Y-40355217D01*
X72975525Y-82439647D02*
X73009523Y-82402014D01*
X121439684Y-107524547D02*
X121402053Y-107490547D01*
X72821808Y-107428449D02*
X72779504Y-107400568D01*
X80242228Y-90701533D02*
X80231804Y-90730969D01*
X32097985Y-39990457D02*
X32060352Y-40024455D01*
X31958438Y-127362786D02*
X31990456Y-127402052D01*
X76615739Y-88918233D02*
X76568838Y-88901161D01*
X31739249Y-76488515D02*
X31746539Y-76518879D01*
X72735755Y-105125262D02*
X72779504Y-105099508D01*
X28604120Y-89328051D02*
X28577040Y-89286125D01*
X80809198Y-84851315D02*
X80764244Y-84874795D01*
X27675210Y-55848193D02*
X27725059Y-55850680D01*
X121571608Y-107678229D02*
X121541561Y-107637309D01*
X76750488Y-111483144D02*
X76706698Y-111459297D01*
X72862728Y-127541599D02*
X72902033Y-127509548D01*
X121730514Y-40548466D02*
X121719061Y-40499112D01*
X80311311Y-85402400D02*
X80294909Y-85450390D01*
X80560372Y-127475583D02*
X80597966Y-127509548D01*
X76521097Y-123313641D02*
X76568838Y-123298915D01*
X27384260Y-111418252D02*
X27338269Y-111437641D01*
X73239442Y-81901614D02*
X73245851Y-81851304D01*
X26895833Y-100371964D02*
X26922911Y-100413891D01*
X31928391Y-59821809D02*
X31958438Y-59862729D01*
X76948926Y-89133429D02*
X76912376Y-89099514D01*
X72902033Y-127509548D02*
X72939627Y-127475583D01*
X31581120Y-45846540D02*
X31549976Y-45848991D01*
X26952045Y-100454417D02*
X26983163Y-100493440D01*
X80280958Y-127000926D02*
X80294909Y-127049686D01*
X72300715Y-84750315D02*
X72249990Y-84749029D01*
X31746539Y-54018860D02*
X31748990Y-54050004D01*
X31769485Y-108048523D02*
X31760537Y-108098443D01*
X121097686Y-127688729D02*
X121144783Y-127669914D01*
X72549628Y-62294909D02*
X72500917Y-62280971D01*
X28950003Y-53850991D02*
X31549987Y-53851000D01*
X26983195Y-66706560D02*
X26952075Y-66745582D01*
X80950323Y-105205114D02*
X80999131Y-105219080D01*
X80260557Y-81901614D02*
X80269505Y-81951534D01*
X32548465Y-82730514D02*
X32598385Y-82739462D01*
X76274940Y-100850718D02*
X76324789Y-100848231D01*
X75587681Y-89099481D02*
X75551093Y-89133429D01*
X27293345Y-55740763D02*
X27338314Y-55762418D01*
X73239442Y-40598386D02*
X73230494Y-40548466D01*
X121235819Y-107374839D02*
X121190867Y-107351356D01*
X26870902Y-89371275D02*
X26848109Y-89415733D01*
X28448906Y-44133391D02*
X28412356Y-44099476D01*
X121599516Y-59779462D02*
X121625218Y-59735800D01*
X75268852Y-55048310D02*
X75279970Y-55097019D01*
X76661685Y-88937601D02*
X76615739Y-88918233D01*
X75395853Y-100371964D02*
X75422959Y-100413932D01*
X26952045Y-77954398D02*
X26983163Y-77993421D01*
X31748990Y-63250010D02*
X31748999Y-68149986D01*
X121749723Y-40699265D02*
X121745871Y-40648696D01*
X32648745Y-84754162D02*
X32598435Y-84760568D01*
X27478902Y-55813584D02*
X27527270Y-55825899D01*
X28833021Y-53888997D02*
X28859646Y-53872681D01*
X28720042Y-122597027D02*
X28731137Y-122548416D01*
X75422931Y-44286128D02*
X75395853Y-44328055D01*
X28746017Y-77449652D02*
X28749746Y-77399880D01*
X76706654Y-66459237D02*
X76661730Y-66437603D01*
X75348129Y-100284324D02*
X75370898Y-100328739D01*
X75268852Y-122548367D02*
X75279957Y-122597027D01*
X121235819Y-62374801D02*
X121190867Y-62351318D01*
X31874756Y-104735794D02*
X31900483Y-104779500D01*
X80247919Y-99029227D02*
X80249009Y-99050042D01*
X77246033Y-122449740D02*
X77249764Y-122399968D01*
X80249010Y-40749990D02*
X80249000Y-45649987D01*
X75483215Y-100493478D02*
X75516208Y-100530863D01*
X28841607Y-45816885D02*
X28816833Y-45797876D01*
X75665703Y-111537283D02*
X75625916Y-111567419D01*
X121705110Y-40450352D02*
X121688691Y-40402314D01*
X31746539Y-90681159D02*
X31742208Y-90701533D01*
X77268215Y-68230950D02*
X77257791Y-68201514D01*
X76374453Y-43856756D02*
X76324839Y-43851792D01*
X120800684Y-82749726D02*
X120851254Y-82745876D01*
X28749746Y-122399918D02*
X28750989Y-122350048D01*
X32499062Y-60219029D02*
X32548465Y-60230495D01*
X26793469Y-67054936D02*
X26779950Y-67102981D01*
X121190821Y-84851315D02*
X121144783Y-84830162D01*
X31581120Y-76353460D02*
X31611484Y-76360750D01*
X26848131Y-55284330D02*
X26870902Y-55328744D01*
X31990456Y-85098024D02*
X31958438Y-85137290D01*
X77341627Y-53883096D02*
X77369069Y-53868196D01*
X80149509Y-113322386D02*
X80130950Y-113331842D01*
X77246033Y-54949683D02*
X77249764Y-54899911D01*
X80524509Y-62560335D02*
X80490509Y-62597966D01*
X77450023Y-76351009D02*
X80060424Y-76351283D01*
X80855236Y-107330181D02*
X80809198Y-107351334D01*
X72901994Y-60009524D02*
X72939664Y-59975491D01*
X75706942Y-55690870D02*
X75749531Y-55716894D01*
X72549628Y-84794928D02*
X72500868Y-84780977D01*
X31754128Y-126851342D02*
X31760537Y-126901652D01*
X76027242Y-78325906D02*
X76076212Y-78335806D01*
X121749723Y-126800773D02*
X121751009Y-126750073D01*
X28706510Y-89554955D02*
X28690613Y-89507643D01*
X75516208Y-111669213D02*
X75483215Y-111706598D01*
X121625218Y-82235819D02*
X121648701Y-82190867D01*
X73249703Y-40699265D02*
X73245851Y-40648696D01*
X28250511Y-78216888D02*
X28293099Y-78190862D01*
X31697875Y-113283204D02*
X31675224Y-113304699D01*
X28629101Y-55328701D02*
X28651870Y-55284286D01*
X31830123Y-85355255D02*
X31811308Y-85402352D01*
X26753966Y-122449740D02*
X26760174Y-122499263D01*
X32450351Y-82705110D02*
X32499111Y-82719061D01*
X26750235Y-122399968D02*
X26753966Y-122449740D01*
X81048534Y-39769476D02*
X80999082Y-39780952D01*
X121705095Y-59549677D02*
X121719061Y-59500869D01*
X28250511Y-43983112D02*
X28206678Y-43959240D01*
X28161710Y-66437603D02*
X28115719Y-66418214D01*
X72821850Y-105071598D02*
X72862728Y-105041580D01*
X76568838Y-78298877D02*
X76615739Y-78281805D01*
X121705095Y-62950323D02*
X121688691Y-62902333D01*
X75249010Y-67350009D02*
X75249006Y-71250004D01*
X27051073Y-66633410D02*
X27016222Y-66669139D01*
X77257791Y-76498505D02*
X77268215Y-76469069D01*
X27675160Y-78348208D02*
X27725009Y-78350697D01*
X80598005Y-84990495D02*
X80560372Y-85024493D01*
X72644763Y-82669876D02*
X72690801Y-82648723D01*
X26779937Y-122597027D02*
X26793469Y-122645121D01*
X28516816Y-77993421D02*
X28547934Y-77954398D01*
X75253986Y-44750298D02*
X75250255Y-44800070D01*
X75395853Y-77871945D02*
X75422959Y-77913913D01*
X73071588Y-82321828D02*
X73099469Y-82279524D01*
X26793469Y-55145064D02*
X26809366Y-55192376D01*
X80280958Y-104500907D02*
X80294909Y-104549667D01*
X31958438Y-40137252D02*
X31928420Y-40178130D01*
X77398505Y-68342228D02*
X77378695Y-68335791D01*
X73041572Y-104862727D02*
X73071588Y-104821847D01*
X28752080Y-99029227D02*
X28757771Y-98998524D01*
X28898485Y-76357791D02*
X28918859Y-76353460D01*
X80280958Y-85499150D02*
X80269505Y-85548504D01*
X80311311Y-59597619D02*
X80330143Y-59644764D01*
X28293099Y-100690881D02*
X28334337Y-100662764D01*
X27625546Y-123343282D02*
X27675210Y-123348250D01*
X72975525Y-59939628D02*
X73009490Y-59902034D01*
X121402014Y-39990457D02*
X121362748Y-39958439D01*
X28374122Y-44067393D02*
X28334337Y-44037255D01*
X121279524Y-62400530D02*
X121235819Y-62374801D01*
X58999663Y-107249031D02*
X58999663Y-105251009D01*
X80351296Y-82190821D02*
X80374776Y-82235775D01*
X26779950Y-100097057D02*
X26793469Y-100145102D01*
X31748999Y-90649986D02*
X31746539Y-90681159D01*
X73250994Y-73750004D02*
X75249003Y-73750004D01*
X76175180Y-43851792D02*
X76125517Y-43856762D01*
X80242228Y-76498505D02*
X80247919Y-76529208D01*
X26768842Y-67151641D02*
X26760174Y-67200794D01*
X75249000Y-99849999D02*
X75250255Y-99899949D01*
X76750488Y-43983087D02*
X76706654Y-43959218D01*
X31990489Y-59902034D02*
X32024489Y-59939665D01*
X26750235Y-67300089D02*
X26748990Y-67350010D01*
X32178171Y-107428449D02*
X32137291Y-107458465D01*
X73239442Y-104401633D02*
X73245851Y-104351323D01*
X72644716Y-62330123D02*
X72597618Y-62311311D01*
X27338269Y-111437641D02*
X27293301Y-111459297D01*
X73219041Y-62999131D02*
X73205090Y-62950371D01*
X27087623Y-44099476D02*
X27051037Y-44133425D01*
X32402313Y-60188672D02*
X32450351Y-60205091D01*
X80999082Y-39780952D02*
X80950371Y-39794890D01*
X80249000Y-59249999D02*
X80250293Y-59300665D01*
X81148715Y-84754167D02*
X81098405Y-84760576D01*
X80458427Y-82362708D02*
X80490509Y-82402053D01*
X77246037Y-44750348D02*
X77239825Y-44700775D01*
X73188671Y-107902371D02*
X73169856Y-107855274D01*
X32220518Y-39900484D02*
X32178171Y-39928392D01*
X27824819Y-100848227D02*
X27874482Y-100843257D01*
X75625916Y-100632657D02*
X75665703Y-100662793D01*
X31794904Y-62950323D02*
X31780951Y-62999082D01*
X32137291Y-60041573D02*
X32178171Y-60071589D01*
X32220518Y-60099497D02*
X32264180Y-60125199D01*
X77257791Y-68201514D02*
X77252100Y-68170811D01*
X32450351Y-84794928D02*
X32402361Y-84811330D01*
X80598005Y-62490476D02*
X80560372Y-62524474D01*
X28115719Y-55781786D02*
X28161710Y-55762397D01*
X76324839Y-66351811D02*
X76274990Y-66349322D01*
X77016804Y-66706560D02*
X76983777Y-66669139D01*
X27478854Y-88886449D02*
X27431161Y-88901161D01*
X28750989Y-99850029D02*
X28750999Y-99050012D01*
X76874103Y-55632619D02*
X76912376Y-55600505D01*
X80855236Y-105169895D02*
X80902333Y-105188710D01*
X28750999Y-112350000D02*
X28749746Y-112300176D01*
X27725009Y-78350697D02*
X27774970Y-78350697D01*
X121144783Y-127669914D02*
X121190821Y-127648761D01*
X80809198Y-105148742D02*
X80855236Y-105169895D01*
X31640333Y-45827300D02*
X31611484Y-45839250D01*
X32450351Y-39794890D02*
X32402361Y-39811292D01*
X75422959Y-100413932D02*
X75452095Y-100454456D01*
X28161710Y-43937584D02*
X28115719Y-43918195D01*
X32097946Y-107490547D02*
X32060315Y-107524547D01*
X32264180Y-84874820D02*
X32220475Y-84900549D01*
X77104166Y-122871983D02*
X77129097Y-122828801D01*
X121688691Y-62902333D02*
X121669876Y-62855236D01*
X76225029Y-123350735D02*
X76274940Y-123350737D01*
X73219041Y-82000888D02*
X73230504Y-81951485D01*
X26760174Y-67200794D02*
X26753966Y-67250317D01*
X77369069Y-113331842D02*
X77350510Y-113322386D01*
X28483757Y-89169158D02*
X28448906Y-89133429D01*
X72821850Y-60071560D02*
X72862728Y-60041542D01*
X26827602Y-77738856D02*
X26848131Y-77784349D01*
X28068818Y-43901123D02*
X28021077Y-43886397D01*
X28739813Y-99999195D02*
X28746017Y-99949671D01*
X28795338Y-45775225D02*
X28777651Y-45749490D01*
X27725059Y-123350737D02*
X27774970Y-123350735D01*
X80720495Y-82599489D02*
X80764200Y-82625218D01*
X77350510Y-121377709D02*
X77378695Y-121364266D01*
X72975525Y-62560372D02*
X72939664Y-62524509D01*
X80060424Y-90848755D02*
X77450011Y-90849000D01*
X28908615Y-68344660D02*
X28878675Y-68335791D01*
X27725059Y-88849339D02*
X27675210Y-88851826D01*
X32024454Y-127439685D02*
X32060352Y-127475583D01*
X72902033Y-62490509D02*
X72862728Y-62458458D01*
X73205075Y-82049696D02*
X73219041Y-82000888D01*
X32355216Y-127669914D02*
X32402313Y-127688729D01*
X28950010Y-113349000D02*
X28918859Y-113346597D01*
X73071588Y-40178172D02*
X73041572Y-40137292D01*
X77268215Y-90730969D02*
X77257791Y-90701533D01*
X75551093Y-44133391D02*
X75516208Y-44169156D01*
X120951534Y-60230495D02*
X121000937Y-60219029D01*
X31710983Y-53933022D02*
X31727299Y-53959647D01*
X27293345Y-66459237D02*
X27249511Y-66483106D01*
X72975525Y-104939666D02*
X73009523Y-104902033D01*
X80231804Y-45730931D02*
X80216904Y-45758373D01*
X80242228Y-121498543D02*
X80247919Y-121529246D01*
X76661730Y-55762397D02*
X76706654Y-55740763D01*
X27087623Y-100600543D02*
X27125857Y-100632626D01*
X121475545Y-62560372D02*
X121439684Y-62524509D01*
X76125517Y-43856762D02*
X76076163Y-43864203D01*
X121049648Y-127705148D02*
X121097686Y-127688729D01*
X28950012Y-68349000D02*
X28929188Y-68347919D01*
X80428411Y-107678229D02*
X80400530Y-107720533D01*
X121719061Y-82000888D02*
X121730514Y-81951534D01*
X31928420Y-40178130D02*
X31900510Y-40220476D01*
X77250999Y-44849975D02*
X77249766Y-44800120D01*
X26760166Y-44700824D02*
X26753966Y-44750298D01*
X28577040Y-122913951D02*
X28604146Y-122871983D01*
X80190723Y-113290761D02*
X80175244Y-113304699D01*
X76423856Y-123335835D02*
X76472729Y-123325956D01*
X80249000Y-68149987D02*
X80247919Y-68170811D01*
X31830123Y-107855274D02*
X31811308Y-107902371D01*
X75249000Y-122349999D02*
X75250255Y-122399968D01*
X73230494Y-85548504D02*
X73219041Y-85499150D01*
X77251009Y-77350034D02*
X77251000Y-76550013D01*
X27874482Y-78343238D02*
X27923836Y-78335797D01*
X80950371Y-82705110D02*
X80999131Y-82719061D01*
X120951534Y-127730552D02*
X121000888Y-127719099D01*
X121599516Y-127279519D02*
X121625243Y-127235813D01*
X31658372Y-90816923D02*
X31630930Y-90831823D01*
X80330143Y-40355217D02*
X80311328Y-40402314D01*
X32060315Y-104975529D02*
X32097946Y-105009529D01*
X76472777Y-55825887D02*
X76521097Y-55813584D01*
X80400530Y-59779505D02*
X80428411Y-59821809D01*
X80070811Y-113347957D02*
X80049996Y-113349047D01*
X80247919Y-45670792D02*
X80242228Y-45701495D01*
X80294924Y-82049696D02*
X80311328Y-82097686D01*
X73239442Y-108098443D02*
X73230494Y-108048523D01*
X28757771Y-76498505D02*
X28768195Y-76469069D01*
X28483757Y-44169120D02*
X28448906Y-44133391D01*
X31748999Y-113149986D02*
X31746539Y-113181178D01*
X80720495Y-127599527D02*
X80764200Y-127625256D01*
X32450351Y-107294947D02*
X32402361Y-107311349D01*
X31748990Y-121550061D02*
X31749000Y-126750000D01*
X28841607Y-113316942D02*
X28816833Y-113297933D01*
X75931228Y-88901146D02*
X75884326Y-88918215D01*
X31697875Y-90783185D02*
X31675224Y-90804680D01*
X73205075Y-107950361D02*
X73188671Y-107902371D01*
X80637271Y-107458496D02*
X80597966Y-107490547D01*
X76834316Y-66537245D02*
X76793077Y-66509130D01*
X32450351Y-105205129D02*
X32499111Y-105219080D01*
X75884280Y-111418252D02*
X75838334Y-111437620D01*
X80950371Y-84794928D02*
X80902381Y-84811330D01*
X76374453Y-88856794D02*
X76324839Y-88851830D01*
X31727299Y-98959685D02*
X31739249Y-98988534D01*
X32309178Y-82648723D02*
X32355216Y-82669876D01*
X27051073Y-123066647D02*
X27087661Y-123100595D01*
X27431208Y-55798873D02*
X27478902Y-55813584D01*
X73148703Y-104690840D02*
X73169856Y-104644802D01*
X107499673Y-107249031D02*
X107499673Y-105251009D01*
X76983777Y-123030918D02*
X77016804Y-122993497D01*
X28739813Y-54999157D02*
X28746017Y-54949633D01*
X31830123Y-104644802D02*
X31851276Y-104690840D01*
X121719048Y-107999120D02*
X121705110Y-107950409D01*
X73250995Y-116250024D02*
X73251000Y-108250000D01*
X28604120Y-66828032D02*
X28577040Y-66786106D01*
X26760166Y-54999157D02*
X26768832Y-55048310D01*
X80280958Y-62999131D02*
X80269495Y-63048534D01*
X80250293Y-59300665D02*
X80254143Y-59351235D01*
X72401544Y-127739508D02*
X72451465Y-127730562D01*
X76983777Y-44169120D02*
X76948926Y-44133391D01*
X75749488Y-88983150D02*
X75706900Y-89009176D01*
X26760174Y-99999244D02*
X26768842Y-100048397D01*
X28483757Y-100530899D02*
X28516816Y-100493440D01*
X73230504Y-81951485D02*
X73239442Y-81901614D01*
X77239825Y-54999206D02*
X77246033Y-54949683D01*
X76225079Y-43849301D02*
X76175180Y-43851792D01*
X80855236Y-60169857D02*
X80902333Y-60188672D01*
X76175180Y-78348208D02*
X76225029Y-78350697D01*
X121719061Y-104500907D02*
X121730514Y-104451553D01*
X72249999Y-60251000D02*
X72300664Y-60249707D01*
X77047954Y-77954398D02*
X77077088Y-77913872D01*
X80720495Y-105099508D02*
X80764244Y-105125262D01*
X77206545Y-44554964D02*
X77190650Y-44507652D01*
X28516784Y-66706560D02*
X28483757Y-66669139D01*
X76125566Y-123343282D02*
X76175180Y-123348246D01*
X31851298Y-107809190D02*
X31830123Y-107855274D01*
X32060315Y-62524509D02*
X32024489Y-62560335D01*
X31811308Y-104597705D02*
X31830123Y-104644802D01*
X121000937Y-82719048D02*
X121049696Y-82705095D01*
X31750273Y-40699316D02*
X31748990Y-40749991D01*
X76472729Y-66374101D02*
X76423807Y-66364213D01*
X32450351Y-62294909D02*
X32402361Y-62311311D01*
X26748990Y-67350010D02*
X26749000Y-77350024D01*
X28690613Y-44507605D02*
X28672397Y-44461190D01*
X31658372Y-113316942D02*
X31630930Y-113331842D01*
X32648745Y-60245857D02*
X32699264Y-60249704D01*
X77190633Y-55192376D02*
X77206530Y-55145064D01*
X27874482Y-88856800D02*
X27824819Y-88851830D01*
X31900510Y-107720533D02*
X31874781Y-107764238D01*
X80091384Y-68344660D02*
X80060424Y-68348736D01*
X81098405Y-82739462D02*
X81148765Y-82745876D01*
X77190650Y-122692386D02*
X77206545Y-122645074D01*
X73250995Y-48749995D02*
X73250999Y-40749974D01*
X28802104Y-68283166D02*
X28788996Y-68266978D01*
X28651870Y-44415695D02*
X28629077Y-44371237D01*
X80049985Y-98851000D02*
X80081140Y-98853479D01*
X32749990Y-127751047D02*
X72250000Y-127751000D01*
X28918859Y-98853479D02*
X28950003Y-98851028D01*
X27527270Y-55825899D02*
X27576192Y-55835787D01*
X80598005Y-82509543D02*
X80637311Y-82541592D01*
X28068771Y-123298930D02*
X28115673Y-123281861D01*
X28757771Y-113201552D02*
X28753440Y-113181178D01*
X32024489Y-62560335D02*
X31990489Y-62597966D01*
X77277671Y-121450548D02*
X77295358Y-121424813D01*
X41000326Y-105251022D02*
X41000326Y-107249010D01*
X77450011Y-90849000D02*
X77418879Y-90846578D01*
X76948926Y-100566628D02*
X76983777Y-100530899D01*
X26748990Y-112350048D02*
X26749000Y-122350000D01*
X77450013Y-45848999D02*
X77429208Y-45847900D01*
X73219028Y-107999120D02*
X73205075Y-107950361D01*
X80249010Y-108250047D02*
X80249000Y-113149987D01*
X31794904Y-59549677D02*
X31811308Y-59597667D01*
X31754123Y-81851254D02*
X31760529Y-81901564D01*
X75978874Y-55813570D02*
X76027290Y-55825899D01*
X121235775Y-39874757D02*
X121190821Y-39851277D01*
X75279957Y-77596989D02*
X75293489Y-77645083D01*
X80490509Y-82402053D02*
X80524509Y-82439684D01*
X80254143Y-40648746D02*
X80250296Y-40699265D01*
X76983777Y-89169158D02*
X76948926Y-89133429D01*
X73009490Y-59902034D02*
X73041541Y-59862729D01*
X75551093Y-66633410D02*
X75516208Y-66669175D01*
X32355263Y-107330161D02*
X32309132Y-107351356D01*
X121648701Y-59690848D02*
X121669896Y-59644717D01*
X56499663Y-60250996D02*
X56499663Y-62249006D01*
X32355216Y-82669876D02*
X32402313Y-82688691D01*
X121751009Y-104250028D02*
X121751000Y-85749999D01*
X26952075Y-122954475D02*
X26983195Y-122993497D01*
X77206545Y-89555002D02*
X77190650Y-89507690D01*
X81148765Y-127745914D02*
X81199335Y-127749764D01*
X73099469Y-85220514D02*
X73071559Y-85178168D01*
X80351296Y-85309217D02*
X80330123Y-85355302D01*
X75665703Y-123162812D02*
X75706942Y-123190927D01*
X76706654Y-55740763D02*
X76750488Y-55716894D01*
X77408635Y-45844641D02*
X77378695Y-45835772D01*
X80280971Y-82000937D02*
X80294924Y-82049696D01*
X28706510Y-100145102D02*
X28720029Y-100097057D01*
X28731147Y-89651709D02*
X28720042Y-89603049D01*
X27923836Y-78335797D02*
X27972757Y-78325906D01*
X31746539Y-99018898D02*
X31748990Y-99050042D01*
X28115719Y-100781824D02*
X28161710Y-100762435D01*
X76225079Y-88849339D02*
X76175230Y-88851826D01*
X27576192Y-43864194D02*
X27527270Y-43874082D01*
X73251000Y-85750000D02*
X73249703Y-85699303D01*
X77252100Y-113170849D02*
X77251009Y-113150034D01*
X80458427Y-59862689D02*
X80490509Y-59902034D01*
X80254148Y-104351323D02*
X80260557Y-104401633D01*
X26848109Y-111915752D02*
X26827582Y-111961247D01*
X75749488Y-66483131D02*
X75706900Y-66509157D01*
X28706510Y-112054974D02*
X28690630Y-112007709D01*
X28720029Y-67102981D02*
X28706510Y-67054936D01*
X77249764Y-122399968D02*
X77251009Y-122350072D01*
X76834316Y-78162774D02*
X76874142Y-78132607D01*
X80374776Y-85264263D02*
X80351296Y-85309217D01*
X31591364Y-113344698D02*
X31570791Y-113347957D01*
X80049996Y-113349047D02*
X77450010Y-113349000D01*
X28690613Y-67007624D02*
X28672397Y-66961209D01*
X80311328Y-107902371D02*
X80294924Y-107950361D01*
X76472729Y-43874082D02*
X76423807Y-43864194D01*
X80091384Y-53855340D02*
X80111504Y-53860731D01*
X32699264Y-127749761D02*
X32749990Y-127751047D01*
X75838334Y-78262437D02*
X75884326Y-78281823D01*
X26895833Y-77871945D02*
X26922911Y-77913872D01*
X31731784Y-68230950D02*
X31722328Y-68249509D01*
X75931228Y-123298930D02*
X75978874Y-123313627D01*
X31746539Y-113181178D02*
X31742208Y-113201552D01*
X72500917Y-62280971D02*
X72451514Y-62269505D01*
X31731784Y-121469107D02*
X31739249Y-121488553D01*
X77252100Y-76529208D02*
X77257791Y-76498505D01*
X31874756Y-40264225D02*
X31851276Y-40309179D01*
X80597966Y-127509548D02*
X80637271Y-127541599D01*
X76521145Y-111386468D02*
X76472777Y-111374151D01*
X32060315Y-82475510D02*
X32097946Y-82509510D01*
X80637271Y-127541599D02*
X80678191Y-127571646D01*
X120750009Y-39748991D02*
X81249999Y-39749000D01*
X56499663Y-84749017D02*
X43500326Y-84749007D01*
X28690613Y-122692433D02*
X28706525Y-122645074D01*
X26895859Y-89328051D02*
X26870902Y-89371275D01*
X28483757Y-66669139D02*
X28448906Y-66633410D01*
X31811308Y-82097686D02*
X31830123Y-82144783D01*
X80311311Y-104597657D02*
X80330123Y-104644755D01*
X121749726Y-104300703D02*
X121751009Y-104250028D01*
X77104166Y-77871945D02*
X77129097Y-77828763D01*
X27824819Y-123348246D02*
X27874433Y-123343282D01*
X27165683Y-66537245D02*
X27125896Y-66567381D01*
X32264180Y-127625256D02*
X32309178Y-127648761D01*
X121097638Y-39811292D02*
X121049648Y-39794890D01*
X31611484Y-113339307D02*
X31591364Y-113344698D01*
X31727299Y-76459666D02*
X31739249Y-76488515D01*
X75309386Y-100192414D02*
X75327602Y-100238829D01*
X32548465Y-107269543D02*
X32499111Y-107280996D01*
X28768195Y-98969088D02*
X28783095Y-98941646D01*
X73099469Y-40220476D02*
X73071588Y-40178172D01*
X73125198Y-62764200D02*
X73099469Y-62720495D01*
X26748990Y-44849991D02*
X26749000Y-54850024D01*
X81048534Y-60230505D02*
X81098455Y-60239451D01*
X73250995Y-71250004D02*
X73251000Y-63250000D01*
X32024454Y-82439647D02*
X32060315Y-82475510D01*
X76027242Y-88874132D02*
X75978874Y-88886449D01*
X77249764Y-112300127D02*
X77246037Y-112250405D01*
X28749746Y-54899861D02*
X28750989Y-54849991D01*
X80246559Y-54018860D02*
X80249009Y-54050004D01*
X27338314Y-123262475D02*
X27384306Y-123281861D01*
X31748990Y-108250048D02*
X31748999Y-113149986D01*
X31928391Y-82321828D02*
X31958407Y-82362708D01*
X121190821Y-60148704D02*
X121235775Y-60125224D01*
X77257791Y-121498543D02*
X77268215Y-121469107D01*
X77129097Y-77828763D02*
X77151868Y-77784349D01*
X26870902Y-111871294D02*
X26848109Y-111915752D01*
X28878675Y-68335791D02*
X28859646Y-68327319D01*
X73219028Y-40499063D02*
X73205075Y-40450304D01*
X32355263Y-62330123D02*
X32309132Y-62351318D01*
X27824819Y-88851830D02*
X27774970Y-88849341D01*
X76983777Y-78030880D02*
X77016804Y-77993459D01*
X72300715Y-39750277D02*
X72250015Y-39748991D01*
X28795338Y-98924794D02*
X28809276Y-98909315D01*
X75483183Y-44206579D02*
X75452065Y-44245602D01*
X27165642Y-44037255D02*
X27125857Y-44067393D01*
X80311328Y-82097686D02*
X80330143Y-82144783D01*
X75706942Y-78190889D02*
X75749531Y-78216913D01*
X72597618Y-39811292D02*
X72549628Y-39794890D01*
X73239450Y-126901602D02*
X73245856Y-126851292D01*
X80101514Y-76357791D02*
X80130950Y-76368215D01*
X121321870Y-127571617D02*
X121362748Y-127541599D01*
X73250989Y-126750048D02*
X73250994Y-118750024D01*
X27874433Y-123343282D02*
X27923787Y-123335844D01*
X27478902Y-43886397D02*
X27431161Y-43901123D01*
X75884326Y-123281861D02*
X75931228Y-123298930D01*
X77220049Y-55097019D02*
X77231157Y-55048359D01*
X28629077Y-44371237D02*
X28604120Y-44328013D01*
X32309178Y-105148742D02*
X32355216Y-105169895D01*
X77190650Y-89507690D02*
X77172417Y-89461228D01*
X120901614Y-127739500D02*
X120951534Y-127730552D01*
X73125198Y-59735800D02*
X73148681Y-59690848D01*
X26922939Y-66786106D02*
X26895859Y-66828032D01*
X27774970Y-123350735D02*
X27824819Y-123348246D01*
X76948962Y-55566556D02*
X76983811Y-55530825D01*
X77450010Y-113349000D02*
X77429208Y-113347957D01*
X121599516Y-104779500D02*
X121625218Y-104735838D01*
X80197895Y-45783147D02*
X80183166Y-45797876D01*
X80560372Y-85024493D02*
X80524509Y-85060354D01*
X121049648Y-39794890D02*
X121000937Y-39780952D01*
X81199284Y-60249704D02*
X81249984Y-60250990D01*
X77257791Y-53998486D02*
X77264228Y-53978676D01*
X28750999Y-67350000D02*
X28749746Y-67300138D01*
X80330123Y-62855283D02*
X80311311Y-62902381D01*
X77252100Y-45670792D02*
X77251009Y-45649977D01*
X77251009Y-99850053D02*
X77251000Y-99050013D01*
X31549976Y-90849028D02*
X28950011Y-90849000D01*
X80260557Y-63098405D02*
X80254148Y-63148715D01*
X76324789Y-100848231D02*
X76374453Y-100843263D01*
X72779504Y-60099470D02*
X72821850Y-60071560D01*
X77239825Y-112200832D02*
X77231157Y-112151679D01*
X80678191Y-84928430D02*
X80637311Y-84958446D01*
X26749000Y-77350024D02*
X26750235Y-77399930D01*
X27338269Y-78262416D02*
X27384260Y-78281805D01*
X76874142Y-89067431D02*
X76834316Y-89037264D01*
X77239825Y-89700813D02*
X77231157Y-89651660D01*
X27016222Y-66669139D02*
X26983195Y-66706560D01*
X27016222Y-123030918D02*
X27051073Y-123066647D01*
X80637311Y-105041611D02*
X80678191Y-105071627D01*
X32264224Y-39874757D02*
X32220518Y-39900484D01*
X76661685Y-123262475D02*
X76706654Y-123240820D01*
X76521097Y-88886435D02*
X76472729Y-88874120D01*
X28749746Y-44800119D02*
X28746013Y-44750298D01*
X80637311Y-82541592D02*
X80678191Y-82571608D01*
X31900483Y-82279481D02*
X31928391Y-82321828D01*
X73205075Y-127049734D02*
X73219028Y-127000975D01*
X28672397Y-44461190D02*
X28651870Y-44415695D01*
X31958407Y-104862727D02*
X31990456Y-104902033D01*
X28651848Y-100284368D02*
X28672397Y-100238829D01*
X72549628Y-105205129D02*
X72597666Y-105188710D01*
X81199335Y-39750274D02*
X81148765Y-39754124D01*
X28412356Y-78100524D02*
X28448906Y-78066609D01*
X27384306Y-55781804D02*
X27431208Y-55798873D01*
X77418879Y-90846578D02*
X77398505Y-90842247D01*
X121097638Y-84811330D02*
X121049648Y-84794928D01*
X77295358Y-90775263D02*
X77277671Y-90749528D01*
X77104166Y-55371926D02*
X77129121Y-55328701D01*
X32699315Y-62250293D02*
X32648745Y-62254143D01*
X73009523Y-62598005D02*
X72975525Y-62560372D01*
X28068771Y-111401165D02*
X28021077Y-111386454D01*
X27384306Y-66418196D02*
X27338314Y-66437582D01*
X73219041Y-104500907D02*
X73230504Y-104451504D01*
X28750989Y-122350048D02*
X28750999Y-121550012D01*
X75279957Y-122597027D02*
X75293489Y-122645121D01*
X121625243Y-127235813D02*
X121648723Y-127190859D01*
X28161665Y-123262475D02*
X28206678Y-123240798D01*
X31748990Y-99050042D02*
X31749000Y-104250000D01*
X28757771Y-53998486D02*
X28764208Y-53978676D01*
X75293474Y-89555002D02*
X75279970Y-89603000D01*
X121669896Y-104644755D02*
X121688691Y-104597705D01*
X26779950Y-44602962D02*
X26768842Y-44651622D01*
X31735771Y-45721305D02*
X31727299Y-45740334D01*
X77231157Y-77548378D02*
X77239825Y-77499225D01*
X75665662Y-89037293D02*
X75625916Y-89067400D01*
X26793469Y-100145102D02*
X26809366Y-100192414D01*
X72401594Y-105239481D02*
X72451514Y-105230533D01*
X28950003Y-98851028D02*
X31549985Y-98851000D01*
X77246033Y-99949721D02*
X77249764Y-99899949D01*
X75395853Y-55371926D02*
X75422931Y-55413853D01*
X75551093Y-89133429D02*
X75516242Y-89169158D01*
X31742208Y-113201552D02*
X31731784Y-113230988D01*
X76521097Y-78313603D02*
X76568838Y-78298877D01*
X28859646Y-45827300D02*
X28841607Y-45816885D01*
X28690630Y-112007709D02*
X28672377Y-111961201D01*
X31549976Y-113349047D02*
X28950010Y-113349000D01*
X32178171Y-127571646D02*
X32220475Y-127599527D01*
X28706510Y-67054936D02*
X28690613Y-67007624D01*
X80351296Y-107809236D02*
X80330143Y-107855274D01*
X81098455Y-62260549D02*
X81048534Y-62269495D01*
X121705110Y-85450390D02*
X121688691Y-85402352D01*
X31928420Y-85178168D02*
X31900510Y-85220514D01*
X27675160Y-100848227D02*
X27725009Y-100850716D01*
X41000326Y-60250992D02*
X41000326Y-62249002D01*
X121739462Y-40598386D02*
X121730514Y-40548466D01*
X75249006Y-48749995D02*
X73250995Y-48749995D01*
X72351234Y-107254181D02*
X72300715Y-107250334D01*
X28161710Y-100762435D02*
X28206678Y-100740779D01*
X31769485Y-126951572D02*
X31780938Y-127000926D01*
X31851276Y-40309179D02*
X31830103Y-40355264D01*
X121049696Y-62294924D02*
X121000888Y-62280958D01*
X77333041Y-76389016D02*
X77350510Y-76377671D01*
X27774970Y-88849341D02*
X27725059Y-88849339D01*
X72644763Y-107330181D02*
X72597666Y-107311366D01*
X28690613Y-100192414D02*
X28706510Y-100145102D01*
X80428411Y-59821809D02*
X80458427Y-59862689D01*
X77077088Y-66786147D02*
X77047924Y-66745582D01*
X75516208Y-78030844D02*
X75551057Y-78066575D01*
X72451514Y-82730514D02*
X72500868Y-82719061D01*
X31769485Y-104451553D02*
X31780951Y-104500956D01*
X31739249Y-98988534D02*
X31746539Y-99018898D01*
X26768832Y-55048310D02*
X26779950Y-55097019D01*
X31750273Y-59300665D02*
X31754123Y-59351235D01*
X80227319Y-53959647D02*
X80239269Y-53988496D01*
X80081140Y-121353498D02*
X80101514Y-121357829D01*
X27293301Y-43959240D02*
X27249468Y-43983112D01*
X121739470Y-63098455D02*
X121730524Y-63048534D01*
X121648723Y-85309217D02*
X121625218Y-85264219D01*
X32699314Y-84750312D02*
X32648745Y-84754162D01*
X76912376Y-111599533D02*
X76874142Y-111567450D01*
X31780951Y-104500956D02*
X31794904Y-104549715D01*
X28768195Y-90730969D02*
X28757771Y-90701533D01*
X77289016Y-53933022D02*
X77302124Y-53916834D01*
X32220475Y-84900549D02*
X32178171Y-84928430D01*
X28021077Y-88886435D02*
X27972709Y-88874120D01*
X121571608Y-85178210D02*
X121541561Y-85137290D01*
X121190821Y-39851277D02*
X121144783Y-39830124D01*
X72779461Y-62400503D02*
X72735755Y-62374776D01*
X32598435Y-62260549D02*
X32548465Y-62269505D01*
X28731137Y-67151641D02*
X28720029Y-67102981D01*
X80249000Y-113149987D02*
X80246559Y-113181178D01*
X31769485Y-81951534D02*
X31780951Y-82000937D01*
X80204661Y-98924794D02*
X80216904Y-98941646D01*
X31760537Y-85598424D02*
X31754123Y-85648784D01*
X76225029Y-78350697D02*
X76274940Y-78350699D01*
X75348129Y-111915752D02*
X75327602Y-111961247D01*
X120800735Y-127749761D02*
X120851304Y-127745909D01*
X31874756Y-82235775D02*
X31900483Y-82279481D01*
X28888495Y-45839250D02*
X28859646Y-45827300D01*
X73250994Y-118750024D02*
X75249003Y-118750024D01*
X75253982Y-54949633D02*
X75260186Y-54999157D01*
X32548465Y-60230495D02*
X32598435Y-60239451D01*
X27675210Y-123348250D02*
X27725059Y-123350737D01*
X28206678Y-100740779D02*
X28250511Y-100716907D01*
X75587643Y-100600543D02*
X75625916Y-100632657D01*
X26848131Y-66915670D02*
X26827602Y-66961163D01*
X28547934Y-100454417D02*
X28577040Y-100413932D01*
X77333041Y-90811022D02*
X77316853Y-90797914D01*
X121402053Y-82509510D02*
X121439684Y-82475510D01*
X104999673Y-60250996D02*
X104999673Y-61250000D01*
X28115719Y-78281805D02*
X28161710Y-78262416D01*
X28878675Y-76364228D02*
X28898485Y-76357791D01*
X75395853Y-89328093D02*
X75370922Y-89371275D01*
X32648745Y-39754124D02*
X32598385Y-39760538D01*
X121541561Y-82362748D02*
X121571579Y-82321870D01*
X76912376Y-66599495D02*
X76874142Y-66567412D01*
X76076163Y-88864241D02*
X76027242Y-88874132D01*
X31591364Y-121355397D02*
X31621304Y-121364266D01*
X77369069Y-53868196D02*
X77388515Y-53860731D01*
X121745871Y-40648696D02*
X121739462Y-40598386D01*
X76225029Y-111349360D02*
X76175180Y-111351849D01*
X80524474Y-59939628D02*
X80560335Y-59975491D01*
X28293057Y-66509130D02*
X28250468Y-66483106D01*
X43500326Y-60250993D02*
X56499663Y-60250996D01*
X120800683Y-105249745D02*
X120851254Y-105245895D01*
X76274990Y-88849341D02*
X76225079Y-88849339D01*
X121279524Y-127599527D02*
X121321870Y-127571617D01*
X32137291Y-105041611D02*
X32178171Y-105071627D01*
X28898485Y-53857772D02*
X28918859Y-53853441D01*
X73239442Y-63098405D02*
X73230494Y-63048485D01*
X31769485Y-59451515D02*
X31780951Y-59500918D01*
X27249511Y-55716894D02*
X27293345Y-55740763D01*
X81048534Y-84769514D02*
X80999082Y-84780990D01*
X77350510Y-98877690D02*
X77378695Y-98864247D01*
X75293474Y-67054983D02*
X75279970Y-67102981D01*
X75625916Y-66567381D02*
X75587681Y-66599462D01*
X27874482Y-66356781D02*
X27824819Y-66351811D01*
X80190723Y-121409334D02*
X80204661Y-121424813D01*
X80280958Y-59500869D02*
X80294909Y-59549629D01*
X27774920Y-43849301D02*
X27725009Y-43849303D01*
X121279481Y-39900484D02*
X121235775Y-39874757D01*
X72249990Y-84749029D02*
X58999663Y-84749019D01*
X80269495Y-63048534D02*
X80260557Y-63098405D01*
X27051037Y-44133425D02*
X27016188Y-44169156D01*
X76834316Y-44037226D02*
X76793077Y-44009111D01*
X31675224Y-45804642D02*
X31658372Y-45816885D01*
X81148765Y-82745876D02*
X81199284Y-82749723D01*
X27527222Y-88874132D02*
X27478854Y-88886449D01*
X121669876Y-40355217D02*
X121648723Y-40309179D01*
X72644763Y-60169857D02*
X72690801Y-60148704D01*
X121097686Y-105188710D02*
X121144783Y-105169895D01*
X31549986Y-76351000D02*
X31581120Y-76353460D01*
X73239442Y-85598424D02*
X73230494Y-85548504D01*
X56499663Y-62249006D02*
X43500326Y-62249002D01*
X80166978Y-45810984D02*
X80149509Y-45822329D01*
X73245851Y-81851304D02*
X73249703Y-81800735D01*
X26760174Y-112200832D02*
X26753962Y-112250405D01*
X28795338Y-76424775D02*
X28809276Y-76409296D01*
X32648745Y-107254181D02*
X32598435Y-107260587D01*
X32264180Y-105125237D02*
X32309178Y-105148742D01*
X28068818Y-55798858D02*
X28115719Y-55781786D01*
X77016836Y-111706636D02*
X76983777Y-111669177D01*
X31760537Y-108098443D02*
X31754123Y-108148803D01*
X73188671Y-127097724D02*
X73205075Y-127049734D01*
X28816833Y-68297895D02*
X28802104Y-68283166D01*
X80204661Y-68275244D02*
X80190723Y-68290723D01*
X77104166Y-100371964D02*
X77129097Y-100328782D01*
X75260194Y-67200794D02*
X75253986Y-67250317D01*
X80809198Y-39851277D02*
X80764244Y-39874757D01*
X26768842Y-122548416D02*
X26779937Y-122597027D01*
X121719061Y-40499112D02*
X121705110Y-40450352D01*
X28690613Y-77692395D02*
X28706510Y-77645083D01*
X76568791Y-111401165D02*
X76521145Y-111386468D01*
X121362748Y-60041542D02*
X121402053Y-60009491D01*
X27206922Y-66509130D02*
X27165683Y-66537245D01*
X80204661Y-90775263D02*
X80190723Y-90790742D01*
X76750488Y-100716932D02*
X76793077Y-100690908D01*
X32402361Y-84811330D02*
X32355263Y-84830142D01*
X76750488Y-123216951D02*
X76793077Y-123190927D01*
X31990489Y-62597966D02*
X31958438Y-62637271D01*
X76706654Y-123240820D02*
X76750488Y-123216951D01*
X75793321Y-78240760D02*
X75838334Y-78262437D01*
X75250255Y-112300127D02*
X75249010Y-112350047D01*
X121745876Y-59351235D02*
X121749726Y-59300665D01*
X31750273Y-63199335D02*
X31748990Y-63250010D01*
X75551057Y-111633482D02*
X75516208Y-111669213D01*
X121751009Y-59249990D02*
X121751000Y-40749999D01*
X28750999Y-121550012D02*
X28753440Y-121518917D01*
X28720042Y-44603011D02*
X28706525Y-44554964D01*
X75268862Y-89651660D02*
X75260194Y-89700813D01*
X27051073Y-55566590D02*
X27087661Y-55600538D01*
X72735799Y-39874782D02*
X72690847Y-39851299D01*
X80260549Y-126901602D02*
X80269505Y-126951572D01*
X76521097Y-55813584D02*
X76568838Y-55798858D01*
X28651848Y-122784387D02*
X28672377Y-122738894D01*
X56499663Y-105251011D02*
X56499663Y-107249028D01*
X121751000Y-108249999D02*
X121749723Y-108199322D01*
X75348129Y-55284286D02*
X75370922Y-55328744D01*
X28746013Y-112250355D02*
X28739805Y-112200832D01*
X77295358Y-98924794D02*
X77316853Y-98902143D01*
X56499663Y-107249028D02*
X43500326Y-107249013D01*
X28750990Y-113150034D02*
X28750999Y-112350000D01*
X77450023Y-121351047D02*
X80049984Y-121351000D01*
X76983777Y-111669177D02*
X76948926Y-111633448D01*
X31928420Y-107678187D02*
X31900510Y-107720533D01*
X28115719Y-66418214D02*
X28068818Y-66401142D01*
X31675224Y-90804680D02*
X31658372Y-90816923D01*
X76615739Y-66418214D02*
X76568838Y-66401142D01*
X121745876Y-126851292D02*
X121749723Y-126800773D01*
X27527270Y-43874082D02*
X27478902Y-43886397D01*
X121049696Y-60205076D02*
X121097686Y-60188672D01*
X72690801Y-107351334D02*
X72644763Y-107330181D01*
X26809366Y-77692395D02*
X26827602Y-77738856D01*
X27293301Y-100740779D02*
X27338269Y-100762435D01*
X28068818Y-100798896D02*
X28115719Y-100781824D01*
X27923836Y-100835816D02*
X27972757Y-100825925D01*
X73148703Y-82190821D02*
X73169856Y-82144783D01*
X75395853Y-44328055D02*
X75370922Y-44371237D01*
X28412318Y-123100595D02*
X28448942Y-123066613D01*
X72250000Y-127751000D02*
X72300663Y-127749764D01*
X80999082Y-60219029D02*
X81048534Y-60230505D01*
X80111504Y-113339307D02*
X80091384Y-113344698D01*
X121509510Y-62597966D02*
X121475545Y-62560372D01*
X80950323Y-127705133D02*
X80999082Y-127719086D01*
X80678191Y-105071627D02*
X80720495Y-105099508D01*
X76423856Y-78335797D02*
X76472729Y-78325918D01*
X31716884Y-90758411D02*
X31697875Y-90783185D01*
X77246033Y-77449702D02*
X77249764Y-77399930D01*
X121719061Y-59500869D02*
X121730514Y-59451515D01*
X72401594Y-82739462D02*
X72451514Y-82730514D01*
X73009523Y-127402052D02*
X73041572Y-127362746D01*
X31811308Y-62902333D02*
X31794904Y-62950323D01*
X73249703Y-85699303D02*
X73245851Y-85648734D01*
X77016804Y-77993459D02*
X77047954Y-77954398D01*
X81048534Y-127730562D02*
X81098455Y-127739508D01*
X28547934Y-89245640D02*
X28516784Y-89206579D01*
X26983163Y-55493402D02*
X27016188Y-55530825D01*
X121235775Y-60125224D02*
X121279481Y-60099497D01*
X26809366Y-55192376D02*
X26827602Y-55238837D01*
X28690613Y-89507643D02*
X28672377Y-89461182D01*
X77316853Y-98902143D02*
X77333041Y-98889035D01*
X75706900Y-66509157D02*
X75665703Y-66537245D01*
X27087661Y-123100595D02*
X27125896Y-123132676D01*
X72862728Y-84958477D02*
X72821850Y-84928459D01*
X26895859Y-111828070D02*
X26870902Y-111871294D01*
X121739462Y-126901652D02*
X121745876Y-126851292D01*
X77077060Y-55413894D02*
X77104166Y-55371926D01*
X28293099Y-55690843D02*
X28334337Y-55662726D01*
X75279970Y-44602962D02*
X75268862Y-44651622D01*
X26779937Y-89603049D02*
X26768842Y-89651660D01*
X28334337Y-44037255D02*
X28293099Y-44009138D01*
X76125566Y-88856794D02*
X76076163Y-88864241D01*
X77190650Y-44507652D02*
X77172417Y-44461190D01*
X32598385Y-82739462D02*
X32648745Y-82745876D01*
X72451514Y-62269505D02*
X72401594Y-62260557D01*
X120800684Y-60249707D02*
X120851304Y-60245852D01*
X31570791Y-68347919D02*
X31549976Y-68349009D01*
X26768842Y-112151679D02*
X26760174Y-112200832D01*
X32499111Y-82719061D02*
X32548465Y-82730514D01*
X76793077Y-89009149D02*
X76750488Y-88983125D01*
X80902333Y-107311366D02*
X80855236Y-107330181D01*
X80269505Y-108048523D02*
X80260557Y-108098443D01*
X28577040Y-77913913D02*
X28604146Y-77871945D01*
X80081140Y-45846540D02*
X80060424Y-45848717D01*
X31690703Y-68290723D02*
X31666958Y-68311003D01*
X75279957Y-100097008D02*
X75293489Y-100145102D01*
X26952075Y-89245601D02*
X26922939Y-89286125D01*
X77316853Y-76402124D02*
X77333041Y-76389016D01*
X76834316Y-123162812D02*
X76874142Y-123132645D01*
X121439684Y-62524509D02*
X121402053Y-62490509D01*
X121144783Y-105169895D02*
X121190821Y-105148742D01*
X28547904Y-66745582D02*
X28516784Y-66706560D01*
X75551057Y-123066613D02*
X75587643Y-123100562D01*
X28115673Y-123281861D02*
X28161665Y-123262475D01*
X28483757Y-78030880D02*
X28516816Y-77993421D01*
X75268852Y-77548329D02*
X75279957Y-77596989D01*
X75838334Y-100762456D02*
X75884326Y-100781842D01*
X121705095Y-82049696D02*
X121719061Y-82000888D01*
X77077088Y-44286128D02*
X77047924Y-44245563D01*
X31746539Y-68181140D02*
X31742208Y-68201514D01*
X80400530Y-127279562D02*
X80428411Y-127321866D01*
X26750233Y-112300177D02*
X26748990Y-112350048D01*
X27874482Y-55843219D02*
X27923836Y-55835778D01*
X28750990Y-90650015D02*
X28750999Y-89850000D01*
X80101514Y-98857810D02*
X80130950Y-98868234D01*
X80597966Y-107490547D02*
X80560372Y-107524512D01*
X80330143Y-107855274D02*
X80311328Y-107902371D01*
X121730514Y-104451553D02*
X121739462Y-104401633D01*
X80190723Y-53909277D02*
X80204661Y-53924756D01*
X28547934Y-44245602D02*
X28516816Y-44206579D01*
X77450012Y-68349000D02*
X77418879Y-68346559D01*
X32699314Y-107250331D02*
X32648745Y-107254181D01*
X80249000Y-104249999D02*
X80250296Y-104300754D01*
X27087661Y-66599462D02*
X27051073Y-66633410D01*
X80999082Y-84780990D02*
X80950371Y-84794928D01*
X27478854Y-111386468D02*
X27431161Y-111401180D01*
X32097946Y-82509510D02*
X32137291Y-82541592D01*
X80260557Y-59401595D02*
X80269505Y-59451515D01*
X28750999Y-99050012D02*
X28752080Y-99029227D01*
X80351318Y-59690848D02*
X80374801Y-59735800D01*
X31570791Y-90847938D02*
X31549976Y-90849028D01*
X26983195Y-89206579D02*
X26952075Y-89245601D01*
X77239825Y-44700775D02*
X77231157Y-44651622D01*
X76568838Y-66401142D02*
X76521097Y-66386416D01*
X121730524Y-63048534D02*
X121719048Y-62999082D01*
X76472777Y-111374151D02*
X76423807Y-111364251D01*
X28577040Y-111786144D02*
X28547934Y-111745659D01*
X31780951Y-107999120D02*
X31769485Y-108048523D01*
X26749000Y-122350000D02*
X26750235Y-122399968D01*
X72597666Y-127688729D02*
X72644763Y-127669914D01*
X72451514Y-84769524D02*
X72401594Y-84760576D01*
X77251009Y-68149996D02*
X77250999Y-67349975D01*
X80111504Y-68339269D02*
X80091384Y-68344660D01*
X121321828Y-105071627D02*
X121362708Y-105041611D01*
X121279524Y-107400568D02*
X121235819Y-107374839D01*
X26793454Y-89555002D02*
X26779937Y-89603049D01*
X80560372Y-104975564D02*
X80598005Y-105009562D01*
X73071559Y-85178168D02*
X73041541Y-85137290D01*
X121279481Y-82599516D02*
X121321828Y-82571608D01*
X72735799Y-84874820D02*
X72690801Y-84851315D01*
X120750000Y-127751000D02*
X120800735Y-127749761D01*
X28672377Y-122738894D02*
X28690613Y-122692433D01*
X28206678Y-55740741D02*
X28250511Y-55716869D01*
X80720495Y-39900511D02*
X80678149Y-39928421D01*
X75587643Y-78100524D02*
X75625916Y-78132638D01*
X80091384Y-90844679D02*
X80060424Y-90848755D01*
X75931181Y-111401180D02*
X75884280Y-111418252D01*
X32309132Y-84851337D02*
X32264180Y-84874820D01*
X80249000Y-90649987D02*
X80247919Y-90670830D01*
X72597618Y-84811330D02*
X72549628Y-84794928D01*
X80374776Y-104735794D02*
X80400503Y-104779500D01*
X80294909Y-127049686D02*
X80311328Y-127097724D01*
X75978874Y-78313589D02*
X76027242Y-78325906D01*
X31958438Y-107637309D02*
X31928420Y-107678187D01*
X80950371Y-39794890D02*
X80902381Y-39811292D01*
X28918859Y-121353498D02*
X28950003Y-121351047D01*
X121719061Y-127000926D02*
X121730514Y-126951572D01*
X77047924Y-44245563D02*
X77016804Y-44206541D01*
X32220475Y-82599489D02*
X32264180Y-82625218D01*
X28802104Y-90783185D02*
X28788996Y-90766997D01*
X72939664Y-62524509D02*
X72902033Y-62490509D01*
X28750999Y-44850000D02*
X28749746Y-44800119D01*
X77277671Y-98950529D02*
X77295358Y-98924794D01*
X80260557Y-85598424D02*
X80254148Y-85648734D01*
X27338314Y-55762418D02*
X27384306Y-55781804D01*
X81048485Y-105230533D02*
X81098405Y-105239481D01*
X77333041Y-121389054D02*
X77350510Y-121377709D01*
X80222348Y-113249547D02*
X80204661Y-113275282D01*
X80400503Y-82279481D02*
X80428411Y-82321828D01*
X31748990Y-54050004D02*
X31749000Y-59250000D01*
X27249468Y-43983112D02*
X27206880Y-44009138D01*
X75452095Y-55454418D02*
X75483183Y-55493402D01*
X121541561Y-62637271D02*
X121509510Y-62597966D01*
X31780951Y-62999082D02*
X31769475Y-63048534D01*
X76027242Y-43874094D02*
X75978922Y-43886397D01*
X28577040Y-44286087D02*
X28547934Y-44245602D01*
X28651870Y-66915714D02*
X28629101Y-66871299D01*
X80254143Y-126851292D02*
X80260549Y-126901602D01*
X28859646Y-76372700D02*
X28878675Y-76364228D01*
X27972709Y-43874082D02*
X27923787Y-43864194D01*
X28374122Y-78132607D02*
X28412356Y-78100524D01*
X72500868Y-105219080D02*
X72549628Y-105205129D01*
X76175180Y-66351811D02*
X76125517Y-66356781D01*
X76750488Y-66483106D02*
X76706654Y-66459237D01*
X27125896Y-89067400D02*
X27087661Y-89099481D01*
X31675224Y-121395396D02*
X31690703Y-121409334D01*
X77289016Y-113267016D02*
X77277671Y-113249547D01*
X31830103Y-40355264D02*
X31811308Y-40402314D01*
X77151868Y-66915670D02*
X77129097Y-66871256D01*
X121144783Y-39830124D02*
X121097638Y-39811292D01*
X77350510Y-68322348D02*
X77333041Y-68311003D01*
X77047924Y-66745582D02*
X77016804Y-66706560D01*
X80524509Y-82439684D02*
X80560372Y-82475545D01*
X26848109Y-89415733D02*
X26827582Y-89461228D01*
X27087661Y-55600538D02*
X27125896Y-55632619D01*
X75395853Y-66828074D02*
X75370922Y-66871256D01*
X28629077Y-89371275D02*
X28604120Y-89328051D01*
X121439684Y-59975491D02*
X121475545Y-59939628D01*
X31851298Y-85309171D02*
X31830123Y-85355255D01*
X31780938Y-127000926D02*
X31794904Y-127049734D01*
X26793469Y-77645083D02*
X26809366Y-77692395D01*
X26768842Y-44651622D02*
X26760166Y-44700824D01*
X121719061Y-85499150D02*
X121705110Y-85450390D01*
X28206678Y-43959240D02*
X28161710Y-43937584D01*
X28604146Y-122871983D02*
X28629101Y-122828758D01*
X80560372Y-62524474D02*
X80524509Y-62560335D01*
X81249974Y-62249000D02*
X81199284Y-62250296D01*
X75279970Y-89603000D02*
X75268862Y-89651660D01*
X28604120Y-55371968D02*
X28629101Y-55328701D01*
X76027242Y-66374113D02*
X75978922Y-66386416D01*
X28672377Y-55238837D02*
X28690630Y-55192329D01*
X76912376Y-55600505D02*
X76948962Y-55566556D01*
X80764200Y-127625256D02*
X80809198Y-127648761D01*
X28929188Y-68347919D02*
X28908615Y-68344660D01*
X72249990Y-62249010D02*
X58999663Y-62249006D01*
X31710983Y-98933060D02*
X31727299Y-98959685D01*
X76750488Y-78216913D02*
X76793077Y-78190889D01*
X120951485Y-84769514D02*
X120901614Y-84760576D01*
X77316853Y-45797876D02*
X77295358Y-45775225D01*
X76175180Y-100848227D02*
X76225029Y-100850716D01*
X75279970Y-67102981D02*
X75268862Y-67151641D01*
X28859646Y-53872681D02*
X28878675Y-53864209D01*
X121190867Y-107351356D02*
X121144783Y-107330181D01*
X27972757Y-100825925D02*
X28021125Y-100813608D01*
X27293301Y-111459297D02*
X27249468Y-111483169D01*
X75931228Y-100798911D02*
X75978874Y-100813608D01*
X120901564Y-39760530D02*
X120851254Y-39754124D01*
X75706942Y-100690908D02*
X75749531Y-100716932D01*
X27384260Y-78281805D02*
X27431161Y-78298877D01*
X121730514Y-81951534D02*
X121739462Y-81901614D01*
X31780938Y-40499112D02*
X31769485Y-40548466D01*
X77220049Y-122597076D02*
X77231157Y-122548416D01*
X75260194Y-89700813D02*
X75253986Y-89750336D01*
X31900483Y-104779500D02*
X31928391Y-104821847D01*
X28115673Y-111418234D02*
X28068771Y-111401165D01*
X81249973Y-107249000D02*
X81199284Y-107250334D01*
X31722328Y-68249509D02*
X31704641Y-68275244D01*
X76076212Y-78335806D02*
X76125566Y-78343244D01*
X27249468Y-88983150D02*
X27206922Y-89009149D01*
X32309178Y-39851277D02*
X32264224Y-39874757D01*
X73009523Y-82402014D02*
X73041572Y-82362708D01*
X28021125Y-100813608D02*
X28068818Y-100798896D01*
X31658372Y-45816885D02*
X31640333Y-45827300D01*
X28753440Y-68181140D02*
X28750990Y-68149996D01*
X80060424Y-76351283D02*
X80081140Y-76353460D01*
X31811308Y-59597667D02*
X31830123Y-59644764D01*
X121541561Y-59862729D02*
X121571579Y-59821851D01*
X75260194Y-122499263D02*
X75268852Y-122548367D01*
X80809198Y-60148704D02*
X80855236Y-60169857D01*
X26827602Y-100238875D02*
X26848131Y-100284368D01*
X28750989Y-54849991D02*
X28750999Y-54050012D01*
X89500336Y-82751007D02*
X89500336Y-84749006D01*
X75665703Y-100662793D02*
X75706942Y-100690908D01*
X28412318Y-111599500D02*
X28374083Y-111567419D01*
X27338269Y-100762435D02*
X27384260Y-100781824D01*
X121745876Y-63148765D02*
X121739470Y-63098455D01*
X75749531Y-78216913D02*
X75793321Y-78240760D01*
X75253986Y-99949721D02*
X75260194Y-99999244D01*
X31666958Y-68311003D02*
X31640333Y-68327319D01*
X80428411Y-127321866D02*
X80458458Y-127362786D01*
X92000336Y-82751007D02*
X104999673Y-82751003D01*
X121000888Y-127719099D02*
X121049648Y-127705148D01*
X32309132Y-107351356D02*
X32264180Y-107374839D01*
X28293099Y-78190862D02*
X28334337Y-78162745D01*
X32450351Y-127705148D02*
X32499111Y-127719099D01*
X28547934Y-77954398D02*
X28577040Y-77913913D01*
X80250293Y-108199373D02*
X80249010Y-108250047D01*
X31748990Y-40749991D02*
X31748999Y-45649986D01*
X77246037Y-67250367D02*
X77239825Y-67200794D01*
X121749726Y-63199335D02*
X121745876Y-63148765D01*
X26753966Y-99949721D02*
X26760174Y-99999244D01*
X72975490Y-85060354D02*
X72939627Y-85024493D01*
X27824819Y-55848189D02*
X27874482Y-55843219D01*
X77264228Y-113221362D02*
X77255359Y-113191422D01*
X31704641Y-45775225D02*
X31690703Y-45790704D01*
X31754123Y-59351235D02*
X31760529Y-59401545D01*
X80678149Y-107428478D02*
X80637271Y-107458496D01*
X80060424Y-68348736D02*
X77450012Y-68349000D01*
X77350510Y-45822329D02*
X77333041Y-45810984D01*
X75293489Y-100145102D02*
X75309386Y-100192414D01*
X73169856Y-40355217D02*
X73148681Y-40309133D01*
X28250468Y-111483144D02*
X28206634Y-111459275D01*
X73205075Y-104549715D02*
X73219041Y-104500907D01*
X28483757Y-123030918D02*
X28516784Y-122993497D01*
X32648745Y-82745876D02*
X32699264Y-82749723D01*
X76948926Y-44133391D02*
X76912376Y-44099476D01*
X77250999Y-67349975D02*
X77249764Y-67300089D01*
X31874781Y-62764200D02*
X31851298Y-62809152D01*
X28629101Y-100328739D02*
X28651848Y-100284368D01*
X89500336Y-105251022D02*
X89500336Y-107249010D01*
X80351296Y-62809198D02*
X80330123Y-62855283D01*
X27431161Y-111401180D02*
X27384260Y-111418252D01*
X80999131Y-105219080D02*
X81048485Y-105230533D01*
X31990456Y-127402052D02*
X32024454Y-127439685D01*
X28795338Y-53924756D02*
X28816833Y-53902105D01*
X75665703Y-66537245D02*
X75625916Y-66567381D01*
X77190650Y-77692348D02*
X77206545Y-77645036D01*
X73188671Y-59597667D02*
X73205090Y-59549629D01*
X28731137Y-100048397D02*
X28739813Y-99999195D01*
X121688691Y-40402314D02*
X121669876Y-40355217D01*
X76374453Y-111356813D02*
X76324839Y-111351849D01*
X77172417Y-122738848D02*
X77190650Y-122692386D01*
X26768842Y-77548378D02*
X26779950Y-77597038D01*
X32699264Y-105249742D02*
X32749964Y-105251028D01*
X75250255Y-67300089D02*
X75249010Y-67350009D01*
X28908615Y-90844679D02*
X28878675Y-90835810D01*
X77277671Y-76450510D02*
X77295358Y-76424775D01*
X75749531Y-55716894D02*
X75793321Y-55740741D01*
X27249468Y-100716907D02*
X27293301Y-100740779D01*
X80560372Y-107524512D02*
X80524474Y-107560410D01*
X121402053Y-105009529D02*
X121439684Y-104975529D01*
X121509510Y-59902034D02*
X121541561Y-59862729D01*
X26922939Y-111786144D02*
X26895859Y-111828070D01*
X72644763Y-127669914D02*
X72690801Y-127648761D01*
X31958438Y-62637271D02*
X31928420Y-62678149D01*
X77077088Y-77913872D02*
X77104166Y-77871945D01*
X75838334Y-123262475D02*
X75884326Y-123281861D01*
X77047954Y-89245640D02*
X77016804Y-89206579D01*
X28448906Y-100566628D02*
X28483757Y-100530899D01*
X73148703Y-127190859D02*
X73169856Y-127144821D01*
X72779504Y-105099508D02*
X72821850Y-105071598D01*
X121279481Y-105099535D02*
X121321828Y-105071627D01*
X26983163Y-44206579D02*
X26952045Y-44245602D01*
X75452065Y-89245640D02*
X75422931Y-89286166D01*
X26793454Y-112055021D02*
X26779937Y-112103068D01*
X121190821Y-127648761D02*
X121235775Y-127625281D01*
X28757771Y-90701533D02*
X28753440Y-90681159D01*
X75706900Y-44009138D02*
X75665703Y-44037226D01*
X72250000Y-105251000D02*
X72300715Y-105249742D01*
X80374801Y-127235857D02*
X80400530Y-127279562D01*
X80269505Y-81951534D02*
X80280971Y-82000937D01*
X72735755Y-62374776D02*
X72690801Y-62351296D01*
X80809198Y-107351334D02*
X80764244Y-107374814D01*
X81199284Y-82749723D02*
X81249984Y-82751009D01*
X72779504Y-39900511D02*
X72735799Y-39874782D01*
X75260194Y-44700775D02*
X75253986Y-44750298D01*
X77220049Y-100097057D02*
X77231157Y-100048397D01*
X28448942Y-123066613D02*
X28483757Y-123030918D01*
X121739470Y-85598474D02*
X121730514Y-85548504D01*
X27249468Y-78216888D02*
X27293301Y-78240760D01*
X80294909Y-104549667D02*
X80311311Y-104597657D01*
X28878675Y-90835810D02*
X28859646Y-90827338D01*
X27338269Y-88937622D02*
X27293301Y-88959278D01*
X76983777Y-66669139D02*
X76948926Y-66633410D01*
X121730524Y-108048572D02*
X121719048Y-107999120D01*
X80902381Y-39811292D02*
X80855236Y-39830124D01*
X77252100Y-121529246D02*
X77257791Y-121498543D01*
X32699264Y-60249704D02*
X32749964Y-60250990D01*
X75370898Y-122828758D02*
X75395853Y-122871983D01*
X121000888Y-107280996D02*
X120951534Y-107269543D01*
X121745876Y-85648784D02*
X121739470Y-85598474D01*
X32264180Y-82625218D02*
X32309178Y-82648723D01*
X27293301Y-78240760D02*
X27338269Y-78262416D01*
X76912376Y-78100524D02*
X76948926Y-78066609D01*
X31811308Y-107902371D02*
X31794904Y-107950361D01*
X121144783Y-60169857D02*
X121190821Y-60148704D01*
X72451465Y-127730562D02*
X72500917Y-127719086D01*
X32060352Y-40024455D02*
X32024454Y-40060353D01*
X80091384Y-113344698D02*
X80070811Y-113347957D01*
X120749999Y-60251000D02*
X120800684Y-60249707D01*
X31690703Y-76409296D02*
X31710983Y-76433041D01*
X73245851Y-85648734D02*
X73239442Y-85598424D01*
X80458427Y-62637311D02*
X80428411Y-62678191D01*
X72779504Y-82599489D02*
X72821850Y-82571579D01*
X58999663Y-62249006D02*
X58999663Y-60250996D01*
X32750000Y-107249000D02*
X32699314Y-107250331D01*
X121475545Y-127439685D02*
X121509510Y-127402091D01*
X77333041Y-98889035D02*
X77350510Y-98877690D01*
X28021077Y-123313641D02*
X28068771Y-123298930D01*
X27125896Y-123132676D02*
X27165642Y-123162783D01*
X28720029Y-112103019D02*
X28706510Y-112054974D01*
X31794904Y-85450342D02*
X31780951Y-85499101D01*
X73188671Y-82097686D02*
X73205075Y-82049696D01*
X28334337Y-123162783D02*
X28374083Y-123132676D01*
X28918859Y-53853441D02*
X28950003Y-53850991D01*
X80249009Y-99050042D02*
X80249000Y-104249999D01*
X32648745Y-105245895D02*
X32699264Y-105249742D01*
X75749531Y-100716932D02*
X75793321Y-100740779D01*
X27431161Y-43901123D02*
X27384260Y-43918195D01*
X26895859Y-66828032D02*
X26870902Y-66871256D01*
X31666958Y-53888997D02*
X31690703Y-53909277D01*
X76125517Y-55843219D02*
X76175230Y-55848193D01*
X26870902Y-55328744D02*
X26895859Y-55371968D01*
X77257791Y-45701495D02*
X77252100Y-45670792D01*
X77302124Y-113283204D02*
X77289016Y-113267016D01*
X73125198Y-104735838D02*
X73148703Y-104690840D01*
X80400503Y-85220557D02*
X80374776Y-85264263D01*
X28950003Y-121351047D02*
X31549984Y-121351000D01*
X77388515Y-53860731D02*
X77408635Y-53855340D01*
X73099469Y-59779505D02*
X73125198Y-59735800D01*
X76615739Y-55781786D02*
X76661730Y-55762397D01*
X75838289Y-55762397D02*
X75884326Y-55781804D01*
X76983777Y-100530899D02*
X77016804Y-100493478D01*
X80855236Y-39830124D02*
X80809198Y-39851277D01*
X31958407Y-82362708D02*
X31990456Y-82402014D01*
X77250999Y-112349975D02*
X77249764Y-112300127D01*
X121625243Y-107764282D02*
X121599516Y-107720576D01*
X73245851Y-40648696D02*
X73239442Y-40598386D01*
X76793077Y-111509168D02*
X76750488Y-111483144D01*
X75793321Y-111459297D02*
X75749488Y-111483169D01*
X28746017Y-99949671D02*
X28749746Y-99899899D01*
X28021125Y-55813570D02*
X28068818Y-55798858D01*
X72690801Y-82648723D02*
X72735755Y-82625243D01*
X80130950Y-53868196D02*
X80158392Y-53883096D01*
X76374453Y-100843263D02*
X76423856Y-100835816D01*
X73099469Y-127279562D02*
X73125198Y-127235857D01*
X121751000Y-85749999D02*
X121749723Y-85699303D01*
X77350510Y-76377671D02*
X77378695Y-76364228D01*
X28859646Y-121372738D02*
X28888495Y-121360788D01*
X72975490Y-127439722D02*
X73009523Y-127402052D01*
X76125517Y-66356781D02*
X76076163Y-66364222D01*
X31570791Y-121352138D02*
X31591364Y-121355397D01*
X77418879Y-76353460D02*
X77450023Y-76351009D01*
X26809349Y-89507690D02*
X26793454Y-89555002D01*
X27165642Y-100662764D02*
X27206880Y-100690881D01*
X73219041Y-59500869D02*
X73230504Y-59451466D01*
X72500868Y-60219042D02*
X72549628Y-60205091D01*
X28720029Y-100097057D02*
X28731137Y-100048397D01*
X32749964Y-82751009D02*
X41000326Y-82751007D01*
X31747899Y-121529246D02*
X31748990Y-121550061D01*
X80216904Y-98941646D02*
X80231804Y-98969088D01*
X28749746Y-77399880D02*
X28750989Y-77350010D01*
X28768195Y-68230950D02*
X28757771Y-68201514D01*
X31744640Y-121508673D02*
X31747899Y-121529246D01*
X31750273Y-85699354D02*
X31748990Y-85750029D01*
X77172417Y-100238829D02*
X77190650Y-100192367D01*
X73169856Y-107855274D02*
X73148703Y-107809236D01*
X31900483Y-59779462D02*
X31928391Y-59821809D01*
X121705095Y-104549715D02*
X121719061Y-104500907D01*
X76706698Y-111459297D02*
X76661730Y-111437641D01*
X76324789Y-78348212D02*
X76374453Y-78343244D01*
X75838334Y-88937601D02*
X75793365Y-88959256D01*
X76948926Y-78066609D02*
X76983777Y-78030880D01*
X75293489Y-122645121D02*
X75309386Y-122692433D01*
X75249006Y-93750014D02*
X73250995Y-93750014D01*
X73251000Y-108250000D02*
X73249706Y-108199373D01*
X72500868Y-39780939D02*
X72451465Y-39769476D01*
X27206880Y-44009138D02*
X27165642Y-44037255D01*
X75884326Y-100781842D02*
X75931228Y-100798911D01*
X121751009Y-81750009D02*
X121751000Y-63249999D01*
X121625218Y-59735800D02*
X121648701Y-59690848D01*
X80249009Y-76550023D02*
X80249000Y-81749999D01*
X32402361Y-39811292D02*
X32355216Y-39830124D01*
X77251000Y-99050013D02*
X77252100Y-99029227D01*
X77151868Y-100284368D02*
X77172417Y-100238829D01*
X72690801Y-127648761D02*
X72735799Y-127625256D01*
X75516208Y-55530825D02*
X75551093Y-55566590D01*
X92000336Y-60250993D02*
X104999673Y-60250996D01*
X80490509Y-85097985D02*
X80458427Y-85137330D01*
X76076212Y-100835825D02*
X76125566Y-100843263D01*
X81048534Y-62269495D02*
X80999082Y-62280971D01*
X77016804Y-100493478D02*
X77047954Y-100454417D01*
X31760529Y-59401545D02*
X31769485Y-59451515D01*
X31581120Y-53853441D02*
X31611484Y-53860731D01*
X77129121Y-55328701D02*
X77151890Y-55284286D01*
X27725009Y-43849303D02*
X27675160Y-43851792D01*
X32220475Y-107400568D02*
X32178171Y-107428449D01*
X26760174Y-77499225D02*
X26768842Y-77548378D01*
X28746017Y-67250367D02*
X28739805Y-67200794D01*
X28731137Y-44651622D02*
X28720042Y-44603011D01*
X75483215Y-77993459D02*
X75516208Y-78030844D01*
X31794904Y-82049696D02*
X31811308Y-82097686D01*
X75253986Y-89750336D02*
X75250255Y-89800108D01*
X75516208Y-100530863D02*
X75551057Y-100566594D01*
X75884326Y-43918177D02*
X75838334Y-43937563D01*
X72451514Y-107269543D02*
X72401594Y-107260595D01*
X27165642Y-111537312D02*
X27125857Y-111567450D01*
X121541561Y-85137290D02*
X121509510Y-85097985D01*
X72500917Y-127719086D02*
X72549676Y-127705133D01*
X76521097Y-66386416D02*
X76472729Y-66374101D01*
X28206678Y-88959278D02*
X28161710Y-88937622D01*
X121571579Y-82321870D02*
X121599516Y-82279481D01*
X76274940Y-78350699D02*
X76324789Y-78348212D01*
X80242228Y-98998524D02*
X80247919Y-99029227D01*
X31748990Y-85750029D02*
X31748999Y-90649986D01*
X77151890Y-55284286D02*
X77172417Y-55238791D01*
X31794904Y-40450304D02*
X31780938Y-40499112D01*
X80254148Y-85648734D02*
X80250296Y-85699303D01*
X73071588Y-104821847D02*
X73099469Y-104779543D01*
X75250255Y-89800108D02*
X75249010Y-89850028D01*
X121362708Y-62458427D02*
X121321828Y-62428411D01*
X73205090Y-59549629D02*
X73219041Y-59500869D01*
X28918859Y-45846540D02*
X28888495Y-45839250D01*
X80524474Y-40060353D02*
X80490509Y-40097947D01*
X28250468Y-66483106D02*
X28206634Y-66459237D01*
X73205090Y-62950371D02*
X73188688Y-62902381D01*
X77250999Y-89849975D02*
X77249764Y-89800108D01*
X27527222Y-111374151D02*
X27478854Y-111386468D01*
X28068818Y-78298877D02*
X28115719Y-78281805D01*
X75395853Y-122871983D02*
X75422959Y-122913951D01*
X27824819Y-66351811D02*
X27774970Y-66349322D01*
X121439684Y-104975529D02*
X121475545Y-104939666D01*
X31780951Y-85499101D02*
X31769485Y-85548504D01*
X80101514Y-121357829D02*
X80130950Y-121368253D01*
X28753440Y-121518917D02*
X28757771Y-121498543D01*
X121144736Y-62330123D02*
X121097638Y-62311311D01*
X28604146Y-100371964D02*
X28629101Y-100328739D01*
X75551057Y-100566594D02*
X75587643Y-100600543D01*
X75370922Y-66871256D02*
X75348151Y-66915670D01*
X77231157Y-100048397D02*
X77239825Y-99999244D01*
X72821850Y-62428440D02*
X72779461Y-62400503D01*
X31649489Y-121377709D02*
X31675224Y-121395396D01*
X77316853Y-90797914D02*
X77295358Y-90775263D01*
X121625218Y-85264219D02*
X121599489Y-85220514D01*
X75452095Y-100454456D02*
X75483215Y-100493478D01*
X121749726Y-59300665D02*
X121751009Y-59249990D01*
X75931228Y-66401127D02*
X75884326Y-66418196D01*
X72644716Y-84830142D02*
X72597618Y-84811330D01*
X80678191Y-127571646D02*
X80720495Y-127599527D01*
X26753966Y-67250317D02*
X26750235Y-67300089D01*
X27384260Y-88918233D02*
X27338269Y-88937622D01*
X76874142Y-66567412D02*
X76834316Y-66537245D01*
X31780951Y-59500918D02*
X31794904Y-59549677D01*
X32402313Y-105188710D02*
X32450351Y-105205129D01*
X27016188Y-44169156D02*
X26983163Y-44206579D01*
X27478902Y-123313641D02*
X27527270Y-123325956D01*
X75249006Y-116250024D02*
X73250995Y-116250024D01*
X72821850Y-127571617D02*
X72862728Y-127541599D01*
X26922939Y-89286125D02*
X26895859Y-89328051D01*
X80490476Y-107598043D02*
X80458427Y-107637349D01*
X27625546Y-43856756D02*
X27576192Y-43864194D01*
X77295358Y-76424775D02*
X77316853Y-76402124D01*
X27874482Y-100843257D02*
X27923836Y-100835816D01*
X77398505Y-90842247D02*
X77378695Y-90835810D01*
X80458427Y-104862727D02*
X80490509Y-104902072D01*
X75279970Y-55097019D02*
X75293489Y-55145064D01*
X121625243Y-40264225D02*
X121599489Y-40220476D01*
X80809198Y-82648723D02*
X80855236Y-82669876D01*
X76076163Y-66364222D02*
X76027242Y-66374113D01*
X75348151Y-89415689D02*
X75327602Y-89461228D01*
X121648723Y-62809198D02*
X121625218Y-62764200D01*
X28021125Y-78313589D02*
X28068818Y-78298877D01*
X80490509Y-40097947D02*
X80458458Y-40137252D01*
X27125896Y-66567381D02*
X27087661Y-66599462D01*
X75348129Y-77784305D02*
X75370898Y-77828720D01*
X75370898Y-111871337D02*
X75348129Y-111915752D01*
X80081140Y-76353460D02*
X80101514Y-76357791D01*
X28293057Y-89009149D02*
X28250511Y-88983150D01*
X121730514Y-126951572D02*
X121739462Y-126901652D01*
X121475545Y-59939628D02*
X121509510Y-59902034D01*
X80231804Y-68230950D02*
X80216904Y-68258392D01*
X72401594Y-84760576D02*
X72351284Y-84754167D01*
X107499673Y-105251009D02*
X120750000Y-105251000D01*
X77220049Y-77597038D02*
X77231157Y-77548378D01*
X75348151Y-44415651D02*
X75327602Y-44461190D01*
X80809198Y-62351296D02*
X80764244Y-62374776D01*
X28547934Y-111745659D02*
X28516784Y-111706598D01*
X80204661Y-76424775D02*
X80216904Y-76441627D01*
X80490509Y-62597966D02*
X80458427Y-62637311D01*
X121475545Y-82439647D02*
X121509510Y-82402053D01*
X80294909Y-85450390D02*
X80280958Y-85499150D01*
X28651848Y-111915708D02*
X28629101Y-111871337D01*
X31990456Y-104902033D02*
X32024454Y-104939666D01*
X121475545Y-40060353D02*
X121439684Y-40024490D01*
X80249000Y-45649987D02*
X80247919Y-45670792D01*
X80458458Y-40137252D02*
X80428411Y-40178172D01*
X121688708Y-107902419D02*
X121669876Y-107855274D01*
X72779504Y-84900549D02*
X72735799Y-84874820D01*
X28293099Y-123190900D02*
X28334337Y-123162783D01*
X27125857Y-111567450D02*
X27087623Y-111599533D01*
X104999673Y-61250000D02*
X104999673Y-62249006D01*
X121049648Y-107294947D02*
X121000888Y-107280996D01*
X73148681Y-40309133D02*
X73125198Y-40264181D01*
X27923836Y-88864241D02*
X27874482Y-88856800D01*
X75395879Y-111828070D02*
X75370898Y-111871337D01*
X28739805Y-67200794D02*
X28731137Y-67151641D01*
X120800684Y-84750312D02*
X120750010Y-84749029D01*
X26827582Y-44461190D02*
X26809349Y-44507652D01*
X80330123Y-104644755D02*
X80351296Y-104690840D01*
X26779937Y-112103068D02*
X26768842Y-112151679D01*
X31666958Y-76389016D02*
X31690703Y-76409296D01*
X31851276Y-82190821D02*
X31874756Y-82235775D01*
X31750276Y-126800773D02*
X31754128Y-126851342D01*
X80678191Y-82571608D02*
X80720495Y-82599489D01*
X76750488Y-88983125D02*
X76706654Y-88959256D01*
X28816833Y-121402162D02*
X28841607Y-121383153D01*
X76706654Y-43959218D02*
X76661730Y-43937584D01*
X81098455Y-39760530D02*
X81048534Y-39769476D01*
X27625497Y-100843257D02*
X27675160Y-100848227D01*
X73125198Y-85264219D02*
X73099469Y-85220514D01*
X75884326Y-78281823D02*
X75931228Y-78298892D01*
X31900483Y-127279519D02*
X31928391Y-127321866D01*
X27824769Y-43851788D02*
X27774920Y-43849301D01*
X77016804Y-122993497D02*
X77047954Y-122954436D01*
X75249000Y-77349999D02*
X75250255Y-77399930D01*
X32060352Y-127475583D02*
X32097946Y-127509548D01*
X121669876Y-127144821D02*
X121688691Y-127097724D01*
X80175244Y-76395358D02*
X80190723Y-76409296D01*
X72735755Y-107374814D02*
X72690801Y-107351334D01*
X31630930Y-113331842D02*
X31611484Y-113339307D01*
X80070811Y-53852081D02*
X80091384Y-53855340D01*
X28706525Y-122645074D02*
X28720042Y-122597027D01*
X31581120Y-98853479D02*
X31611484Y-98860769D01*
X28795338Y-121424813D02*
X28816833Y-121402162D01*
X28750999Y-54050012D02*
X28752080Y-54029189D01*
X76834316Y-100662793D02*
X76874142Y-100632626D01*
X73251000Y-63250000D02*
X73249703Y-63199284D01*
X31739249Y-53988496D02*
X31746539Y-54018860D01*
X75250253Y-54899862D02*
X75253982Y-54949633D01*
X77251009Y-113150034D02*
X77250999Y-112349975D01*
X31640333Y-98872719D02*
X31666958Y-98889035D01*
X80764244Y-107374814D02*
X80720495Y-107400568D01*
X28516816Y-55493402D02*
X28547934Y-55454379D01*
X121509510Y-82402053D02*
X121541561Y-82362748D01*
X28752080Y-54029189D02*
X28757771Y-53998486D01*
X75249006Y-71250004D02*
X73250995Y-71250004D01*
X43500326Y-84749007D02*
X43500326Y-82751007D01*
X80250296Y-40699265D02*
X80249010Y-40749990D01*
X80254143Y-81851254D02*
X80260557Y-81901614D01*
X31874781Y-85264219D02*
X31851298Y-85309171D01*
X27774970Y-100850716D02*
X27824819Y-100848227D01*
X121625218Y-104735838D02*
X121648701Y-104690886D01*
X31591364Y-90844679D02*
X31570791Y-90847938D01*
X31760529Y-104401583D02*
X31769485Y-104451553D01*
X31611484Y-45839250D02*
X31581120Y-45846540D01*
X76076163Y-43864203D02*
X76027242Y-43874094D01*
X75516208Y-44169156D02*
X75483183Y-44206579D01*
X75249003Y-51249995D02*
X75249000Y-54849999D01*
X26750235Y-54899911D02*
X26753962Y-54949633D01*
X28750989Y-77350010D02*
X28750999Y-76550012D01*
X77220049Y-112103019D02*
X77206545Y-112055021D01*
X28720029Y-77597038D02*
X28731137Y-77548378D01*
X77257791Y-98998524D02*
X77268215Y-98969088D01*
X121475545Y-107560410D02*
X121439684Y-107524547D01*
X75483215Y-122993497D02*
X75516208Y-123030882D01*
X75253986Y-77449702D02*
X75260194Y-77499225D01*
X73148681Y-85309171D02*
X73125198Y-85264219D01*
X72821850Y-82571579D02*
X72862728Y-82541561D01*
X72451514Y-105230533D02*
X72500868Y-105219080D01*
X72300715Y-107250334D02*
X72250015Y-107249048D01*
X31990456Y-82402014D02*
X32024454Y-82439647D01*
X27431161Y-78298877D02*
X27478854Y-78313589D01*
X75249003Y-118750024D02*
X75249000Y-122349999D01*
X77016804Y-44206541D02*
X76983777Y-44169120D01*
X31742208Y-90701533D02*
X31731784Y-90730969D01*
X26750235Y-44800070D02*
X26748990Y-44849991D01*
X80374801Y-107764238D02*
X80351296Y-107809236D01*
X32548465Y-105230533D02*
X32598385Y-105239481D01*
X31794904Y-107950361D02*
X31780951Y-107999120D01*
X72690847Y-39851299D02*
X72644716Y-39830104D01*
X28516784Y-122993497D02*
X28547904Y-122954475D01*
X27576143Y-78335797D02*
X27625497Y-78343238D01*
X28672397Y-100238829D02*
X28690613Y-100192414D01*
X32598435Y-84760568D02*
X32548465Y-84769524D01*
X80560372Y-40024455D02*
X80524474Y-40060353D01*
X77249766Y-44800120D02*
X77246037Y-44750348D01*
X80216904Y-68258392D02*
X80204661Y-68275244D01*
X76125566Y-100843263D02*
X76175180Y-100848227D01*
X121509510Y-104902072D02*
X121541561Y-104862767D01*
X26952045Y-44245602D02*
X26922939Y-44286087D01*
X75793365Y-88959256D02*
X75749488Y-88983150D01*
X72939627Y-127475583D02*
X72975490Y-127439722D01*
X76706654Y-100740801D02*
X76750488Y-100716932D01*
X27774970Y-66349322D02*
X27725059Y-66349320D01*
X77251000Y-121550013D02*
X77252100Y-121529246D01*
X75260186Y-54999157D02*
X75268852Y-55048310D01*
X77251009Y-45649977D02*
X77250999Y-44849975D01*
X32548465Y-84769524D02*
X32499111Y-84780977D01*
X75978874Y-100813608D02*
X76027242Y-100825925D01*
X77239825Y-67200794D02*
X77231157Y-67151641D01*
X75516208Y-123030882D02*
X75551057Y-123066613D01*
X72862728Y-105041580D02*
X72902033Y-105009529D01*
X32178171Y-105071627D02*
X32220475Y-105099508D01*
X26895859Y-122872025D02*
X26922939Y-122913951D01*
X121321828Y-84928430D02*
X121279524Y-84900549D01*
X26809349Y-112007709D02*
X26793454Y-112055021D01*
X28750990Y-45649977D02*
X28750999Y-44850000D01*
X75249010Y-112350047D02*
X75249006Y-116250024D01*
X26952075Y-66745582D02*
X26922939Y-66786106D01*
X77231157Y-67151641D02*
X77220049Y-67102981D01*
M02*
