M48
; DRILL file {KiCad (6.0.0)} date Tue Jan  4 13:58:26 2022
; FORMAT={-:-/ absolute / metric / decimal}
; #@! TF.CreationDate,2022-01-04T13:58:26+00:00
; #@! TF.GenerationSoftware,Kicad,Pcbnew,(6.0.0)
; #@! TF.FileFunction,MixedPlating,1,2
FMAT,2
METRIC
; #@! TA.AperFunction,Plated,PTH,ComponentDrill
T1C0.700
; #@! TA.AperFunction,Plated,PTH,ComponentDrill
T2C0.800
; #@! TA.AperFunction,Plated,PTH,ComponentDrill
T3C1.500
; #@! TA.AperFunction,Plated,PTH,ViaDrill
T4C3.000
; #@! TA.AperFunction,NonPlated,NPTH,ComponentDrill
T5C0.500
%
G90
G05
T1
X55.89Y-44.91
X55.89Y-46.71
X55.89Y-48.51
X55.89Y-50.31
X55.89Y-67.41
X55.89Y-69.21
X55.89Y-71.01
X55.89Y-72.81
X55.89Y-89.91
X55.89Y-91.71
X55.89Y-93.51
X55.89Y-95.31
X55.89Y-112.41
X55.89Y-114.21
X55.89Y-116.01
X55.89Y-117.81
X104.39Y-44.91
X104.39Y-46.71
X104.39Y-48.51
X104.39Y-50.31
X104.39Y-67.41
X104.39Y-69.21
X104.39Y-71.01
X104.39Y-72.81
X104.39Y-89.91
X104.39Y-91.71
X104.39Y-93.51
X104.39Y-95.31
X104.39Y-112.41
X104.39Y-114.21
X104.39Y-116.01
X104.39Y-117.81
T2
X34.25Y-46.75
X34.25Y-48.75
X34.25Y-50.75
X34.25Y-52.75
X34.25Y-69.25
X34.25Y-71.25
X34.25Y-73.25
X34.25Y-75.25
X34.25Y-91.75
X34.25Y-93.75
X34.25Y-95.75
X34.25Y-97.75
X34.25Y-114.25
X34.25Y-116.25
X34.25Y-118.25
X34.25Y-120.25
X46.65Y-56.85
X46.65Y-79.35
X46.65Y-101.85
X46.65Y-124.35
X49.15Y-56.85
X49.15Y-79.35
X49.15Y-101.85
X49.15Y-124.35
X54.25Y-56.85
X54.25Y-79.35
X54.25Y-101.85
X54.25Y-124.35
X56.75Y-56.85
X56.75Y-79.35
X56.75Y-101.85
X56.75Y-124.35
X61.95Y-56.85
X61.95Y-79.35
X61.95Y-101.85
X61.95Y-124.35
X64.45Y-56.85
X64.45Y-79.35
X64.45Y-101.85
X64.45Y-124.35
X82.75Y-46.75
X82.75Y-48.75
X82.75Y-50.75
X82.75Y-52.75
X82.75Y-69.25
X82.75Y-71.25
X82.75Y-73.25
X82.75Y-75.25
X82.75Y-91.75
X82.75Y-93.75
X82.75Y-95.75
X82.75Y-97.75
X82.75Y-114.25
X82.75Y-116.25
X82.75Y-118.25
X82.75Y-120.25
X95.15Y-56.85
X95.15Y-79.35
X95.15Y-101.85
X95.15Y-124.35
X97.65Y-56.85
X97.65Y-79.35
X97.65Y-101.85
X97.65Y-124.35
X102.75Y-56.85
X102.75Y-79.35
X102.75Y-101.85
X102.75Y-124.35
X105.25Y-56.85
X105.25Y-79.35
X105.25Y-101.85
X105.25Y-124.35
X110.45Y-56.85
X110.45Y-79.35
X110.45Y-101.85
X110.45Y-124.35
X112.95Y-56.85
X112.95Y-79.35
X112.95Y-101.85
X112.95Y-124.35
T3
X44.89Y-53.11
X44.89Y-75.61
X44.89Y-98.11
X44.89Y-120.61
X70.39Y-46.61
X70.39Y-69.11
X70.39Y-91.61
X70.39Y-114.11
X93.39Y-53.11
X93.39Y-75.61
X93.39Y-98.11
X93.39Y-120.61
X118.89Y-46.61
X118.89Y-69.11
X118.89Y-91.61
X118.89Y-114.11
T4
X35.25Y-42.25
X35.25Y-57.75
X35.25Y-64.75
X35.25Y-80.25
X35.25Y-87.25
X35.25Y-102.75
X35.25Y-109.75
X35.25Y-125.25
X69.75Y-57.75
X69.75Y-80.25
X69.75Y-102.75
X69.75Y-125.25
X83.75Y-42.25
X83.75Y-57.75
X83.75Y-64.75
X83.75Y-80.25
X83.75Y-87.25
X83.75Y-102.75
X83.75Y-109.75
X83.75Y-125.25
X118.25Y-57.75
X118.25Y-80.25
X118.25Y-102.75
X118.25Y-125.25
T5
X41.438Y-60.499
X41.438Y-62.001
X41.438Y-82.999
X41.438Y-84.501
X41.438Y-105.499
X41.438Y-107.001
X42.25Y-60.499
X42.25Y-62.001
X42.25Y-82.999
X42.25Y-84.501
X42.25Y-105.499
X42.25Y-107.001
X43.063Y-60.499
X43.063Y-62.001
X43.063Y-82.999
X43.063Y-84.501
X43.063Y-105.499
X43.063Y-107.001
X56.937Y-60.499
X56.937Y-62.001
X56.937Y-82.999
X56.937Y-84.501
X56.937Y-105.499
X56.937Y-107.001
X57.75Y-60.499
X57.75Y-62.001
X57.75Y-82.999
X57.75Y-84.501
X57.75Y-105.499
X57.75Y-107.001
X58.562Y-60.499
X58.562Y-62.001
X58.562Y-82.999
X58.562Y-84.501
X58.562Y-105.499
X58.562Y-107.001
X73.499Y-50.0
X73.499Y-50.812
X73.499Y-72.5
X73.499Y-73.313
X73.499Y-95.0
X73.499Y-95.813
X73.499Y-117.5
X73.499Y-118.313
X73.499Y-49.187
X73.499Y-71.688
X73.499Y-94.188
X73.499Y-116.688
X75.001Y-50.0
X75.001Y-50.812
X75.001Y-72.5
X75.001Y-73.313
X75.001Y-95.0
X75.001Y-95.813
X75.001Y-117.5
X75.001Y-118.313
X75.001Y-49.187
X75.001Y-71.688
X75.001Y-94.188
X75.001Y-116.688
X89.938Y-60.499
X89.938Y-62.001
X89.938Y-82.999
X89.938Y-84.501
X89.938Y-105.499
X89.938Y-107.001
X90.75Y-60.499
X90.75Y-62.001
X90.75Y-82.999
X90.75Y-84.501
X90.75Y-105.499
X90.75Y-107.001
X91.563Y-60.499
X91.563Y-62.001
X91.563Y-82.999
X91.563Y-84.501
X91.563Y-105.499
X91.563Y-107.001
X105.437Y-60.499
X105.437Y-62.001
X105.437Y-82.999
X105.437Y-84.501
X105.437Y-105.499
X105.437Y-107.001
X106.25Y-60.499
X106.25Y-62.001
X106.25Y-82.999
X106.25Y-84.501
X106.25Y-105.499
X106.25Y-107.001
X107.062Y-60.499
X107.062Y-62.001
X107.062Y-82.999
X107.062Y-84.501
X107.062Y-105.499
X107.062Y-107.001
T0
M30
