G04 #@! TF.GenerationSoftware,KiCad,Pcbnew,(6.0.0)*
G04 #@! TF.CreationDate,2022-01-04T13:58:26+00:00*
G04 #@! TF.ProjectId,Panelized,50616e65-6c69-47a6-9564-2e6b69636164,rev?*
G04 #@! TF.SameCoordinates,Original*
G04 #@! TF.FileFunction,Legend,Top*
G04 #@! TF.FilePolarity,Positive*
%FSLAX46Y46*%
G04 Gerber Fmt 4.6, Leading zero omitted, Abs format (unit mm)*
G04 Created by KiCad (PCBNEW (6.0.0)) date 2022-01-04 13:58:26*
%MOMM*%
%LPD*%
G01*
G04 APERTURE LIST*
%ADD10C,0.150000*%
%ADD11C,0.200000*%
%ADD12C,0.120000*%
G04 APERTURE END LIST*
D10*
X80250010Y-121150048D02*
X80250010Y-113650048D01*
X77250010Y-121150048D02*
X77250010Y-113650048D01*
X77250010Y-98650029D02*
X77250010Y-91150029D01*
X31749990Y-76150010D02*
X31749990Y-68650010D01*
X31749990Y-53649991D02*
X31749990Y-46149991D01*
X28749990Y-121150048D02*
X28749990Y-113650048D01*
X80250010Y-98650029D02*
X80250010Y-91150029D01*
X80250010Y-53649991D02*
X80250010Y-46149991D01*
X28749990Y-53649991D02*
X28749990Y-46149991D01*
X28749990Y-76150010D02*
X28749990Y-68650010D01*
X77250010Y-53649991D02*
X77250010Y-46149991D01*
X77250010Y-76150010D02*
X77250010Y-68650010D01*
X80250010Y-76150010D02*
X80250010Y-68650010D01*
X31749990Y-121150048D02*
X31749990Y-113650048D01*
X31749990Y-98650029D02*
X31749990Y-91150029D01*
X28749990Y-98650029D02*
X28749990Y-91150029D01*
X84850010Y-95202409D02*
X85040486Y-95202409D01*
X85135724Y-95250029D01*
X85230962Y-95345267D01*
X85278581Y-95535743D01*
X85278581Y-95869076D01*
X85230962Y-96059552D01*
X85135724Y-96154790D01*
X85040486Y-96202409D01*
X84850010Y-96202409D01*
X84754771Y-96154790D01*
X84659533Y-96059552D01*
X84611914Y-95869076D01*
X84611914Y-95535743D01*
X84659533Y-95345267D01*
X84754771Y-95250029D01*
X84850010Y-95202409D01*
X85707152Y-95202409D02*
X85707152Y-96011933D01*
X85754771Y-96107171D01*
X85802390Y-96154790D01*
X85897629Y-96202409D01*
X86088105Y-96202409D01*
X86183343Y-96154790D01*
X86230962Y-96107171D01*
X86278581Y-96011933D01*
X86278581Y-95202409D01*
X86611914Y-95202409D02*
X87183343Y-95202409D01*
X86897629Y-96202409D02*
X86897629Y-95202409D01*
X36011894Y-114321476D02*
X36773799Y-114321476D01*
X36392847Y-114702428D02*
X36392847Y-113940524D01*
X37726180Y-113702428D02*
X37249990Y-113702428D01*
X37202370Y-114178619D01*
X37249990Y-114131000D01*
X37345228Y-114083381D01*
X37583323Y-114083381D01*
X37678561Y-114131000D01*
X37726180Y-114178619D01*
X37773799Y-114273857D01*
X37773799Y-114511952D01*
X37726180Y-114607190D01*
X37678561Y-114654809D01*
X37583323Y-114702428D01*
X37345228Y-114702428D01*
X37249990Y-114654809D01*
X37202370Y-114607190D01*
X38107132Y-114035762D02*
X38345228Y-114702428D01*
X38583323Y-114035762D01*
X85088105Y-93250029D02*
X84992867Y-93202409D01*
X84850010Y-93202409D01*
X84707152Y-93250029D01*
X84611914Y-93345267D01*
X84564295Y-93440505D01*
X84516676Y-93630981D01*
X84516676Y-93773838D01*
X84564295Y-93964314D01*
X84611914Y-94059552D01*
X84707152Y-94154790D01*
X84850010Y-94202409D01*
X84945248Y-94202409D01*
X85088105Y-94154790D01*
X85135724Y-94107171D01*
X85135724Y-93773838D01*
X84945248Y-93773838D01*
X85564295Y-94202409D02*
X85564295Y-93202409D01*
X86135724Y-94202409D01*
X86135724Y-93202409D01*
X86611914Y-94202409D02*
X86611914Y-93202409D01*
X86850010Y-93202409D01*
X86992867Y-93250029D01*
X87088105Y-93345267D01*
X87135724Y-93440505D01*
X87183343Y-93630981D01*
X87183343Y-93773838D01*
X87135724Y-93964314D01*
X87088105Y-94059552D01*
X86992867Y-94154790D01*
X86850010Y-94202409D01*
X86611914Y-94202409D01*
X36778561Y-120702428D02*
X36445228Y-120226238D01*
X36207132Y-120702428D02*
X36207132Y-119702428D01*
X36588085Y-119702428D01*
X36683323Y-119750048D01*
X36730942Y-119797667D01*
X36778561Y-119892905D01*
X36778561Y-120035762D01*
X36730942Y-120131000D01*
X36683323Y-120178619D01*
X36588085Y-120226238D01*
X36207132Y-120226238D01*
X37207132Y-120178619D02*
X37540466Y-120178619D01*
X37683323Y-120702428D02*
X37207132Y-120702428D01*
X37207132Y-119702428D01*
X37683323Y-119702428D01*
X38445228Y-120178619D02*
X38111894Y-120178619D01*
X38111894Y-120702428D02*
X38111894Y-119702428D01*
X38588085Y-119702428D01*
X48126180Y-120816714D02*
X48602370Y-120816714D01*
X48030942Y-121102428D02*
X48364275Y-120102428D01*
X48697609Y-121102428D01*
X49173799Y-121102428D02*
X49078561Y-121054809D01*
X49030942Y-120959571D01*
X49030942Y-120102428D01*
X49697609Y-121102428D02*
X49602370Y-121054809D01*
X49554751Y-120959571D01*
X49554751Y-120102428D01*
X51411894Y-121007190D02*
X51364275Y-121054809D01*
X51221418Y-121102428D01*
X51126180Y-121102428D01*
X50983323Y-121054809D01*
X50888085Y-120959571D01*
X50840466Y-120864333D01*
X50792847Y-120673857D01*
X50792847Y-120531000D01*
X50840466Y-120340524D01*
X50888085Y-120245286D01*
X50983323Y-120150048D01*
X51126180Y-120102428D01*
X51221418Y-120102428D01*
X51364275Y-120150048D01*
X51411894Y-120197667D01*
X51983323Y-121102428D02*
X51888085Y-121054809D01*
X51840466Y-121007190D01*
X51792847Y-120911952D01*
X51792847Y-120626238D01*
X51840466Y-120531000D01*
X51888085Y-120483381D01*
X51983323Y-120435762D01*
X52126180Y-120435762D01*
X52221418Y-120483381D01*
X52269037Y-120531000D01*
X52316656Y-120626238D01*
X52316656Y-120911952D01*
X52269037Y-121007190D01*
X52221418Y-121054809D01*
X52126180Y-121102428D01*
X51983323Y-121102428D01*
X52745228Y-121102428D02*
X52745228Y-120435762D01*
X52745228Y-120531000D02*
X52792847Y-120483381D01*
X52888085Y-120435762D01*
X53030942Y-120435762D01*
X53126180Y-120483381D01*
X53173799Y-120578619D01*
X53173799Y-121102428D01*
X53173799Y-120578619D02*
X53221418Y-120483381D01*
X53316656Y-120435762D01*
X53459513Y-120435762D01*
X53554751Y-120483381D01*
X53602370Y-120578619D01*
X53602370Y-121102428D01*
X54078561Y-120435762D02*
X54078561Y-121435762D01*
X54078561Y-120483381D02*
X54173799Y-120435762D01*
X54364275Y-120435762D01*
X54459513Y-120483381D01*
X54507132Y-120531000D01*
X54554751Y-120626238D01*
X54554751Y-120911952D01*
X54507132Y-121007190D01*
X54459513Y-121054809D01*
X54364275Y-121102428D01*
X54173799Y-121102428D01*
X54078561Y-121054809D01*
X55126180Y-121102428D02*
X55030942Y-121054809D01*
X54983323Y-121007190D01*
X54935704Y-120911952D01*
X54935704Y-120626238D01*
X54983323Y-120531000D01*
X55030942Y-120483381D01*
X55126180Y-120435762D01*
X55269037Y-120435762D01*
X55364275Y-120483381D01*
X55411894Y-120531000D01*
X55459513Y-120626238D01*
X55459513Y-120911952D01*
X55411894Y-121007190D01*
X55364275Y-121054809D01*
X55269037Y-121102428D01*
X55126180Y-121102428D01*
X55888085Y-120435762D02*
X55888085Y-121102428D01*
X55888085Y-120531000D02*
X55935704Y-120483381D01*
X56030942Y-120435762D01*
X56173799Y-120435762D01*
X56269037Y-120483381D01*
X56316656Y-120578619D01*
X56316656Y-121102428D01*
X57173799Y-121054809D02*
X57078561Y-121102428D01*
X56888085Y-121102428D01*
X56792847Y-121054809D01*
X56745228Y-120959571D01*
X56745228Y-120578619D01*
X56792847Y-120483381D01*
X56888085Y-120435762D01*
X57078561Y-120435762D01*
X57173799Y-120483381D01*
X57221418Y-120578619D01*
X57221418Y-120673857D01*
X56745228Y-120769095D01*
X57649990Y-120435762D02*
X57649990Y-121102428D01*
X57649990Y-120531000D02*
X57697609Y-120483381D01*
X57792847Y-120435762D01*
X57935704Y-120435762D01*
X58030942Y-120483381D01*
X58078561Y-120578619D01*
X58078561Y-121102428D01*
X58411894Y-120435762D02*
X58792847Y-120435762D01*
X58554751Y-120102428D02*
X58554751Y-120959571D01*
X58602370Y-121054809D01*
X58697609Y-121102428D01*
X58792847Y-121102428D01*
X59078561Y-121054809D02*
X59173799Y-121102428D01*
X59364275Y-121102428D01*
X59459513Y-121054809D01*
X59507132Y-120959571D01*
X59507132Y-120911952D01*
X59459513Y-120816714D01*
X59364275Y-120769095D01*
X59221418Y-120769095D01*
X59126180Y-120721476D01*
X59078561Y-120626238D01*
X59078561Y-120578619D01*
X59126180Y-120483381D01*
X59221418Y-120435762D01*
X59364275Y-120435762D01*
X59459513Y-120483381D01*
X60554751Y-120102428D02*
X61126180Y-120102428D01*
X60840466Y-121102428D02*
X60840466Y-120102428D01*
X61459513Y-121102428D02*
X61459513Y-120102428D01*
X61888085Y-121102428D02*
X61888085Y-120578619D01*
X61840466Y-120483381D01*
X61745228Y-120435762D01*
X61602370Y-120435762D01*
X61507132Y-120483381D01*
X61459513Y-120531000D01*
X62364275Y-121102428D02*
X62364275Y-120435762D01*
X62364275Y-120102428D02*
X62316656Y-120150048D01*
X62364275Y-120197667D01*
X62411894Y-120150048D01*
X62364275Y-120102428D01*
X62364275Y-120197667D01*
X62792847Y-121054809D02*
X62888085Y-121102428D01*
X63078561Y-121102428D01*
X63173799Y-121054809D01*
X63221418Y-120959571D01*
X63221418Y-120911952D01*
X63173799Y-120816714D01*
X63078561Y-120769095D01*
X62935704Y-120769095D01*
X62840466Y-120721476D01*
X62792847Y-120626238D01*
X62792847Y-120578619D01*
X62840466Y-120483381D01*
X62935704Y-120435762D01*
X63078561Y-120435762D01*
X63173799Y-120483381D01*
X64364275Y-121054809D02*
X64507132Y-121102428D01*
X64745228Y-121102428D01*
X64840466Y-121054809D01*
X64888085Y-121007190D01*
X64935704Y-120911952D01*
X64935704Y-120816714D01*
X64888085Y-120721476D01*
X64840466Y-120673857D01*
X64745228Y-120626238D01*
X64554751Y-120578619D01*
X64459513Y-120531000D01*
X64411894Y-120483381D01*
X64364275Y-120388143D01*
X64364275Y-120292905D01*
X64411894Y-120197667D01*
X64459513Y-120150048D01*
X64554751Y-120102428D01*
X64792847Y-120102428D01*
X64935704Y-120150048D01*
X65364275Y-121102428D02*
X65364275Y-120435762D01*
X65364275Y-120102428D02*
X65316656Y-120150048D01*
X65364275Y-120197667D01*
X65411894Y-120150048D01*
X65364275Y-120102428D01*
X65364275Y-120197667D01*
X66269037Y-121102428D02*
X66269037Y-120102428D01*
X66269037Y-121054809D02*
X66173799Y-121102428D01*
X65983323Y-121102428D01*
X65888085Y-121054809D01*
X65840466Y-121007190D01*
X65792847Y-120911952D01*
X65792847Y-120626238D01*
X65840466Y-120531000D01*
X65888085Y-120483381D01*
X65983323Y-120435762D01*
X66173799Y-120435762D01*
X66269037Y-120483381D01*
X67126180Y-121054809D02*
X67030942Y-121102428D01*
X66840466Y-121102428D01*
X66745228Y-121054809D01*
X66697609Y-120959571D01*
X66697609Y-120578619D01*
X66745228Y-120483381D01*
X66840466Y-120435762D01*
X67030942Y-120435762D01*
X67126180Y-120483381D01*
X67173799Y-120578619D01*
X67173799Y-120673857D01*
X66697609Y-120769095D01*
D11*
X30507132Y-120164333D02*
X30554751Y-120211952D01*
X30602370Y-120354809D01*
X30602370Y-120450048D01*
X30554751Y-120592905D01*
X30459513Y-120688143D01*
X30364275Y-120735762D01*
X30173799Y-120783381D01*
X30030942Y-120783381D01*
X29840466Y-120735762D01*
X29745228Y-120688143D01*
X29649990Y-120592905D01*
X29602370Y-120450048D01*
X29602370Y-120354809D01*
X29649990Y-120211952D01*
X29697609Y-120164333D01*
X30602370Y-119307190D02*
X30078561Y-119307190D01*
X29983323Y-119354809D01*
X29935704Y-119450048D01*
X29935704Y-119640524D01*
X29983323Y-119735762D01*
X30554751Y-119307190D02*
X30602370Y-119402428D01*
X30602370Y-119640524D01*
X30554751Y-119735762D01*
X30459513Y-119783381D01*
X30364275Y-119783381D01*
X30269037Y-119735762D01*
X30221418Y-119640524D01*
X30221418Y-119402428D01*
X30173799Y-119307190D01*
X30602370Y-118831000D02*
X29602370Y-118831000D01*
X29983323Y-118831000D02*
X29935704Y-118735762D01*
X29935704Y-118545286D01*
X29983323Y-118450048D01*
X30030942Y-118402428D01*
X30126180Y-118354809D01*
X30411894Y-118354809D01*
X30507132Y-118402428D01*
X30554751Y-118450048D01*
X30602370Y-118545286D01*
X30602370Y-118735762D01*
X30554751Y-118831000D01*
X30602370Y-117783381D02*
X30554751Y-117878619D01*
X30459513Y-117926238D01*
X29602370Y-117926238D01*
X30554751Y-117021476D02*
X30602370Y-117116714D01*
X30602370Y-117307190D01*
X30554751Y-117402428D01*
X30459513Y-117450048D01*
X30078561Y-117450048D01*
X29983323Y-117402428D01*
X29935704Y-117307190D01*
X29935704Y-117116714D01*
X29983323Y-117021476D01*
X30078561Y-116973857D01*
X30173799Y-116973857D01*
X30269037Y-117450048D01*
X29602370Y-115926238D02*
X29602370Y-115354809D01*
X30602370Y-115640524D02*
X29602370Y-115640524D01*
X30602370Y-115021476D02*
X29935704Y-115021476D01*
X29602370Y-115021476D02*
X29649990Y-115069095D01*
X29697609Y-115021476D01*
X29649990Y-114973857D01*
X29602370Y-115021476D01*
X29697609Y-115021476D01*
X30554751Y-114164333D02*
X30602370Y-114259571D01*
X30602370Y-114450048D01*
X30554751Y-114545286D01*
X30459513Y-114592905D01*
X30078561Y-114592905D01*
X29983323Y-114545286D01*
X29935704Y-114450048D01*
X29935704Y-114259571D01*
X29983323Y-114164333D01*
X30078561Y-114116714D01*
X30173799Y-114116714D01*
X30269037Y-114592905D01*
D10*
X36588085Y-93250029D02*
X36492847Y-93202409D01*
X36349990Y-93202409D01*
X36207132Y-93250029D01*
X36111894Y-93345267D01*
X36064275Y-93440505D01*
X36016656Y-93630981D01*
X36016656Y-93773838D01*
X36064275Y-93964314D01*
X36111894Y-94059552D01*
X36207132Y-94154790D01*
X36349990Y-94202409D01*
X36445228Y-94202409D01*
X36588085Y-94154790D01*
X36635704Y-94107171D01*
X36635704Y-93773838D01*
X36445228Y-93773838D01*
X37064275Y-94202409D02*
X37064275Y-93202409D01*
X37635704Y-94202409D01*
X37635704Y-93202409D01*
X38111894Y-94202409D02*
X38111894Y-93202409D01*
X38349990Y-93202409D01*
X38492847Y-93250029D01*
X38588085Y-93345267D01*
X38635704Y-93440505D01*
X38683323Y-93630981D01*
X38683323Y-93773838D01*
X38635704Y-93964314D01*
X38588085Y-94059552D01*
X38492847Y-94154790D01*
X38349990Y-94202409D01*
X38111894Y-94202409D01*
X36588085Y-115750048D02*
X36492847Y-115702428D01*
X36349990Y-115702428D01*
X36207132Y-115750048D01*
X36111894Y-115845286D01*
X36064275Y-115940524D01*
X36016656Y-116131000D01*
X36016656Y-116273857D01*
X36064275Y-116464333D01*
X36111894Y-116559571D01*
X36207132Y-116654809D01*
X36349990Y-116702428D01*
X36445228Y-116702428D01*
X36588085Y-116654809D01*
X36635704Y-116607190D01*
X36635704Y-116273857D01*
X36445228Y-116273857D01*
X37064275Y-116702428D02*
X37064275Y-115702428D01*
X37635704Y-116702428D01*
X37635704Y-115702428D01*
X38111894Y-116702428D02*
X38111894Y-115702428D01*
X38349990Y-115702428D01*
X38492847Y-115750048D01*
X38588085Y-115845286D01*
X38635704Y-115940524D01*
X38683323Y-116131000D01*
X38683323Y-116273857D01*
X38635704Y-116464333D01*
X38588085Y-116559571D01*
X38492847Y-116654809D01*
X38349990Y-116702428D01*
X38111894Y-116702428D01*
X36011894Y-69321438D02*
X36773799Y-69321438D01*
X36392847Y-69702390D02*
X36392847Y-68940486D01*
X37726180Y-68702390D02*
X37249990Y-68702390D01*
X37202370Y-69178581D01*
X37249990Y-69130962D01*
X37345228Y-69083343D01*
X37583323Y-69083343D01*
X37678561Y-69130962D01*
X37726180Y-69178581D01*
X37773799Y-69273819D01*
X37773799Y-69511914D01*
X37726180Y-69607152D01*
X37678561Y-69654771D01*
X37583323Y-69702390D01*
X37345228Y-69702390D01*
X37249990Y-69654771D01*
X37202370Y-69607152D01*
X38107132Y-69035724D02*
X38345228Y-69702390D01*
X38583323Y-69035724D01*
X36588085Y-48249991D02*
X36492847Y-48202371D01*
X36349990Y-48202371D01*
X36207132Y-48249991D01*
X36111894Y-48345229D01*
X36064275Y-48440467D01*
X36016656Y-48630943D01*
X36016656Y-48773800D01*
X36064275Y-48964276D01*
X36111894Y-49059514D01*
X36207132Y-49154752D01*
X36349990Y-49202371D01*
X36445228Y-49202371D01*
X36588085Y-49154752D01*
X36635704Y-49107133D01*
X36635704Y-48773800D01*
X36445228Y-48773800D01*
X37064275Y-49202371D02*
X37064275Y-48202371D01*
X37635704Y-49202371D01*
X37635704Y-48202371D01*
X38111894Y-49202371D02*
X38111894Y-48202371D01*
X38349990Y-48202371D01*
X38492847Y-48249991D01*
X38588085Y-48345229D01*
X38635704Y-48440467D01*
X38683323Y-48630943D01*
X38683323Y-48773800D01*
X38635704Y-48964276D01*
X38588085Y-49059514D01*
X38492847Y-49154752D01*
X38349990Y-49202371D01*
X38111894Y-49202371D01*
X36349990Y-50202371D02*
X36540466Y-50202371D01*
X36635704Y-50249991D01*
X36730942Y-50345229D01*
X36778561Y-50535705D01*
X36778561Y-50869038D01*
X36730942Y-51059514D01*
X36635704Y-51154752D01*
X36540466Y-51202371D01*
X36349990Y-51202371D01*
X36254751Y-51154752D01*
X36159513Y-51059514D01*
X36111894Y-50869038D01*
X36111894Y-50535705D01*
X36159513Y-50345229D01*
X36254751Y-50249991D01*
X36349990Y-50202371D01*
X37207132Y-50202371D02*
X37207132Y-51011895D01*
X37254751Y-51107133D01*
X37302370Y-51154752D01*
X37397609Y-51202371D01*
X37588085Y-51202371D01*
X37683323Y-51154752D01*
X37730942Y-51107133D01*
X37778561Y-51011895D01*
X37778561Y-50202371D01*
X38111894Y-50202371D02*
X38683323Y-50202371D01*
X38397609Y-51202371D02*
X38397609Y-50202371D01*
X84850010Y-72702390D02*
X85040486Y-72702390D01*
X85135724Y-72750010D01*
X85230962Y-72845248D01*
X85278581Y-73035724D01*
X85278581Y-73369057D01*
X85230962Y-73559533D01*
X85135724Y-73654771D01*
X85040486Y-73702390D01*
X84850010Y-73702390D01*
X84754771Y-73654771D01*
X84659533Y-73559533D01*
X84611914Y-73369057D01*
X84611914Y-73035724D01*
X84659533Y-72845248D01*
X84754771Y-72750010D01*
X84850010Y-72702390D01*
X85707152Y-72702390D02*
X85707152Y-73511914D01*
X85754771Y-73607152D01*
X85802390Y-73654771D01*
X85897629Y-73702390D01*
X86088105Y-73702390D01*
X86183343Y-73654771D01*
X86230962Y-73607152D01*
X86278581Y-73511914D01*
X86278581Y-72702390D01*
X86611914Y-72702390D02*
X87183343Y-72702390D01*
X86897629Y-73702390D02*
X86897629Y-72702390D01*
X48126180Y-75816676D02*
X48602370Y-75816676D01*
X48030942Y-76102390D02*
X48364275Y-75102390D01*
X48697609Y-76102390D01*
X49173799Y-76102390D02*
X49078561Y-76054771D01*
X49030942Y-75959533D01*
X49030942Y-75102390D01*
X49697609Y-76102390D02*
X49602370Y-76054771D01*
X49554751Y-75959533D01*
X49554751Y-75102390D01*
X51411894Y-76007152D02*
X51364275Y-76054771D01*
X51221418Y-76102390D01*
X51126180Y-76102390D01*
X50983323Y-76054771D01*
X50888085Y-75959533D01*
X50840466Y-75864295D01*
X50792847Y-75673819D01*
X50792847Y-75530962D01*
X50840466Y-75340486D01*
X50888085Y-75245248D01*
X50983323Y-75150010D01*
X51126180Y-75102390D01*
X51221418Y-75102390D01*
X51364275Y-75150010D01*
X51411894Y-75197629D01*
X51983323Y-76102390D02*
X51888085Y-76054771D01*
X51840466Y-76007152D01*
X51792847Y-75911914D01*
X51792847Y-75626200D01*
X51840466Y-75530962D01*
X51888085Y-75483343D01*
X51983323Y-75435724D01*
X52126180Y-75435724D01*
X52221418Y-75483343D01*
X52269037Y-75530962D01*
X52316656Y-75626200D01*
X52316656Y-75911914D01*
X52269037Y-76007152D01*
X52221418Y-76054771D01*
X52126180Y-76102390D01*
X51983323Y-76102390D01*
X52745228Y-76102390D02*
X52745228Y-75435724D01*
X52745228Y-75530962D02*
X52792847Y-75483343D01*
X52888085Y-75435724D01*
X53030942Y-75435724D01*
X53126180Y-75483343D01*
X53173799Y-75578581D01*
X53173799Y-76102390D01*
X53173799Y-75578581D02*
X53221418Y-75483343D01*
X53316656Y-75435724D01*
X53459513Y-75435724D01*
X53554751Y-75483343D01*
X53602370Y-75578581D01*
X53602370Y-76102390D01*
X54078561Y-75435724D02*
X54078561Y-76435724D01*
X54078561Y-75483343D02*
X54173799Y-75435724D01*
X54364275Y-75435724D01*
X54459513Y-75483343D01*
X54507132Y-75530962D01*
X54554751Y-75626200D01*
X54554751Y-75911914D01*
X54507132Y-76007152D01*
X54459513Y-76054771D01*
X54364275Y-76102390D01*
X54173799Y-76102390D01*
X54078561Y-76054771D01*
X55126180Y-76102390D02*
X55030942Y-76054771D01*
X54983323Y-76007152D01*
X54935704Y-75911914D01*
X54935704Y-75626200D01*
X54983323Y-75530962D01*
X55030942Y-75483343D01*
X55126180Y-75435724D01*
X55269037Y-75435724D01*
X55364275Y-75483343D01*
X55411894Y-75530962D01*
X55459513Y-75626200D01*
X55459513Y-75911914D01*
X55411894Y-76007152D01*
X55364275Y-76054771D01*
X55269037Y-76102390D01*
X55126180Y-76102390D01*
X55888085Y-75435724D02*
X55888085Y-76102390D01*
X55888085Y-75530962D02*
X55935704Y-75483343D01*
X56030942Y-75435724D01*
X56173799Y-75435724D01*
X56269037Y-75483343D01*
X56316656Y-75578581D01*
X56316656Y-76102390D01*
X57173799Y-76054771D02*
X57078561Y-76102390D01*
X56888085Y-76102390D01*
X56792847Y-76054771D01*
X56745228Y-75959533D01*
X56745228Y-75578581D01*
X56792847Y-75483343D01*
X56888085Y-75435724D01*
X57078561Y-75435724D01*
X57173799Y-75483343D01*
X57221418Y-75578581D01*
X57221418Y-75673819D01*
X56745228Y-75769057D01*
X57649990Y-75435724D02*
X57649990Y-76102390D01*
X57649990Y-75530962D02*
X57697609Y-75483343D01*
X57792847Y-75435724D01*
X57935704Y-75435724D01*
X58030942Y-75483343D01*
X58078561Y-75578581D01*
X58078561Y-76102390D01*
X58411894Y-75435724D02*
X58792847Y-75435724D01*
X58554751Y-75102390D02*
X58554751Y-75959533D01*
X58602370Y-76054771D01*
X58697609Y-76102390D01*
X58792847Y-76102390D01*
X59078561Y-76054771D02*
X59173799Y-76102390D01*
X59364275Y-76102390D01*
X59459513Y-76054771D01*
X59507132Y-75959533D01*
X59507132Y-75911914D01*
X59459513Y-75816676D01*
X59364275Y-75769057D01*
X59221418Y-75769057D01*
X59126180Y-75721438D01*
X59078561Y-75626200D01*
X59078561Y-75578581D01*
X59126180Y-75483343D01*
X59221418Y-75435724D01*
X59364275Y-75435724D01*
X59459513Y-75483343D01*
X60554751Y-75102390D02*
X61126180Y-75102390D01*
X60840466Y-76102390D02*
X60840466Y-75102390D01*
X61459513Y-76102390D02*
X61459513Y-75102390D01*
X61888085Y-76102390D02*
X61888085Y-75578581D01*
X61840466Y-75483343D01*
X61745228Y-75435724D01*
X61602370Y-75435724D01*
X61507132Y-75483343D01*
X61459513Y-75530962D01*
X62364275Y-76102390D02*
X62364275Y-75435724D01*
X62364275Y-75102390D02*
X62316656Y-75150010D01*
X62364275Y-75197629D01*
X62411894Y-75150010D01*
X62364275Y-75102390D01*
X62364275Y-75197629D01*
X62792847Y-76054771D02*
X62888085Y-76102390D01*
X63078561Y-76102390D01*
X63173799Y-76054771D01*
X63221418Y-75959533D01*
X63221418Y-75911914D01*
X63173799Y-75816676D01*
X63078561Y-75769057D01*
X62935704Y-75769057D01*
X62840466Y-75721438D01*
X62792847Y-75626200D01*
X62792847Y-75578581D01*
X62840466Y-75483343D01*
X62935704Y-75435724D01*
X63078561Y-75435724D01*
X63173799Y-75483343D01*
X64364275Y-76054771D02*
X64507132Y-76102390D01*
X64745228Y-76102390D01*
X64840466Y-76054771D01*
X64888085Y-76007152D01*
X64935704Y-75911914D01*
X64935704Y-75816676D01*
X64888085Y-75721438D01*
X64840466Y-75673819D01*
X64745228Y-75626200D01*
X64554751Y-75578581D01*
X64459513Y-75530962D01*
X64411894Y-75483343D01*
X64364275Y-75388105D01*
X64364275Y-75292867D01*
X64411894Y-75197629D01*
X64459513Y-75150010D01*
X64554751Y-75102390D01*
X64792847Y-75102390D01*
X64935704Y-75150010D01*
X65364275Y-76102390D02*
X65364275Y-75435724D01*
X65364275Y-75102390D02*
X65316656Y-75150010D01*
X65364275Y-75197629D01*
X65411894Y-75150010D01*
X65364275Y-75102390D01*
X65364275Y-75197629D01*
X66269037Y-76102390D02*
X66269037Y-75102390D01*
X66269037Y-76054771D02*
X66173799Y-76102390D01*
X65983323Y-76102390D01*
X65888085Y-76054771D01*
X65840466Y-76007152D01*
X65792847Y-75911914D01*
X65792847Y-75626200D01*
X65840466Y-75530962D01*
X65888085Y-75483343D01*
X65983323Y-75435724D01*
X66173799Y-75435724D01*
X66269037Y-75483343D01*
X67126180Y-76054771D02*
X67030942Y-76102390D01*
X66840466Y-76102390D01*
X66745228Y-76054771D01*
X66697609Y-75959533D01*
X66697609Y-75578581D01*
X66745228Y-75483343D01*
X66840466Y-75435724D01*
X67030942Y-75435724D01*
X67126180Y-75483343D01*
X67173799Y-75578581D01*
X67173799Y-75673819D01*
X66697609Y-75769057D01*
D11*
X79007152Y-75164295D02*
X79054771Y-75211914D01*
X79102390Y-75354771D01*
X79102390Y-75450010D01*
X79054771Y-75592867D01*
X78959533Y-75688105D01*
X78864295Y-75735724D01*
X78673819Y-75783343D01*
X78530962Y-75783343D01*
X78340486Y-75735724D01*
X78245248Y-75688105D01*
X78150010Y-75592867D01*
X78102390Y-75450010D01*
X78102390Y-75354771D01*
X78150010Y-75211914D01*
X78197629Y-75164295D01*
X79102390Y-74307152D02*
X78578581Y-74307152D01*
X78483343Y-74354771D01*
X78435724Y-74450010D01*
X78435724Y-74640486D01*
X78483343Y-74735724D01*
X79054771Y-74307152D02*
X79102390Y-74402390D01*
X79102390Y-74640486D01*
X79054771Y-74735724D01*
X78959533Y-74783343D01*
X78864295Y-74783343D01*
X78769057Y-74735724D01*
X78721438Y-74640486D01*
X78721438Y-74402390D01*
X78673819Y-74307152D01*
X79102390Y-73830962D02*
X78102390Y-73830962D01*
X78483343Y-73830962D02*
X78435724Y-73735724D01*
X78435724Y-73545248D01*
X78483343Y-73450010D01*
X78530962Y-73402390D01*
X78626200Y-73354771D01*
X78911914Y-73354771D01*
X79007152Y-73402390D01*
X79054771Y-73450010D01*
X79102390Y-73545248D01*
X79102390Y-73735724D01*
X79054771Y-73830962D01*
X79102390Y-72783343D02*
X79054771Y-72878581D01*
X78959533Y-72926200D01*
X78102390Y-72926200D01*
X79054771Y-72021438D02*
X79102390Y-72116676D01*
X79102390Y-72307152D01*
X79054771Y-72402390D01*
X78959533Y-72450010D01*
X78578581Y-72450010D01*
X78483343Y-72402390D01*
X78435724Y-72307152D01*
X78435724Y-72116676D01*
X78483343Y-72021438D01*
X78578581Y-71973819D01*
X78673819Y-71973819D01*
X78769057Y-72450010D01*
X78102390Y-70926200D02*
X78102390Y-70354771D01*
X79102390Y-70640486D02*
X78102390Y-70640486D01*
X79102390Y-70021438D02*
X78435724Y-70021438D01*
X78102390Y-70021438D02*
X78150010Y-70069057D01*
X78197629Y-70021438D01*
X78150010Y-69973819D01*
X78102390Y-70021438D01*
X78197629Y-70021438D01*
X79054771Y-69164295D02*
X79102390Y-69259533D01*
X79102390Y-69450010D01*
X79054771Y-69545248D01*
X78959533Y-69592867D01*
X78578581Y-69592867D01*
X78483343Y-69545248D01*
X78435724Y-69450010D01*
X78435724Y-69259533D01*
X78483343Y-69164295D01*
X78578581Y-69116676D01*
X78673819Y-69116676D01*
X78769057Y-69592867D01*
D10*
X36349990Y-95202409D02*
X36540466Y-95202409D01*
X36635704Y-95250029D01*
X36730942Y-95345267D01*
X36778561Y-95535743D01*
X36778561Y-95869076D01*
X36730942Y-96059552D01*
X36635704Y-96154790D01*
X36540466Y-96202409D01*
X36349990Y-96202409D01*
X36254751Y-96154790D01*
X36159513Y-96059552D01*
X36111894Y-95869076D01*
X36111894Y-95535743D01*
X36159513Y-95345267D01*
X36254751Y-95250029D01*
X36349990Y-95202409D01*
X37207132Y-95202409D02*
X37207132Y-96011933D01*
X37254751Y-96107171D01*
X37302370Y-96154790D01*
X37397609Y-96202409D01*
X37588085Y-96202409D01*
X37683323Y-96154790D01*
X37730942Y-96107171D01*
X37778561Y-96011933D01*
X37778561Y-95202409D01*
X38111894Y-95202409D02*
X38683323Y-95202409D01*
X38397609Y-96202409D02*
X38397609Y-95202409D01*
X40435704Y-45102371D02*
X39959513Y-45102371D01*
X39959513Y-44102371D01*
X40769037Y-44578562D02*
X41102370Y-44578562D01*
X41245228Y-45102371D02*
X40769037Y-45102371D01*
X40769037Y-44102371D01*
X41245228Y-44102371D01*
X41673799Y-45102371D02*
X41673799Y-44102371D01*
X42007132Y-44816657D01*
X42340466Y-44102371D01*
X42340466Y-45102371D01*
X43578561Y-45102371D02*
X43578561Y-44102371D01*
X43578561Y-44578562D02*
X44149989Y-44578562D01*
X44149989Y-45102371D02*
X44149989Y-44102371D01*
X44578561Y-44816657D02*
X45054751Y-44816657D01*
X44483323Y-45102371D02*
X44816656Y-44102371D01*
X45149989Y-45102371D01*
X45483323Y-45102371D02*
X45483323Y-44102371D01*
X45911894Y-45054752D02*
X46054751Y-45102371D01*
X46292847Y-45102371D01*
X46388085Y-45054752D01*
X46435704Y-45007133D01*
X46483323Y-44911895D01*
X46483323Y-44816657D01*
X46435704Y-44721419D01*
X46388085Y-44673800D01*
X46292847Y-44626181D01*
X46102370Y-44578562D01*
X46007132Y-44530943D01*
X45959513Y-44483324D01*
X45911894Y-44388086D01*
X45911894Y-44292848D01*
X45959513Y-44197610D01*
X46007132Y-44149991D01*
X46102370Y-44102371D01*
X46340466Y-44102371D01*
X46483323Y-44149991D01*
X48149989Y-44102371D02*
X47673799Y-44102371D01*
X47626180Y-44578562D01*
X47673799Y-44530943D01*
X47769037Y-44483324D01*
X48007132Y-44483324D01*
X48102370Y-44530943D01*
X48149989Y-44578562D01*
X48197609Y-44673800D01*
X48197609Y-44911895D01*
X48149989Y-45007133D01*
X48102370Y-45054752D01*
X48007132Y-45102371D01*
X47769037Y-45102371D01*
X47673799Y-45054752D01*
X47626180Y-45007133D01*
X48816656Y-44102371D02*
X48911894Y-44102371D01*
X49007132Y-44149991D01*
X49054751Y-44197610D01*
X49102370Y-44292848D01*
X49149989Y-44483324D01*
X49149989Y-44721419D01*
X49102370Y-44911895D01*
X49054751Y-45007133D01*
X49007132Y-45054752D01*
X48911894Y-45102371D01*
X48816656Y-45102371D01*
X48721418Y-45054752D01*
X48673799Y-45007133D01*
X48626180Y-44911895D01*
X48578561Y-44721419D01*
X48578561Y-44483324D01*
X48626180Y-44292848D01*
X48673799Y-44197610D01*
X48721418Y-44149991D01*
X48816656Y-44102371D01*
X49578561Y-44721419D02*
X50340466Y-44721419D01*
X50816656Y-45102371D02*
X50816656Y-44102371D01*
X51197609Y-44102371D01*
X51292847Y-44149991D01*
X51340466Y-44197610D01*
X51388085Y-44292848D01*
X51388085Y-44435705D01*
X51340466Y-44530943D01*
X51292847Y-44578562D01*
X51197609Y-44626181D01*
X50816656Y-44626181D01*
X96626200Y-120816714D02*
X97102390Y-120816714D01*
X96530962Y-121102428D02*
X96864295Y-120102428D01*
X97197629Y-121102428D01*
X97673819Y-121102428D02*
X97578581Y-121054809D01*
X97530962Y-120959571D01*
X97530962Y-120102428D01*
X98197629Y-121102428D02*
X98102390Y-121054809D01*
X98054771Y-120959571D01*
X98054771Y-120102428D01*
X99911914Y-121007190D02*
X99864295Y-121054809D01*
X99721438Y-121102428D01*
X99626200Y-121102428D01*
X99483343Y-121054809D01*
X99388105Y-120959571D01*
X99340486Y-120864333D01*
X99292867Y-120673857D01*
X99292867Y-120531000D01*
X99340486Y-120340524D01*
X99388105Y-120245286D01*
X99483343Y-120150048D01*
X99626200Y-120102428D01*
X99721438Y-120102428D01*
X99864295Y-120150048D01*
X99911914Y-120197667D01*
X100483343Y-121102428D02*
X100388105Y-121054809D01*
X100340486Y-121007190D01*
X100292867Y-120911952D01*
X100292867Y-120626238D01*
X100340486Y-120531000D01*
X100388105Y-120483381D01*
X100483343Y-120435762D01*
X100626200Y-120435762D01*
X100721438Y-120483381D01*
X100769057Y-120531000D01*
X100816676Y-120626238D01*
X100816676Y-120911952D01*
X100769057Y-121007190D01*
X100721438Y-121054809D01*
X100626200Y-121102428D01*
X100483343Y-121102428D01*
X101245248Y-121102428D02*
X101245248Y-120435762D01*
X101245248Y-120531000D02*
X101292867Y-120483381D01*
X101388105Y-120435762D01*
X101530962Y-120435762D01*
X101626200Y-120483381D01*
X101673819Y-120578619D01*
X101673819Y-121102428D01*
X101673819Y-120578619D02*
X101721438Y-120483381D01*
X101816676Y-120435762D01*
X101959533Y-120435762D01*
X102054771Y-120483381D01*
X102102390Y-120578619D01*
X102102390Y-121102428D01*
X102578581Y-120435762D02*
X102578581Y-121435762D01*
X102578581Y-120483381D02*
X102673819Y-120435762D01*
X102864295Y-120435762D01*
X102959533Y-120483381D01*
X103007152Y-120531000D01*
X103054771Y-120626238D01*
X103054771Y-120911952D01*
X103007152Y-121007190D01*
X102959533Y-121054809D01*
X102864295Y-121102428D01*
X102673819Y-121102428D01*
X102578581Y-121054809D01*
X103626200Y-121102428D02*
X103530962Y-121054809D01*
X103483343Y-121007190D01*
X103435724Y-120911952D01*
X103435724Y-120626238D01*
X103483343Y-120531000D01*
X103530962Y-120483381D01*
X103626200Y-120435762D01*
X103769057Y-120435762D01*
X103864295Y-120483381D01*
X103911914Y-120531000D01*
X103959533Y-120626238D01*
X103959533Y-120911952D01*
X103911914Y-121007190D01*
X103864295Y-121054809D01*
X103769057Y-121102428D01*
X103626200Y-121102428D01*
X104388105Y-120435762D02*
X104388105Y-121102428D01*
X104388105Y-120531000D02*
X104435724Y-120483381D01*
X104530962Y-120435762D01*
X104673819Y-120435762D01*
X104769057Y-120483381D01*
X104816676Y-120578619D01*
X104816676Y-121102428D01*
X105673819Y-121054809D02*
X105578581Y-121102428D01*
X105388105Y-121102428D01*
X105292867Y-121054809D01*
X105245248Y-120959571D01*
X105245248Y-120578619D01*
X105292867Y-120483381D01*
X105388105Y-120435762D01*
X105578581Y-120435762D01*
X105673819Y-120483381D01*
X105721438Y-120578619D01*
X105721438Y-120673857D01*
X105245248Y-120769095D01*
X106150010Y-120435762D02*
X106150010Y-121102428D01*
X106150010Y-120531000D02*
X106197629Y-120483381D01*
X106292867Y-120435762D01*
X106435724Y-120435762D01*
X106530962Y-120483381D01*
X106578581Y-120578619D01*
X106578581Y-121102428D01*
X106911914Y-120435762D02*
X107292867Y-120435762D01*
X107054771Y-120102428D02*
X107054771Y-120959571D01*
X107102390Y-121054809D01*
X107197629Y-121102428D01*
X107292867Y-121102428D01*
X107578581Y-121054809D02*
X107673819Y-121102428D01*
X107864295Y-121102428D01*
X107959533Y-121054809D01*
X108007152Y-120959571D01*
X108007152Y-120911952D01*
X107959533Y-120816714D01*
X107864295Y-120769095D01*
X107721438Y-120769095D01*
X107626200Y-120721476D01*
X107578581Y-120626238D01*
X107578581Y-120578619D01*
X107626200Y-120483381D01*
X107721438Y-120435762D01*
X107864295Y-120435762D01*
X107959533Y-120483381D01*
X109054771Y-120102428D02*
X109626200Y-120102428D01*
X109340486Y-121102428D02*
X109340486Y-120102428D01*
X109959533Y-121102428D02*
X109959533Y-120102428D01*
X110388105Y-121102428D02*
X110388105Y-120578619D01*
X110340486Y-120483381D01*
X110245248Y-120435762D01*
X110102390Y-120435762D01*
X110007152Y-120483381D01*
X109959533Y-120531000D01*
X110864295Y-121102428D02*
X110864295Y-120435762D01*
X110864295Y-120102428D02*
X110816676Y-120150048D01*
X110864295Y-120197667D01*
X110911914Y-120150048D01*
X110864295Y-120102428D01*
X110864295Y-120197667D01*
X111292867Y-121054809D02*
X111388105Y-121102428D01*
X111578581Y-121102428D01*
X111673819Y-121054809D01*
X111721438Y-120959571D01*
X111721438Y-120911952D01*
X111673819Y-120816714D01*
X111578581Y-120769095D01*
X111435724Y-120769095D01*
X111340486Y-120721476D01*
X111292867Y-120626238D01*
X111292867Y-120578619D01*
X111340486Y-120483381D01*
X111435724Y-120435762D01*
X111578581Y-120435762D01*
X111673819Y-120483381D01*
X112864295Y-121054809D02*
X113007152Y-121102428D01*
X113245248Y-121102428D01*
X113340486Y-121054809D01*
X113388105Y-121007190D01*
X113435724Y-120911952D01*
X113435724Y-120816714D01*
X113388105Y-120721476D01*
X113340486Y-120673857D01*
X113245248Y-120626238D01*
X113054771Y-120578619D01*
X112959533Y-120531000D01*
X112911914Y-120483381D01*
X112864295Y-120388143D01*
X112864295Y-120292905D01*
X112911914Y-120197667D01*
X112959533Y-120150048D01*
X113054771Y-120102428D01*
X113292867Y-120102428D01*
X113435724Y-120150048D01*
X113864295Y-121102428D02*
X113864295Y-120435762D01*
X113864295Y-120102428D02*
X113816676Y-120150048D01*
X113864295Y-120197667D01*
X113911914Y-120150048D01*
X113864295Y-120102428D01*
X113864295Y-120197667D01*
X114769057Y-121102428D02*
X114769057Y-120102428D01*
X114769057Y-121054809D02*
X114673819Y-121102428D01*
X114483343Y-121102428D01*
X114388105Y-121054809D01*
X114340486Y-121007190D01*
X114292867Y-120911952D01*
X114292867Y-120626238D01*
X114340486Y-120531000D01*
X114388105Y-120483381D01*
X114483343Y-120435762D01*
X114673819Y-120435762D01*
X114769057Y-120483381D01*
X115626200Y-121054809D02*
X115530962Y-121102428D01*
X115340486Y-121102428D01*
X115245248Y-121054809D01*
X115197629Y-120959571D01*
X115197629Y-120578619D01*
X115245248Y-120483381D01*
X115340486Y-120435762D01*
X115530962Y-120435762D01*
X115626200Y-120483381D01*
X115673819Y-120578619D01*
X115673819Y-120673857D01*
X115197629Y-120769095D01*
X85278581Y-98202409D02*
X84945248Y-97726219D01*
X84707152Y-98202409D02*
X84707152Y-97202409D01*
X85088105Y-97202409D01*
X85183343Y-97250029D01*
X85230962Y-97297648D01*
X85278581Y-97392886D01*
X85278581Y-97535743D01*
X85230962Y-97630981D01*
X85183343Y-97678600D01*
X85088105Y-97726219D01*
X84707152Y-97726219D01*
X85707152Y-97678600D02*
X86040486Y-97678600D01*
X86183343Y-98202409D02*
X85707152Y-98202409D01*
X85707152Y-97202409D01*
X86183343Y-97202409D01*
X86945248Y-97678600D02*
X86611914Y-97678600D01*
X86611914Y-98202409D02*
X86611914Y-97202409D01*
X87088105Y-97202409D01*
X36011894Y-46821419D02*
X36773799Y-46821419D01*
X36392847Y-47202371D02*
X36392847Y-46440467D01*
X37726180Y-46202371D02*
X37249990Y-46202371D01*
X37202370Y-46678562D01*
X37249990Y-46630943D01*
X37345228Y-46583324D01*
X37583323Y-46583324D01*
X37678561Y-46630943D01*
X37726180Y-46678562D01*
X37773799Y-46773800D01*
X37773799Y-47011895D01*
X37726180Y-47107133D01*
X37678561Y-47154752D01*
X37583323Y-47202371D01*
X37345228Y-47202371D01*
X37249990Y-47154752D01*
X37202370Y-47107133D01*
X38107132Y-46535705D02*
X38345228Y-47202371D01*
X38583323Y-46535705D01*
X84511914Y-69321438D02*
X85273819Y-69321438D01*
X84892867Y-69702390D02*
X84892867Y-68940486D01*
X86226200Y-68702390D02*
X85750010Y-68702390D01*
X85702390Y-69178581D01*
X85750010Y-69130962D01*
X85845248Y-69083343D01*
X86083343Y-69083343D01*
X86178581Y-69130962D01*
X86226200Y-69178581D01*
X86273819Y-69273819D01*
X86273819Y-69511914D01*
X86226200Y-69607152D01*
X86178581Y-69654771D01*
X86083343Y-69702390D01*
X85845248Y-69702390D01*
X85750010Y-69654771D01*
X85702390Y-69607152D01*
X86607152Y-69035724D02*
X86845248Y-69702390D01*
X87083343Y-69035724D01*
X40435704Y-112602428D02*
X39959513Y-112602428D01*
X39959513Y-111602428D01*
X40769037Y-112078619D02*
X41102370Y-112078619D01*
X41245228Y-112602428D02*
X40769037Y-112602428D01*
X40769037Y-111602428D01*
X41245228Y-111602428D01*
X41673799Y-112602428D02*
X41673799Y-111602428D01*
X42007132Y-112316714D01*
X42340466Y-111602428D01*
X42340466Y-112602428D01*
X43578561Y-112602428D02*
X43578561Y-111602428D01*
X43578561Y-112078619D02*
X44149989Y-112078619D01*
X44149989Y-112602428D02*
X44149989Y-111602428D01*
X44578561Y-112316714D02*
X45054751Y-112316714D01*
X44483323Y-112602428D02*
X44816656Y-111602428D01*
X45149989Y-112602428D01*
X45483323Y-112602428D02*
X45483323Y-111602428D01*
X45911894Y-112554809D02*
X46054751Y-112602428D01*
X46292847Y-112602428D01*
X46388085Y-112554809D01*
X46435704Y-112507190D01*
X46483323Y-112411952D01*
X46483323Y-112316714D01*
X46435704Y-112221476D01*
X46388085Y-112173857D01*
X46292847Y-112126238D01*
X46102370Y-112078619D01*
X46007132Y-112031000D01*
X45959513Y-111983381D01*
X45911894Y-111888143D01*
X45911894Y-111792905D01*
X45959513Y-111697667D01*
X46007132Y-111650048D01*
X46102370Y-111602428D01*
X46340466Y-111602428D01*
X46483323Y-111650048D01*
X48149989Y-111602428D02*
X47673799Y-111602428D01*
X47626180Y-112078619D01*
X47673799Y-112031000D01*
X47769037Y-111983381D01*
X48007132Y-111983381D01*
X48102370Y-112031000D01*
X48149989Y-112078619D01*
X48197609Y-112173857D01*
X48197609Y-112411952D01*
X48149989Y-112507190D01*
X48102370Y-112554809D01*
X48007132Y-112602428D01*
X47769037Y-112602428D01*
X47673799Y-112554809D01*
X47626180Y-112507190D01*
X48816656Y-111602428D02*
X48911894Y-111602428D01*
X49007132Y-111650048D01*
X49054751Y-111697667D01*
X49102370Y-111792905D01*
X49149989Y-111983381D01*
X49149989Y-112221476D01*
X49102370Y-112411952D01*
X49054751Y-112507190D01*
X49007132Y-112554809D01*
X48911894Y-112602428D01*
X48816656Y-112602428D01*
X48721418Y-112554809D01*
X48673799Y-112507190D01*
X48626180Y-112411952D01*
X48578561Y-112221476D01*
X48578561Y-111983381D01*
X48626180Y-111792905D01*
X48673799Y-111697667D01*
X48721418Y-111650048D01*
X48816656Y-111602428D01*
X49578561Y-112221476D02*
X50340466Y-112221476D01*
X50816656Y-112602428D02*
X50816656Y-111602428D01*
X51197609Y-111602428D01*
X51292847Y-111650048D01*
X51340466Y-111697667D01*
X51388085Y-111792905D01*
X51388085Y-111935762D01*
X51340466Y-112031000D01*
X51292847Y-112078619D01*
X51197609Y-112126238D01*
X50816656Y-112126238D01*
X84850010Y-117702428D02*
X85040486Y-117702428D01*
X85135724Y-117750048D01*
X85230962Y-117845286D01*
X85278581Y-118035762D01*
X85278581Y-118369095D01*
X85230962Y-118559571D01*
X85135724Y-118654809D01*
X85040486Y-118702428D01*
X84850010Y-118702428D01*
X84754771Y-118654809D01*
X84659533Y-118559571D01*
X84611914Y-118369095D01*
X84611914Y-118035762D01*
X84659533Y-117845286D01*
X84754771Y-117750048D01*
X84850010Y-117702428D01*
X85707152Y-117702428D02*
X85707152Y-118511952D01*
X85754771Y-118607190D01*
X85802390Y-118654809D01*
X85897629Y-118702428D01*
X86088105Y-118702428D01*
X86183343Y-118654809D01*
X86230962Y-118607190D01*
X86278581Y-118511952D01*
X86278581Y-117702428D01*
X86611914Y-117702428D02*
X87183343Y-117702428D01*
X86897629Y-118702428D02*
X86897629Y-117702428D01*
X85278581Y-120702428D02*
X84945248Y-120226238D01*
X84707152Y-120702428D02*
X84707152Y-119702428D01*
X85088105Y-119702428D01*
X85183343Y-119750048D01*
X85230962Y-119797667D01*
X85278581Y-119892905D01*
X85278581Y-120035762D01*
X85230962Y-120131000D01*
X85183343Y-120178619D01*
X85088105Y-120226238D01*
X84707152Y-120226238D01*
X85707152Y-120178619D02*
X86040486Y-120178619D01*
X86183343Y-120702428D02*
X85707152Y-120702428D01*
X85707152Y-119702428D01*
X86183343Y-119702428D01*
X86945248Y-120178619D02*
X86611914Y-120178619D01*
X86611914Y-120702428D02*
X86611914Y-119702428D01*
X87088105Y-119702428D01*
X88935724Y-112602428D02*
X88459533Y-112602428D01*
X88459533Y-111602428D01*
X89269057Y-112078619D02*
X89602390Y-112078619D01*
X89745248Y-112602428D02*
X89269057Y-112602428D01*
X89269057Y-111602428D01*
X89745248Y-111602428D01*
X90173819Y-112602428D02*
X90173819Y-111602428D01*
X90507152Y-112316714D01*
X90840486Y-111602428D01*
X90840486Y-112602428D01*
X92078581Y-112602428D02*
X92078581Y-111602428D01*
X92078581Y-112078619D02*
X92650010Y-112078619D01*
X92650010Y-112602428D02*
X92650010Y-111602428D01*
X93078581Y-112316714D02*
X93554771Y-112316714D01*
X92983343Y-112602428D02*
X93316676Y-111602428D01*
X93650010Y-112602428D01*
X93983343Y-112602428D02*
X93983343Y-111602428D01*
X94411914Y-112554809D02*
X94554771Y-112602428D01*
X94792867Y-112602428D01*
X94888105Y-112554809D01*
X94935724Y-112507190D01*
X94983343Y-112411952D01*
X94983343Y-112316714D01*
X94935724Y-112221476D01*
X94888105Y-112173857D01*
X94792867Y-112126238D01*
X94602390Y-112078619D01*
X94507152Y-112031000D01*
X94459533Y-111983381D01*
X94411914Y-111888143D01*
X94411914Y-111792905D01*
X94459533Y-111697667D01*
X94507152Y-111650048D01*
X94602390Y-111602428D01*
X94840486Y-111602428D01*
X94983343Y-111650048D01*
X96650010Y-111602428D02*
X96173819Y-111602428D01*
X96126200Y-112078619D01*
X96173819Y-112031000D01*
X96269057Y-111983381D01*
X96507152Y-111983381D01*
X96602390Y-112031000D01*
X96650010Y-112078619D01*
X96697629Y-112173857D01*
X96697629Y-112411952D01*
X96650010Y-112507190D01*
X96602390Y-112554809D01*
X96507152Y-112602428D01*
X96269057Y-112602428D01*
X96173819Y-112554809D01*
X96126200Y-112507190D01*
X97316676Y-111602428D02*
X97411914Y-111602428D01*
X97507152Y-111650048D01*
X97554771Y-111697667D01*
X97602390Y-111792905D01*
X97650010Y-111983381D01*
X97650010Y-112221476D01*
X97602390Y-112411952D01*
X97554771Y-112507190D01*
X97507152Y-112554809D01*
X97411914Y-112602428D01*
X97316676Y-112602428D01*
X97221438Y-112554809D01*
X97173819Y-112507190D01*
X97126200Y-112411952D01*
X97078581Y-112221476D01*
X97078581Y-111983381D01*
X97126200Y-111792905D01*
X97173819Y-111697667D01*
X97221438Y-111650048D01*
X97316676Y-111602428D01*
X98078581Y-112221476D02*
X98840486Y-112221476D01*
X99316676Y-112602428D02*
X99316676Y-111602428D01*
X99697629Y-111602428D01*
X99792867Y-111650048D01*
X99840486Y-111697667D01*
X99888105Y-111792905D01*
X99888105Y-111935762D01*
X99840486Y-112031000D01*
X99792867Y-112078619D01*
X99697629Y-112126238D01*
X99316676Y-112126238D01*
D11*
X30507132Y-52664276D02*
X30554751Y-52711895D01*
X30602370Y-52854752D01*
X30602370Y-52949991D01*
X30554751Y-53092848D01*
X30459513Y-53188086D01*
X30364275Y-53235705D01*
X30173799Y-53283324D01*
X30030942Y-53283324D01*
X29840466Y-53235705D01*
X29745228Y-53188086D01*
X29649990Y-53092848D01*
X29602370Y-52949991D01*
X29602370Y-52854752D01*
X29649990Y-52711895D01*
X29697609Y-52664276D01*
X30602370Y-51807133D02*
X30078561Y-51807133D01*
X29983323Y-51854752D01*
X29935704Y-51949991D01*
X29935704Y-52140467D01*
X29983323Y-52235705D01*
X30554751Y-51807133D02*
X30602370Y-51902371D01*
X30602370Y-52140467D01*
X30554751Y-52235705D01*
X30459513Y-52283324D01*
X30364275Y-52283324D01*
X30269037Y-52235705D01*
X30221418Y-52140467D01*
X30221418Y-51902371D01*
X30173799Y-51807133D01*
X30602370Y-51330943D02*
X29602370Y-51330943D01*
X29983323Y-51330943D02*
X29935704Y-51235705D01*
X29935704Y-51045229D01*
X29983323Y-50949991D01*
X30030942Y-50902371D01*
X30126180Y-50854752D01*
X30411894Y-50854752D01*
X30507132Y-50902371D01*
X30554751Y-50949991D01*
X30602370Y-51045229D01*
X30602370Y-51235705D01*
X30554751Y-51330943D01*
X30602370Y-50283324D02*
X30554751Y-50378562D01*
X30459513Y-50426181D01*
X29602370Y-50426181D01*
X30554751Y-49521419D02*
X30602370Y-49616657D01*
X30602370Y-49807133D01*
X30554751Y-49902371D01*
X30459513Y-49949991D01*
X30078561Y-49949991D01*
X29983323Y-49902371D01*
X29935704Y-49807133D01*
X29935704Y-49616657D01*
X29983323Y-49521419D01*
X30078561Y-49473800D01*
X30173799Y-49473800D01*
X30269037Y-49949991D01*
X29602370Y-48426181D02*
X29602370Y-47854752D01*
X30602370Y-48140467D02*
X29602370Y-48140467D01*
X30602370Y-47521419D02*
X29935704Y-47521419D01*
X29602370Y-47521419D02*
X29649990Y-47569038D01*
X29697609Y-47521419D01*
X29649990Y-47473800D01*
X29602370Y-47521419D01*
X29697609Y-47521419D01*
X30554751Y-46664276D02*
X30602370Y-46759514D01*
X30602370Y-46949991D01*
X30554751Y-47045229D01*
X30459513Y-47092848D01*
X30078561Y-47092848D01*
X29983323Y-47045229D01*
X29935704Y-46949991D01*
X29935704Y-46759514D01*
X29983323Y-46664276D01*
X30078561Y-46616657D01*
X30173799Y-46616657D01*
X30269037Y-47092848D01*
D10*
X84850010Y-50202371D02*
X85040486Y-50202371D01*
X85135724Y-50249991D01*
X85230962Y-50345229D01*
X85278581Y-50535705D01*
X85278581Y-50869038D01*
X85230962Y-51059514D01*
X85135724Y-51154752D01*
X85040486Y-51202371D01*
X84850010Y-51202371D01*
X84754771Y-51154752D01*
X84659533Y-51059514D01*
X84611914Y-50869038D01*
X84611914Y-50535705D01*
X84659533Y-50345229D01*
X84754771Y-50249991D01*
X84850010Y-50202371D01*
X85707152Y-50202371D02*
X85707152Y-51011895D01*
X85754771Y-51107133D01*
X85802390Y-51154752D01*
X85897629Y-51202371D01*
X86088105Y-51202371D01*
X86183343Y-51154752D01*
X86230962Y-51107133D01*
X86278581Y-51011895D01*
X86278581Y-50202371D01*
X86611914Y-50202371D02*
X87183343Y-50202371D01*
X86897629Y-51202371D02*
X86897629Y-50202371D01*
X36588085Y-70750010D02*
X36492847Y-70702390D01*
X36349990Y-70702390D01*
X36207132Y-70750010D01*
X36111894Y-70845248D01*
X36064275Y-70940486D01*
X36016656Y-71130962D01*
X36016656Y-71273819D01*
X36064275Y-71464295D01*
X36111894Y-71559533D01*
X36207132Y-71654771D01*
X36349990Y-71702390D01*
X36445228Y-71702390D01*
X36588085Y-71654771D01*
X36635704Y-71607152D01*
X36635704Y-71273819D01*
X36445228Y-71273819D01*
X37064275Y-71702390D02*
X37064275Y-70702390D01*
X37635704Y-71702390D01*
X37635704Y-70702390D01*
X38111894Y-71702390D02*
X38111894Y-70702390D01*
X38349990Y-70702390D01*
X38492847Y-70750010D01*
X38588085Y-70845248D01*
X38635704Y-70940486D01*
X38683323Y-71130962D01*
X38683323Y-71273819D01*
X38635704Y-71464295D01*
X38588085Y-71559533D01*
X38492847Y-71654771D01*
X38349990Y-71702390D01*
X38111894Y-71702390D01*
D11*
X79007152Y-97664314D02*
X79054771Y-97711933D01*
X79102390Y-97854790D01*
X79102390Y-97950029D01*
X79054771Y-98092886D01*
X78959533Y-98188124D01*
X78864295Y-98235743D01*
X78673819Y-98283362D01*
X78530962Y-98283362D01*
X78340486Y-98235743D01*
X78245248Y-98188124D01*
X78150010Y-98092886D01*
X78102390Y-97950029D01*
X78102390Y-97854790D01*
X78150010Y-97711933D01*
X78197629Y-97664314D01*
X79102390Y-96807171D02*
X78578581Y-96807171D01*
X78483343Y-96854790D01*
X78435724Y-96950029D01*
X78435724Y-97140505D01*
X78483343Y-97235743D01*
X79054771Y-96807171D02*
X79102390Y-96902409D01*
X79102390Y-97140505D01*
X79054771Y-97235743D01*
X78959533Y-97283362D01*
X78864295Y-97283362D01*
X78769057Y-97235743D01*
X78721438Y-97140505D01*
X78721438Y-96902409D01*
X78673819Y-96807171D01*
X79102390Y-96330981D02*
X78102390Y-96330981D01*
X78483343Y-96330981D02*
X78435724Y-96235743D01*
X78435724Y-96045267D01*
X78483343Y-95950029D01*
X78530962Y-95902409D01*
X78626200Y-95854790D01*
X78911914Y-95854790D01*
X79007152Y-95902409D01*
X79054771Y-95950029D01*
X79102390Y-96045267D01*
X79102390Y-96235743D01*
X79054771Y-96330981D01*
X79102390Y-95283362D02*
X79054771Y-95378600D01*
X78959533Y-95426219D01*
X78102390Y-95426219D01*
X79054771Y-94521457D02*
X79102390Y-94616695D01*
X79102390Y-94807171D01*
X79054771Y-94902409D01*
X78959533Y-94950029D01*
X78578581Y-94950029D01*
X78483343Y-94902409D01*
X78435724Y-94807171D01*
X78435724Y-94616695D01*
X78483343Y-94521457D01*
X78578581Y-94473838D01*
X78673819Y-94473838D01*
X78769057Y-94950029D01*
X78102390Y-93426219D02*
X78102390Y-92854790D01*
X79102390Y-93140505D02*
X78102390Y-93140505D01*
X79102390Y-92521457D02*
X78435724Y-92521457D01*
X78102390Y-92521457D02*
X78150010Y-92569076D01*
X78197629Y-92521457D01*
X78150010Y-92473838D01*
X78102390Y-92521457D01*
X78197629Y-92521457D01*
X79054771Y-91664314D02*
X79102390Y-91759552D01*
X79102390Y-91950029D01*
X79054771Y-92045267D01*
X78959533Y-92092886D01*
X78578581Y-92092886D01*
X78483343Y-92045267D01*
X78435724Y-91950029D01*
X78435724Y-91759552D01*
X78483343Y-91664314D01*
X78578581Y-91616695D01*
X78673819Y-91616695D01*
X78769057Y-92092886D01*
X79007152Y-52664276D02*
X79054771Y-52711895D01*
X79102390Y-52854752D01*
X79102390Y-52949991D01*
X79054771Y-53092848D01*
X78959533Y-53188086D01*
X78864295Y-53235705D01*
X78673819Y-53283324D01*
X78530962Y-53283324D01*
X78340486Y-53235705D01*
X78245248Y-53188086D01*
X78150010Y-53092848D01*
X78102390Y-52949991D01*
X78102390Y-52854752D01*
X78150010Y-52711895D01*
X78197629Y-52664276D01*
X79102390Y-51807133D02*
X78578581Y-51807133D01*
X78483343Y-51854752D01*
X78435724Y-51949991D01*
X78435724Y-52140467D01*
X78483343Y-52235705D01*
X79054771Y-51807133D02*
X79102390Y-51902371D01*
X79102390Y-52140467D01*
X79054771Y-52235705D01*
X78959533Y-52283324D01*
X78864295Y-52283324D01*
X78769057Y-52235705D01*
X78721438Y-52140467D01*
X78721438Y-51902371D01*
X78673819Y-51807133D01*
X79102390Y-51330943D02*
X78102390Y-51330943D01*
X78483343Y-51330943D02*
X78435724Y-51235705D01*
X78435724Y-51045229D01*
X78483343Y-50949991D01*
X78530962Y-50902371D01*
X78626200Y-50854752D01*
X78911914Y-50854752D01*
X79007152Y-50902371D01*
X79054771Y-50949991D01*
X79102390Y-51045229D01*
X79102390Y-51235705D01*
X79054771Y-51330943D01*
X79102390Y-50283324D02*
X79054771Y-50378562D01*
X78959533Y-50426181D01*
X78102390Y-50426181D01*
X79054771Y-49521419D02*
X79102390Y-49616657D01*
X79102390Y-49807133D01*
X79054771Y-49902371D01*
X78959533Y-49949991D01*
X78578581Y-49949991D01*
X78483343Y-49902371D01*
X78435724Y-49807133D01*
X78435724Y-49616657D01*
X78483343Y-49521419D01*
X78578581Y-49473800D01*
X78673819Y-49473800D01*
X78769057Y-49949991D01*
X78102390Y-48426181D02*
X78102390Y-47854752D01*
X79102390Y-48140467D02*
X78102390Y-48140467D01*
X79102390Y-47521419D02*
X78435724Y-47521419D01*
X78102390Y-47521419D02*
X78150010Y-47569038D01*
X78197629Y-47521419D01*
X78150010Y-47473800D01*
X78102390Y-47521419D01*
X78197629Y-47521419D01*
X79054771Y-46664276D02*
X79102390Y-46759514D01*
X79102390Y-46949991D01*
X79054771Y-47045229D01*
X78959533Y-47092848D01*
X78578581Y-47092848D01*
X78483343Y-47045229D01*
X78435724Y-46949991D01*
X78435724Y-46759514D01*
X78483343Y-46664276D01*
X78578581Y-46616657D01*
X78673819Y-46616657D01*
X78769057Y-47092848D01*
D10*
X36011894Y-91821457D02*
X36773799Y-91821457D01*
X36392847Y-92202409D02*
X36392847Y-91440505D01*
X37726180Y-91202409D02*
X37249990Y-91202409D01*
X37202370Y-91678600D01*
X37249990Y-91630981D01*
X37345228Y-91583362D01*
X37583323Y-91583362D01*
X37678561Y-91630981D01*
X37726180Y-91678600D01*
X37773799Y-91773838D01*
X37773799Y-92011933D01*
X37726180Y-92107171D01*
X37678561Y-92154790D01*
X37583323Y-92202409D01*
X37345228Y-92202409D01*
X37249990Y-92154790D01*
X37202370Y-92107171D01*
X38107132Y-91535743D02*
X38345228Y-92202409D01*
X38583323Y-91535743D01*
X96626200Y-53316657D02*
X97102390Y-53316657D01*
X96530962Y-53602371D02*
X96864295Y-52602371D01*
X97197629Y-53602371D01*
X97673819Y-53602371D02*
X97578581Y-53554752D01*
X97530962Y-53459514D01*
X97530962Y-52602371D01*
X98197629Y-53602371D02*
X98102390Y-53554752D01*
X98054771Y-53459514D01*
X98054771Y-52602371D01*
X99911914Y-53507133D02*
X99864295Y-53554752D01*
X99721438Y-53602371D01*
X99626200Y-53602371D01*
X99483343Y-53554752D01*
X99388105Y-53459514D01*
X99340486Y-53364276D01*
X99292867Y-53173800D01*
X99292867Y-53030943D01*
X99340486Y-52840467D01*
X99388105Y-52745229D01*
X99483343Y-52649991D01*
X99626200Y-52602371D01*
X99721438Y-52602371D01*
X99864295Y-52649991D01*
X99911914Y-52697610D01*
X100483343Y-53602371D02*
X100388105Y-53554752D01*
X100340486Y-53507133D01*
X100292867Y-53411895D01*
X100292867Y-53126181D01*
X100340486Y-53030943D01*
X100388105Y-52983324D01*
X100483343Y-52935705D01*
X100626200Y-52935705D01*
X100721438Y-52983324D01*
X100769057Y-53030943D01*
X100816676Y-53126181D01*
X100816676Y-53411895D01*
X100769057Y-53507133D01*
X100721438Y-53554752D01*
X100626200Y-53602371D01*
X100483343Y-53602371D01*
X101245248Y-53602371D02*
X101245248Y-52935705D01*
X101245248Y-53030943D02*
X101292867Y-52983324D01*
X101388105Y-52935705D01*
X101530962Y-52935705D01*
X101626200Y-52983324D01*
X101673819Y-53078562D01*
X101673819Y-53602371D01*
X101673819Y-53078562D02*
X101721438Y-52983324D01*
X101816676Y-52935705D01*
X101959533Y-52935705D01*
X102054771Y-52983324D01*
X102102390Y-53078562D01*
X102102390Y-53602371D01*
X102578581Y-52935705D02*
X102578581Y-53935705D01*
X102578581Y-52983324D02*
X102673819Y-52935705D01*
X102864295Y-52935705D01*
X102959533Y-52983324D01*
X103007152Y-53030943D01*
X103054771Y-53126181D01*
X103054771Y-53411895D01*
X103007152Y-53507133D01*
X102959533Y-53554752D01*
X102864295Y-53602371D01*
X102673819Y-53602371D01*
X102578581Y-53554752D01*
X103626200Y-53602371D02*
X103530962Y-53554752D01*
X103483343Y-53507133D01*
X103435724Y-53411895D01*
X103435724Y-53126181D01*
X103483343Y-53030943D01*
X103530962Y-52983324D01*
X103626200Y-52935705D01*
X103769057Y-52935705D01*
X103864295Y-52983324D01*
X103911914Y-53030943D01*
X103959533Y-53126181D01*
X103959533Y-53411895D01*
X103911914Y-53507133D01*
X103864295Y-53554752D01*
X103769057Y-53602371D01*
X103626200Y-53602371D01*
X104388105Y-52935705D02*
X104388105Y-53602371D01*
X104388105Y-53030943D02*
X104435724Y-52983324D01*
X104530962Y-52935705D01*
X104673819Y-52935705D01*
X104769057Y-52983324D01*
X104816676Y-53078562D01*
X104816676Y-53602371D01*
X105673819Y-53554752D02*
X105578581Y-53602371D01*
X105388105Y-53602371D01*
X105292867Y-53554752D01*
X105245248Y-53459514D01*
X105245248Y-53078562D01*
X105292867Y-52983324D01*
X105388105Y-52935705D01*
X105578581Y-52935705D01*
X105673819Y-52983324D01*
X105721438Y-53078562D01*
X105721438Y-53173800D01*
X105245248Y-53269038D01*
X106150010Y-52935705D02*
X106150010Y-53602371D01*
X106150010Y-53030943D02*
X106197629Y-52983324D01*
X106292867Y-52935705D01*
X106435724Y-52935705D01*
X106530962Y-52983324D01*
X106578581Y-53078562D01*
X106578581Y-53602371D01*
X106911914Y-52935705D02*
X107292867Y-52935705D01*
X107054771Y-52602371D02*
X107054771Y-53459514D01*
X107102390Y-53554752D01*
X107197629Y-53602371D01*
X107292867Y-53602371D01*
X107578581Y-53554752D02*
X107673819Y-53602371D01*
X107864295Y-53602371D01*
X107959533Y-53554752D01*
X108007152Y-53459514D01*
X108007152Y-53411895D01*
X107959533Y-53316657D01*
X107864295Y-53269038D01*
X107721438Y-53269038D01*
X107626200Y-53221419D01*
X107578581Y-53126181D01*
X107578581Y-53078562D01*
X107626200Y-52983324D01*
X107721438Y-52935705D01*
X107864295Y-52935705D01*
X107959533Y-52983324D01*
X109054771Y-52602371D02*
X109626200Y-52602371D01*
X109340486Y-53602371D02*
X109340486Y-52602371D01*
X109959533Y-53602371D02*
X109959533Y-52602371D01*
X110388105Y-53602371D02*
X110388105Y-53078562D01*
X110340486Y-52983324D01*
X110245248Y-52935705D01*
X110102390Y-52935705D01*
X110007152Y-52983324D01*
X109959533Y-53030943D01*
X110864295Y-53602371D02*
X110864295Y-52935705D01*
X110864295Y-52602371D02*
X110816676Y-52649991D01*
X110864295Y-52697610D01*
X110911914Y-52649991D01*
X110864295Y-52602371D01*
X110864295Y-52697610D01*
X111292867Y-53554752D02*
X111388105Y-53602371D01*
X111578581Y-53602371D01*
X111673819Y-53554752D01*
X111721438Y-53459514D01*
X111721438Y-53411895D01*
X111673819Y-53316657D01*
X111578581Y-53269038D01*
X111435724Y-53269038D01*
X111340486Y-53221419D01*
X111292867Y-53126181D01*
X111292867Y-53078562D01*
X111340486Y-52983324D01*
X111435724Y-52935705D01*
X111578581Y-52935705D01*
X111673819Y-52983324D01*
X112864295Y-53554752D02*
X113007152Y-53602371D01*
X113245248Y-53602371D01*
X113340486Y-53554752D01*
X113388105Y-53507133D01*
X113435724Y-53411895D01*
X113435724Y-53316657D01*
X113388105Y-53221419D01*
X113340486Y-53173800D01*
X113245248Y-53126181D01*
X113054771Y-53078562D01*
X112959533Y-53030943D01*
X112911914Y-52983324D01*
X112864295Y-52888086D01*
X112864295Y-52792848D01*
X112911914Y-52697610D01*
X112959533Y-52649991D01*
X113054771Y-52602371D01*
X113292867Y-52602371D01*
X113435724Y-52649991D01*
X113864295Y-53602371D02*
X113864295Y-52935705D01*
X113864295Y-52602371D02*
X113816676Y-52649991D01*
X113864295Y-52697610D01*
X113911914Y-52649991D01*
X113864295Y-52602371D01*
X113864295Y-52697610D01*
X114769057Y-53602371D02*
X114769057Y-52602371D01*
X114769057Y-53554752D02*
X114673819Y-53602371D01*
X114483343Y-53602371D01*
X114388105Y-53554752D01*
X114340486Y-53507133D01*
X114292867Y-53411895D01*
X114292867Y-53126181D01*
X114340486Y-53030943D01*
X114388105Y-52983324D01*
X114483343Y-52935705D01*
X114673819Y-52935705D01*
X114769057Y-52983324D01*
X115626200Y-53554752D02*
X115530962Y-53602371D01*
X115340486Y-53602371D01*
X115245248Y-53554752D01*
X115197629Y-53459514D01*
X115197629Y-53078562D01*
X115245248Y-52983324D01*
X115340486Y-52935705D01*
X115530962Y-52935705D01*
X115626200Y-52983324D01*
X115673819Y-53078562D01*
X115673819Y-53173800D01*
X115197629Y-53269038D01*
X88935724Y-90102409D02*
X88459533Y-90102409D01*
X88459533Y-89102409D01*
X89269057Y-89578600D02*
X89602390Y-89578600D01*
X89745248Y-90102409D02*
X89269057Y-90102409D01*
X89269057Y-89102409D01*
X89745248Y-89102409D01*
X90173819Y-90102409D02*
X90173819Y-89102409D01*
X90507152Y-89816695D01*
X90840486Y-89102409D01*
X90840486Y-90102409D01*
X92078581Y-90102409D02*
X92078581Y-89102409D01*
X92078581Y-89578600D02*
X92650010Y-89578600D01*
X92650010Y-90102409D02*
X92650010Y-89102409D01*
X93078581Y-89816695D02*
X93554771Y-89816695D01*
X92983343Y-90102409D02*
X93316676Y-89102409D01*
X93650010Y-90102409D01*
X93983343Y-90102409D02*
X93983343Y-89102409D01*
X94411914Y-90054790D02*
X94554771Y-90102409D01*
X94792867Y-90102409D01*
X94888105Y-90054790D01*
X94935724Y-90007171D01*
X94983343Y-89911933D01*
X94983343Y-89816695D01*
X94935724Y-89721457D01*
X94888105Y-89673838D01*
X94792867Y-89626219D01*
X94602390Y-89578600D01*
X94507152Y-89530981D01*
X94459533Y-89483362D01*
X94411914Y-89388124D01*
X94411914Y-89292886D01*
X94459533Y-89197648D01*
X94507152Y-89150029D01*
X94602390Y-89102409D01*
X94840486Y-89102409D01*
X94983343Y-89150029D01*
X96650010Y-89102409D02*
X96173819Y-89102409D01*
X96126200Y-89578600D01*
X96173819Y-89530981D01*
X96269057Y-89483362D01*
X96507152Y-89483362D01*
X96602390Y-89530981D01*
X96650010Y-89578600D01*
X96697629Y-89673838D01*
X96697629Y-89911933D01*
X96650010Y-90007171D01*
X96602390Y-90054790D01*
X96507152Y-90102409D01*
X96269057Y-90102409D01*
X96173819Y-90054790D01*
X96126200Y-90007171D01*
X97316676Y-89102409D02*
X97411914Y-89102409D01*
X97507152Y-89150029D01*
X97554771Y-89197648D01*
X97602390Y-89292886D01*
X97650010Y-89483362D01*
X97650010Y-89721457D01*
X97602390Y-89911933D01*
X97554771Y-90007171D01*
X97507152Y-90054790D01*
X97411914Y-90102409D01*
X97316676Y-90102409D01*
X97221438Y-90054790D01*
X97173819Y-90007171D01*
X97126200Y-89911933D01*
X97078581Y-89721457D01*
X97078581Y-89483362D01*
X97126200Y-89292886D01*
X97173819Y-89197648D01*
X97221438Y-89150029D01*
X97316676Y-89102409D01*
X98078581Y-89721457D02*
X98840486Y-89721457D01*
X99316676Y-90102409D02*
X99316676Y-89102409D01*
X99697629Y-89102409D01*
X99792867Y-89150029D01*
X99840486Y-89197648D01*
X99888105Y-89292886D01*
X99888105Y-89435743D01*
X99840486Y-89530981D01*
X99792867Y-89578600D01*
X99697629Y-89626219D01*
X99316676Y-89626219D01*
D11*
X30507132Y-97664314D02*
X30554751Y-97711933D01*
X30602370Y-97854790D01*
X30602370Y-97950029D01*
X30554751Y-98092886D01*
X30459513Y-98188124D01*
X30364275Y-98235743D01*
X30173799Y-98283362D01*
X30030942Y-98283362D01*
X29840466Y-98235743D01*
X29745228Y-98188124D01*
X29649990Y-98092886D01*
X29602370Y-97950029D01*
X29602370Y-97854790D01*
X29649990Y-97711933D01*
X29697609Y-97664314D01*
X30602370Y-96807171D02*
X30078561Y-96807171D01*
X29983323Y-96854790D01*
X29935704Y-96950029D01*
X29935704Y-97140505D01*
X29983323Y-97235743D01*
X30554751Y-96807171D02*
X30602370Y-96902409D01*
X30602370Y-97140505D01*
X30554751Y-97235743D01*
X30459513Y-97283362D01*
X30364275Y-97283362D01*
X30269037Y-97235743D01*
X30221418Y-97140505D01*
X30221418Y-96902409D01*
X30173799Y-96807171D01*
X30602370Y-96330981D02*
X29602370Y-96330981D01*
X29983323Y-96330981D02*
X29935704Y-96235743D01*
X29935704Y-96045267D01*
X29983323Y-95950029D01*
X30030942Y-95902409D01*
X30126180Y-95854790D01*
X30411894Y-95854790D01*
X30507132Y-95902409D01*
X30554751Y-95950029D01*
X30602370Y-96045267D01*
X30602370Y-96235743D01*
X30554751Y-96330981D01*
X30602370Y-95283362D02*
X30554751Y-95378600D01*
X30459513Y-95426219D01*
X29602370Y-95426219D01*
X30554751Y-94521457D02*
X30602370Y-94616695D01*
X30602370Y-94807171D01*
X30554751Y-94902409D01*
X30459513Y-94950029D01*
X30078561Y-94950029D01*
X29983323Y-94902409D01*
X29935704Y-94807171D01*
X29935704Y-94616695D01*
X29983323Y-94521457D01*
X30078561Y-94473838D01*
X30173799Y-94473838D01*
X30269037Y-94950029D01*
X29602370Y-93426219D02*
X29602370Y-92854790D01*
X30602370Y-93140505D02*
X29602370Y-93140505D01*
X30602370Y-92521457D02*
X29935704Y-92521457D01*
X29602370Y-92521457D02*
X29649990Y-92569076D01*
X29697609Y-92521457D01*
X29649990Y-92473838D01*
X29602370Y-92521457D01*
X29697609Y-92521457D01*
X30554751Y-91664314D02*
X30602370Y-91759552D01*
X30602370Y-91950029D01*
X30554751Y-92045267D01*
X30459513Y-92092886D01*
X30078561Y-92092886D01*
X29983323Y-92045267D01*
X29935704Y-91950029D01*
X29935704Y-91759552D01*
X29983323Y-91664314D01*
X30078561Y-91616695D01*
X30173799Y-91616695D01*
X30269037Y-92092886D01*
D10*
X85278581Y-53202371D02*
X84945248Y-52726181D01*
X84707152Y-53202371D02*
X84707152Y-52202371D01*
X85088105Y-52202371D01*
X85183343Y-52249991D01*
X85230962Y-52297610D01*
X85278581Y-52392848D01*
X85278581Y-52535705D01*
X85230962Y-52630943D01*
X85183343Y-52678562D01*
X85088105Y-52726181D01*
X84707152Y-52726181D01*
X85707152Y-52678562D02*
X86040486Y-52678562D01*
X86183343Y-53202371D02*
X85707152Y-53202371D01*
X85707152Y-52202371D01*
X86183343Y-52202371D01*
X86945248Y-52678562D02*
X86611914Y-52678562D01*
X86611914Y-53202371D02*
X86611914Y-52202371D01*
X87088105Y-52202371D01*
D11*
X30507132Y-75164295D02*
X30554751Y-75211914D01*
X30602370Y-75354771D01*
X30602370Y-75450010D01*
X30554751Y-75592867D01*
X30459513Y-75688105D01*
X30364275Y-75735724D01*
X30173799Y-75783343D01*
X30030942Y-75783343D01*
X29840466Y-75735724D01*
X29745228Y-75688105D01*
X29649990Y-75592867D01*
X29602370Y-75450010D01*
X29602370Y-75354771D01*
X29649990Y-75211914D01*
X29697609Y-75164295D01*
X30602370Y-74307152D02*
X30078561Y-74307152D01*
X29983323Y-74354771D01*
X29935704Y-74450010D01*
X29935704Y-74640486D01*
X29983323Y-74735724D01*
X30554751Y-74307152D02*
X30602370Y-74402390D01*
X30602370Y-74640486D01*
X30554751Y-74735724D01*
X30459513Y-74783343D01*
X30364275Y-74783343D01*
X30269037Y-74735724D01*
X30221418Y-74640486D01*
X30221418Y-74402390D01*
X30173799Y-74307152D01*
X30602370Y-73830962D02*
X29602370Y-73830962D01*
X29983323Y-73830962D02*
X29935704Y-73735724D01*
X29935704Y-73545248D01*
X29983323Y-73450010D01*
X30030942Y-73402390D01*
X30126180Y-73354771D01*
X30411894Y-73354771D01*
X30507132Y-73402390D01*
X30554751Y-73450010D01*
X30602370Y-73545248D01*
X30602370Y-73735724D01*
X30554751Y-73830962D01*
X30602370Y-72783343D02*
X30554751Y-72878581D01*
X30459513Y-72926200D01*
X29602370Y-72926200D01*
X30554751Y-72021438D02*
X30602370Y-72116676D01*
X30602370Y-72307152D01*
X30554751Y-72402390D01*
X30459513Y-72450010D01*
X30078561Y-72450010D01*
X29983323Y-72402390D01*
X29935704Y-72307152D01*
X29935704Y-72116676D01*
X29983323Y-72021438D01*
X30078561Y-71973819D01*
X30173799Y-71973819D01*
X30269037Y-72450010D01*
X29602370Y-70926200D02*
X29602370Y-70354771D01*
X30602370Y-70640486D02*
X29602370Y-70640486D01*
X30602370Y-70021438D02*
X29935704Y-70021438D01*
X29602370Y-70021438D02*
X29649990Y-70069057D01*
X29697609Y-70021438D01*
X29649990Y-69973819D01*
X29602370Y-70021438D01*
X29697609Y-70021438D01*
X30554751Y-69164295D02*
X30602370Y-69259533D01*
X30602370Y-69450010D01*
X30554751Y-69545248D01*
X30459513Y-69592867D01*
X30078561Y-69592867D01*
X29983323Y-69545248D01*
X29935704Y-69450010D01*
X29935704Y-69259533D01*
X29983323Y-69164295D01*
X30078561Y-69116676D01*
X30173799Y-69116676D01*
X30269037Y-69592867D01*
X79007152Y-120164333D02*
X79054771Y-120211952D01*
X79102390Y-120354809D01*
X79102390Y-120450048D01*
X79054771Y-120592905D01*
X78959533Y-120688143D01*
X78864295Y-120735762D01*
X78673819Y-120783381D01*
X78530962Y-120783381D01*
X78340486Y-120735762D01*
X78245248Y-120688143D01*
X78150010Y-120592905D01*
X78102390Y-120450048D01*
X78102390Y-120354809D01*
X78150010Y-120211952D01*
X78197629Y-120164333D01*
X79102390Y-119307190D02*
X78578581Y-119307190D01*
X78483343Y-119354809D01*
X78435724Y-119450048D01*
X78435724Y-119640524D01*
X78483343Y-119735762D01*
X79054771Y-119307190D02*
X79102390Y-119402428D01*
X79102390Y-119640524D01*
X79054771Y-119735762D01*
X78959533Y-119783381D01*
X78864295Y-119783381D01*
X78769057Y-119735762D01*
X78721438Y-119640524D01*
X78721438Y-119402428D01*
X78673819Y-119307190D01*
X79102390Y-118831000D02*
X78102390Y-118831000D01*
X78483343Y-118831000D02*
X78435724Y-118735762D01*
X78435724Y-118545286D01*
X78483343Y-118450048D01*
X78530962Y-118402428D01*
X78626200Y-118354809D01*
X78911914Y-118354809D01*
X79007152Y-118402428D01*
X79054771Y-118450048D01*
X79102390Y-118545286D01*
X79102390Y-118735762D01*
X79054771Y-118831000D01*
X79102390Y-117783381D02*
X79054771Y-117878619D01*
X78959533Y-117926238D01*
X78102390Y-117926238D01*
X79054771Y-117021476D02*
X79102390Y-117116714D01*
X79102390Y-117307190D01*
X79054771Y-117402428D01*
X78959533Y-117450048D01*
X78578581Y-117450048D01*
X78483343Y-117402428D01*
X78435724Y-117307190D01*
X78435724Y-117116714D01*
X78483343Y-117021476D01*
X78578581Y-116973857D01*
X78673819Y-116973857D01*
X78769057Y-117450048D01*
X78102390Y-115926238D02*
X78102390Y-115354809D01*
X79102390Y-115640524D02*
X78102390Y-115640524D01*
X79102390Y-115021476D02*
X78435724Y-115021476D01*
X78102390Y-115021476D02*
X78150010Y-115069095D01*
X78197629Y-115021476D01*
X78150010Y-114973857D01*
X78102390Y-115021476D01*
X78197629Y-115021476D01*
X79054771Y-114164333D02*
X79102390Y-114259571D01*
X79102390Y-114450048D01*
X79054771Y-114545286D01*
X78959533Y-114592905D01*
X78578581Y-114592905D01*
X78483343Y-114545286D01*
X78435724Y-114450048D01*
X78435724Y-114259571D01*
X78483343Y-114164333D01*
X78578581Y-114116714D01*
X78673819Y-114116714D01*
X78769057Y-114592905D01*
D10*
X84511914Y-46821419D02*
X85273819Y-46821419D01*
X84892867Y-47202371D02*
X84892867Y-46440467D01*
X86226200Y-46202371D02*
X85750010Y-46202371D01*
X85702390Y-46678562D01*
X85750010Y-46630943D01*
X85845248Y-46583324D01*
X86083343Y-46583324D01*
X86178581Y-46630943D01*
X86226200Y-46678562D01*
X86273819Y-46773800D01*
X86273819Y-47011895D01*
X86226200Y-47107133D01*
X86178581Y-47154752D01*
X86083343Y-47202371D01*
X85845248Y-47202371D01*
X85750010Y-47154752D01*
X85702390Y-47107133D01*
X86607152Y-46535705D02*
X86845248Y-47202371D01*
X87083343Y-46535705D01*
X85088105Y-70750010D02*
X84992867Y-70702390D01*
X84850010Y-70702390D01*
X84707152Y-70750010D01*
X84611914Y-70845248D01*
X84564295Y-70940486D01*
X84516676Y-71130962D01*
X84516676Y-71273819D01*
X84564295Y-71464295D01*
X84611914Y-71559533D01*
X84707152Y-71654771D01*
X84850010Y-71702390D01*
X84945248Y-71702390D01*
X85088105Y-71654771D01*
X85135724Y-71607152D01*
X85135724Y-71273819D01*
X84945248Y-71273819D01*
X85564295Y-71702390D02*
X85564295Y-70702390D01*
X86135724Y-71702390D01*
X86135724Y-70702390D01*
X86611914Y-71702390D02*
X86611914Y-70702390D01*
X86850010Y-70702390D01*
X86992867Y-70750010D01*
X87088105Y-70845248D01*
X87135724Y-70940486D01*
X87183343Y-71130962D01*
X87183343Y-71273819D01*
X87135724Y-71464295D01*
X87088105Y-71559533D01*
X86992867Y-71654771D01*
X86850010Y-71702390D01*
X86611914Y-71702390D01*
X36778561Y-53202371D02*
X36445228Y-52726181D01*
X36207132Y-53202371D02*
X36207132Y-52202371D01*
X36588085Y-52202371D01*
X36683323Y-52249991D01*
X36730942Y-52297610D01*
X36778561Y-52392848D01*
X36778561Y-52535705D01*
X36730942Y-52630943D01*
X36683323Y-52678562D01*
X36588085Y-52726181D01*
X36207132Y-52726181D01*
X37207132Y-52678562D02*
X37540466Y-52678562D01*
X37683323Y-53202371D02*
X37207132Y-53202371D01*
X37207132Y-52202371D01*
X37683323Y-52202371D01*
X38445228Y-52678562D02*
X38111894Y-52678562D01*
X38111894Y-53202371D02*
X38111894Y-52202371D01*
X38588085Y-52202371D01*
X96626200Y-75816676D02*
X97102390Y-75816676D01*
X96530962Y-76102390D02*
X96864295Y-75102390D01*
X97197629Y-76102390D01*
X97673819Y-76102390D02*
X97578581Y-76054771D01*
X97530962Y-75959533D01*
X97530962Y-75102390D01*
X98197629Y-76102390D02*
X98102390Y-76054771D01*
X98054771Y-75959533D01*
X98054771Y-75102390D01*
X99911914Y-76007152D02*
X99864295Y-76054771D01*
X99721438Y-76102390D01*
X99626200Y-76102390D01*
X99483343Y-76054771D01*
X99388105Y-75959533D01*
X99340486Y-75864295D01*
X99292867Y-75673819D01*
X99292867Y-75530962D01*
X99340486Y-75340486D01*
X99388105Y-75245248D01*
X99483343Y-75150010D01*
X99626200Y-75102390D01*
X99721438Y-75102390D01*
X99864295Y-75150010D01*
X99911914Y-75197629D01*
X100483343Y-76102390D02*
X100388105Y-76054771D01*
X100340486Y-76007152D01*
X100292867Y-75911914D01*
X100292867Y-75626200D01*
X100340486Y-75530962D01*
X100388105Y-75483343D01*
X100483343Y-75435724D01*
X100626200Y-75435724D01*
X100721438Y-75483343D01*
X100769057Y-75530962D01*
X100816676Y-75626200D01*
X100816676Y-75911914D01*
X100769057Y-76007152D01*
X100721438Y-76054771D01*
X100626200Y-76102390D01*
X100483343Y-76102390D01*
X101245248Y-76102390D02*
X101245248Y-75435724D01*
X101245248Y-75530962D02*
X101292867Y-75483343D01*
X101388105Y-75435724D01*
X101530962Y-75435724D01*
X101626200Y-75483343D01*
X101673819Y-75578581D01*
X101673819Y-76102390D01*
X101673819Y-75578581D02*
X101721438Y-75483343D01*
X101816676Y-75435724D01*
X101959533Y-75435724D01*
X102054771Y-75483343D01*
X102102390Y-75578581D01*
X102102390Y-76102390D01*
X102578581Y-75435724D02*
X102578581Y-76435724D01*
X102578581Y-75483343D02*
X102673819Y-75435724D01*
X102864295Y-75435724D01*
X102959533Y-75483343D01*
X103007152Y-75530962D01*
X103054771Y-75626200D01*
X103054771Y-75911914D01*
X103007152Y-76007152D01*
X102959533Y-76054771D01*
X102864295Y-76102390D01*
X102673819Y-76102390D01*
X102578581Y-76054771D01*
X103626200Y-76102390D02*
X103530962Y-76054771D01*
X103483343Y-76007152D01*
X103435724Y-75911914D01*
X103435724Y-75626200D01*
X103483343Y-75530962D01*
X103530962Y-75483343D01*
X103626200Y-75435724D01*
X103769057Y-75435724D01*
X103864295Y-75483343D01*
X103911914Y-75530962D01*
X103959533Y-75626200D01*
X103959533Y-75911914D01*
X103911914Y-76007152D01*
X103864295Y-76054771D01*
X103769057Y-76102390D01*
X103626200Y-76102390D01*
X104388105Y-75435724D02*
X104388105Y-76102390D01*
X104388105Y-75530962D02*
X104435724Y-75483343D01*
X104530962Y-75435724D01*
X104673819Y-75435724D01*
X104769057Y-75483343D01*
X104816676Y-75578581D01*
X104816676Y-76102390D01*
X105673819Y-76054771D02*
X105578581Y-76102390D01*
X105388105Y-76102390D01*
X105292867Y-76054771D01*
X105245248Y-75959533D01*
X105245248Y-75578581D01*
X105292867Y-75483343D01*
X105388105Y-75435724D01*
X105578581Y-75435724D01*
X105673819Y-75483343D01*
X105721438Y-75578581D01*
X105721438Y-75673819D01*
X105245248Y-75769057D01*
X106150010Y-75435724D02*
X106150010Y-76102390D01*
X106150010Y-75530962D02*
X106197629Y-75483343D01*
X106292867Y-75435724D01*
X106435724Y-75435724D01*
X106530962Y-75483343D01*
X106578581Y-75578581D01*
X106578581Y-76102390D01*
X106911914Y-75435724D02*
X107292867Y-75435724D01*
X107054771Y-75102390D02*
X107054771Y-75959533D01*
X107102390Y-76054771D01*
X107197629Y-76102390D01*
X107292867Y-76102390D01*
X107578581Y-76054771D02*
X107673819Y-76102390D01*
X107864295Y-76102390D01*
X107959533Y-76054771D01*
X108007152Y-75959533D01*
X108007152Y-75911914D01*
X107959533Y-75816676D01*
X107864295Y-75769057D01*
X107721438Y-75769057D01*
X107626200Y-75721438D01*
X107578581Y-75626200D01*
X107578581Y-75578581D01*
X107626200Y-75483343D01*
X107721438Y-75435724D01*
X107864295Y-75435724D01*
X107959533Y-75483343D01*
X109054771Y-75102390D02*
X109626200Y-75102390D01*
X109340486Y-76102390D02*
X109340486Y-75102390D01*
X109959533Y-76102390D02*
X109959533Y-75102390D01*
X110388105Y-76102390D02*
X110388105Y-75578581D01*
X110340486Y-75483343D01*
X110245248Y-75435724D01*
X110102390Y-75435724D01*
X110007152Y-75483343D01*
X109959533Y-75530962D01*
X110864295Y-76102390D02*
X110864295Y-75435724D01*
X110864295Y-75102390D02*
X110816676Y-75150010D01*
X110864295Y-75197629D01*
X110911914Y-75150010D01*
X110864295Y-75102390D01*
X110864295Y-75197629D01*
X111292867Y-76054771D02*
X111388105Y-76102390D01*
X111578581Y-76102390D01*
X111673819Y-76054771D01*
X111721438Y-75959533D01*
X111721438Y-75911914D01*
X111673819Y-75816676D01*
X111578581Y-75769057D01*
X111435724Y-75769057D01*
X111340486Y-75721438D01*
X111292867Y-75626200D01*
X111292867Y-75578581D01*
X111340486Y-75483343D01*
X111435724Y-75435724D01*
X111578581Y-75435724D01*
X111673819Y-75483343D01*
X112864295Y-76054771D02*
X113007152Y-76102390D01*
X113245248Y-76102390D01*
X113340486Y-76054771D01*
X113388105Y-76007152D01*
X113435724Y-75911914D01*
X113435724Y-75816676D01*
X113388105Y-75721438D01*
X113340486Y-75673819D01*
X113245248Y-75626200D01*
X113054771Y-75578581D01*
X112959533Y-75530962D01*
X112911914Y-75483343D01*
X112864295Y-75388105D01*
X112864295Y-75292867D01*
X112911914Y-75197629D01*
X112959533Y-75150010D01*
X113054771Y-75102390D01*
X113292867Y-75102390D01*
X113435724Y-75150010D01*
X113864295Y-76102390D02*
X113864295Y-75435724D01*
X113864295Y-75102390D02*
X113816676Y-75150010D01*
X113864295Y-75197629D01*
X113911914Y-75150010D01*
X113864295Y-75102390D01*
X113864295Y-75197629D01*
X114769057Y-76102390D02*
X114769057Y-75102390D01*
X114769057Y-76054771D02*
X114673819Y-76102390D01*
X114483343Y-76102390D01*
X114388105Y-76054771D01*
X114340486Y-76007152D01*
X114292867Y-75911914D01*
X114292867Y-75626200D01*
X114340486Y-75530962D01*
X114388105Y-75483343D01*
X114483343Y-75435724D01*
X114673819Y-75435724D01*
X114769057Y-75483343D01*
X115626200Y-76054771D02*
X115530962Y-76102390D01*
X115340486Y-76102390D01*
X115245248Y-76054771D01*
X115197629Y-75959533D01*
X115197629Y-75578581D01*
X115245248Y-75483343D01*
X115340486Y-75435724D01*
X115530962Y-75435724D01*
X115626200Y-75483343D01*
X115673819Y-75578581D01*
X115673819Y-75673819D01*
X115197629Y-75769057D01*
X84511914Y-114321476D02*
X85273819Y-114321476D01*
X84892867Y-114702428D02*
X84892867Y-113940524D01*
X86226200Y-113702428D02*
X85750010Y-113702428D01*
X85702390Y-114178619D01*
X85750010Y-114131000D01*
X85845248Y-114083381D01*
X86083343Y-114083381D01*
X86178581Y-114131000D01*
X86226200Y-114178619D01*
X86273819Y-114273857D01*
X86273819Y-114511952D01*
X86226200Y-114607190D01*
X86178581Y-114654809D01*
X86083343Y-114702428D01*
X85845248Y-114702428D01*
X85750010Y-114654809D01*
X85702390Y-114607190D01*
X86607152Y-114035762D02*
X86845248Y-114702428D01*
X87083343Y-114035762D01*
X85278581Y-75702390D02*
X84945248Y-75226200D01*
X84707152Y-75702390D02*
X84707152Y-74702390D01*
X85088105Y-74702390D01*
X85183343Y-74750010D01*
X85230962Y-74797629D01*
X85278581Y-74892867D01*
X85278581Y-75035724D01*
X85230962Y-75130962D01*
X85183343Y-75178581D01*
X85088105Y-75226200D01*
X84707152Y-75226200D01*
X85707152Y-75178581D02*
X86040486Y-75178581D01*
X86183343Y-75702390D02*
X85707152Y-75702390D01*
X85707152Y-74702390D01*
X86183343Y-74702390D01*
X86945248Y-75178581D02*
X86611914Y-75178581D01*
X86611914Y-75702390D02*
X86611914Y-74702390D01*
X87088105Y-74702390D01*
X40435704Y-90102409D02*
X39959513Y-90102409D01*
X39959513Y-89102409D01*
X40769037Y-89578600D02*
X41102370Y-89578600D01*
X41245228Y-90102409D02*
X40769037Y-90102409D01*
X40769037Y-89102409D01*
X41245228Y-89102409D01*
X41673799Y-90102409D02*
X41673799Y-89102409D01*
X42007132Y-89816695D01*
X42340466Y-89102409D01*
X42340466Y-90102409D01*
X43578561Y-90102409D02*
X43578561Y-89102409D01*
X43578561Y-89578600D02*
X44149989Y-89578600D01*
X44149989Y-90102409D02*
X44149989Y-89102409D01*
X44578561Y-89816695D02*
X45054751Y-89816695D01*
X44483323Y-90102409D02*
X44816656Y-89102409D01*
X45149989Y-90102409D01*
X45483323Y-90102409D02*
X45483323Y-89102409D01*
X45911894Y-90054790D02*
X46054751Y-90102409D01*
X46292847Y-90102409D01*
X46388085Y-90054790D01*
X46435704Y-90007171D01*
X46483323Y-89911933D01*
X46483323Y-89816695D01*
X46435704Y-89721457D01*
X46388085Y-89673838D01*
X46292847Y-89626219D01*
X46102370Y-89578600D01*
X46007132Y-89530981D01*
X45959513Y-89483362D01*
X45911894Y-89388124D01*
X45911894Y-89292886D01*
X45959513Y-89197648D01*
X46007132Y-89150029D01*
X46102370Y-89102409D01*
X46340466Y-89102409D01*
X46483323Y-89150029D01*
X48149989Y-89102409D02*
X47673799Y-89102409D01*
X47626180Y-89578600D01*
X47673799Y-89530981D01*
X47769037Y-89483362D01*
X48007132Y-89483362D01*
X48102370Y-89530981D01*
X48149989Y-89578600D01*
X48197609Y-89673838D01*
X48197609Y-89911933D01*
X48149989Y-90007171D01*
X48102370Y-90054790D01*
X48007132Y-90102409D01*
X47769037Y-90102409D01*
X47673799Y-90054790D01*
X47626180Y-90007171D01*
X48816656Y-89102409D02*
X48911894Y-89102409D01*
X49007132Y-89150029D01*
X49054751Y-89197648D01*
X49102370Y-89292886D01*
X49149989Y-89483362D01*
X49149989Y-89721457D01*
X49102370Y-89911933D01*
X49054751Y-90007171D01*
X49007132Y-90054790D01*
X48911894Y-90102409D01*
X48816656Y-90102409D01*
X48721418Y-90054790D01*
X48673799Y-90007171D01*
X48626180Y-89911933D01*
X48578561Y-89721457D01*
X48578561Y-89483362D01*
X48626180Y-89292886D01*
X48673799Y-89197648D01*
X48721418Y-89150029D01*
X48816656Y-89102409D01*
X49578561Y-89721457D02*
X50340466Y-89721457D01*
X50816656Y-90102409D02*
X50816656Y-89102409D01*
X51197609Y-89102409D01*
X51292847Y-89150029D01*
X51340466Y-89197648D01*
X51388085Y-89292886D01*
X51388085Y-89435743D01*
X51340466Y-89530981D01*
X51292847Y-89578600D01*
X51197609Y-89626219D01*
X50816656Y-89626219D01*
X48126180Y-98316695D02*
X48602370Y-98316695D01*
X48030942Y-98602409D02*
X48364275Y-97602409D01*
X48697609Y-98602409D01*
X49173799Y-98602409D02*
X49078561Y-98554790D01*
X49030942Y-98459552D01*
X49030942Y-97602409D01*
X49697609Y-98602409D02*
X49602370Y-98554790D01*
X49554751Y-98459552D01*
X49554751Y-97602409D01*
X51411894Y-98507171D02*
X51364275Y-98554790D01*
X51221418Y-98602409D01*
X51126180Y-98602409D01*
X50983323Y-98554790D01*
X50888085Y-98459552D01*
X50840466Y-98364314D01*
X50792847Y-98173838D01*
X50792847Y-98030981D01*
X50840466Y-97840505D01*
X50888085Y-97745267D01*
X50983323Y-97650029D01*
X51126180Y-97602409D01*
X51221418Y-97602409D01*
X51364275Y-97650029D01*
X51411894Y-97697648D01*
X51983323Y-98602409D02*
X51888085Y-98554790D01*
X51840466Y-98507171D01*
X51792847Y-98411933D01*
X51792847Y-98126219D01*
X51840466Y-98030981D01*
X51888085Y-97983362D01*
X51983323Y-97935743D01*
X52126180Y-97935743D01*
X52221418Y-97983362D01*
X52269037Y-98030981D01*
X52316656Y-98126219D01*
X52316656Y-98411933D01*
X52269037Y-98507171D01*
X52221418Y-98554790D01*
X52126180Y-98602409D01*
X51983323Y-98602409D01*
X52745228Y-98602409D02*
X52745228Y-97935743D01*
X52745228Y-98030981D02*
X52792847Y-97983362D01*
X52888085Y-97935743D01*
X53030942Y-97935743D01*
X53126180Y-97983362D01*
X53173799Y-98078600D01*
X53173799Y-98602409D01*
X53173799Y-98078600D02*
X53221418Y-97983362D01*
X53316656Y-97935743D01*
X53459513Y-97935743D01*
X53554751Y-97983362D01*
X53602370Y-98078600D01*
X53602370Y-98602409D01*
X54078561Y-97935743D02*
X54078561Y-98935743D01*
X54078561Y-97983362D02*
X54173799Y-97935743D01*
X54364275Y-97935743D01*
X54459513Y-97983362D01*
X54507132Y-98030981D01*
X54554751Y-98126219D01*
X54554751Y-98411933D01*
X54507132Y-98507171D01*
X54459513Y-98554790D01*
X54364275Y-98602409D01*
X54173799Y-98602409D01*
X54078561Y-98554790D01*
X55126180Y-98602409D02*
X55030942Y-98554790D01*
X54983323Y-98507171D01*
X54935704Y-98411933D01*
X54935704Y-98126219D01*
X54983323Y-98030981D01*
X55030942Y-97983362D01*
X55126180Y-97935743D01*
X55269037Y-97935743D01*
X55364275Y-97983362D01*
X55411894Y-98030981D01*
X55459513Y-98126219D01*
X55459513Y-98411933D01*
X55411894Y-98507171D01*
X55364275Y-98554790D01*
X55269037Y-98602409D01*
X55126180Y-98602409D01*
X55888085Y-97935743D02*
X55888085Y-98602409D01*
X55888085Y-98030981D02*
X55935704Y-97983362D01*
X56030942Y-97935743D01*
X56173799Y-97935743D01*
X56269037Y-97983362D01*
X56316656Y-98078600D01*
X56316656Y-98602409D01*
X57173799Y-98554790D02*
X57078561Y-98602409D01*
X56888085Y-98602409D01*
X56792847Y-98554790D01*
X56745228Y-98459552D01*
X56745228Y-98078600D01*
X56792847Y-97983362D01*
X56888085Y-97935743D01*
X57078561Y-97935743D01*
X57173799Y-97983362D01*
X57221418Y-98078600D01*
X57221418Y-98173838D01*
X56745228Y-98269076D01*
X57649990Y-97935743D02*
X57649990Y-98602409D01*
X57649990Y-98030981D02*
X57697609Y-97983362D01*
X57792847Y-97935743D01*
X57935704Y-97935743D01*
X58030942Y-97983362D01*
X58078561Y-98078600D01*
X58078561Y-98602409D01*
X58411894Y-97935743D02*
X58792847Y-97935743D01*
X58554751Y-97602409D02*
X58554751Y-98459552D01*
X58602370Y-98554790D01*
X58697609Y-98602409D01*
X58792847Y-98602409D01*
X59078561Y-98554790D02*
X59173799Y-98602409D01*
X59364275Y-98602409D01*
X59459513Y-98554790D01*
X59507132Y-98459552D01*
X59507132Y-98411933D01*
X59459513Y-98316695D01*
X59364275Y-98269076D01*
X59221418Y-98269076D01*
X59126180Y-98221457D01*
X59078561Y-98126219D01*
X59078561Y-98078600D01*
X59126180Y-97983362D01*
X59221418Y-97935743D01*
X59364275Y-97935743D01*
X59459513Y-97983362D01*
X60554751Y-97602409D02*
X61126180Y-97602409D01*
X60840466Y-98602409D02*
X60840466Y-97602409D01*
X61459513Y-98602409D02*
X61459513Y-97602409D01*
X61888085Y-98602409D02*
X61888085Y-98078600D01*
X61840466Y-97983362D01*
X61745228Y-97935743D01*
X61602370Y-97935743D01*
X61507132Y-97983362D01*
X61459513Y-98030981D01*
X62364275Y-98602409D02*
X62364275Y-97935743D01*
X62364275Y-97602409D02*
X62316656Y-97650029D01*
X62364275Y-97697648D01*
X62411894Y-97650029D01*
X62364275Y-97602409D01*
X62364275Y-97697648D01*
X62792847Y-98554790D02*
X62888085Y-98602409D01*
X63078561Y-98602409D01*
X63173799Y-98554790D01*
X63221418Y-98459552D01*
X63221418Y-98411933D01*
X63173799Y-98316695D01*
X63078561Y-98269076D01*
X62935704Y-98269076D01*
X62840466Y-98221457D01*
X62792847Y-98126219D01*
X62792847Y-98078600D01*
X62840466Y-97983362D01*
X62935704Y-97935743D01*
X63078561Y-97935743D01*
X63173799Y-97983362D01*
X64364275Y-98554790D02*
X64507132Y-98602409D01*
X64745228Y-98602409D01*
X64840466Y-98554790D01*
X64888085Y-98507171D01*
X64935704Y-98411933D01*
X64935704Y-98316695D01*
X64888085Y-98221457D01*
X64840466Y-98173838D01*
X64745228Y-98126219D01*
X64554751Y-98078600D01*
X64459513Y-98030981D01*
X64411894Y-97983362D01*
X64364275Y-97888124D01*
X64364275Y-97792886D01*
X64411894Y-97697648D01*
X64459513Y-97650029D01*
X64554751Y-97602409D01*
X64792847Y-97602409D01*
X64935704Y-97650029D01*
X65364275Y-98602409D02*
X65364275Y-97935743D01*
X65364275Y-97602409D02*
X65316656Y-97650029D01*
X65364275Y-97697648D01*
X65411894Y-97650029D01*
X65364275Y-97602409D01*
X65364275Y-97697648D01*
X66269037Y-98602409D02*
X66269037Y-97602409D01*
X66269037Y-98554790D02*
X66173799Y-98602409D01*
X65983323Y-98602409D01*
X65888085Y-98554790D01*
X65840466Y-98507171D01*
X65792847Y-98411933D01*
X65792847Y-98126219D01*
X65840466Y-98030981D01*
X65888085Y-97983362D01*
X65983323Y-97935743D01*
X66173799Y-97935743D01*
X66269037Y-97983362D01*
X67126180Y-98554790D02*
X67030942Y-98602409D01*
X66840466Y-98602409D01*
X66745228Y-98554790D01*
X66697609Y-98459552D01*
X66697609Y-98078600D01*
X66745228Y-97983362D01*
X66840466Y-97935743D01*
X67030942Y-97935743D01*
X67126180Y-97983362D01*
X67173799Y-98078600D01*
X67173799Y-98173838D01*
X66697609Y-98269076D01*
X36778561Y-98202409D02*
X36445228Y-97726219D01*
X36207132Y-98202409D02*
X36207132Y-97202409D01*
X36588085Y-97202409D01*
X36683323Y-97250029D01*
X36730942Y-97297648D01*
X36778561Y-97392886D01*
X36778561Y-97535743D01*
X36730942Y-97630981D01*
X36683323Y-97678600D01*
X36588085Y-97726219D01*
X36207132Y-97726219D01*
X37207132Y-97678600D02*
X37540466Y-97678600D01*
X37683323Y-98202409D02*
X37207132Y-98202409D01*
X37207132Y-97202409D01*
X37683323Y-97202409D01*
X38445228Y-97678600D02*
X38111894Y-97678600D01*
X38111894Y-98202409D02*
X38111894Y-97202409D01*
X38588085Y-97202409D01*
X36778561Y-75702390D02*
X36445228Y-75226200D01*
X36207132Y-75702390D02*
X36207132Y-74702390D01*
X36588085Y-74702390D01*
X36683323Y-74750010D01*
X36730942Y-74797629D01*
X36778561Y-74892867D01*
X36778561Y-75035724D01*
X36730942Y-75130962D01*
X36683323Y-75178581D01*
X36588085Y-75226200D01*
X36207132Y-75226200D01*
X37207132Y-75178581D02*
X37540466Y-75178581D01*
X37683323Y-75702390D02*
X37207132Y-75702390D01*
X37207132Y-74702390D01*
X37683323Y-74702390D01*
X38445228Y-75178581D02*
X38111894Y-75178581D01*
X38111894Y-75702390D02*
X38111894Y-74702390D01*
X38588085Y-74702390D01*
X36349990Y-72702390D02*
X36540466Y-72702390D01*
X36635704Y-72750010D01*
X36730942Y-72845248D01*
X36778561Y-73035724D01*
X36778561Y-73369057D01*
X36730942Y-73559533D01*
X36635704Y-73654771D01*
X36540466Y-73702390D01*
X36349990Y-73702390D01*
X36254751Y-73654771D01*
X36159513Y-73559533D01*
X36111894Y-73369057D01*
X36111894Y-73035724D01*
X36159513Y-72845248D01*
X36254751Y-72750010D01*
X36349990Y-72702390D01*
X37207132Y-72702390D02*
X37207132Y-73511914D01*
X37254751Y-73607152D01*
X37302370Y-73654771D01*
X37397609Y-73702390D01*
X37588085Y-73702390D01*
X37683323Y-73654771D01*
X37730942Y-73607152D01*
X37778561Y-73511914D01*
X37778561Y-72702390D01*
X38111894Y-72702390D02*
X38683323Y-72702390D01*
X38397609Y-73702390D02*
X38397609Y-72702390D01*
X48126180Y-53316657D02*
X48602370Y-53316657D01*
X48030942Y-53602371D02*
X48364275Y-52602371D01*
X48697609Y-53602371D01*
X49173799Y-53602371D02*
X49078561Y-53554752D01*
X49030942Y-53459514D01*
X49030942Y-52602371D01*
X49697609Y-53602371D02*
X49602370Y-53554752D01*
X49554751Y-53459514D01*
X49554751Y-52602371D01*
X51411894Y-53507133D02*
X51364275Y-53554752D01*
X51221418Y-53602371D01*
X51126180Y-53602371D01*
X50983323Y-53554752D01*
X50888085Y-53459514D01*
X50840466Y-53364276D01*
X50792847Y-53173800D01*
X50792847Y-53030943D01*
X50840466Y-52840467D01*
X50888085Y-52745229D01*
X50983323Y-52649991D01*
X51126180Y-52602371D01*
X51221418Y-52602371D01*
X51364275Y-52649991D01*
X51411894Y-52697610D01*
X51983323Y-53602371D02*
X51888085Y-53554752D01*
X51840466Y-53507133D01*
X51792847Y-53411895D01*
X51792847Y-53126181D01*
X51840466Y-53030943D01*
X51888085Y-52983324D01*
X51983323Y-52935705D01*
X52126180Y-52935705D01*
X52221418Y-52983324D01*
X52269037Y-53030943D01*
X52316656Y-53126181D01*
X52316656Y-53411895D01*
X52269037Y-53507133D01*
X52221418Y-53554752D01*
X52126180Y-53602371D01*
X51983323Y-53602371D01*
X52745228Y-53602371D02*
X52745228Y-52935705D01*
X52745228Y-53030943D02*
X52792847Y-52983324D01*
X52888085Y-52935705D01*
X53030942Y-52935705D01*
X53126180Y-52983324D01*
X53173799Y-53078562D01*
X53173799Y-53602371D01*
X53173799Y-53078562D02*
X53221418Y-52983324D01*
X53316656Y-52935705D01*
X53459513Y-52935705D01*
X53554751Y-52983324D01*
X53602370Y-53078562D01*
X53602370Y-53602371D01*
X54078561Y-52935705D02*
X54078561Y-53935705D01*
X54078561Y-52983324D02*
X54173799Y-52935705D01*
X54364275Y-52935705D01*
X54459513Y-52983324D01*
X54507132Y-53030943D01*
X54554751Y-53126181D01*
X54554751Y-53411895D01*
X54507132Y-53507133D01*
X54459513Y-53554752D01*
X54364275Y-53602371D01*
X54173799Y-53602371D01*
X54078561Y-53554752D01*
X55126180Y-53602371D02*
X55030942Y-53554752D01*
X54983323Y-53507133D01*
X54935704Y-53411895D01*
X54935704Y-53126181D01*
X54983323Y-53030943D01*
X55030942Y-52983324D01*
X55126180Y-52935705D01*
X55269037Y-52935705D01*
X55364275Y-52983324D01*
X55411894Y-53030943D01*
X55459513Y-53126181D01*
X55459513Y-53411895D01*
X55411894Y-53507133D01*
X55364275Y-53554752D01*
X55269037Y-53602371D01*
X55126180Y-53602371D01*
X55888085Y-52935705D02*
X55888085Y-53602371D01*
X55888085Y-53030943D02*
X55935704Y-52983324D01*
X56030942Y-52935705D01*
X56173799Y-52935705D01*
X56269037Y-52983324D01*
X56316656Y-53078562D01*
X56316656Y-53602371D01*
X57173799Y-53554752D02*
X57078561Y-53602371D01*
X56888085Y-53602371D01*
X56792847Y-53554752D01*
X56745228Y-53459514D01*
X56745228Y-53078562D01*
X56792847Y-52983324D01*
X56888085Y-52935705D01*
X57078561Y-52935705D01*
X57173799Y-52983324D01*
X57221418Y-53078562D01*
X57221418Y-53173800D01*
X56745228Y-53269038D01*
X57649990Y-52935705D02*
X57649990Y-53602371D01*
X57649990Y-53030943D02*
X57697609Y-52983324D01*
X57792847Y-52935705D01*
X57935704Y-52935705D01*
X58030942Y-52983324D01*
X58078561Y-53078562D01*
X58078561Y-53602371D01*
X58411894Y-52935705D02*
X58792847Y-52935705D01*
X58554751Y-52602371D02*
X58554751Y-53459514D01*
X58602370Y-53554752D01*
X58697609Y-53602371D01*
X58792847Y-53602371D01*
X59078561Y-53554752D02*
X59173799Y-53602371D01*
X59364275Y-53602371D01*
X59459513Y-53554752D01*
X59507132Y-53459514D01*
X59507132Y-53411895D01*
X59459513Y-53316657D01*
X59364275Y-53269038D01*
X59221418Y-53269038D01*
X59126180Y-53221419D01*
X59078561Y-53126181D01*
X59078561Y-53078562D01*
X59126180Y-52983324D01*
X59221418Y-52935705D01*
X59364275Y-52935705D01*
X59459513Y-52983324D01*
X60554751Y-52602371D02*
X61126180Y-52602371D01*
X60840466Y-53602371D02*
X60840466Y-52602371D01*
X61459513Y-53602371D02*
X61459513Y-52602371D01*
X61888085Y-53602371D02*
X61888085Y-53078562D01*
X61840466Y-52983324D01*
X61745228Y-52935705D01*
X61602370Y-52935705D01*
X61507132Y-52983324D01*
X61459513Y-53030943D01*
X62364275Y-53602371D02*
X62364275Y-52935705D01*
X62364275Y-52602371D02*
X62316656Y-52649991D01*
X62364275Y-52697610D01*
X62411894Y-52649991D01*
X62364275Y-52602371D01*
X62364275Y-52697610D01*
X62792847Y-53554752D02*
X62888085Y-53602371D01*
X63078561Y-53602371D01*
X63173799Y-53554752D01*
X63221418Y-53459514D01*
X63221418Y-53411895D01*
X63173799Y-53316657D01*
X63078561Y-53269038D01*
X62935704Y-53269038D01*
X62840466Y-53221419D01*
X62792847Y-53126181D01*
X62792847Y-53078562D01*
X62840466Y-52983324D01*
X62935704Y-52935705D01*
X63078561Y-52935705D01*
X63173799Y-52983324D01*
X64364275Y-53554752D02*
X64507132Y-53602371D01*
X64745228Y-53602371D01*
X64840466Y-53554752D01*
X64888085Y-53507133D01*
X64935704Y-53411895D01*
X64935704Y-53316657D01*
X64888085Y-53221419D01*
X64840466Y-53173800D01*
X64745228Y-53126181D01*
X64554751Y-53078562D01*
X64459513Y-53030943D01*
X64411894Y-52983324D01*
X64364275Y-52888086D01*
X64364275Y-52792848D01*
X64411894Y-52697610D01*
X64459513Y-52649991D01*
X64554751Y-52602371D01*
X64792847Y-52602371D01*
X64935704Y-52649991D01*
X65364275Y-53602371D02*
X65364275Y-52935705D01*
X65364275Y-52602371D02*
X65316656Y-52649991D01*
X65364275Y-52697610D01*
X65411894Y-52649991D01*
X65364275Y-52602371D01*
X65364275Y-52697610D01*
X66269037Y-53602371D02*
X66269037Y-52602371D01*
X66269037Y-53554752D02*
X66173799Y-53602371D01*
X65983323Y-53602371D01*
X65888085Y-53554752D01*
X65840466Y-53507133D01*
X65792847Y-53411895D01*
X65792847Y-53126181D01*
X65840466Y-53030943D01*
X65888085Y-52983324D01*
X65983323Y-52935705D01*
X66173799Y-52935705D01*
X66269037Y-52983324D01*
X67126180Y-53554752D02*
X67030942Y-53602371D01*
X66840466Y-53602371D01*
X66745228Y-53554752D01*
X66697609Y-53459514D01*
X66697609Y-53078562D01*
X66745228Y-52983324D01*
X66840466Y-52935705D01*
X67030942Y-52935705D01*
X67126180Y-52983324D01*
X67173799Y-53078562D01*
X67173799Y-53173800D01*
X66697609Y-53269038D01*
X84511914Y-91821457D02*
X85273819Y-91821457D01*
X84892867Y-92202409D02*
X84892867Y-91440505D01*
X86226200Y-91202409D02*
X85750010Y-91202409D01*
X85702390Y-91678600D01*
X85750010Y-91630981D01*
X85845248Y-91583362D01*
X86083343Y-91583362D01*
X86178581Y-91630981D01*
X86226200Y-91678600D01*
X86273819Y-91773838D01*
X86273819Y-92011933D01*
X86226200Y-92107171D01*
X86178581Y-92154790D01*
X86083343Y-92202409D01*
X85845248Y-92202409D01*
X85750010Y-92154790D01*
X85702390Y-92107171D01*
X86607152Y-91535743D02*
X86845248Y-92202409D01*
X87083343Y-91535743D01*
X88935724Y-67602390D02*
X88459533Y-67602390D01*
X88459533Y-66602390D01*
X89269057Y-67078581D02*
X89602390Y-67078581D01*
X89745248Y-67602390D02*
X89269057Y-67602390D01*
X89269057Y-66602390D01*
X89745248Y-66602390D01*
X90173819Y-67602390D02*
X90173819Y-66602390D01*
X90507152Y-67316676D01*
X90840486Y-66602390D01*
X90840486Y-67602390D01*
X92078581Y-67602390D02*
X92078581Y-66602390D01*
X92078581Y-67078581D02*
X92650010Y-67078581D01*
X92650010Y-67602390D02*
X92650010Y-66602390D01*
X93078581Y-67316676D02*
X93554771Y-67316676D01*
X92983343Y-67602390D02*
X93316676Y-66602390D01*
X93650010Y-67602390D01*
X93983343Y-67602390D02*
X93983343Y-66602390D01*
X94411914Y-67554771D02*
X94554771Y-67602390D01*
X94792867Y-67602390D01*
X94888105Y-67554771D01*
X94935724Y-67507152D01*
X94983343Y-67411914D01*
X94983343Y-67316676D01*
X94935724Y-67221438D01*
X94888105Y-67173819D01*
X94792867Y-67126200D01*
X94602390Y-67078581D01*
X94507152Y-67030962D01*
X94459533Y-66983343D01*
X94411914Y-66888105D01*
X94411914Y-66792867D01*
X94459533Y-66697629D01*
X94507152Y-66650010D01*
X94602390Y-66602390D01*
X94840486Y-66602390D01*
X94983343Y-66650010D01*
X96650010Y-66602390D02*
X96173819Y-66602390D01*
X96126200Y-67078581D01*
X96173819Y-67030962D01*
X96269057Y-66983343D01*
X96507152Y-66983343D01*
X96602390Y-67030962D01*
X96650010Y-67078581D01*
X96697629Y-67173819D01*
X96697629Y-67411914D01*
X96650010Y-67507152D01*
X96602390Y-67554771D01*
X96507152Y-67602390D01*
X96269057Y-67602390D01*
X96173819Y-67554771D01*
X96126200Y-67507152D01*
X97316676Y-66602390D02*
X97411914Y-66602390D01*
X97507152Y-66650010D01*
X97554771Y-66697629D01*
X97602390Y-66792867D01*
X97650010Y-66983343D01*
X97650010Y-67221438D01*
X97602390Y-67411914D01*
X97554771Y-67507152D01*
X97507152Y-67554771D01*
X97411914Y-67602390D01*
X97316676Y-67602390D01*
X97221438Y-67554771D01*
X97173819Y-67507152D01*
X97126200Y-67411914D01*
X97078581Y-67221438D01*
X97078581Y-66983343D01*
X97126200Y-66792867D01*
X97173819Y-66697629D01*
X97221438Y-66650010D01*
X97316676Y-66602390D01*
X98078581Y-67221438D02*
X98840486Y-67221438D01*
X99316676Y-67602390D02*
X99316676Y-66602390D01*
X99697629Y-66602390D01*
X99792867Y-66650010D01*
X99840486Y-66697629D01*
X99888105Y-66792867D01*
X99888105Y-66935724D01*
X99840486Y-67030962D01*
X99792867Y-67078581D01*
X99697629Y-67126200D01*
X99316676Y-67126200D01*
X40435704Y-67602390D02*
X39959513Y-67602390D01*
X39959513Y-66602390D01*
X40769037Y-67078581D02*
X41102370Y-67078581D01*
X41245228Y-67602390D02*
X40769037Y-67602390D01*
X40769037Y-66602390D01*
X41245228Y-66602390D01*
X41673799Y-67602390D02*
X41673799Y-66602390D01*
X42007132Y-67316676D01*
X42340466Y-66602390D01*
X42340466Y-67602390D01*
X43578561Y-67602390D02*
X43578561Y-66602390D01*
X43578561Y-67078581D02*
X44149989Y-67078581D01*
X44149989Y-67602390D02*
X44149989Y-66602390D01*
X44578561Y-67316676D02*
X45054751Y-67316676D01*
X44483323Y-67602390D02*
X44816656Y-66602390D01*
X45149989Y-67602390D01*
X45483323Y-67602390D02*
X45483323Y-66602390D01*
X45911894Y-67554771D02*
X46054751Y-67602390D01*
X46292847Y-67602390D01*
X46388085Y-67554771D01*
X46435704Y-67507152D01*
X46483323Y-67411914D01*
X46483323Y-67316676D01*
X46435704Y-67221438D01*
X46388085Y-67173819D01*
X46292847Y-67126200D01*
X46102370Y-67078581D01*
X46007132Y-67030962D01*
X45959513Y-66983343D01*
X45911894Y-66888105D01*
X45911894Y-66792867D01*
X45959513Y-66697629D01*
X46007132Y-66650010D01*
X46102370Y-66602390D01*
X46340466Y-66602390D01*
X46483323Y-66650010D01*
X48149989Y-66602390D02*
X47673799Y-66602390D01*
X47626180Y-67078581D01*
X47673799Y-67030962D01*
X47769037Y-66983343D01*
X48007132Y-66983343D01*
X48102370Y-67030962D01*
X48149989Y-67078581D01*
X48197609Y-67173819D01*
X48197609Y-67411914D01*
X48149989Y-67507152D01*
X48102370Y-67554771D01*
X48007132Y-67602390D01*
X47769037Y-67602390D01*
X47673799Y-67554771D01*
X47626180Y-67507152D01*
X48816656Y-66602390D02*
X48911894Y-66602390D01*
X49007132Y-66650010D01*
X49054751Y-66697629D01*
X49102370Y-66792867D01*
X49149989Y-66983343D01*
X49149989Y-67221438D01*
X49102370Y-67411914D01*
X49054751Y-67507152D01*
X49007132Y-67554771D01*
X48911894Y-67602390D01*
X48816656Y-67602390D01*
X48721418Y-67554771D01*
X48673799Y-67507152D01*
X48626180Y-67411914D01*
X48578561Y-67221438D01*
X48578561Y-66983343D01*
X48626180Y-66792867D01*
X48673799Y-66697629D01*
X48721418Y-66650010D01*
X48816656Y-66602390D01*
X49578561Y-67221438D02*
X50340466Y-67221438D01*
X50816656Y-67602390D02*
X50816656Y-66602390D01*
X51197609Y-66602390D01*
X51292847Y-66650010D01*
X51340466Y-66697629D01*
X51388085Y-66792867D01*
X51388085Y-66935724D01*
X51340466Y-67030962D01*
X51292847Y-67078581D01*
X51197609Y-67126200D01*
X50816656Y-67126200D01*
X88935724Y-45102371D02*
X88459533Y-45102371D01*
X88459533Y-44102371D01*
X89269057Y-44578562D02*
X89602390Y-44578562D01*
X89745248Y-45102371D02*
X89269057Y-45102371D01*
X89269057Y-44102371D01*
X89745248Y-44102371D01*
X90173819Y-45102371D02*
X90173819Y-44102371D01*
X90507152Y-44816657D01*
X90840486Y-44102371D01*
X90840486Y-45102371D01*
X92078581Y-45102371D02*
X92078581Y-44102371D01*
X92078581Y-44578562D02*
X92650010Y-44578562D01*
X92650010Y-45102371D02*
X92650010Y-44102371D01*
X93078581Y-44816657D02*
X93554771Y-44816657D01*
X92983343Y-45102371D02*
X93316676Y-44102371D01*
X93650010Y-45102371D01*
X93983343Y-45102371D02*
X93983343Y-44102371D01*
X94411914Y-45054752D02*
X94554771Y-45102371D01*
X94792867Y-45102371D01*
X94888105Y-45054752D01*
X94935724Y-45007133D01*
X94983343Y-44911895D01*
X94983343Y-44816657D01*
X94935724Y-44721419D01*
X94888105Y-44673800D01*
X94792867Y-44626181D01*
X94602390Y-44578562D01*
X94507152Y-44530943D01*
X94459533Y-44483324D01*
X94411914Y-44388086D01*
X94411914Y-44292848D01*
X94459533Y-44197610D01*
X94507152Y-44149991D01*
X94602390Y-44102371D01*
X94840486Y-44102371D01*
X94983343Y-44149991D01*
X96650010Y-44102371D02*
X96173819Y-44102371D01*
X96126200Y-44578562D01*
X96173819Y-44530943D01*
X96269057Y-44483324D01*
X96507152Y-44483324D01*
X96602390Y-44530943D01*
X96650010Y-44578562D01*
X96697629Y-44673800D01*
X96697629Y-44911895D01*
X96650010Y-45007133D01*
X96602390Y-45054752D01*
X96507152Y-45102371D01*
X96269057Y-45102371D01*
X96173819Y-45054752D01*
X96126200Y-45007133D01*
X97316676Y-44102371D02*
X97411914Y-44102371D01*
X97507152Y-44149991D01*
X97554771Y-44197610D01*
X97602390Y-44292848D01*
X97650010Y-44483324D01*
X97650010Y-44721419D01*
X97602390Y-44911895D01*
X97554771Y-45007133D01*
X97507152Y-45054752D01*
X97411914Y-45102371D01*
X97316676Y-45102371D01*
X97221438Y-45054752D01*
X97173819Y-45007133D01*
X97126200Y-44911895D01*
X97078581Y-44721419D01*
X97078581Y-44483324D01*
X97126200Y-44292848D01*
X97173819Y-44197610D01*
X97221438Y-44149991D01*
X97316676Y-44102371D01*
X98078581Y-44721419D02*
X98840486Y-44721419D01*
X99316676Y-45102371D02*
X99316676Y-44102371D01*
X99697629Y-44102371D01*
X99792867Y-44149991D01*
X99840486Y-44197610D01*
X99888105Y-44292848D01*
X99888105Y-44435705D01*
X99840486Y-44530943D01*
X99792867Y-44578562D01*
X99697629Y-44626181D01*
X99316676Y-44626181D01*
X96626200Y-98316695D02*
X97102390Y-98316695D01*
X96530962Y-98602409D02*
X96864295Y-97602409D01*
X97197629Y-98602409D01*
X97673819Y-98602409D02*
X97578581Y-98554790D01*
X97530962Y-98459552D01*
X97530962Y-97602409D01*
X98197629Y-98602409D02*
X98102390Y-98554790D01*
X98054771Y-98459552D01*
X98054771Y-97602409D01*
X99911914Y-98507171D02*
X99864295Y-98554790D01*
X99721438Y-98602409D01*
X99626200Y-98602409D01*
X99483343Y-98554790D01*
X99388105Y-98459552D01*
X99340486Y-98364314D01*
X99292867Y-98173838D01*
X99292867Y-98030981D01*
X99340486Y-97840505D01*
X99388105Y-97745267D01*
X99483343Y-97650029D01*
X99626200Y-97602409D01*
X99721438Y-97602409D01*
X99864295Y-97650029D01*
X99911914Y-97697648D01*
X100483343Y-98602409D02*
X100388105Y-98554790D01*
X100340486Y-98507171D01*
X100292867Y-98411933D01*
X100292867Y-98126219D01*
X100340486Y-98030981D01*
X100388105Y-97983362D01*
X100483343Y-97935743D01*
X100626200Y-97935743D01*
X100721438Y-97983362D01*
X100769057Y-98030981D01*
X100816676Y-98126219D01*
X100816676Y-98411933D01*
X100769057Y-98507171D01*
X100721438Y-98554790D01*
X100626200Y-98602409D01*
X100483343Y-98602409D01*
X101245248Y-98602409D02*
X101245248Y-97935743D01*
X101245248Y-98030981D02*
X101292867Y-97983362D01*
X101388105Y-97935743D01*
X101530962Y-97935743D01*
X101626200Y-97983362D01*
X101673819Y-98078600D01*
X101673819Y-98602409D01*
X101673819Y-98078600D02*
X101721438Y-97983362D01*
X101816676Y-97935743D01*
X101959533Y-97935743D01*
X102054771Y-97983362D01*
X102102390Y-98078600D01*
X102102390Y-98602409D01*
X102578581Y-97935743D02*
X102578581Y-98935743D01*
X102578581Y-97983362D02*
X102673819Y-97935743D01*
X102864295Y-97935743D01*
X102959533Y-97983362D01*
X103007152Y-98030981D01*
X103054771Y-98126219D01*
X103054771Y-98411933D01*
X103007152Y-98507171D01*
X102959533Y-98554790D01*
X102864295Y-98602409D01*
X102673819Y-98602409D01*
X102578581Y-98554790D01*
X103626200Y-98602409D02*
X103530962Y-98554790D01*
X103483343Y-98507171D01*
X103435724Y-98411933D01*
X103435724Y-98126219D01*
X103483343Y-98030981D01*
X103530962Y-97983362D01*
X103626200Y-97935743D01*
X103769057Y-97935743D01*
X103864295Y-97983362D01*
X103911914Y-98030981D01*
X103959533Y-98126219D01*
X103959533Y-98411933D01*
X103911914Y-98507171D01*
X103864295Y-98554790D01*
X103769057Y-98602409D01*
X103626200Y-98602409D01*
X104388105Y-97935743D02*
X104388105Y-98602409D01*
X104388105Y-98030981D02*
X104435724Y-97983362D01*
X104530962Y-97935743D01*
X104673819Y-97935743D01*
X104769057Y-97983362D01*
X104816676Y-98078600D01*
X104816676Y-98602409D01*
X105673819Y-98554790D02*
X105578581Y-98602409D01*
X105388105Y-98602409D01*
X105292867Y-98554790D01*
X105245248Y-98459552D01*
X105245248Y-98078600D01*
X105292867Y-97983362D01*
X105388105Y-97935743D01*
X105578581Y-97935743D01*
X105673819Y-97983362D01*
X105721438Y-98078600D01*
X105721438Y-98173838D01*
X105245248Y-98269076D01*
X106150010Y-97935743D02*
X106150010Y-98602409D01*
X106150010Y-98030981D02*
X106197629Y-97983362D01*
X106292867Y-97935743D01*
X106435724Y-97935743D01*
X106530962Y-97983362D01*
X106578581Y-98078600D01*
X106578581Y-98602409D01*
X106911914Y-97935743D02*
X107292867Y-97935743D01*
X107054771Y-97602409D02*
X107054771Y-98459552D01*
X107102390Y-98554790D01*
X107197629Y-98602409D01*
X107292867Y-98602409D01*
X107578581Y-98554790D02*
X107673819Y-98602409D01*
X107864295Y-98602409D01*
X107959533Y-98554790D01*
X108007152Y-98459552D01*
X108007152Y-98411933D01*
X107959533Y-98316695D01*
X107864295Y-98269076D01*
X107721438Y-98269076D01*
X107626200Y-98221457D01*
X107578581Y-98126219D01*
X107578581Y-98078600D01*
X107626200Y-97983362D01*
X107721438Y-97935743D01*
X107864295Y-97935743D01*
X107959533Y-97983362D01*
X109054771Y-97602409D02*
X109626200Y-97602409D01*
X109340486Y-98602409D02*
X109340486Y-97602409D01*
X109959533Y-98602409D02*
X109959533Y-97602409D01*
X110388105Y-98602409D02*
X110388105Y-98078600D01*
X110340486Y-97983362D01*
X110245248Y-97935743D01*
X110102390Y-97935743D01*
X110007152Y-97983362D01*
X109959533Y-98030981D01*
X110864295Y-98602409D02*
X110864295Y-97935743D01*
X110864295Y-97602409D02*
X110816676Y-97650029D01*
X110864295Y-97697648D01*
X110911914Y-97650029D01*
X110864295Y-97602409D01*
X110864295Y-97697648D01*
X111292867Y-98554790D02*
X111388105Y-98602409D01*
X111578581Y-98602409D01*
X111673819Y-98554790D01*
X111721438Y-98459552D01*
X111721438Y-98411933D01*
X111673819Y-98316695D01*
X111578581Y-98269076D01*
X111435724Y-98269076D01*
X111340486Y-98221457D01*
X111292867Y-98126219D01*
X111292867Y-98078600D01*
X111340486Y-97983362D01*
X111435724Y-97935743D01*
X111578581Y-97935743D01*
X111673819Y-97983362D01*
X112864295Y-98554790D02*
X113007152Y-98602409D01*
X113245248Y-98602409D01*
X113340486Y-98554790D01*
X113388105Y-98507171D01*
X113435724Y-98411933D01*
X113435724Y-98316695D01*
X113388105Y-98221457D01*
X113340486Y-98173838D01*
X113245248Y-98126219D01*
X113054771Y-98078600D01*
X112959533Y-98030981D01*
X112911914Y-97983362D01*
X112864295Y-97888124D01*
X112864295Y-97792886D01*
X112911914Y-97697648D01*
X112959533Y-97650029D01*
X113054771Y-97602409D01*
X113292867Y-97602409D01*
X113435724Y-97650029D01*
X113864295Y-98602409D02*
X113864295Y-97935743D01*
X113864295Y-97602409D02*
X113816676Y-97650029D01*
X113864295Y-97697648D01*
X113911914Y-97650029D01*
X113864295Y-97602409D01*
X113864295Y-97697648D01*
X114769057Y-98602409D02*
X114769057Y-97602409D01*
X114769057Y-98554790D02*
X114673819Y-98602409D01*
X114483343Y-98602409D01*
X114388105Y-98554790D01*
X114340486Y-98507171D01*
X114292867Y-98411933D01*
X114292867Y-98126219D01*
X114340486Y-98030981D01*
X114388105Y-97983362D01*
X114483343Y-97935743D01*
X114673819Y-97935743D01*
X114769057Y-97983362D01*
X115626200Y-98554790D02*
X115530962Y-98602409D01*
X115340486Y-98602409D01*
X115245248Y-98554790D01*
X115197629Y-98459552D01*
X115197629Y-98078600D01*
X115245248Y-97983362D01*
X115340486Y-97935743D01*
X115530962Y-97935743D01*
X115626200Y-97983362D01*
X115673819Y-98078600D01*
X115673819Y-98173838D01*
X115197629Y-98269076D01*
X36349990Y-117702428D02*
X36540466Y-117702428D01*
X36635704Y-117750048D01*
X36730942Y-117845286D01*
X36778561Y-118035762D01*
X36778561Y-118369095D01*
X36730942Y-118559571D01*
X36635704Y-118654809D01*
X36540466Y-118702428D01*
X36349990Y-118702428D01*
X36254751Y-118654809D01*
X36159513Y-118559571D01*
X36111894Y-118369095D01*
X36111894Y-118035762D01*
X36159513Y-117845286D01*
X36254751Y-117750048D01*
X36349990Y-117702428D01*
X37207132Y-117702428D02*
X37207132Y-118511952D01*
X37254751Y-118607190D01*
X37302370Y-118654809D01*
X37397609Y-118702428D01*
X37588085Y-118702428D01*
X37683323Y-118654809D01*
X37730942Y-118607190D01*
X37778561Y-118511952D01*
X37778561Y-117702428D01*
X38111894Y-117702428D02*
X38683323Y-117702428D01*
X38397609Y-118702428D02*
X38397609Y-117702428D01*
X85088105Y-115750048D02*
X84992867Y-115702428D01*
X84850010Y-115702428D01*
X84707152Y-115750048D01*
X84611914Y-115845286D01*
X84564295Y-115940524D01*
X84516676Y-116131000D01*
X84516676Y-116273857D01*
X84564295Y-116464333D01*
X84611914Y-116559571D01*
X84707152Y-116654809D01*
X84850010Y-116702428D01*
X84945248Y-116702428D01*
X85088105Y-116654809D01*
X85135724Y-116607190D01*
X85135724Y-116273857D01*
X84945248Y-116273857D01*
X85564295Y-116702428D02*
X85564295Y-115702428D01*
X86135724Y-116702428D01*
X86135724Y-115702428D01*
X86611914Y-116702428D02*
X86611914Y-115702428D01*
X86850010Y-115702428D01*
X86992867Y-115750048D01*
X87088105Y-115845286D01*
X87135724Y-115940524D01*
X87183343Y-116131000D01*
X87183343Y-116273857D01*
X87135724Y-116464333D01*
X87088105Y-116559571D01*
X86992867Y-116654809D01*
X86850010Y-116702428D01*
X86611914Y-116702428D01*
X85088105Y-48249991D02*
X84992867Y-48202371D01*
X84850010Y-48202371D01*
X84707152Y-48249991D01*
X84611914Y-48345229D01*
X84564295Y-48440467D01*
X84516676Y-48630943D01*
X84516676Y-48773800D01*
X84564295Y-48964276D01*
X84611914Y-49059514D01*
X84707152Y-49154752D01*
X84850010Y-49202371D01*
X84945248Y-49202371D01*
X85088105Y-49154752D01*
X85135724Y-49107133D01*
X85135724Y-48773800D01*
X84945248Y-48773800D01*
X85564295Y-49202371D02*
X85564295Y-48202371D01*
X86135724Y-49202371D01*
X86135724Y-48202371D01*
X86611914Y-49202371D02*
X86611914Y-48202371D01*
X86850010Y-48202371D01*
X86992867Y-48249991D01*
X87088105Y-48345229D01*
X87135724Y-48440467D01*
X87183343Y-48630943D01*
X87183343Y-48773800D01*
X87135724Y-48964276D01*
X87088105Y-49059514D01*
X86992867Y-49154752D01*
X86850010Y-49202371D01*
X86611914Y-49202371D01*
G04 #@! TO.C,C2*
X54145228Y-58935705D02*
X54145228Y-59602371D01*
X53907132Y-58554752D02*
X53669037Y-59269038D01*
X54288085Y-59269038D01*
X54669037Y-59507133D02*
X54716656Y-59554752D01*
X54669037Y-59602371D01*
X54621418Y-59554752D01*
X54669037Y-59507133D01*
X54669037Y-59602371D01*
X55049990Y-58602371D02*
X55716656Y-58602371D01*
X55288085Y-59602371D01*
X56097609Y-58935705D02*
X56097609Y-59602371D01*
X56097609Y-59030943D02*
X56145228Y-58983324D01*
X56240466Y-58935705D01*
X56383323Y-58935705D01*
X56478561Y-58983324D01*
X56526180Y-59078562D01*
X56526180Y-59602371D01*
X57335704Y-59078562D02*
X57002370Y-59078562D01*
X57002370Y-59602371D02*
X57002370Y-58602371D01*
X57478561Y-58602371D01*
G04 #@! TO.C,C1*
X110826200Y-58835705D02*
X110826200Y-59502371D01*
X110588105Y-58454752D02*
X110350010Y-59169038D01*
X110969057Y-59169038D01*
X111254771Y-58502371D02*
X111921438Y-58502371D01*
X111492867Y-59502371D01*
X112302390Y-58835705D02*
X112302390Y-59502371D01*
X112302390Y-58930943D02*
X112350010Y-58883324D01*
X112445248Y-58835705D01*
X112588105Y-58835705D01*
X112683343Y-58883324D01*
X112730962Y-58978562D01*
X112730962Y-59502371D01*
X113064295Y-58835705D02*
X113445248Y-58835705D01*
X113207152Y-59502371D02*
X113207152Y-58645229D01*
X113254771Y-58549991D01*
X113350010Y-58502371D01*
X113445248Y-58502371D01*
G04 #@! TO.C,C2*
X54145228Y-126435762D02*
X54145228Y-127102428D01*
X53907132Y-126054809D02*
X53669037Y-126769095D01*
X54288085Y-126769095D01*
X54669037Y-127007190D02*
X54716656Y-127054809D01*
X54669037Y-127102428D01*
X54621418Y-127054809D01*
X54669037Y-127007190D01*
X54669037Y-127102428D01*
X55049990Y-126102428D02*
X55716656Y-126102428D01*
X55288085Y-127102428D01*
X56097609Y-126435762D02*
X56097609Y-127102428D01*
X56097609Y-126531000D02*
X56145228Y-126483381D01*
X56240466Y-126435762D01*
X56383323Y-126435762D01*
X56478561Y-126483381D01*
X56526180Y-126578619D01*
X56526180Y-127102428D01*
X57335704Y-126578619D02*
X57002370Y-126578619D01*
X57002370Y-127102428D02*
X57002370Y-126102428D01*
X57478561Y-126102428D01*
G04 #@! TO.C,C3*
X46926180Y-58835705D02*
X46926180Y-59502371D01*
X46688085Y-58454752D02*
X46449990Y-59169038D01*
X47069037Y-59169038D01*
X47354751Y-58502371D02*
X48021418Y-58502371D01*
X47592847Y-59502371D01*
X48402370Y-58835705D02*
X48402370Y-59502371D01*
X48402370Y-58930943D02*
X48449990Y-58883324D01*
X48545228Y-58835705D01*
X48688085Y-58835705D01*
X48783323Y-58883324D01*
X48830942Y-58978562D01*
X48830942Y-59502371D01*
X49164275Y-58835705D02*
X49545228Y-58835705D01*
X49307132Y-59502371D02*
X49307132Y-58645229D01*
X49354751Y-58549991D01*
X49449990Y-58502371D01*
X49545228Y-58502371D01*
G04 #@! TO.C,C2*
X102645248Y-81435724D02*
X102645248Y-82102390D01*
X102407152Y-81054771D02*
X102169057Y-81769057D01*
X102788105Y-81769057D01*
X103169057Y-82007152D02*
X103216676Y-82054771D01*
X103169057Y-82102390D01*
X103121438Y-82054771D01*
X103169057Y-82007152D01*
X103169057Y-82102390D01*
X103550010Y-81102390D02*
X104216676Y-81102390D01*
X103788105Y-82102390D01*
X104597629Y-81435724D02*
X104597629Y-82102390D01*
X104597629Y-81530962D02*
X104645248Y-81483343D01*
X104740486Y-81435724D01*
X104883343Y-81435724D01*
X104978581Y-81483343D01*
X105026200Y-81578581D01*
X105026200Y-82102390D01*
X105835724Y-81578581D02*
X105502390Y-81578581D01*
X105502390Y-82102390D02*
X105502390Y-81102390D01*
X105978581Y-81102390D01*
G04 #@! TO.C,C1*
X110826200Y-126335762D02*
X110826200Y-127002428D01*
X110588105Y-125954809D02*
X110350010Y-126669095D01*
X110969057Y-126669095D01*
X111254771Y-126002428D02*
X111921438Y-126002428D01*
X111492867Y-127002428D01*
X112302390Y-126335762D02*
X112302390Y-127002428D01*
X112302390Y-126431000D02*
X112350010Y-126383381D01*
X112445248Y-126335762D01*
X112588105Y-126335762D01*
X112683343Y-126383381D01*
X112730962Y-126478619D01*
X112730962Y-127002428D01*
X113064295Y-126335762D02*
X113445248Y-126335762D01*
X113207152Y-127002428D02*
X113207152Y-126145286D01*
X113254771Y-126050048D01*
X113350010Y-126002428D01*
X113445248Y-126002428D01*
G04 #@! TO.C,C2*
X102645248Y-103935743D02*
X102645248Y-104602409D01*
X102407152Y-103554790D02*
X102169057Y-104269076D01*
X102788105Y-104269076D01*
X103169057Y-104507171D02*
X103216676Y-104554790D01*
X103169057Y-104602409D01*
X103121438Y-104554790D01*
X103169057Y-104507171D01*
X103169057Y-104602409D01*
X103550010Y-103602409D02*
X104216676Y-103602409D01*
X103788105Y-104602409D01*
X104597629Y-103935743D02*
X104597629Y-104602409D01*
X104597629Y-104030981D02*
X104645248Y-103983362D01*
X104740486Y-103935743D01*
X104883343Y-103935743D01*
X104978581Y-103983362D01*
X105026200Y-104078600D01*
X105026200Y-104602409D01*
X105835724Y-104078600D02*
X105502390Y-104078600D01*
X105502390Y-104602409D02*
X105502390Y-103602409D01*
X105978581Y-103602409D01*
X102645248Y-126435762D02*
X102645248Y-127102428D01*
X102407152Y-126054809D02*
X102169057Y-126769095D01*
X102788105Y-126769095D01*
X103169057Y-127007190D02*
X103216676Y-127054809D01*
X103169057Y-127102428D01*
X103121438Y-127054809D01*
X103169057Y-127007190D01*
X103169057Y-127102428D01*
X103550010Y-126102428D02*
X104216676Y-126102428D01*
X103788105Y-127102428D01*
X104597629Y-126435762D02*
X104597629Y-127102428D01*
X104597629Y-126531000D02*
X104645248Y-126483381D01*
X104740486Y-126435762D01*
X104883343Y-126435762D01*
X104978581Y-126483381D01*
X105026200Y-126578619D01*
X105026200Y-127102428D01*
X105835724Y-126578619D02*
X105502390Y-126578619D01*
X105502390Y-127102428D02*
X105502390Y-126102428D01*
X105978581Y-126102428D01*
G04 #@! TO.C,C1*
X62326180Y-126335762D02*
X62326180Y-127002428D01*
X62088085Y-125954809D02*
X61849990Y-126669095D01*
X62469037Y-126669095D01*
X62754751Y-126002428D02*
X63421418Y-126002428D01*
X62992847Y-127002428D01*
X63802370Y-126335762D02*
X63802370Y-127002428D01*
X63802370Y-126431000D02*
X63849990Y-126383381D01*
X63945228Y-126335762D01*
X64088085Y-126335762D01*
X64183323Y-126383381D01*
X64230942Y-126478619D01*
X64230942Y-127002428D01*
X64564275Y-126335762D02*
X64945228Y-126335762D01*
X64707132Y-127002428D02*
X64707132Y-126145286D01*
X64754751Y-126050048D01*
X64849990Y-126002428D01*
X64945228Y-126002428D01*
G04 #@! TO.C,C3*
X95426200Y-58835705D02*
X95426200Y-59502371D01*
X95188105Y-58454752D02*
X94950010Y-59169038D01*
X95569057Y-59169038D01*
X95854771Y-58502371D02*
X96521438Y-58502371D01*
X96092867Y-59502371D01*
X96902390Y-58835705D02*
X96902390Y-59502371D01*
X96902390Y-58930943D02*
X96950010Y-58883324D01*
X97045248Y-58835705D01*
X97188105Y-58835705D01*
X97283343Y-58883324D01*
X97330962Y-58978562D01*
X97330962Y-59502371D01*
X97664295Y-58835705D02*
X98045248Y-58835705D01*
X97807152Y-59502371D02*
X97807152Y-58645229D01*
X97854771Y-58549991D01*
X97950010Y-58502371D01*
X98045248Y-58502371D01*
G04 #@! TO.C,C1*
X110826200Y-81335724D02*
X110826200Y-82002390D01*
X110588105Y-80954771D02*
X110350010Y-81669057D01*
X110969057Y-81669057D01*
X111254771Y-81002390D02*
X111921438Y-81002390D01*
X111492867Y-82002390D01*
X112302390Y-81335724D02*
X112302390Y-82002390D01*
X112302390Y-81430962D02*
X112350010Y-81383343D01*
X112445248Y-81335724D01*
X112588105Y-81335724D01*
X112683343Y-81383343D01*
X112730962Y-81478581D01*
X112730962Y-82002390D01*
X113064295Y-81335724D02*
X113445248Y-81335724D01*
X113207152Y-82002390D02*
X113207152Y-81145248D01*
X113254771Y-81050010D01*
X113350010Y-81002390D01*
X113445248Y-81002390D01*
G04 #@! TO.C,C3*
X46926180Y-126335762D02*
X46926180Y-127002428D01*
X46688085Y-125954809D02*
X46449990Y-126669095D01*
X47069037Y-126669095D01*
X47354751Y-126002428D02*
X48021418Y-126002428D01*
X47592847Y-127002428D01*
X48402370Y-126335762D02*
X48402370Y-127002428D01*
X48402370Y-126431000D02*
X48449990Y-126383381D01*
X48545228Y-126335762D01*
X48688085Y-126335762D01*
X48783323Y-126383381D01*
X48830942Y-126478619D01*
X48830942Y-127002428D01*
X49164275Y-126335762D02*
X49545228Y-126335762D01*
X49307132Y-127002428D02*
X49307132Y-126145286D01*
X49354751Y-126050048D01*
X49449990Y-126002428D01*
X49545228Y-126002428D01*
X95426200Y-103835743D02*
X95426200Y-104502409D01*
X95188105Y-103454790D02*
X94950010Y-104169076D01*
X95569057Y-104169076D01*
X95854771Y-103502409D02*
X96521438Y-103502409D01*
X96092867Y-104502409D01*
X96902390Y-103835743D02*
X96902390Y-104502409D01*
X96902390Y-103930981D02*
X96950010Y-103883362D01*
X97045248Y-103835743D01*
X97188105Y-103835743D01*
X97283343Y-103883362D01*
X97330962Y-103978600D01*
X97330962Y-104502409D01*
X97664295Y-103835743D02*
X98045248Y-103835743D01*
X97807152Y-104502409D02*
X97807152Y-103645267D01*
X97854771Y-103550029D01*
X97950010Y-103502409D01*
X98045248Y-103502409D01*
G04 #@! TO.C,C2*
X54145228Y-103935743D02*
X54145228Y-104602409D01*
X53907132Y-103554790D02*
X53669037Y-104269076D01*
X54288085Y-104269076D01*
X54669037Y-104507171D02*
X54716656Y-104554790D01*
X54669037Y-104602409D01*
X54621418Y-104554790D01*
X54669037Y-104507171D01*
X54669037Y-104602409D01*
X55049990Y-103602409D02*
X55716656Y-103602409D01*
X55288085Y-104602409D01*
X56097609Y-103935743D02*
X56097609Y-104602409D01*
X56097609Y-104030981D02*
X56145228Y-103983362D01*
X56240466Y-103935743D01*
X56383323Y-103935743D01*
X56478561Y-103983362D01*
X56526180Y-104078600D01*
X56526180Y-104602409D01*
X57335704Y-104078600D02*
X57002370Y-104078600D01*
X57002370Y-104602409D02*
X57002370Y-103602409D01*
X57478561Y-103602409D01*
G04 #@! TO.C,C1*
X62326180Y-81335724D02*
X62326180Y-82002390D01*
X62088085Y-80954771D02*
X61849990Y-81669057D01*
X62469037Y-81669057D01*
X62754751Y-81002390D02*
X63421418Y-81002390D01*
X62992847Y-82002390D01*
X63802370Y-81335724D02*
X63802370Y-82002390D01*
X63802370Y-81430962D02*
X63849990Y-81383343D01*
X63945228Y-81335724D01*
X64088085Y-81335724D01*
X64183323Y-81383343D01*
X64230942Y-81478581D01*
X64230942Y-82002390D01*
X64564275Y-81335724D02*
X64945228Y-81335724D01*
X64707132Y-82002390D02*
X64707132Y-81145248D01*
X64754751Y-81050010D01*
X64849990Y-81002390D01*
X64945228Y-81002390D01*
X62326180Y-103835743D02*
X62326180Y-104502409D01*
X62088085Y-103454790D02*
X61849990Y-104169076D01*
X62469037Y-104169076D01*
X62754751Y-103502409D02*
X63421418Y-103502409D01*
X62992847Y-104502409D01*
X63802370Y-103835743D02*
X63802370Y-104502409D01*
X63802370Y-103930981D02*
X63849990Y-103883362D01*
X63945228Y-103835743D01*
X64088085Y-103835743D01*
X64183323Y-103883362D01*
X64230942Y-103978600D01*
X64230942Y-104502409D01*
X64564275Y-103835743D02*
X64945228Y-103835743D01*
X64707132Y-104502409D02*
X64707132Y-103645267D01*
X64754751Y-103550029D01*
X64849990Y-103502409D01*
X64945228Y-103502409D01*
G04 #@! TO.C,C3*
X95426200Y-126335762D02*
X95426200Y-127002428D01*
X95188105Y-125954809D02*
X94950010Y-126669095D01*
X95569057Y-126669095D01*
X95854771Y-126002428D02*
X96521438Y-126002428D01*
X96092867Y-127002428D01*
X96902390Y-126335762D02*
X96902390Y-127002428D01*
X96902390Y-126431000D02*
X96950010Y-126383381D01*
X97045248Y-126335762D01*
X97188105Y-126335762D01*
X97283343Y-126383381D01*
X97330962Y-126478619D01*
X97330962Y-127002428D01*
X97664295Y-126335762D02*
X98045248Y-126335762D01*
X97807152Y-127002428D02*
X97807152Y-126145286D01*
X97854771Y-126050048D01*
X97950010Y-126002428D01*
X98045248Y-126002428D01*
G04 #@! TO.C,C2*
X102645248Y-58935705D02*
X102645248Y-59602371D01*
X102407152Y-58554752D02*
X102169057Y-59269038D01*
X102788105Y-59269038D01*
X103169057Y-59507133D02*
X103216676Y-59554752D01*
X103169057Y-59602371D01*
X103121438Y-59554752D01*
X103169057Y-59507133D01*
X103169057Y-59602371D01*
X103550010Y-58602371D02*
X104216676Y-58602371D01*
X103788105Y-59602371D01*
X104597629Y-58935705D02*
X104597629Y-59602371D01*
X104597629Y-59030943D02*
X104645248Y-58983324D01*
X104740486Y-58935705D01*
X104883343Y-58935705D01*
X104978581Y-58983324D01*
X105026200Y-59078562D01*
X105026200Y-59602371D01*
X105835724Y-59078562D02*
X105502390Y-59078562D01*
X105502390Y-59602371D02*
X105502390Y-58602371D01*
X105978581Y-58602371D01*
G04 #@! TO.C,C3*
X95426200Y-81335724D02*
X95426200Y-82002390D01*
X95188105Y-80954771D02*
X94950010Y-81669057D01*
X95569057Y-81669057D01*
X95854771Y-81002390D02*
X96521438Y-81002390D01*
X96092867Y-82002390D01*
X96902390Y-81335724D02*
X96902390Y-82002390D01*
X96902390Y-81430962D02*
X96950010Y-81383343D01*
X97045248Y-81335724D01*
X97188105Y-81335724D01*
X97283343Y-81383343D01*
X97330962Y-81478581D01*
X97330962Y-82002390D01*
X97664295Y-81335724D02*
X98045248Y-81335724D01*
X97807152Y-82002390D02*
X97807152Y-81145248D01*
X97854771Y-81050010D01*
X97950010Y-81002390D01*
X98045248Y-81002390D01*
G04 #@! TO.C,C2*
X54145228Y-81435724D02*
X54145228Y-82102390D01*
X53907132Y-81054771D02*
X53669037Y-81769057D01*
X54288085Y-81769057D01*
X54669037Y-82007152D02*
X54716656Y-82054771D01*
X54669037Y-82102390D01*
X54621418Y-82054771D01*
X54669037Y-82007152D01*
X54669037Y-82102390D01*
X55049990Y-81102390D02*
X55716656Y-81102390D01*
X55288085Y-82102390D01*
X56097609Y-81435724D02*
X56097609Y-82102390D01*
X56097609Y-81530962D02*
X56145228Y-81483343D01*
X56240466Y-81435724D01*
X56383323Y-81435724D01*
X56478561Y-81483343D01*
X56526180Y-81578581D01*
X56526180Y-82102390D01*
X57335704Y-81578581D02*
X57002370Y-81578581D01*
X57002370Y-82102390D02*
X57002370Y-81102390D01*
X57478561Y-81102390D01*
G04 #@! TO.C,C1*
X110826200Y-103835743D02*
X110826200Y-104502409D01*
X110588105Y-103454790D02*
X110350010Y-104169076D01*
X110969057Y-104169076D01*
X111254771Y-103502409D02*
X111921438Y-103502409D01*
X111492867Y-104502409D01*
X112302390Y-103835743D02*
X112302390Y-104502409D01*
X112302390Y-103930981D02*
X112350010Y-103883362D01*
X112445248Y-103835743D01*
X112588105Y-103835743D01*
X112683343Y-103883362D01*
X112730962Y-103978600D01*
X112730962Y-104502409D01*
X113064295Y-103835743D02*
X113445248Y-103835743D01*
X113207152Y-104502409D02*
X113207152Y-103645267D01*
X113254771Y-103550029D01*
X113350010Y-103502409D01*
X113445248Y-103502409D01*
G04 #@! TO.C,C3*
X46926180Y-103835743D02*
X46926180Y-104502409D01*
X46688085Y-103454790D02*
X46449990Y-104169076D01*
X47069037Y-104169076D01*
X47354751Y-103502409D02*
X48021418Y-103502409D01*
X47592847Y-104502409D01*
X48402370Y-103835743D02*
X48402370Y-104502409D01*
X48402370Y-103930981D02*
X48449990Y-103883362D01*
X48545228Y-103835743D01*
X48688085Y-103835743D01*
X48783323Y-103883362D01*
X48830942Y-103978600D01*
X48830942Y-104502409D01*
X49164275Y-103835743D02*
X49545228Y-103835743D01*
X49307132Y-104502409D02*
X49307132Y-103645267D01*
X49354751Y-103550029D01*
X49449990Y-103502409D01*
X49545228Y-103502409D01*
G04 #@! TO.C,C1*
X62326180Y-58835705D02*
X62326180Y-59502371D01*
X62088085Y-58454752D02*
X61849990Y-59169038D01*
X62469037Y-59169038D01*
X62754751Y-58502371D02*
X63421418Y-58502371D01*
X62992847Y-59502371D01*
X63802370Y-58835705D02*
X63802370Y-59502371D01*
X63802370Y-58930943D02*
X63849990Y-58883324D01*
X63945228Y-58835705D01*
X64088085Y-58835705D01*
X64183323Y-58883324D01*
X64230942Y-58978562D01*
X64230942Y-59502371D01*
X64564275Y-58835705D02*
X64945228Y-58835705D01*
X64707132Y-59502371D02*
X64707132Y-58645229D01*
X64754751Y-58549991D01*
X64849990Y-58502371D01*
X64945228Y-58502371D01*
G04 #@! TO.C,C3*
X46926180Y-81335724D02*
X46926180Y-82002390D01*
X46688085Y-80954771D02*
X46449990Y-81669057D01*
X47069037Y-81669057D01*
X47354751Y-81002390D02*
X48021418Y-81002390D01*
X47592847Y-82002390D01*
X48402370Y-81335724D02*
X48402370Y-82002390D01*
X48402370Y-81430962D02*
X48449990Y-81383343D01*
X48545228Y-81335724D01*
X48688085Y-81335724D01*
X48783323Y-81383343D01*
X48830942Y-81478581D01*
X48830942Y-82002390D01*
X49164275Y-81335724D02*
X49545228Y-81335724D01*
X49307132Y-82002390D02*
X49307132Y-81145248D01*
X49354751Y-81050010D01*
X49449990Y-81002390D01*
X49545228Y-81002390D01*
D12*
G04 #@! TO.C,C2*
X53679990Y-55924991D02*
X53679990Y-55679991D01*
X57319990Y-55679991D02*
X53679990Y-55679991D01*
X53679990Y-58019991D02*
X53679990Y-57774991D01*
X57319990Y-55924991D02*
X57319990Y-55679991D01*
X57319990Y-58019991D02*
X57319990Y-57774991D01*
X57319990Y-58019991D02*
X53679990Y-58019991D01*
G04 #@! TO.C,C1*
X113520010Y-55924991D02*
X113520010Y-55679991D01*
X113520010Y-58019991D02*
X109880010Y-58019991D01*
X113520010Y-55679991D02*
X109880010Y-55679991D01*
X109880010Y-55924991D02*
X109880010Y-55679991D01*
X109880010Y-58019991D02*
X109880010Y-57774991D01*
X113520010Y-58019991D02*
X113520010Y-57774991D01*
G04 #@! TO.C,C2*
X57319990Y-125520048D02*
X57319990Y-125275048D01*
X57319990Y-123180048D02*
X53679990Y-123180048D01*
X53679990Y-125520048D02*
X53679990Y-125275048D01*
X57319990Y-125520048D02*
X53679990Y-125520048D01*
X53679990Y-123425048D02*
X53679990Y-123180048D01*
X57319990Y-123425048D02*
X57319990Y-123180048D01*
G04 #@! TO.C,C3*
X46079990Y-57774991D02*
X46079990Y-58019991D01*
X46079990Y-58019991D02*
X49719990Y-58019991D01*
X49719990Y-55679991D02*
X49719990Y-55924991D01*
X46079990Y-55679991D02*
X49719990Y-55679991D01*
X49719990Y-57774991D02*
X49719990Y-58019991D01*
X46079990Y-55679991D02*
X46079990Y-55924991D01*
G04 #@! TO.C,C2*
X105820010Y-78180010D02*
X102180010Y-78180010D01*
X105820010Y-78425010D02*
X105820010Y-78180010D01*
X102180010Y-80520010D02*
X102180010Y-80275010D01*
X105820010Y-80520010D02*
X105820010Y-80275010D01*
X102180010Y-78425010D02*
X102180010Y-78180010D01*
X105820010Y-80520010D02*
X102180010Y-80520010D01*
G04 #@! TO.C,C1*
X113520010Y-123180048D02*
X109880010Y-123180048D01*
X113520010Y-123425048D02*
X113520010Y-123180048D01*
X113520010Y-125520048D02*
X113520010Y-125275048D01*
X113520010Y-125520048D02*
X109880010Y-125520048D01*
X109880010Y-125520048D02*
X109880010Y-125275048D01*
X109880010Y-123425048D02*
X109880010Y-123180048D01*
G04 #@! TO.C,C2*
X102180010Y-100925029D02*
X102180010Y-100680029D01*
X105820010Y-100680029D02*
X102180010Y-100680029D01*
X105820010Y-103020029D02*
X102180010Y-103020029D01*
X105820010Y-103020029D02*
X105820010Y-102775029D01*
X105820010Y-100925029D02*
X105820010Y-100680029D01*
X102180010Y-103020029D02*
X102180010Y-102775029D01*
X105820010Y-123425048D02*
X105820010Y-123180048D01*
X105820010Y-125520048D02*
X102180010Y-125520048D01*
X105820010Y-125520048D02*
X105820010Y-125275048D01*
X102180010Y-125520048D02*
X102180010Y-125275048D01*
X102180010Y-123425048D02*
X102180010Y-123180048D01*
X105820010Y-123180048D02*
X102180010Y-123180048D01*
G04 #@! TO.C,C1*
X65019990Y-125520048D02*
X61379990Y-125520048D01*
X61379990Y-123425048D02*
X61379990Y-123180048D01*
X65019990Y-123425048D02*
X65019990Y-123180048D01*
X61379990Y-125520048D02*
X61379990Y-125275048D01*
X65019990Y-125520048D02*
X65019990Y-125275048D01*
X65019990Y-123180048D02*
X61379990Y-123180048D01*
G04 #@! TO.C,C3*
X94580010Y-55679991D02*
X94580010Y-55924991D01*
X94580010Y-58019991D02*
X98220010Y-58019991D01*
X98220010Y-57774991D02*
X98220010Y-58019991D01*
X98220010Y-55679991D02*
X98220010Y-55924991D01*
X94580010Y-55679991D02*
X98220010Y-55679991D01*
X94580010Y-57774991D02*
X94580010Y-58019991D01*
G04 #@! TO.C,C1*
X109880010Y-80520010D02*
X109880010Y-80275010D01*
X113520010Y-80520010D02*
X113520010Y-80275010D01*
X113520010Y-78425010D02*
X113520010Y-78180010D01*
X113520010Y-80520010D02*
X109880010Y-80520010D01*
X109880010Y-78425010D02*
X109880010Y-78180010D01*
X113520010Y-78180010D02*
X109880010Y-78180010D01*
G04 #@! TO.C,C3*
X46079990Y-123180048D02*
X49719990Y-123180048D01*
X46079990Y-123180048D02*
X46079990Y-123425048D01*
X49719990Y-123180048D02*
X49719990Y-123425048D01*
X49719990Y-125275048D02*
X49719990Y-125520048D01*
X46079990Y-125520048D02*
X49719990Y-125520048D01*
X46079990Y-125275048D02*
X46079990Y-125520048D01*
X94580010Y-100680029D02*
X94580010Y-100925029D01*
X94580010Y-100680029D02*
X98220010Y-100680029D01*
X98220010Y-100680029D02*
X98220010Y-100925029D01*
X98220010Y-102775029D02*
X98220010Y-103020029D01*
X94580010Y-102775029D02*
X94580010Y-103020029D01*
X94580010Y-103020029D02*
X98220010Y-103020029D01*
G04 #@! TO.C,C2*
X53679990Y-103020029D02*
X53679990Y-102775029D01*
X57319990Y-103020029D02*
X53679990Y-103020029D01*
X57319990Y-100680029D02*
X53679990Y-100680029D01*
X53679990Y-100925029D02*
X53679990Y-100680029D01*
X57319990Y-103020029D02*
X57319990Y-102775029D01*
X57319990Y-100925029D02*
X57319990Y-100680029D01*
G04 #@! TO.C,C1*
X61379990Y-78425010D02*
X61379990Y-78180010D01*
X65019990Y-80520010D02*
X61379990Y-80520010D01*
X65019990Y-78180010D02*
X61379990Y-78180010D01*
X65019990Y-78425010D02*
X65019990Y-78180010D01*
X65019990Y-80520010D02*
X65019990Y-80275010D01*
X61379990Y-80520010D02*
X61379990Y-80275010D01*
X65019990Y-103020029D02*
X65019990Y-102775029D01*
X61379990Y-103020029D02*
X61379990Y-102775029D01*
X65019990Y-100680029D02*
X61379990Y-100680029D01*
X65019990Y-103020029D02*
X61379990Y-103020029D01*
X65019990Y-100925029D02*
X65019990Y-100680029D01*
X61379990Y-100925029D02*
X61379990Y-100680029D01*
G04 #@! TO.C,C3*
X94580010Y-123180048D02*
X94580010Y-123425048D01*
X94580010Y-125275048D02*
X94580010Y-125520048D01*
X94580010Y-123180048D02*
X98220010Y-123180048D01*
X98220010Y-123180048D02*
X98220010Y-123425048D01*
X98220010Y-125275048D02*
X98220010Y-125520048D01*
X94580010Y-125520048D02*
X98220010Y-125520048D01*
G04 #@! TO.C,C2*
X105820010Y-58019991D02*
X105820010Y-57774991D01*
X102180010Y-58019991D02*
X102180010Y-57774991D01*
X105820010Y-58019991D02*
X102180010Y-58019991D01*
X105820010Y-55924991D02*
X105820010Y-55679991D01*
X102180010Y-55924991D02*
X102180010Y-55679991D01*
X105820010Y-55679991D02*
X102180010Y-55679991D01*
G04 #@! TO.C,C3*
X94580010Y-80520010D02*
X98220010Y-80520010D01*
X94580010Y-80275010D02*
X94580010Y-80520010D01*
X98220010Y-78180010D02*
X98220010Y-78425010D01*
X98220010Y-80275010D02*
X98220010Y-80520010D01*
X94580010Y-78180010D02*
X98220010Y-78180010D01*
X94580010Y-78180010D02*
X94580010Y-78425010D01*
G04 #@! TO.C,C2*
X57319990Y-78180010D02*
X53679990Y-78180010D01*
X57319990Y-80520010D02*
X53679990Y-80520010D01*
X53679990Y-80520010D02*
X53679990Y-80275010D01*
X57319990Y-80520010D02*
X57319990Y-80275010D01*
X53679990Y-78425010D02*
X53679990Y-78180010D01*
X57319990Y-78425010D02*
X57319990Y-78180010D01*
G04 #@! TO.C,C1*
X113520010Y-103020029D02*
X113520010Y-102775029D01*
X113520010Y-100925029D02*
X113520010Y-100680029D01*
X109880010Y-103020029D02*
X109880010Y-102775029D01*
X109880010Y-100925029D02*
X109880010Y-100680029D01*
X113520010Y-100680029D02*
X109880010Y-100680029D01*
X113520010Y-103020029D02*
X109880010Y-103020029D01*
G04 #@! TO.C,C3*
X46079990Y-100680029D02*
X49719990Y-100680029D01*
X46079990Y-102775029D02*
X46079990Y-103020029D01*
X49719990Y-102775029D02*
X49719990Y-103020029D01*
X49719990Y-100680029D02*
X49719990Y-100925029D01*
X46079990Y-100680029D02*
X46079990Y-100925029D01*
X46079990Y-103020029D02*
X49719990Y-103020029D01*
G04 #@! TO.C,C1*
X65019990Y-55924991D02*
X65019990Y-55679991D01*
X61379990Y-58019991D02*
X61379990Y-57774991D01*
X65019990Y-55679991D02*
X61379990Y-55679991D01*
X65019990Y-58019991D02*
X65019990Y-57774991D01*
X61379990Y-55924991D02*
X61379990Y-55679991D01*
X65019990Y-58019991D02*
X61379990Y-58019991D01*
G04 #@! TO.C,C3*
X46079990Y-78180010D02*
X49719990Y-78180010D01*
X46079990Y-80275010D02*
X46079990Y-80520010D01*
X49719990Y-78180010D02*
X49719990Y-78425010D01*
X49719990Y-80275010D02*
X49719990Y-80520010D01*
X46079990Y-80520010D02*
X49719990Y-80520010D01*
X46079990Y-78180010D02*
X46079990Y-78425010D01*
G04 #@! TO.C,J1*
X39389989Y-77110011D02*
X72389989Y-77110011D01*
X72389989Y-66110011D02*
X39389989Y-66110011D01*
X61889989Y-64810011D02*
X50889989Y-64810011D01*
X39389989Y-66110011D02*
X39389989Y-77110011D01*
X61889989Y-65810011D02*
X61889989Y-64810011D01*
X72389989Y-77110011D02*
X72389989Y-66110011D01*
X50889989Y-64810011D02*
X50889989Y-65810011D01*
X72389989Y-111110049D02*
X39389989Y-111110049D01*
X61889989Y-109810049D02*
X50889989Y-109810049D01*
X50889989Y-109810049D02*
X50889989Y-110810049D01*
X39389989Y-122110049D02*
X72389989Y-122110049D01*
X72389989Y-122110049D02*
X72389989Y-111110049D01*
X39389989Y-111110049D02*
X39389989Y-122110049D01*
X61889989Y-110810049D02*
X61889989Y-109810049D01*
X87890009Y-66110011D02*
X87890009Y-77110011D01*
X120890009Y-77110011D02*
X120890009Y-66110011D01*
X87890009Y-77110011D02*
X120890009Y-77110011D01*
X99390009Y-64810011D02*
X99390009Y-65810011D01*
X120890009Y-66110011D02*
X87890009Y-66110011D01*
X110390009Y-65810011D02*
X110390009Y-64810011D01*
X110390009Y-64810011D02*
X99390009Y-64810011D01*
X99390009Y-109810049D02*
X99390009Y-110810049D01*
X87890009Y-111110049D02*
X87890009Y-122110049D01*
X87890009Y-122110049D02*
X120890009Y-122110049D01*
X110390009Y-109810049D02*
X99390009Y-109810049D01*
X110390009Y-110810049D02*
X110390009Y-109810049D01*
X120890009Y-122110049D02*
X120890009Y-111110049D01*
X120890009Y-111110049D02*
X87890009Y-111110049D01*
X120890009Y-99610030D02*
X120890009Y-88610030D01*
X99390009Y-87310030D02*
X99390009Y-88310030D01*
X110390009Y-87310030D02*
X99390009Y-87310030D01*
X120890009Y-88610030D02*
X87890009Y-88610030D01*
X110390009Y-88310030D02*
X110390009Y-87310030D01*
X87890009Y-88610030D02*
X87890009Y-99610030D01*
X87890009Y-99610030D02*
X120890009Y-99610030D01*
X110390009Y-42309992D02*
X99390009Y-42309992D01*
X120890009Y-43609992D02*
X87890009Y-43609992D01*
X87890009Y-54609992D02*
X120890009Y-54609992D01*
X99390009Y-42309992D02*
X99390009Y-43309992D01*
X87890009Y-43609992D02*
X87890009Y-54609992D01*
X120890009Y-54609992D02*
X120890009Y-43609992D01*
X110390009Y-43309992D02*
X110390009Y-42309992D01*
X39389989Y-54609992D02*
X72389989Y-54609992D01*
X39389989Y-43609992D02*
X39389989Y-54609992D01*
X72389989Y-43609992D02*
X39389989Y-43609992D01*
X61889989Y-43309992D02*
X61889989Y-42309992D01*
X50889989Y-42309992D02*
X50889989Y-43309992D01*
X61889989Y-42309992D02*
X50889989Y-42309992D01*
X72389989Y-54609992D02*
X72389989Y-43609992D01*
X50889989Y-87310030D02*
X50889989Y-88310030D01*
X39389989Y-99610030D02*
X72389989Y-99610030D01*
X61889989Y-87310030D02*
X50889989Y-87310030D01*
X61889989Y-88310030D02*
X61889989Y-87310030D01*
X72389989Y-88610030D02*
X39389989Y-88610030D01*
X72389989Y-99610030D02*
X72389989Y-88610030D01*
X39389989Y-88610030D02*
X39389989Y-99610030D01*
G04 #@! TD*
M02*
