G04 #@! TF.GenerationSoftware,KiCad,Pcbnew,(6.0.0)*
G04 #@! TF.CreationDate,2022-01-04T09:55:11+00:00*
G04 #@! TF.ProjectId,LEM_Breakout_Board,4c454d5f-4272-4656-916b-6f75745f426f,rev?*
G04 #@! TF.SameCoordinates,Original*
G04 #@! TF.FileFunction,Soldermask,Bot*
G04 #@! TF.FilePolarity,Negative*
%FSLAX46Y46*%
G04 Gerber Fmt 4.6, Leading zero omitted, Abs format (unit mm)*
G04 Created by KiCad (PCBNEW (6.0.0)) date 2022-01-04 09:55:11*
%MOMM*%
%LPD*%
G01*
G04 APERTURE LIST*
%ADD10C,0.200000*%
%ADD11C,0.120000*%
%ADD12C,1.600000*%
%ADD13R,1.350000X1.350000*%
%ADD14O,1.350000X1.350000*%
%ADD15C,1.524000*%
%ADD16C,2.800000*%
G04 APERTURE END LIST*
D10*
G04 #@! TO.C,G\u002A\u002A\u002A*
X127996122Y-97652443D02*
X127592789Y-97652443D01*
X127419932Y-98286252D02*
X127996122Y-98286252D01*
X127996122Y-97076252D01*
X127419932Y-97076252D01*
X126728503Y-98286252D02*
X126843741Y-98228633D01*
X126901361Y-98113395D01*
X126901361Y-97076252D01*
X125806599Y-98228633D02*
X125921837Y-98286252D01*
X126152313Y-98286252D01*
X126267551Y-98228633D01*
X126325170Y-98113395D01*
X126325170Y-97652443D01*
X126267551Y-97537205D01*
X126152313Y-97479586D01*
X125921837Y-97479586D01*
X125806599Y-97537205D01*
X125748980Y-97652443D01*
X125748980Y-97767681D01*
X126325170Y-97882919D01*
X124711837Y-98228633D02*
X124827075Y-98286252D01*
X125057551Y-98286252D01*
X125172789Y-98228633D01*
X125230408Y-98171014D01*
X125288027Y-98055776D01*
X125288027Y-97710062D01*
X125230408Y-97594824D01*
X125172789Y-97537205D01*
X125057551Y-97479586D01*
X124827075Y-97479586D01*
X124711837Y-97537205D01*
X124366122Y-97479586D02*
X123905170Y-97479586D01*
X124193265Y-97076252D02*
X124193265Y-98113395D01*
X124135646Y-98228633D01*
X124020408Y-98286252D01*
X123905170Y-98286252D01*
X123501837Y-98286252D02*
X123501837Y-97479586D01*
X123501837Y-97710062D02*
X123444218Y-97594824D01*
X123386599Y-97537205D01*
X123271361Y-97479586D01*
X123156122Y-97479586D01*
X122579932Y-98286252D02*
X122695170Y-98228633D01*
X122752789Y-98171014D01*
X122810408Y-98055776D01*
X122810408Y-97710062D01*
X122752789Y-97594824D01*
X122695170Y-97537205D01*
X122579932Y-97479586D01*
X122407075Y-97479586D01*
X122291837Y-97537205D01*
X122234218Y-97594824D01*
X122176599Y-97710062D01*
X122176599Y-98055776D01*
X122234218Y-98171014D01*
X122291837Y-98228633D01*
X122407075Y-98286252D01*
X122579932Y-98286252D01*
X121658027Y-97479586D02*
X121658027Y-98286252D01*
X121658027Y-97594824D02*
X121600408Y-97537205D01*
X121485170Y-97479586D01*
X121312313Y-97479586D01*
X121197075Y-97537205D01*
X121139456Y-97652443D01*
X121139456Y-98286252D01*
X120563265Y-98286252D02*
X120563265Y-97479586D01*
X120563265Y-97076252D02*
X120620884Y-97133872D01*
X120563265Y-97191491D01*
X120505646Y-97133872D01*
X120563265Y-97076252D01*
X120563265Y-97191491D01*
X119468503Y-98228633D02*
X119583741Y-98286252D01*
X119814218Y-98286252D01*
X119929456Y-98228633D01*
X119987075Y-98171014D01*
X120044694Y-98055776D01*
X120044694Y-97710062D01*
X119987075Y-97594824D01*
X119929456Y-97537205D01*
X119814218Y-97479586D01*
X119583741Y-97479586D01*
X119468503Y-97537205D01*
X119007551Y-98228633D02*
X118892313Y-98286252D01*
X118661837Y-98286252D01*
X118546599Y-98228633D01*
X118488980Y-98113395D01*
X118488980Y-98055776D01*
X118546599Y-97940538D01*
X118661837Y-97882919D01*
X118834694Y-97882919D01*
X118949932Y-97825300D01*
X119007551Y-97710062D01*
X119007551Y-97652443D01*
X118949932Y-97537205D01*
X118834694Y-97479586D01*
X118661837Y-97479586D01*
X118546599Y-97537205D01*
D11*
X133471361Y-97038872D02*
X128671361Y-97038872D01*
X128671361Y-97038872D02*
X128671361Y-97638872D01*
X128671361Y-97638872D02*
X133471361Y-97638872D01*
X133471361Y-97638872D02*
X133471361Y-97038872D01*
G36*
X133471361Y-97038872D02*
G01*
X128671361Y-97038872D01*
X128671361Y-97638872D01*
X133471361Y-97638872D01*
X133471361Y-97038872D01*
G37*
G36*
X123161707Y-95203483D02*
G01*
X123158964Y-95503370D01*
X123151138Y-95722361D01*
X123135696Y-95882284D01*
X123110107Y-96004970D01*
X123071841Y-96112248D01*
X123018364Y-96225947D01*
X122860805Y-96468420D01*
X122673176Y-96614633D01*
X122432448Y-96693240D01*
X122141943Y-96717309D01*
X121860607Y-96681052D01*
X121633673Y-96585728D01*
X121572610Y-96543383D01*
X121446971Y-96440853D01*
X121353450Y-96327343D01*
X121287386Y-96185497D01*
X121244117Y-95997959D01*
X121218982Y-95747371D01*
X121207320Y-95416379D01*
X121204565Y-95002196D01*
X121856364Y-95002196D01*
X121860683Y-95327747D01*
X121872940Y-95629509D01*
X121893134Y-95884699D01*
X121921266Y-96070536D01*
X121957335Y-96164236D01*
X122033982Y-96216419D01*
X122180668Y-96254745D01*
X122224204Y-96253462D01*
X122308757Y-96235728D01*
X122371650Y-96186119D01*
X122416037Y-96090756D01*
X122445071Y-95935756D01*
X122461905Y-95707239D01*
X122469693Y-95391324D01*
X122471588Y-94974129D01*
X122470907Y-94606450D01*
X122467742Y-94319575D01*
X122460524Y-94115736D01*
X122447686Y-93978510D01*
X122427662Y-93891471D01*
X122398884Y-93838194D01*
X122359786Y-93802256D01*
X122282029Y-93755623D01*
X122109826Y-93727869D01*
X121957335Y-93811013D01*
X121953829Y-93814996D01*
X121918461Y-93917754D01*
X121891030Y-94110635D01*
X121871537Y-94370857D01*
X121859982Y-94675639D01*
X121856364Y-95002196D01*
X121204565Y-95002196D01*
X121204468Y-94987625D01*
X121204896Y-94713954D01*
X121207870Y-94401354D01*
X121215191Y-94172444D01*
X121228601Y-94008574D01*
X121249840Y-93891093D01*
X121280651Y-93801352D01*
X121322775Y-93720700D01*
X121345415Y-93683610D01*
X121554401Y-93445134D01*
X121819575Y-93305357D01*
X122148927Y-93259823D01*
X122370994Y-93272944D01*
X122646336Y-93349741D01*
X122855619Y-93504863D01*
X123018364Y-93749303D01*
X123050903Y-93816270D01*
X123095387Y-93923630D01*
X123126106Y-94037030D01*
X123145592Y-94178300D01*
X123156376Y-94369269D01*
X123160990Y-94631768D01*
X123161929Y-94974129D01*
X123161966Y-94987625D01*
X123161707Y-95203483D01*
G37*
G36*
X130386287Y-91987435D02*
G01*
X130674410Y-92162093D01*
X130893546Y-92418720D01*
X131032145Y-92750933D01*
X131034572Y-92760773D01*
X131063215Y-92946212D01*
X131085479Y-93219121D01*
X131101356Y-93557003D01*
X131110841Y-93937359D01*
X131113926Y-94337693D01*
X131110603Y-94735504D01*
X131100867Y-95108296D01*
X131084710Y-95433569D01*
X131062125Y-95688827D01*
X131033105Y-95851570D01*
X130909409Y-96146221D01*
X130698150Y-96420391D01*
X130426574Y-96605327D01*
X130219953Y-96672537D01*
X129890216Y-96711497D01*
X129553575Y-96689247D01*
X129262262Y-96605770D01*
X129173804Y-96560407D01*
X128945636Y-96372276D01*
X128786853Y-96107620D01*
X128693975Y-95758956D01*
X128663519Y-95318804D01*
X128663198Y-94930028D01*
X129282313Y-94930028D01*
X129308476Y-95428490D01*
X129317305Y-95581117D01*
X129335750Y-95775037D01*
X129365270Y-95900147D01*
X129414407Y-95985975D01*
X129491699Y-96062050D01*
X129533835Y-96095109D01*
X129753607Y-96188141D01*
X129985288Y-96175768D01*
X130200689Y-96058144D01*
X130362291Y-95919140D01*
X130362291Y-92673592D01*
X130226319Y-92563488D01*
X130082493Y-92488461D01*
X129817672Y-92453384D01*
X129795495Y-92453507D01*
X129602255Y-92472833D01*
X129469165Y-92537250D01*
X129383938Y-92664150D01*
X129334286Y-92870928D01*
X129307923Y-93174979D01*
X129282313Y-93662908D01*
X128651737Y-93662908D01*
X128673328Y-93158940D01*
X128679927Y-93041240D01*
X128732369Y-92661832D01*
X128835471Y-92374075D01*
X128998618Y-92164681D01*
X129231191Y-92020359D01*
X129542574Y-91927821D01*
X129649282Y-91909558D01*
X130040727Y-91901129D01*
X130386287Y-91987435D01*
G37*
G36*
X128087235Y-96657919D02*
G01*
X127453674Y-96657919D01*
X127453674Y-93964138D01*
X127311710Y-93871119D01*
X127194249Y-93814023D01*
X127024510Y-93780865D01*
X126879171Y-93799211D01*
X126797478Y-93869206D01*
X126791606Y-93903673D01*
X126782261Y-94044180D01*
X126774257Y-94272379D01*
X126768017Y-94570868D01*
X126763963Y-94922247D01*
X126762518Y-95309115D01*
X126762518Y-96657919D01*
X126128958Y-96657919D01*
X126128958Y-95157553D01*
X126129313Y-94831274D01*
X126132942Y-94378102D01*
X126143375Y-94021550D01*
X126164083Y-93750055D01*
X126198533Y-93552054D01*
X126250195Y-93415983D01*
X126322540Y-93330279D01*
X126419035Y-93283378D01*
X126543151Y-93263717D01*
X126698356Y-93259733D01*
X126912229Y-93298670D01*
X127183214Y-93431254D01*
X127453674Y-93602775D01*
X127453674Y-91935017D01*
X128087235Y-91935017D01*
X128087235Y-96657919D01*
G37*
G36*
X133529924Y-95152695D02*
G01*
X133527488Y-95497535D01*
X133520884Y-95753131D01*
X133508510Y-95938066D01*
X133488761Y-96070924D01*
X133460032Y-96170289D01*
X133420721Y-96254745D01*
X133244629Y-96492263D01*
X132984864Y-96668270D01*
X132928040Y-96683327D01*
X132773557Y-96702307D01*
X132579752Y-96711378D01*
X132356752Y-96698675D01*
X132060063Y-96610785D01*
X131839721Y-96437533D01*
X131693066Y-96176469D01*
X131617437Y-95825144D01*
X131584497Y-95505992D01*
X132234173Y-95505992D01*
X132234173Y-95752360D01*
X132234227Y-95762535D01*
X132269837Y-95994182D01*
X132359689Y-96159439D01*
X132486673Y-96246326D01*
X132633677Y-96242861D01*
X132783591Y-96137063D01*
X132821045Y-96085184D01*
X132866024Y-95965116D01*
X132895553Y-95779473D01*
X132914756Y-95503503D01*
X132939420Y-94987625D01*
X131585212Y-94987625D01*
X131601998Y-94642046D01*
X132234173Y-94642046D01*
X132940209Y-94642046D01*
X132900671Y-94292579D01*
X132882946Y-94144914D01*
X132851003Y-93952882D01*
X132810285Y-93838040D01*
X132750142Y-93776055D01*
X132659922Y-93742594D01*
X132623277Y-93734615D01*
X132449299Y-93744181D01*
X132328120Y-93848831D01*
X132257244Y-94052172D01*
X132234173Y-94357814D01*
X132234173Y-94642046D01*
X131601998Y-94642046D01*
X131612489Y-94426060D01*
X131640305Y-94099877D01*
X131711361Y-93769479D01*
X131829980Y-93530860D01*
X132004723Y-93373449D01*
X132244154Y-93286669D01*
X132556835Y-93259949D01*
X132661350Y-93263094D01*
X132972848Y-93325923D01*
X133217853Y-93475688D01*
X133411785Y-93720700D01*
X133442090Y-93776144D01*
X133476236Y-93861057D01*
X133500268Y-93967903D01*
X133515928Y-94115332D01*
X133524958Y-94321996D01*
X133529098Y-94606543D01*
X133529191Y-94642046D01*
X133530092Y-94987625D01*
X133529924Y-95152695D01*
G37*
G36*
X125581401Y-95174102D02*
G01*
X125575543Y-95561185D01*
X125558988Y-95857533D01*
X125527073Y-96080503D01*
X125475136Y-96247451D01*
X125398518Y-96375734D01*
X125292555Y-96482708D01*
X125152587Y-96585728D01*
X125079472Y-96629822D01*
X124888421Y-96696158D01*
X124637334Y-96715426D01*
X124415266Y-96702305D01*
X124139925Y-96625508D01*
X123930642Y-96470386D01*
X123767896Y-96225947D01*
X123735357Y-96158979D01*
X123690874Y-96051619D01*
X123660155Y-95938219D01*
X123640669Y-95796949D01*
X123629884Y-95605980D01*
X123625270Y-95343481D01*
X123624294Y-94987625D01*
X123624469Y-94841517D01*
X124285288Y-94841517D01*
X124285659Y-95168010D01*
X124293320Y-95480547D01*
X124308272Y-95753882D01*
X124330516Y-95962767D01*
X124360053Y-96081956D01*
X124389458Y-96129274D01*
X124521554Y-96226971D01*
X124679281Y-96236671D01*
X124821646Y-96152142D01*
X124833510Y-96137932D01*
X124865558Y-96079398D01*
X124888661Y-95989191D01*
X124904210Y-95850609D01*
X124913595Y-95646953D01*
X124918206Y-95361523D01*
X124919434Y-94977617D01*
X124918950Y-94675121D01*
X124916055Y-94374536D01*
X124909121Y-94159128D01*
X124896548Y-94011993D01*
X124876736Y-93916228D01*
X124848084Y-93854930D01*
X124808991Y-93811197D01*
X124794149Y-93798512D01*
X124635575Y-93732421D01*
X124478426Y-93766299D01*
X124360160Y-93893293D01*
X124356675Y-93900932D01*
X124327900Y-94030776D01*
X124306409Y-94247653D01*
X124292205Y-94526316D01*
X124285288Y-94841517D01*
X123624469Y-94841517D01*
X123624553Y-94771766D01*
X123627296Y-94471879D01*
X123635123Y-94252888D01*
X123650565Y-94092965D01*
X123676153Y-93970279D01*
X123714420Y-93863001D01*
X123767896Y-93749303D01*
X123868681Y-93580663D01*
X124059248Y-93395161D01*
X124308958Y-93291878D01*
X124637334Y-93259823D01*
X124682425Y-93260518D01*
X125003291Y-93317625D01*
X125260981Y-93469534D01*
X125463486Y-93720700D01*
X125493790Y-93776144D01*
X125527936Y-93861057D01*
X125551969Y-93967903D01*
X125567629Y-94115332D01*
X125576659Y-94321996D01*
X125580799Y-94606543D01*
X125581766Y-94977617D01*
X125581792Y-94987625D01*
X125581401Y-95174102D01*
G37*
G36*
X120657303Y-96657919D02*
G01*
X119966146Y-96657919D01*
X119966146Y-96018847D01*
X119966090Y-95975605D01*
X119960691Y-95677079D01*
X119944402Y-95466463D01*
X119914268Y-95319641D01*
X119867333Y-95212498D01*
X119858389Y-95197565D01*
X119784695Y-95089617D01*
X119737741Y-95045617D01*
X119728291Y-95057456D01*
X119683893Y-95153561D01*
X119612551Y-95330566D01*
X119521751Y-95569545D01*
X119418981Y-95851570D01*
X119130999Y-96657126D01*
X118801268Y-96657523D01*
X118471538Y-96657919D01*
X118637054Y-96211547D01*
X118671987Y-96117485D01*
X118779926Y-95827930D01*
X118900392Y-95505907D01*
X119013237Y-95205310D01*
X119223904Y-94645445D01*
X118846272Y-94005381D01*
X118822383Y-93964842D01*
X118684136Y-93728230D01*
X118571756Y-93532532D01*
X118496254Y-93397110D01*
X118468640Y-93341323D01*
X118501643Y-93330946D01*
X118621859Y-93321267D01*
X118799820Y-93317662D01*
X119130999Y-93317994D01*
X119534173Y-93980624D01*
X119937348Y-94643254D01*
X119952789Y-93289136D01*
X119968231Y-91935017D01*
X120657303Y-91935017D01*
X120657303Y-96657919D01*
G37*
G04 #@! TD*
D12*
G04 #@! TO.C,C2*
X136900000Y-105820000D03*
X134400000Y-105820000D03*
G04 #@! TD*
G04 #@! TO.C,C3*
X126800000Y-105820000D03*
X129300000Y-105820000D03*
G04 #@! TD*
G04 #@! TO.C,C1*
X144600000Y-105820000D03*
X142100000Y-105820000D03*
G04 #@! TD*
D13*
G04 #@! TO.C,J2*
X114400000Y-95720000D03*
D14*
X114400000Y-97720000D03*
X114400000Y-99720000D03*
X114400000Y-101720000D03*
G04 #@! TD*
D15*
G04 #@! TO.C,J1*
X136039999Y-93880001D03*
X136039999Y-95680001D03*
X136039999Y-97480001D03*
X136039999Y-99280001D03*
D16*
X125039999Y-102080001D03*
X150539999Y-95580001D03*
G04 #@! TD*
M02*
