G04 #@! TF.GenerationSoftware,KiCad,Pcbnew,(6.0.0)*
G04 #@! TF.CreationDate,2022-01-04T09:55:11+00:00*
G04 #@! TF.ProjectId,LEM_Breakout_Board,4c454d5f-4272-4656-916b-6f75745f426f,rev?*
G04 #@! TF.SameCoordinates,Original*
G04 #@! TF.FileFunction,Soldermask,Top*
G04 #@! TF.FilePolarity,Negative*
%FSLAX46Y46*%
G04 Gerber Fmt 4.6, Leading zero omitted, Abs format (unit mm)*
G04 Created by KiCad (PCBNEW (6.0.0)) date 2022-01-04 09:55:11*
%MOMM*%
%LPD*%
G01*
G04 APERTURE LIST*
%ADD10C,0.010000*%
%ADD11C,1.600000*%
%ADD12R,1.350000X1.350000*%
%ADD13O,1.350000X1.350000*%
%ADD14C,1.524000*%
%ADD15C,2.800000*%
G04 APERTURE END LIST*
D10*
G04 #@! TO.C,G\u002A\u002A\u002A*
X120322137Y-106192772D02*
X120369195Y-106200826D01*
X120369195Y-106200826D02*
X120506515Y-106241636D01*
X120506515Y-106241636D02*
X120609080Y-106305281D01*
X120609080Y-106305281D02*
X120681027Y-106397624D01*
X120681027Y-106397624D02*
X120726495Y-106524525D01*
X120726495Y-106524525D02*
X120749622Y-106691844D01*
X120749622Y-106691844D02*
X120752532Y-106743750D01*
X120752532Y-106743750D02*
X120762054Y-106966000D01*
X120762054Y-106966000D02*
X120483970Y-106966000D01*
X120483970Y-106966000D02*
X120472676Y-106750823D01*
X120472676Y-106750823D02*
X120461050Y-106616737D01*
X120461050Y-106616737D02*
X120439153Y-106525547D01*
X120439153Y-106525547D02*
X120401568Y-106469584D01*
X120401568Y-106469584D02*
X120342876Y-106441177D01*
X120342876Y-106441177D02*
X120257657Y-106432654D01*
X120257657Y-106432654D02*
X120247877Y-106432600D01*
X120247877Y-106432600D02*
X120131091Y-106448069D01*
X120131091Y-106448069D02*
X120067663Y-106481155D01*
X120067663Y-106481155D02*
X120007700Y-106529711D01*
X120007700Y-106529711D02*
X120007700Y-107960998D01*
X120007700Y-107960998D02*
X120078966Y-108022299D01*
X120078966Y-108022299D02*
X120173958Y-108074171D01*
X120173958Y-108074171D02*
X120276129Y-108079627D01*
X120276129Y-108079627D02*
X120373049Y-108038600D01*
X120373049Y-108038600D02*
X120391631Y-108024021D01*
X120391631Y-108024021D02*
X120425716Y-107990472D01*
X120425716Y-107990472D02*
X120447386Y-107952622D01*
X120447386Y-107952622D02*
X120460404Y-107897448D01*
X120460404Y-107897448D02*
X120468538Y-107811930D01*
X120468538Y-107811930D02*
X120472432Y-107744621D01*
X120472432Y-107744621D02*
X120483970Y-107524800D01*
X120483970Y-107524800D02*
X120757000Y-107524800D01*
X120757000Y-107524800D02*
X120756858Y-107696250D01*
X120756858Y-107696250D02*
X120743427Y-107890357D01*
X120743427Y-107890357D02*
X120702468Y-108044117D01*
X120702468Y-108044117D02*
X120632444Y-108160831D01*
X120632444Y-108160831D02*
X120531822Y-108243797D01*
X120531822Y-108243797D02*
X120492812Y-108263801D01*
X120492812Y-108263801D02*
X120364343Y-108300615D01*
X120364343Y-108300615D02*
X120215884Y-108310427D01*
X120215884Y-108310427D02*
X120070471Y-108293246D01*
X120070471Y-108293246D02*
X119979351Y-108263606D01*
X119979351Y-108263606D02*
X119859586Y-108182049D01*
X119859586Y-108182049D02*
X119766421Y-108061140D01*
X119766421Y-108061140D02*
X119711871Y-107931200D01*
X119711871Y-107931200D02*
X119699073Y-107859430D01*
X119699073Y-107859430D02*
X119689113Y-107746861D01*
X119689113Y-107746861D02*
X119681988Y-107603416D01*
X119681988Y-107603416D02*
X119677694Y-107439014D01*
X119677694Y-107439014D02*
X119676229Y-107263580D01*
X119676229Y-107263580D02*
X119677589Y-107087033D01*
X119677589Y-107087033D02*
X119681772Y-106919295D01*
X119681772Y-106919295D02*
X119688774Y-106770289D01*
X119688774Y-106770289D02*
X119698592Y-106649936D01*
X119698592Y-106649936D02*
X119711224Y-106568158D01*
X119711224Y-106568158D02*
X119712294Y-106563818D01*
X119712294Y-106563818D02*
X119773416Y-106417313D01*
X119773416Y-106417313D02*
X119870055Y-106304140D01*
X119870055Y-106304140D02*
X119997117Y-106227116D01*
X119997117Y-106227116D02*
X120149509Y-106189055D01*
X120149509Y-106189055D02*
X120322137Y-106192772D01*
X120322137Y-106192772D02*
X120322137Y-106192772D01*
G36*
X120322137Y-106192772D02*
G01*
X120369195Y-106200826D01*
X120506515Y-106241636D01*
X120609080Y-106305281D01*
X120681027Y-106397624D01*
X120726495Y-106524525D01*
X120749622Y-106691844D01*
X120752532Y-106743750D01*
X120762054Y-106966000D01*
X120483970Y-106966000D01*
X120472676Y-106750823D01*
X120461050Y-106616737D01*
X120439153Y-106525547D01*
X120401568Y-106469584D01*
X120342876Y-106441177D01*
X120257657Y-106432654D01*
X120247877Y-106432600D01*
X120131091Y-106448069D01*
X120067663Y-106481155D01*
X120007700Y-106529711D01*
X120007700Y-107960998D01*
X120078966Y-108022299D01*
X120173958Y-108074171D01*
X120276129Y-108079627D01*
X120373049Y-108038600D01*
X120391631Y-108024021D01*
X120425716Y-107990472D01*
X120447386Y-107952622D01*
X120460404Y-107897448D01*
X120468538Y-107811930D01*
X120472432Y-107744621D01*
X120483970Y-107524800D01*
X120757000Y-107524800D01*
X120756858Y-107696250D01*
X120743427Y-107890357D01*
X120702468Y-108044117D01*
X120632444Y-108160831D01*
X120531822Y-108243797D01*
X120492812Y-108263801D01*
X120364343Y-108300615D01*
X120215884Y-108310427D01*
X120070471Y-108293246D01*
X119979351Y-108263606D01*
X119859586Y-108182049D01*
X119766421Y-108061140D01*
X119711871Y-107931200D01*
X119699073Y-107859430D01*
X119689113Y-107746861D01*
X119681988Y-107603416D01*
X119677694Y-107439014D01*
X119676229Y-107263580D01*
X119677589Y-107087033D01*
X119681772Y-106919295D01*
X119688774Y-106770289D01*
X119698592Y-106649936D01*
X119711224Y-106568158D01*
X119712294Y-106563818D01*
X119773416Y-106417313D01*
X119870055Y-106304140D01*
X119997117Y-106227116D01*
X120149509Y-106189055D01*
X120322137Y-106192772D01*
G37*
X120322137Y-106192772D02*
X120369195Y-106200826D01*
X120506515Y-106241636D01*
X120609080Y-106305281D01*
X120681027Y-106397624D01*
X120726495Y-106524525D01*
X120749622Y-106691844D01*
X120752532Y-106743750D01*
X120762054Y-106966000D01*
X120483970Y-106966000D01*
X120472676Y-106750823D01*
X120461050Y-106616737D01*
X120439153Y-106525547D01*
X120401568Y-106469584D01*
X120342876Y-106441177D01*
X120257657Y-106432654D01*
X120247877Y-106432600D01*
X120131091Y-106448069D01*
X120067663Y-106481155D01*
X120007700Y-106529711D01*
X120007700Y-107960998D01*
X120078966Y-108022299D01*
X120173958Y-108074171D01*
X120276129Y-108079627D01*
X120373049Y-108038600D01*
X120391631Y-108024021D01*
X120425716Y-107990472D01*
X120447386Y-107952622D01*
X120460404Y-107897448D01*
X120468538Y-107811930D01*
X120472432Y-107744621D01*
X120483970Y-107524800D01*
X120757000Y-107524800D01*
X120756858Y-107696250D01*
X120743427Y-107890357D01*
X120702468Y-108044117D01*
X120632444Y-108160831D01*
X120531822Y-108243797D01*
X120492812Y-108263801D01*
X120364343Y-108300615D01*
X120215884Y-108310427D01*
X120070471Y-108293246D01*
X119979351Y-108263606D01*
X119859586Y-108182049D01*
X119766421Y-108061140D01*
X119711871Y-107931200D01*
X119699073Y-107859430D01*
X119689113Y-107746861D01*
X119681988Y-107603416D01*
X119677694Y-107439014D01*
X119676229Y-107263580D01*
X119677589Y-107087033D01*
X119681772Y-106919295D01*
X119688774Y-106770289D01*
X119698592Y-106649936D01*
X119711224Y-106568158D01*
X119712294Y-106563818D01*
X119773416Y-106417313D01*
X119870055Y-106304140D01*
X119997117Y-106227116D01*
X120149509Y-106189055D01*
X120322137Y-106192772D01*
X123775037Y-106808320D02*
X123891979Y-106869961D01*
X123891979Y-106869961D02*
X123984142Y-106975129D01*
X123984142Y-106975129D02*
X123994126Y-106991486D01*
X123994126Y-106991486D02*
X124012703Y-107027053D01*
X124012703Y-107027053D02*
X124026290Y-107066629D01*
X124026290Y-107066629D02*
X124035657Y-107118438D01*
X124035657Y-107118438D02*
X124041571Y-107190705D01*
X124041571Y-107190705D02*
X124044799Y-107291654D01*
X124044799Y-107291654D02*
X124046111Y-107429511D01*
X124046111Y-107429511D02*
X124046300Y-107550200D01*
X124046300Y-107550200D02*
X124045042Y-107739280D01*
X124045042Y-107739280D02*
X124039899Y-107885248D01*
X124039899Y-107885248D02*
X124028814Y-107995757D01*
X124028814Y-107995757D02*
X124009733Y-108078461D01*
X124009733Y-108078461D02*
X123980598Y-108141016D01*
X123980598Y-108141016D02*
X123939356Y-108191073D01*
X123939356Y-108191073D02*
X123883949Y-108236289D01*
X123883949Y-108236289D02*
X123857020Y-108254963D01*
X123857020Y-108254963D02*
X123756942Y-108297001D01*
X123756942Y-108297001D02*
X123632873Y-108312990D01*
X123632873Y-108312990D02*
X123504760Y-108302376D01*
X123504760Y-108302376D02*
X123398600Y-108267710D01*
X123398600Y-108267710D02*
X123315855Y-108203230D01*
X123315855Y-108203230D02*
X123246371Y-108096300D01*
X123246371Y-108096300D02*
X123222788Y-108046158D01*
X123222788Y-108046158D02*
X123205913Y-107998849D01*
X123205913Y-107998849D02*
X123194628Y-107944745D01*
X123194628Y-107944745D02*
X123187818Y-107874218D01*
X123187818Y-107874218D02*
X123184367Y-107777643D01*
X123184367Y-107777643D02*
X123183157Y-107645393D01*
X123183157Y-107645393D02*
X123183043Y-107550200D01*
X123183043Y-107550200D02*
X123183059Y-107544248D01*
X123183059Y-107544248D02*
X123487500Y-107544248D01*
X123487500Y-107544248D02*
X123488335Y-107728231D01*
X123488335Y-107728231D02*
X123491770Y-107867549D01*
X123491770Y-107867549D02*
X123499194Y-107968325D01*
X123499194Y-107968325D02*
X123511998Y-108036680D01*
X123511998Y-108036680D02*
X123531572Y-108078736D01*
X123531572Y-108078736D02*
X123559308Y-108100613D01*
X123559308Y-108100613D02*
X123596596Y-108108434D01*
X123596596Y-108108434D02*
X123615795Y-108109000D01*
X123615795Y-108109000D02*
X123680484Y-108092098D01*
X123680484Y-108092098D02*
X123714285Y-108069085D01*
X123714285Y-108069085D02*
X123730192Y-108027763D01*
X123730192Y-108027763D02*
X123742598Y-107945809D01*
X123742598Y-107945809D02*
X123751503Y-107833270D01*
X123751503Y-107833270D02*
X123756909Y-107700193D01*
X123756909Y-107700193D02*
X123758813Y-107556625D01*
X123758813Y-107556625D02*
X123757218Y-107412614D01*
X123757218Y-107412614D02*
X123752122Y-107278205D01*
X123752122Y-107278205D02*
X123743526Y-107163447D01*
X123743526Y-107163447D02*
X123731429Y-107078386D01*
X123731429Y-107078386D02*
X123715831Y-107033070D01*
X123715831Y-107033070D02*
X123714285Y-107031314D01*
X123714285Y-107031314D02*
X123647037Y-106994647D01*
X123647037Y-106994647D02*
X123571095Y-107006887D01*
X123571095Y-107006887D02*
X123536804Y-107027452D01*
X123536804Y-107027452D02*
X123519562Y-107043301D01*
X123519562Y-107043301D02*
X123506871Y-107066796D01*
X123506871Y-107066796D02*
X123498040Y-107105180D01*
X123498040Y-107105180D02*
X123492379Y-107165697D01*
X123492379Y-107165697D02*
X123489196Y-107255589D01*
X123489196Y-107255589D02*
X123487800Y-107382102D01*
X123487800Y-107382102D02*
X123487500Y-107544248D01*
X123487500Y-107544248D02*
X123183059Y-107544248D01*
X123183059Y-107544248D02*
X123183473Y-107393267D01*
X123183473Y-107393267D02*
X123185508Y-107277505D01*
X123185508Y-107277505D02*
X123190264Y-107193287D01*
X123190264Y-107193287D02*
X123198857Y-107130987D01*
X123198857Y-107130987D02*
X123212404Y-107080978D01*
X123212404Y-107080978D02*
X123232022Y-107033632D01*
X123232022Y-107033632D02*
X123246371Y-107004100D01*
X123246371Y-107004100D02*
X123318142Y-106896302D01*
X123318142Y-106896302D02*
X123410436Y-106827893D01*
X123410436Y-106827893D02*
X123531862Y-106794026D01*
X123531862Y-106794026D02*
X123629793Y-106788239D01*
X123629793Y-106788239D02*
X123775037Y-106808320D01*
X123775037Y-106808320D02*
X123775037Y-106808320D01*
G36*
X123185508Y-107277505D02*
G01*
X123190264Y-107193287D01*
X123198857Y-107130987D01*
X123212404Y-107080978D01*
X123232022Y-107033632D01*
X123246371Y-107004100D01*
X123318142Y-106896302D01*
X123410436Y-106827893D01*
X123531862Y-106794026D01*
X123629793Y-106788239D01*
X123775037Y-106808320D01*
X123891979Y-106869961D01*
X123984142Y-106975129D01*
X123994126Y-106991486D01*
X124012703Y-107027053D01*
X124026290Y-107066629D01*
X124035657Y-107118438D01*
X124041571Y-107190705D01*
X124044799Y-107291654D01*
X124046111Y-107429511D01*
X124046300Y-107550200D01*
X124045042Y-107739280D01*
X124039899Y-107885248D01*
X124028814Y-107995757D01*
X124009733Y-108078461D01*
X123980598Y-108141016D01*
X123939356Y-108191073D01*
X123883949Y-108236289D01*
X123857020Y-108254963D01*
X123756942Y-108297001D01*
X123632873Y-108312990D01*
X123504760Y-108302376D01*
X123398600Y-108267710D01*
X123315855Y-108203230D01*
X123246371Y-108096300D01*
X123222788Y-108046158D01*
X123205913Y-107998849D01*
X123194628Y-107944745D01*
X123187818Y-107874218D01*
X123184367Y-107777643D01*
X123183157Y-107645393D01*
X123183043Y-107550200D01*
X123183059Y-107544248D01*
X123487500Y-107544248D01*
X123488335Y-107728231D01*
X123491770Y-107867549D01*
X123499194Y-107968325D01*
X123511998Y-108036680D01*
X123531572Y-108078736D01*
X123559308Y-108100613D01*
X123596596Y-108108434D01*
X123615795Y-108109000D01*
X123680484Y-108092098D01*
X123714285Y-108069085D01*
X123730192Y-108027763D01*
X123742598Y-107945809D01*
X123751503Y-107833270D01*
X123756909Y-107700193D01*
X123758813Y-107556625D01*
X123757218Y-107412614D01*
X123752122Y-107278205D01*
X123743526Y-107163447D01*
X123731429Y-107078386D01*
X123715831Y-107033070D01*
X123714285Y-107031314D01*
X123647037Y-106994647D01*
X123571095Y-107006887D01*
X123536804Y-107027452D01*
X123519562Y-107043301D01*
X123506871Y-107066796D01*
X123498040Y-107105180D01*
X123492379Y-107165697D01*
X123489196Y-107255589D01*
X123487800Y-107382102D01*
X123487500Y-107544248D01*
X123183059Y-107544248D01*
X123183473Y-107393267D01*
X123185508Y-107277505D01*
G37*
X123185508Y-107277505D02*
X123190264Y-107193287D01*
X123198857Y-107130987D01*
X123212404Y-107080978D01*
X123232022Y-107033632D01*
X123246371Y-107004100D01*
X123318142Y-106896302D01*
X123410436Y-106827893D01*
X123531862Y-106794026D01*
X123629793Y-106788239D01*
X123775037Y-106808320D01*
X123891979Y-106869961D01*
X123984142Y-106975129D01*
X123994126Y-106991486D01*
X124012703Y-107027053D01*
X124026290Y-107066629D01*
X124035657Y-107118438D01*
X124041571Y-107190705D01*
X124044799Y-107291654D01*
X124046111Y-107429511D01*
X124046300Y-107550200D01*
X124045042Y-107739280D01*
X124039899Y-107885248D01*
X124028814Y-107995757D01*
X124009733Y-108078461D01*
X123980598Y-108141016D01*
X123939356Y-108191073D01*
X123883949Y-108236289D01*
X123857020Y-108254963D01*
X123756942Y-108297001D01*
X123632873Y-108312990D01*
X123504760Y-108302376D01*
X123398600Y-108267710D01*
X123315855Y-108203230D01*
X123246371Y-108096300D01*
X123222788Y-108046158D01*
X123205913Y-107998849D01*
X123194628Y-107944745D01*
X123187818Y-107874218D01*
X123184367Y-107777643D01*
X123183157Y-107645393D01*
X123183043Y-107550200D01*
X123183059Y-107544248D01*
X123487500Y-107544248D01*
X123488335Y-107728231D01*
X123491770Y-107867549D01*
X123499194Y-107968325D01*
X123511998Y-108036680D01*
X123531572Y-108078736D01*
X123559308Y-108100613D01*
X123596596Y-108108434D01*
X123615795Y-108109000D01*
X123680484Y-108092098D01*
X123714285Y-108069085D01*
X123730192Y-108027763D01*
X123742598Y-107945809D01*
X123751503Y-107833270D01*
X123756909Y-107700193D01*
X123758813Y-107556625D01*
X123757218Y-107412614D01*
X123752122Y-107278205D01*
X123743526Y-107163447D01*
X123731429Y-107078386D01*
X123715831Y-107033070D01*
X123714285Y-107031314D01*
X123647037Y-106994647D01*
X123571095Y-107006887D01*
X123536804Y-107027452D01*
X123519562Y-107043301D01*
X123506871Y-107066796D01*
X123498040Y-107105180D01*
X123492379Y-107165697D01*
X123489196Y-107255589D01*
X123487800Y-107382102D01*
X123487500Y-107544248D01*
X123183059Y-107544248D01*
X123183473Y-107393267D01*
X123185508Y-107277505D01*
X119177798Y-106800078D02*
X119283387Y-106838348D01*
X119283387Y-106838348D02*
X119360449Y-106907767D01*
X119360449Y-106907767D02*
X119412760Y-107012997D01*
X119412760Y-107012997D02*
X119444095Y-107158703D01*
X119444095Y-107158703D02*
X119456362Y-107302550D01*
X119456362Y-107302550D02*
X119468391Y-107550200D01*
X119468391Y-107550200D02*
X118871186Y-107550200D01*
X118871186Y-107550200D02*
X118882063Y-107777702D01*
X118882063Y-107777702D02*
X118890531Y-107899405D01*
X118890531Y-107899405D02*
X118903554Y-107981273D01*
X118903554Y-107981273D02*
X118923389Y-108034223D01*
X118923389Y-108034223D02*
X118939906Y-108057102D01*
X118939906Y-108057102D02*
X119006018Y-108103759D01*
X119006018Y-108103759D02*
X119070847Y-108105287D01*
X119070847Y-108105287D02*
X119126847Y-108066970D01*
X119126847Y-108066970D02*
X119166472Y-107994091D01*
X119166472Y-107994091D02*
X119182176Y-107891935D01*
X119182176Y-107891935D02*
X119182200Y-107887448D01*
X119182200Y-107887448D02*
X119182200Y-107778800D01*
X119182200Y-107778800D02*
X119468707Y-107778800D01*
X119468707Y-107778800D02*
X119454180Y-107919545D01*
X119454180Y-107919545D02*
X119420828Y-108074480D01*
X119420828Y-108074480D02*
X119356153Y-108189609D01*
X119356153Y-108189609D02*
X119258982Y-108266013D01*
X119258982Y-108266013D02*
X119128142Y-108304773D01*
X119128142Y-108304773D02*
X119029800Y-108310375D01*
X119029800Y-108310375D02*
X118944331Y-108306374D01*
X118944331Y-108306374D02*
X118876204Y-108298004D01*
X118876204Y-108298004D02*
X118851145Y-108291364D01*
X118851145Y-108291364D02*
X118736589Y-108213745D01*
X118736589Y-108213745D02*
X118658932Y-108109000D01*
X118658932Y-108109000D02*
X118641596Y-108071755D01*
X118641596Y-108071755D02*
X118628927Y-108027935D01*
X118628927Y-108027935D02*
X118620217Y-107969344D01*
X118620217Y-107969344D02*
X118614760Y-107887788D01*
X118614760Y-107887788D02*
X118611848Y-107775070D01*
X118611848Y-107775070D02*
X118610773Y-107622995D01*
X118610773Y-107622995D02*
X118610700Y-107550200D01*
X118610700Y-107550200D02*
X118611096Y-107397800D01*
X118611096Y-107397800D02*
X118870838Y-107397800D01*
X118870838Y-107397800D02*
X119182200Y-107397800D01*
X119182200Y-107397800D02*
X119182200Y-107272453D01*
X119182200Y-107272453D02*
X119172025Y-107137665D01*
X119172025Y-107137665D02*
X119140769Y-107047991D01*
X119140769Y-107047991D02*
X119087329Y-107001841D01*
X119087329Y-107001841D02*
X119010605Y-106997622D01*
X119010605Y-106997622D02*
X118994444Y-107001141D01*
X118994444Y-107001141D02*
X118954657Y-107015897D01*
X118954657Y-107015897D02*
X118928134Y-107043233D01*
X118928134Y-107043233D02*
X118910178Y-107093878D01*
X118910178Y-107093878D02*
X118896091Y-107178564D01*
X118896091Y-107178564D02*
X118888274Y-107243684D01*
X118888274Y-107243684D02*
X118870838Y-107397800D01*
X118870838Y-107397800D02*
X118611096Y-107397800D01*
X118611096Y-107397800D02*
X118611137Y-107382143D01*
X118611137Y-107382143D02*
X118612964Y-107256657D01*
X118612964Y-107256657D02*
X118616946Y-107165519D01*
X118616946Y-107165519D02*
X118623852Y-107100502D01*
X118623852Y-107100502D02*
X118634450Y-107053383D01*
X118634450Y-107053383D02*
X118649508Y-107015937D01*
X118649508Y-107015937D02*
X118662873Y-106991486D01*
X118662873Y-106991486D02*
X118748397Y-106883436D01*
X118748397Y-106883436D02*
X118856444Y-106817389D01*
X118856444Y-106817389D02*
X118993815Y-106789682D01*
X118993815Y-106789682D02*
X119039906Y-106788294D01*
X119039906Y-106788294D02*
X119177798Y-106800078D01*
X119177798Y-106800078D02*
X119177798Y-106800078D01*
G36*
X118612964Y-107256657D02*
G01*
X118616946Y-107165519D01*
X118623852Y-107100502D01*
X118634450Y-107053383D01*
X118649508Y-107015937D01*
X118662873Y-106991486D01*
X118748397Y-106883436D01*
X118856444Y-106817389D01*
X118993815Y-106789682D01*
X119039906Y-106788294D01*
X119177798Y-106800078D01*
X119283387Y-106838348D01*
X119360449Y-106907767D01*
X119412760Y-107012997D01*
X119444095Y-107158703D01*
X119456362Y-107302550D01*
X119468391Y-107550200D01*
X118871186Y-107550200D01*
X118882063Y-107777702D01*
X118890531Y-107899405D01*
X118903554Y-107981273D01*
X118923389Y-108034223D01*
X118939906Y-108057102D01*
X119006018Y-108103759D01*
X119070847Y-108105287D01*
X119126847Y-108066970D01*
X119166472Y-107994091D01*
X119182176Y-107891935D01*
X119182200Y-107887448D01*
X119182200Y-107778800D01*
X119468707Y-107778800D01*
X119454180Y-107919545D01*
X119420828Y-108074480D01*
X119356153Y-108189609D01*
X119258982Y-108266013D01*
X119128142Y-108304773D01*
X119029800Y-108310375D01*
X118944331Y-108306374D01*
X118876204Y-108298004D01*
X118851145Y-108291364D01*
X118736589Y-108213745D01*
X118658932Y-108109000D01*
X118641596Y-108071755D01*
X118628927Y-108027935D01*
X118620217Y-107969344D01*
X118614760Y-107887788D01*
X118611848Y-107775070D01*
X118610773Y-107622995D01*
X118610700Y-107550200D01*
X118611096Y-107397800D01*
X118870838Y-107397800D01*
X119182200Y-107397800D01*
X119182200Y-107272453D01*
X119172025Y-107137665D01*
X119140769Y-107047991D01*
X119087329Y-107001841D01*
X119010605Y-106997622D01*
X118994444Y-107001141D01*
X118954657Y-107015897D01*
X118928134Y-107043233D01*
X118910178Y-107093878D01*
X118896091Y-107178564D01*
X118888274Y-107243684D01*
X118870838Y-107397800D01*
X118611096Y-107397800D01*
X118611137Y-107382143D01*
X118612964Y-107256657D01*
G37*
X118612964Y-107256657D02*
X118616946Y-107165519D01*
X118623852Y-107100502D01*
X118634450Y-107053383D01*
X118649508Y-107015937D01*
X118662873Y-106991486D01*
X118748397Y-106883436D01*
X118856444Y-106817389D01*
X118993815Y-106789682D01*
X119039906Y-106788294D01*
X119177798Y-106800078D01*
X119283387Y-106838348D01*
X119360449Y-106907767D01*
X119412760Y-107012997D01*
X119444095Y-107158703D01*
X119456362Y-107302550D01*
X119468391Y-107550200D01*
X118871186Y-107550200D01*
X118882063Y-107777702D01*
X118890531Y-107899405D01*
X118903554Y-107981273D01*
X118923389Y-108034223D01*
X118939906Y-108057102D01*
X119006018Y-108103759D01*
X119070847Y-108105287D01*
X119126847Y-108066970D01*
X119166472Y-107994091D01*
X119182176Y-107891935D01*
X119182200Y-107887448D01*
X119182200Y-107778800D01*
X119468707Y-107778800D01*
X119454180Y-107919545D01*
X119420828Y-108074480D01*
X119356153Y-108189609D01*
X119258982Y-108266013D01*
X119128142Y-108304773D01*
X119029800Y-108310375D01*
X118944331Y-108306374D01*
X118876204Y-108298004D01*
X118851145Y-108291364D01*
X118736589Y-108213745D01*
X118658932Y-108109000D01*
X118641596Y-108071755D01*
X118628927Y-108027935D01*
X118620217Y-107969344D01*
X118614760Y-107887788D01*
X118611848Y-107775070D01*
X118610773Y-107622995D01*
X118610700Y-107550200D01*
X118611096Y-107397800D01*
X118870838Y-107397800D01*
X119182200Y-107397800D01*
X119182200Y-107272453D01*
X119172025Y-107137665D01*
X119140769Y-107047991D01*
X119087329Y-107001841D01*
X119010605Y-106997622D01*
X118994444Y-107001141D01*
X118954657Y-107015897D01*
X118928134Y-107043233D01*
X118910178Y-107093878D01*
X118896091Y-107178564D01*
X118888274Y-107243684D01*
X118870838Y-107397800D01*
X118611096Y-107397800D01*
X118611137Y-107382143D01*
X118612964Y-107256657D01*
X122677220Y-106802375D02*
X122787342Y-106847923D01*
X122787342Y-106847923D02*
X122871382Y-106929730D01*
X122871382Y-106929730D02*
X122915828Y-107004100D01*
X122915828Y-107004100D02*
X122939411Y-107054241D01*
X122939411Y-107054241D02*
X122956286Y-107101550D01*
X122956286Y-107101550D02*
X122967571Y-107155654D01*
X122967571Y-107155654D02*
X122974381Y-107226181D01*
X122974381Y-107226181D02*
X122977832Y-107322756D01*
X122977832Y-107322756D02*
X122979042Y-107455006D01*
X122979042Y-107455006D02*
X122979156Y-107550200D01*
X122979156Y-107550200D02*
X122978726Y-107707132D01*
X122978726Y-107707132D02*
X122976691Y-107822894D01*
X122976691Y-107822894D02*
X122971935Y-107907112D01*
X122971935Y-107907112D02*
X122963342Y-107969412D01*
X122963342Y-107969412D02*
X122949795Y-108019421D01*
X122949795Y-108019421D02*
X122930177Y-108066767D01*
X122930177Y-108066767D02*
X122915828Y-108096300D01*
X122915828Y-108096300D02*
X122844057Y-108204097D01*
X122844057Y-108204097D02*
X122751763Y-108272506D01*
X122751763Y-108272506D02*
X122630337Y-108306373D01*
X122630337Y-108306373D02*
X122532406Y-108312160D01*
X122532406Y-108312160D02*
X122421676Y-108303663D01*
X122421676Y-108303663D02*
X122337423Y-108274409D01*
X122337423Y-108274409D02*
X122305179Y-108254963D01*
X122305179Y-108254963D02*
X122243453Y-108209531D01*
X122243453Y-108209531D02*
X122196724Y-108162356D01*
X122196724Y-108162356D02*
X122162935Y-108105783D01*
X122162935Y-108105783D02*
X122140031Y-108032159D01*
X122140031Y-108032159D02*
X122125956Y-107933829D01*
X122125956Y-107933829D02*
X122118655Y-107803140D01*
X122118655Y-107803140D02*
X122116072Y-107632436D01*
X122116072Y-107632436D02*
X122115900Y-107550200D01*
X122115900Y-107550200D02*
X122115911Y-107545786D01*
X122115911Y-107545786D02*
X122408000Y-107545786D01*
X122408000Y-107545786D02*
X122408541Y-107715089D01*
X122408541Y-107715089D02*
X122410575Y-107840963D01*
X122410575Y-107840963D02*
X122414713Y-107930776D01*
X122414713Y-107930776D02*
X122421570Y-107991890D01*
X122421570Y-107991890D02*
X122431759Y-108031672D01*
X122431759Y-108031672D02*
X122445892Y-108057485D01*
X122445892Y-108057485D02*
X122451124Y-108063752D01*
X122451124Y-108063752D02*
X122513907Y-108101029D01*
X122513907Y-108101029D02*
X122583465Y-108096751D01*
X122583465Y-108096751D02*
X122641719Y-108053667D01*
X122641719Y-108053667D02*
X122654687Y-108032800D01*
X122654687Y-108032800D02*
X122667713Y-107980237D01*
X122667713Y-107980237D02*
X122677522Y-107888119D01*
X122677522Y-107888119D02*
X122684116Y-107767578D01*
X122684116Y-107767578D02*
X122687494Y-107629749D01*
X122687494Y-107629749D02*
X122687658Y-107485766D01*
X122687658Y-107485766D02*
X122684608Y-107346762D01*
X122684608Y-107346762D02*
X122678343Y-107223872D01*
X122678343Y-107223872D02*
X122668866Y-107128230D01*
X122668866Y-107128230D02*
X122656176Y-107070968D01*
X122656176Y-107070968D02*
X122654639Y-107067600D01*
X122654639Y-107067600D02*
X122602484Y-107011595D01*
X122602484Y-107011595D02*
X122533181Y-106996655D01*
X122533181Y-106996655D02*
X122463250Y-107025801D01*
X122463250Y-107025801D02*
X122456705Y-107031395D01*
X122456705Y-107031395D02*
X122439465Y-107050681D01*
X122439465Y-107050681D02*
X122426829Y-107077714D01*
X122426829Y-107077714D02*
X122418092Y-107119946D01*
X122418092Y-107119946D02*
X122412548Y-107184833D01*
X122412548Y-107184833D02*
X122409490Y-107279828D01*
X122409490Y-107279828D02*
X122408213Y-107412385D01*
X122408213Y-107412385D02*
X122408000Y-107545786D01*
X122408000Y-107545786D02*
X122115911Y-107545786D01*
X122115911Y-107545786D02*
X122116337Y-107382143D01*
X122116337Y-107382143D02*
X122118164Y-107256657D01*
X122118164Y-107256657D02*
X122122146Y-107165519D01*
X122122146Y-107165519D02*
X122129052Y-107100502D01*
X122129052Y-107100502D02*
X122139650Y-107053383D01*
X122139650Y-107053383D02*
X122154708Y-107015937D01*
X122154708Y-107015937D02*
X122168073Y-106991486D01*
X122168073Y-106991486D02*
X122257377Y-106880721D01*
X122257377Y-106880721D02*
X122371019Y-106813730D01*
X122371019Y-106813730D02*
X122512521Y-106788545D01*
X122512521Y-106788545D02*
X122532406Y-106788239D01*
X122532406Y-106788239D02*
X122677220Y-106802375D01*
X122677220Y-106802375D02*
X122677220Y-106802375D01*
G36*
X122118164Y-107256657D02*
G01*
X122122146Y-107165519D01*
X122129052Y-107100502D01*
X122139650Y-107053383D01*
X122154708Y-107015937D01*
X122168073Y-106991486D01*
X122257377Y-106880721D01*
X122371019Y-106813730D01*
X122512521Y-106788545D01*
X122532406Y-106788239D01*
X122677220Y-106802375D01*
X122787342Y-106847923D01*
X122871382Y-106929730D01*
X122915828Y-107004100D01*
X122939411Y-107054241D01*
X122956286Y-107101550D01*
X122967571Y-107155654D01*
X122974381Y-107226181D01*
X122977832Y-107322756D01*
X122979042Y-107455006D01*
X122979156Y-107550200D01*
X122978726Y-107707132D01*
X122976691Y-107822894D01*
X122971935Y-107907112D01*
X122963342Y-107969412D01*
X122949795Y-108019421D01*
X122930177Y-108066767D01*
X122915828Y-108096300D01*
X122844057Y-108204097D01*
X122751763Y-108272506D01*
X122630337Y-108306373D01*
X122532406Y-108312160D01*
X122421676Y-108303663D01*
X122337423Y-108274409D01*
X122305179Y-108254963D01*
X122243453Y-108209531D01*
X122196724Y-108162356D01*
X122162935Y-108105783D01*
X122140031Y-108032159D01*
X122125956Y-107933829D01*
X122118655Y-107803140D01*
X122116072Y-107632436D01*
X122115900Y-107550200D01*
X122115911Y-107545786D01*
X122408000Y-107545786D01*
X122408541Y-107715089D01*
X122410575Y-107840963D01*
X122414713Y-107930776D01*
X122421570Y-107991890D01*
X122431759Y-108031672D01*
X122445892Y-108057485D01*
X122451124Y-108063752D01*
X122513907Y-108101029D01*
X122583465Y-108096751D01*
X122641719Y-108053667D01*
X122654687Y-108032800D01*
X122667713Y-107980237D01*
X122677522Y-107888119D01*
X122684116Y-107767578D01*
X122687494Y-107629749D01*
X122687658Y-107485766D01*
X122684608Y-107346762D01*
X122678343Y-107223872D01*
X122668866Y-107128230D01*
X122656176Y-107070968D01*
X122654639Y-107067600D01*
X122602484Y-107011595D01*
X122533181Y-106996655D01*
X122463250Y-107025801D01*
X122456705Y-107031395D01*
X122439465Y-107050681D01*
X122426829Y-107077714D01*
X122418092Y-107119946D01*
X122412548Y-107184833D01*
X122409490Y-107279828D01*
X122408213Y-107412385D01*
X122408000Y-107545786D01*
X122115911Y-107545786D01*
X122116337Y-107382143D01*
X122118164Y-107256657D01*
G37*
X122118164Y-107256657D02*
X122122146Y-107165519D01*
X122129052Y-107100502D01*
X122139650Y-107053383D01*
X122154708Y-107015937D01*
X122168073Y-106991486D01*
X122257377Y-106880721D01*
X122371019Y-106813730D01*
X122512521Y-106788545D01*
X122532406Y-106788239D01*
X122677220Y-106802375D01*
X122787342Y-106847923D01*
X122871382Y-106929730D01*
X122915828Y-107004100D01*
X122939411Y-107054241D01*
X122956286Y-107101550D01*
X122967571Y-107155654D01*
X122974381Y-107226181D01*
X122977832Y-107322756D01*
X122979042Y-107455006D01*
X122979156Y-107550200D01*
X122978726Y-107707132D01*
X122976691Y-107822894D01*
X122971935Y-107907112D01*
X122963342Y-107969412D01*
X122949795Y-108019421D01*
X122930177Y-108066767D01*
X122915828Y-108096300D01*
X122844057Y-108204097D01*
X122751763Y-108272506D01*
X122630337Y-108306373D01*
X122532406Y-108312160D01*
X122421676Y-108303663D01*
X122337423Y-108274409D01*
X122305179Y-108254963D01*
X122243453Y-108209531D01*
X122196724Y-108162356D01*
X122162935Y-108105783D01*
X122140031Y-108032159D01*
X122125956Y-107933829D01*
X122118655Y-107803140D01*
X122116072Y-107632436D01*
X122115900Y-107550200D01*
X122115911Y-107545786D01*
X122408000Y-107545786D01*
X122408541Y-107715089D01*
X122410575Y-107840963D01*
X122414713Y-107930776D01*
X122421570Y-107991890D01*
X122431759Y-108031672D01*
X122445892Y-108057485D01*
X122451124Y-108063752D01*
X122513907Y-108101029D01*
X122583465Y-108096751D01*
X122641719Y-108053667D01*
X122654687Y-108032800D01*
X122667713Y-107980237D01*
X122677522Y-107888119D01*
X122684116Y-107767578D01*
X122687494Y-107629749D01*
X122687658Y-107485766D01*
X122684608Y-107346762D01*
X122678343Y-107223872D01*
X122668866Y-107128230D01*
X122656176Y-107070968D01*
X122654639Y-107067600D01*
X122602484Y-107011595D01*
X122533181Y-106996655D01*
X122463250Y-107025801D01*
X122456705Y-107031395D01*
X122439465Y-107050681D01*
X122426829Y-107077714D01*
X122418092Y-107119946D01*
X122412548Y-107184833D01*
X122409490Y-107279828D01*
X122408213Y-107412385D01*
X122408000Y-107545786D01*
X122115911Y-107545786D01*
X122116337Y-107382143D01*
X122118164Y-107256657D01*
X124605100Y-107398332D02*
X124960700Y-106813892D01*
X124960700Y-106813892D02*
X125106750Y-106813746D01*
X125106750Y-106813746D02*
X125185230Y-106815336D01*
X125185230Y-106815336D02*
X125238246Y-106819604D01*
X125238246Y-106819604D02*
X125252800Y-106824181D01*
X125252800Y-106824181D02*
X125240622Y-106848782D01*
X125240622Y-106848782D02*
X125207325Y-106908504D01*
X125207325Y-106908504D02*
X125157766Y-106994807D01*
X125157766Y-106994807D02*
X125096799Y-107099152D01*
X125096799Y-107099152D02*
X125086264Y-107117030D01*
X125086264Y-107117030D02*
X124919728Y-107399298D01*
X124919728Y-107399298D02*
X125012632Y-107646199D01*
X125012632Y-107646199D02*
X125062397Y-107778762D01*
X125062397Y-107778762D02*
X125115523Y-107920774D01*
X125115523Y-107920774D02*
X125163124Y-108048468D01*
X125163124Y-108048468D02*
X125178529Y-108089950D01*
X125178529Y-108089950D02*
X125251522Y-108286800D01*
X125251522Y-108286800D02*
X124960700Y-108286450D01*
X124960700Y-108286450D02*
X124833700Y-107931200D01*
X124833700Y-107931200D02*
X124788378Y-107806827D01*
X124788378Y-107806827D02*
X124748335Y-107701437D01*
X124748335Y-107701437D02*
X124716873Y-107623377D01*
X124716873Y-107623377D02*
X124697293Y-107580995D01*
X124697293Y-107580995D02*
X124693126Y-107575774D01*
X124693126Y-107575774D02*
X124672419Y-107595178D01*
X124672419Y-107595178D02*
X124639920Y-107642783D01*
X124639920Y-107642783D02*
X124635976Y-107649369D01*
X124635976Y-107649369D02*
X124615278Y-107696619D01*
X124615278Y-107696619D02*
X124601988Y-107761367D01*
X124601988Y-107761367D02*
X124594805Y-107854249D01*
X124594805Y-107854249D02*
X124592424Y-107985899D01*
X124592424Y-107985899D02*
X124592400Y-108004969D01*
X124592400Y-108004969D02*
X124592400Y-108286800D01*
X124592400Y-108286800D02*
X124287600Y-108286800D01*
X124287600Y-108286800D02*
X124287600Y-106204000D01*
X124287600Y-106204000D02*
X124591480Y-106204000D01*
X124591480Y-106204000D02*
X124605100Y-107398332D01*
X124605100Y-107398332D02*
X124605100Y-107398332D01*
G36*
X124605100Y-107398332D02*
G01*
X124960700Y-106813892D01*
X125106750Y-106813746D01*
X125185230Y-106815336D01*
X125238246Y-106819604D01*
X125252800Y-106824181D01*
X125240622Y-106848782D01*
X125207325Y-106908504D01*
X125157766Y-106994807D01*
X125096799Y-107099152D01*
X125086264Y-107117030D01*
X124919728Y-107399298D01*
X125012632Y-107646199D01*
X125062397Y-107778762D01*
X125115523Y-107920774D01*
X125163124Y-108048468D01*
X125178529Y-108089950D01*
X125251522Y-108286800D01*
X124960700Y-108286450D01*
X124833700Y-107931200D01*
X124788378Y-107806827D01*
X124748335Y-107701437D01*
X124716873Y-107623377D01*
X124697293Y-107580995D01*
X124693126Y-107575774D01*
X124672419Y-107595178D01*
X124639920Y-107642783D01*
X124635976Y-107649369D01*
X124615278Y-107696619D01*
X124601988Y-107761367D01*
X124594805Y-107854249D01*
X124592424Y-107985899D01*
X124592400Y-108004969D01*
X124592400Y-108286800D01*
X124287600Y-108286800D01*
X124287600Y-106204000D01*
X124591480Y-106204000D01*
X124605100Y-107398332D01*
G37*
X124605100Y-107398332D02*
X124960700Y-106813892D01*
X125106750Y-106813746D01*
X125185230Y-106815336D01*
X125238246Y-106819604D01*
X125252800Y-106824181D01*
X125240622Y-106848782D01*
X125207325Y-106908504D01*
X125157766Y-106994807D01*
X125096799Y-107099152D01*
X125086264Y-107117030D01*
X124919728Y-107399298D01*
X125012632Y-107646199D01*
X125062397Y-107778762D01*
X125115523Y-107920774D01*
X125163124Y-108048468D01*
X125178529Y-108089950D01*
X125251522Y-108286800D01*
X124960700Y-108286450D01*
X124833700Y-107931200D01*
X124788378Y-107806827D01*
X124748335Y-107701437D01*
X124716873Y-107623377D01*
X124697293Y-107580995D01*
X124693126Y-107575774D01*
X124672419Y-107595178D01*
X124639920Y-107642783D01*
X124635976Y-107649369D01*
X124615278Y-107696619D01*
X124601988Y-107761367D01*
X124594805Y-107854249D01*
X124592424Y-107985899D01*
X124592400Y-108004969D01*
X124592400Y-108286800D01*
X124287600Y-108286800D01*
X124287600Y-106204000D01*
X124591480Y-106204000D01*
X124605100Y-107398332D01*
X121290400Y-106939481D02*
X121409672Y-106863840D01*
X121409672Y-106863840D02*
X121529177Y-106805371D01*
X121529177Y-106805371D02*
X121623495Y-106788200D01*
X121623495Y-106788200D02*
X121691940Y-106789956D01*
X121691940Y-106789956D02*
X121746675Y-106798627D01*
X121746675Y-106798627D02*
X121789230Y-106819310D01*
X121789230Y-106819310D02*
X121821134Y-106857105D01*
X121821134Y-106857105D02*
X121843917Y-106917113D01*
X121843917Y-106917113D02*
X121859110Y-107004431D01*
X121859110Y-107004431D02*
X121868241Y-107124161D01*
X121868241Y-107124161D02*
X121872843Y-107281400D01*
X121872843Y-107281400D02*
X121874443Y-107481249D01*
X121874443Y-107481249D02*
X121874600Y-107625138D01*
X121874600Y-107625138D02*
X121874600Y-108286800D01*
X121874600Y-108286800D02*
X121595200Y-108286800D01*
X121595200Y-108286800D02*
X121595200Y-107691977D01*
X121595200Y-107691977D02*
X121594562Y-107521368D01*
X121594562Y-107521368D02*
X121592774Y-107366410D01*
X121592774Y-107366410D02*
X121590023Y-107234776D01*
X121590023Y-107234776D02*
X121586493Y-107134141D01*
X121586493Y-107134141D02*
X121582372Y-107072177D01*
X121582372Y-107072177D02*
X121579782Y-107056977D01*
X121579782Y-107056977D02*
X121543755Y-107026109D01*
X121543755Y-107026109D02*
X121479661Y-107018019D01*
X121479661Y-107018019D02*
X121404806Y-107032641D01*
X121404806Y-107032641D02*
X121353006Y-107057821D01*
X121353006Y-107057821D02*
X121290400Y-107098842D01*
X121290400Y-107098842D02*
X121290400Y-108286800D01*
X121290400Y-108286800D02*
X121011000Y-108286800D01*
X121011000Y-108286800D02*
X121011000Y-106204000D01*
X121011000Y-106204000D02*
X121290400Y-106204000D01*
X121290400Y-106204000D02*
X121290400Y-106939481D01*
X121290400Y-106939481D02*
X121290400Y-106939481D01*
G36*
X121290400Y-106939481D02*
G01*
X121409672Y-106863840D01*
X121529177Y-106805371D01*
X121623495Y-106788200D01*
X121691940Y-106789956D01*
X121746675Y-106798627D01*
X121789230Y-106819310D01*
X121821134Y-106857105D01*
X121843917Y-106917113D01*
X121859110Y-107004431D01*
X121868241Y-107124161D01*
X121872843Y-107281400D01*
X121874443Y-107481249D01*
X121874600Y-107625138D01*
X121874600Y-108286800D01*
X121595200Y-108286800D01*
X121595200Y-107691977D01*
X121594562Y-107521368D01*
X121592774Y-107366410D01*
X121590023Y-107234776D01*
X121586493Y-107134141D01*
X121582372Y-107072177D01*
X121579782Y-107056977D01*
X121543755Y-107026109D01*
X121479661Y-107018019D01*
X121404806Y-107032641D01*
X121353006Y-107057821D01*
X121290400Y-107098842D01*
X121290400Y-108286800D01*
X121011000Y-108286800D01*
X121011000Y-106204000D01*
X121290400Y-106204000D01*
X121290400Y-106939481D01*
G37*
X121290400Y-106939481D02*
X121409672Y-106863840D01*
X121529177Y-106805371D01*
X121623495Y-106788200D01*
X121691940Y-106789956D01*
X121746675Y-106798627D01*
X121789230Y-106819310D01*
X121821134Y-106857105D01*
X121843917Y-106917113D01*
X121859110Y-107004431D01*
X121868241Y-107124161D01*
X121872843Y-107281400D01*
X121874443Y-107481249D01*
X121874600Y-107625138D01*
X121874600Y-108286800D01*
X121595200Y-108286800D01*
X121595200Y-107691977D01*
X121594562Y-107521368D01*
X121592774Y-107366410D01*
X121590023Y-107234776D01*
X121586493Y-107134141D01*
X121582372Y-107072177D01*
X121579782Y-107056977D01*
X121543755Y-107026109D01*
X121479661Y-107018019D01*
X121404806Y-107032641D01*
X121353006Y-107057821D01*
X121290400Y-107098842D01*
X121290400Y-108286800D01*
X121011000Y-108286800D01*
X121011000Y-106204000D01*
X121290400Y-106204000D01*
X121290400Y-106939481D01*
G04 #@! TD*
D11*
G04 #@! TO.C,C2*
X136900000Y-105820000D03*
X134400000Y-105820000D03*
G04 #@! TD*
G04 #@! TO.C,C3*
X126800000Y-105820000D03*
X129300000Y-105820000D03*
G04 #@! TD*
G04 #@! TO.C,C1*
X144600000Y-105820000D03*
X142100000Y-105820000D03*
G04 #@! TD*
D12*
G04 #@! TO.C,J2*
X114400000Y-95720000D03*
D13*
X114400000Y-97720000D03*
X114400000Y-99720000D03*
X114400000Y-101720000D03*
G04 #@! TD*
D14*
G04 #@! TO.C,J1*
X136039999Y-93880001D03*
X136039999Y-95680001D03*
X136039999Y-97480001D03*
X136039999Y-99280001D03*
D15*
X125039999Y-102080001D03*
X150539999Y-95580001D03*
G04 #@! TD*
M02*
