G04 #@! TF.GenerationSoftware,KiCad,Pcbnew,(6.0.0)*
G04 #@! TF.CreationDate,2022-01-04T09:55:11+00:00*
G04 #@! TF.ProjectId,LEM_Breakout_Board,4c454d5f-4272-4656-916b-6f75745f426f,rev?*
G04 #@! TF.SameCoordinates,Original*
G04 #@! TF.FileFunction,Copper,L1,Top*
G04 #@! TF.FilePolarity,Positive*
%FSLAX46Y46*%
G04 Gerber Fmt 4.6, Leading zero omitted, Abs format (unit mm)*
G04 Created by KiCad (PCBNEW (6.0.0)) date 2022-01-04 09:55:11*
%MOMM*%
%LPD*%
G01*
G04 APERTURE LIST*
G04 #@! TA.AperFunction,ComponentPad*
%ADD10C,1.600000*%
G04 #@! TD*
G04 #@! TA.AperFunction,ComponentPad*
%ADD11R,1.350000X1.350000*%
G04 #@! TD*
G04 #@! TA.AperFunction,ComponentPad*
%ADD12O,1.350000X1.350000*%
G04 #@! TD*
G04 #@! TA.AperFunction,ComponentPad*
%ADD13C,1.524000*%
G04 #@! TD*
G04 #@! TA.AperFunction,ComponentPad*
%ADD14C,2.800000*%
G04 #@! TD*
G04 #@! TA.AperFunction,ViaPad*
%ADD15C,3.100000*%
G04 #@! TD*
G04 #@! TA.AperFunction,Conductor*
%ADD16C,0.800000*%
G04 #@! TD*
G04 APERTURE END LIST*
D10*
G04 #@! TO.P,C2,1*
G04 #@! TO.N,Net-(C1-Pad2)*
X136900000Y-105820000D03*
G04 #@! TO.P,C2,2*
G04 #@! TO.N,Net-(C2-Pad2)*
X134400000Y-105820000D03*
G04 #@! TD*
G04 #@! TO.P,C3,1*
G04 #@! TO.N,Net-(C1-Pad2)*
X126800000Y-105820000D03*
G04 #@! TO.P,C3,2*
G04 #@! TO.N,Net-(C3-Pad2)*
X129300000Y-105820000D03*
G04 #@! TD*
G04 #@! TO.P,C1,1*
G04 #@! TO.N,Net-(C1-Pad1)*
X144600000Y-105820000D03*
G04 #@! TO.P,C1,2*
G04 #@! TO.N,Net-(C1-Pad2)*
X142100000Y-105820000D03*
G04 #@! TD*
D11*
G04 #@! TO.P,J2,1*
G04 #@! TO.N,Net-(C1-Pad1)*
X114400000Y-95720000D03*
D12*
G04 #@! TO.P,J2,2*
G04 #@! TO.N,Net-(C1-Pad2)*
X114400000Y-97720000D03*
G04 #@! TO.P,J2,3*
G04 #@! TO.N,Net-(C2-Pad2)*
X114400000Y-99720000D03*
G04 #@! TO.P,J2,4*
G04 #@! TO.N,Net-(C3-Pad2)*
X114400000Y-101720000D03*
G04 #@! TD*
D13*
G04 #@! TO.P,J1,1*
G04 #@! TO.N,Net-(C1-Pad1)*
X136039999Y-93880001D03*
G04 #@! TO.P,J1,2*
G04 #@! TO.N,Net-(C1-Pad2)*
X136039999Y-95680001D03*
G04 #@! TO.P,J1,3*
G04 #@! TO.N,Net-(C2-Pad2)*
X136039999Y-97480001D03*
G04 #@! TO.P,J1,4*
G04 #@! TO.N,Net-(C3-Pad2)*
X136039999Y-99280001D03*
D14*
G04 #@! TO.P,J1,5*
G04 #@! TO.N,Net-(C1-Pad2)*
X125039999Y-102080001D03*
G04 #@! TO.P,J1,6*
G04 #@! TO.N,N/C*
X150539999Y-95580001D03*
G04 #@! TD*
D15*
G04 #@! TO.N,*
X149900000Y-106720000D03*
X115400000Y-91220000D03*
X115400000Y-106720000D03*
G04 #@! TD*
D16*
G04 #@! TO.N,Net-(C1-Pad2)*
X136039999Y-95680001D02*
X124568426Y-95680001D01*
X139014213Y-97234213D02*
X138045787Y-96265787D01*
X126800000Y-105820000D02*
X128439731Y-107459732D01*
X139600000Y-105820000D02*
X136900000Y-105820000D01*
X136631574Y-95680001D02*
X136039999Y-95680001D01*
X142100000Y-105820000D02*
X139600000Y-105820000D01*
X119643428Y-97720000D02*
X114400000Y-97720000D01*
X125399937Y-102439939D02*
X125039999Y-102080001D01*
X139600000Y-105820000D02*
X139600000Y-106051472D01*
X137792894Y-108000000D02*
X129744053Y-108000000D01*
X139600000Y-105820000D02*
X139600000Y-98648427D01*
X123154212Y-96265788D02*
G75*
G02*
X119643428Y-97720000I-3510784J3510793D01*
G01*
X128439731Y-107459732D02*
G75*
G03*
X129744053Y-108000000I1304322J1304321D01*
G01*
X139000000Y-107500000D02*
G75*
G03*
X139600000Y-106051472I-1448532J1448530D01*
G01*
X124568426Y-95680002D02*
G75*
G03*
X123154213Y-96265789I0J-1999999D01*
G01*
X139599999Y-98648427D02*
G75*
G03*
X139014212Y-97234214I-1999999J0D01*
G01*
X137792894Y-107999999D02*
G75*
G03*
X138999999Y-107499999I-1J1707107D01*
G01*
X136631574Y-95680002D02*
G75*
G02*
X138045786Y-96265788I0J-1999999D01*
G01*
X126800000Y-105820000D02*
G75*
G03*
X125399937Y-102439939I-4780121J7D01*
G01*
G04 #@! TO.N,Net-(C1-Pad1)*
X137431574Y-93880001D02*
X136039999Y-93880001D01*
X118100000Y-95720000D02*
X114400000Y-95720000D01*
X144014213Y-99634213D02*
X138845787Y-94465787D01*
X136039999Y-93880001D02*
X123568409Y-93880001D01*
X119126258Y-95720000D02*
X118100000Y-95720000D01*
X144600000Y-105820000D02*
X144600000Y-101048427D01*
X144599999Y-101048427D02*
G75*
G03*
X144014212Y-99634214I-1999999J0D01*
G01*
X137431574Y-93880002D02*
G75*
G02*
X138845786Y-94465788I0J-1999999D01*
G01*
X119126258Y-95720000D02*
G75*
G03*
X122154212Y-94465788I2J4282187D01*
G01*
X122154212Y-94465788D02*
G75*
G02*
X123568409Y-93880001I1414200J-1414179D01*
G01*
G04 #@! TO.N,Net-(C2-Pad2)*
X134400000Y-105820000D02*
X137414214Y-102805786D01*
X119660622Y-99720000D02*
X114400000Y-99720000D01*
X138000000Y-101391573D02*
X138000000Y-99148427D01*
X136079998Y-97520000D02*
X136039999Y-97480001D01*
X136039999Y-97480001D02*
X125068426Y-97480001D01*
X137414213Y-97734213D02*
X137200000Y-97520000D01*
X137200000Y-97520000D02*
X136079998Y-97520000D01*
X137414213Y-97734213D02*
G75*
G02*
X138000000Y-99148427I-1414213J-1414214D01*
G01*
X125068426Y-97480002D02*
G75*
G03*
X123654213Y-98065789I0J-1999999D01*
G01*
X119660622Y-99719999D02*
G75*
G03*
X123654211Y-98065787I2J5647753D01*
G01*
X137999999Y-101391573D02*
G75*
G02*
X137414213Y-102805785I-1999999J0D01*
G01*
G04 #@! TO.N,Net-(C3-Pad2)*
X129160001Y-99280001D02*
X125468426Y-99280001D01*
X129300000Y-105820000D02*
X129300000Y-99420000D01*
X119577722Y-101720000D02*
X114400000Y-101720000D01*
X136039999Y-99280001D02*
X129160001Y-99280001D01*
X129300000Y-99420000D02*
X129160001Y-99280001D01*
X119577722Y-101720000D02*
G75*
G03*
X124054212Y-99865788I-1J6330741D01*
G01*
X125468426Y-99280002D02*
G75*
G03*
X124054213Y-99865789I0J-1999999D01*
G01*
G04 #@! TD*
M02*
