G04 #@! TF.GenerationSoftware,KiCad,Pcbnew,(6.0.0)*
G04 #@! TF.CreationDate,2022-01-04T09:55:11+00:00*
G04 #@! TF.ProjectId,LEM_Breakout_Board,4c454d5f-4272-4656-916b-6f75745f426f,rev?*
G04 #@! TF.SameCoordinates,Original*
G04 #@! TF.FileFunction,Legend,Top*
G04 #@! TF.FilePolarity,Positive*
%FSLAX46Y46*%
G04 Gerber Fmt 4.6, Leading zero omitted, Abs format (unit mm)*
G04 Created by KiCad (PCBNEW (6.0.0)) date 2022-01-04 09:55:11*
%MOMM*%
%LPD*%
G01*
G04 APERTURE LIST*
%ADD10C,0.150000*%
%ADD11C,0.200000*%
%ADD12C,0.120000*%
G04 APERTURE END LIST*
D10*
X111900000Y-102620000D02*
X111900000Y-95120000D01*
X108900000Y-102620000D02*
X108900000Y-95120000D01*
X116500000Y-99172380D02*
X116690476Y-99172380D01*
X116785714Y-99220000D01*
X116880952Y-99315238D01*
X116928571Y-99505714D01*
X116928571Y-99839047D01*
X116880952Y-100029523D01*
X116785714Y-100124761D01*
X116690476Y-100172380D01*
X116500000Y-100172380D01*
X116404761Y-100124761D01*
X116309523Y-100029523D01*
X116261904Y-99839047D01*
X116261904Y-99505714D01*
X116309523Y-99315238D01*
X116404761Y-99220000D01*
X116500000Y-99172380D01*
X117357142Y-99172380D02*
X117357142Y-99981904D01*
X117404761Y-100077142D01*
X117452380Y-100124761D01*
X117547619Y-100172380D01*
X117738095Y-100172380D01*
X117833333Y-100124761D01*
X117880952Y-100077142D01*
X117928571Y-99981904D01*
X117928571Y-99172380D01*
X118261904Y-99172380D02*
X118833333Y-99172380D01*
X118547619Y-100172380D02*
X118547619Y-99172380D01*
X116161904Y-95791428D02*
X116923809Y-95791428D01*
X116542857Y-96172380D02*
X116542857Y-95410476D01*
X117876190Y-95172380D02*
X117400000Y-95172380D01*
X117352380Y-95648571D01*
X117400000Y-95600952D01*
X117495238Y-95553333D01*
X117733333Y-95553333D01*
X117828571Y-95600952D01*
X117876190Y-95648571D01*
X117923809Y-95743809D01*
X117923809Y-95981904D01*
X117876190Y-96077142D01*
X117828571Y-96124761D01*
X117733333Y-96172380D01*
X117495238Y-96172380D01*
X117400000Y-96124761D01*
X117352380Y-96077142D01*
X118257142Y-95505714D02*
X118495238Y-96172380D01*
X118733333Y-95505714D01*
X116738095Y-97220000D02*
X116642857Y-97172380D01*
X116500000Y-97172380D01*
X116357142Y-97220000D01*
X116261904Y-97315238D01*
X116214285Y-97410476D01*
X116166666Y-97600952D01*
X116166666Y-97743809D01*
X116214285Y-97934285D01*
X116261904Y-98029523D01*
X116357142Y-98124761D01*
X116500000Y-98172380D01*
X116595238Y-98172380D01*
X116738095Y-98124761D01*
X116785714Y-98077142D01*
X116785714Y-97743809D01*
X116595238Y-97743809D01*
X117214285Y-98172380D02*
X117214285Y-97172380D01*
X117785714Y-98172380D01*
X117785714Y-97172380D01*
X118261904Y-98172380D02*
X118261904Y-97172380D01*
X118500000Y-97172380D01*
X118642857Y-97220000D01*
X118738095Y-97315238D01*
X118785714Y-97410476D01*
X118833333Y-97600952D01*
X118833333Y-97743809D01*
X118785714Y-97934285D01*
X118738095Y-98029523D01*
X118642857Y-98124761D01*
X118500000Y-98172380D01*
X118261904Y-98172380D01*
X116928571Y-102172380D02*
X116595238Y-101696190D01*
X116357142Y-102172380D02*
X116357142Y-101172380D01*
X116738095Y-101172380D01*
X116833333Y-101220000D01*
X116880952Y-101267619D01*
X116928571Y-101362857D01*
X116928571Y-101505714D01*
X116880952Y-101600952D01*
X116833333Y-101648571D01*
X116738095Y-101696190D01*
X116357142Y-101696190D01*
X117357142Y-101648571D02*
X117690476Y-101648571D01*
X117833333Y-102172380D02*
X117357142Y-102172380D01*
X117357142Y-101172380D01*
X117833333Y-101172380D01*
X118595238Y-101648571D02*
X118261904Y-101648571D01*
X118261904Y-102172380D02*
X118261904Y-101172380D01*
X118738095Y-101172380D01*
X128276190Y-102286666D02*
X128752380Y-102286666D01*
X128180952Y-102572380D02*
X128514285Y-101572380D01*
X128847619Y-102572380D01*
X129323809Y-102572380D02*
X129228571Y-102524761D01*
X129180952Y-102429523D01*
X129180952Y-101572380D01*
X129847619Y-102572380D02*
X129752380Y-102524761D01*
X129704761Y-102429523D01*
X129704761Y-101572380D01*
X131561904Y-102477142D02*
X131514285Y-102524761D01*
X131371428Y-102572380D01*
X131276190Y-102572380D01*
X131133333Y-102524761D01*
X131038095Y-102429523D01*
X130990476Y-102334285D01*
X130942857Y-102143809D01*
X130942857Y-102000952D01*
X130990476Y-101810476D01*
X131038095Y-101715238D01*
X131133333Y-101620000D01*
X131276190Y-101572380D01*
X131371428Y-101572380D01*
X131514285Y-101620000D01*
X131561904Y-101667619D01*
X132133333Y-102572380D02*
X132038095Y-102524761D01*
X131990476Y-102477142D01*
X131942857Y-102381904D01*
X131942857Y-102096190D01*
X131990476Y-102000952D01*
X132038095Y-101953333D01*
X132133333Y-101905714D01*
X132276190Y-101905714D01*
X132371428Y-101953333D01*
X132419047Y-102000952D01*
X132466666Y-102096190D01*
X132466666Y-102381904D01*
X132419047Y-102477142D01*
X132371428Y-102524761D01*
X132276190Y-102572380D01*
X132133333Y-102572380D01*
X132895238Y-102572380D02*
X132895238Y-101905714D01*
X132895238Y-102000952D02*
X132942857Y-101953333D01*
X133038095Y-101905714D01*
X133180952Y-101905714D01*
X133276190Y-101953333D01*
X133323809Y-102048571D01*
X133323809Y-102572380D01*
X133323809Y-102048571D02*
X133371428Y-101953333D01*
X133466666Y-101905714D01*
X133609523Y-101905714D01*
X133704761Y-101953333D01*
X133752380Y-102048571D01*
X133752380Y-102572380D01*
X134228571Y-101905714D02*
X134228571Y-102905714D01*
X134228571Y-101953333D02*
X134323809Y-101905714D01*
X134514285Y-101905714D01*
X134609523Y-101953333D01*
X134657142Y-102000952D01*
X134704761Y-102096190D01*
X134704761Y-102381904D01*
X134657142Y-102477142D01*
X134609523Y-102524761D01*
X134514285Y-102572380D01*
X134323809Y-102572380D01*
X134228571Y-102524761D01*
X135276190Y-102572380D02*
X135180952Y-102524761D01*
X135133333Y-102477142D01*
X135085714Y-102381904D01*
X135085714Y-102096190D01*
X135133333Y-102000952D01*
X135180952Y-101953333D01*
X135276190Y-101905714D01*
X135419047Y-101905714D01*
X135514285Y-101953333D01*
X135561904Y-102000952D01*
X135609523Y-102096190D01*
X135609523Y-102381904D01*
X135561904Y-102477142D01*
X135514285Y-102524761D01*
X135419047Y-102572380D01*
X135276190Y-102572380D01*
X136038095Y-101905714D02*
X136038095Y-102572380D01*
X136038095Y-102000952D02*
X136085714Y-101953333D01*
X136180952Y-101905714D01*
X136323809Y-101905714D01*
X136419047Y-101953333D01*
X136466666Y-102048571D01*
X136466666Y-102572380D01*
X137323809Y-102524761D02*
X137228571Y-102572380D01*
X137038095Y-102572380D01*
X136942857Y-102524761D01*
X136895238Y-102429523D01*
X136895238Y-102048571D01*
X136942857Y-101953333D01*
X137038095Y-101905714D01*
X137228571Y-101905714D01*
X137323809Y-101953333D01*
X137371428Y-102048571D01*
X137371428Y-102143809D01*
X136895238Y-102239047D01*
X137800000Y-101905714D02*
X137800000Y-102572380D01*
X137800000Y-102000952D02*
X137847619Y-101953333D01*
X137942857Y-101905714D01*
X138085714Y-101905714D01*
X138180952Y-101953333D01*
X138228571Y-102048571D01*
X138228571Y-102572380D01*
X138561904Y-101905714D02*
X138942857Y-101905714D01*
X138704761Y-101572380D02*
X138704761Y-102429523D01*
X138752380Y-102524761D01*
X138847619Y-102572380D01*
X138942857Y-102572380D01*
X139228571Y-102524761D02*
X139323809Y-102572380D01*
X139514285Y-102572380D01*
X139609523Y-102524761D01*
X139657142Y-102429523D01*
X139657142Y-102381904D01*
X139609523Y-102286666D01*
X139514285Y-102239047D01*
X139371428Y-102239047D01*
X139276190Y-102191428D01*
X139228571Y-102096190D01*
X139228571Y-102048571D01*
X139276190Y-101953333D01*
X139371428Y-101905714D01*
X139514285Y-101905714D01*
X139609523Y-101953333D01*
X140704761Y-101572380D02*
X141276190Y-101572380D01*
X140990476Y-102572380D02*
X140990476Y-101572380D01*
X141609523Y-102572380D02*
X141609523Y-101572380D01*
X142038095Y-102572380D02*
X142038095Y-102048571D01*
X141990476Y-101953333D01*
X141895238Y-101905714D01*
X141752380Y-101905714D01*
X141657142Y-101953333D01*
X141609523Y-102000952D01*
X142514285Y-102572380D02*
X142514285Y-101905714D01*
X142514285Y-101572380D02*
X142466666Y-101620000D01*
X142514285Y-101667619D01*
X142561904Y-101620000D01*
X142514285Y-101572380D01*
X142514285Y-101667619D01*
X142942857Y-102524761D02*
X143038095Y-102572380D01*
X143228571Y-102572380D01*
X143323809Y-102524761D01*
X143371428Y-102429523D01*
X143371428Y-102381904D01*
X143323809Y-102286666D01*
X143228571Y-102239047D01*
X143085714Y-102239047D01*
X142990476Y-102191428D01*
X142942857Y-102096190D01*
X142942857Y-102048571D01*
X142990476Y-101953333D01*
X143085714Y-101905714D01*
X143228571Y-101905714D01*
X143323809Y-101953333D01*
X144514285Y-102524761D02*
X144657142Y-102572380D01*
X144895238Y-102572380D01*
X144990476Y-102524761D01*
X145038095Y-102477142D01*
X145085714Y-102381904D01*
X145085714Y-102286666D01*
X145038095Y-102191428D01*
X144990476Y-102143809D01*
X144895238Y-102096190D01*
X144704761Y-102048571D01*
X144609523Y-102000952D01*
X144561904Y-101953333D01*
X144514285Y-101858095D01*
X144514285Y-101762857D01*
X144561904Y-101667619D01*
X144609523Y-101620000D01*
X144704761Y-101572380D01*
X144942857Y-101572380D01*
X145085714Y-101620000D01*
X145514285Y-102572380D02*
X145514285Y-101905714D01*
X145514285Y-101572380D02*
X145466666Y-101620000D01*
X145514285Y-101667619D01*
X145561904Y-101620000D01*
X145514285Y-101572380D01*
X145514285Y-101667619D01*
X146419047Y-102572380D02*
X146419047Y-101572380D01*
X146419047Y-102524761D02*
X146323809Y-102572380D01*
X146133333Y-102572380D01*
X146038095Y-102524761D01*
X145990476Y-102477142D01*
X145942857Y-102381904D01*
X145942857Y-102096190D01*
X145990476Y-102000952D01*
X146038095Y-101953333D01*
X146133333Y-101905714D01*
X146323809Y-101905714D01*
X146419047Y-101953333D01*
X147276190Y-102524761D02*
X147180952Y-102572380D01*
X146990476Y-102572380D01*
X146895238Y-102524761D01*
X146847619Y-102429523D01*
X146847619Y-102048571D01*
X146895238Y-101953333D01*
X146990476Y-101905714D01*
X147180952Y-101905714D01*
X147276190Y-101953333D01*
X147323809Y-102048571D01*
X147323809Y-102143809D01*
X146847619Y-102239047D01*
D11*
X110657142Y-101634285D02*
X110704761Y-101681904D01*
X110752380Y-101824761D01*
X110752380Y-101920000D01*
X110704761Y-102062857D01*
X110609523Y-102158095D01*
X110514285Y-102205714D01*
X110323809Y-102253333D01*
X110180952Y-102253333D01*
X109990476Y-102205714D01*
X109895238Y-102158095D01*
X109800000Y-102062857D01*
X109752380Y-101920000D01*
X109752380Y-101824761D01*
X109800000Y-101681904D01*
X109847619Y-101634285D01*
X110752380Y-100777142D02*
X110228571Y-100777142D01*
X110133333Y-100824761D01*
X110085714Y-100920000D01*
X110085714Y-101110476D01*
X110133333Y-101205714D01*
X110704761Y-100777142D02*
X110752380Y-100872380D01*
X110752380Y-101110476D01*
X110704761Y-101205714D01*
X110609523Y-101253333D01*
X110514285Y-101253333D01*
X110419047Y-101205714D01*
X110371428Y-101110476D01*
X110371428Y-100872380D01*
X110323809Y-100777142D01*
X110752380Y-100300952D02*
X109752380Y-100300952D01*
X110133333Y-100300952D02*
X110085714Y-100205714D01*
X110085714Y-100015238D01*
X110133333Y-99920000D01*
X110180952Y-99872380D01*
X110276190Y-99824761D01*
X110561904Y-99824761D01*
X110657142Y-99872380D01*
X110704761Y-99920000D01*
X110752380Y-100015238D01*
X110752380Y-100205714D01*
X110704761Y-100300952D01*
X110752380Y-99253333D02*
X110704761Y-99348571D01*
X110609523Y-99396190D01*
X109752380Y-99396190D01*
X110704761Y-98491428D02*
X110752380Y-98586666D01*
X110752380Y-98777142D01*
X110704761Y-98872380D01*
X110609523Y-98920000D01*
X110228571Y-98920000D01*
X110133333Y-98872380D01*
X110085714Y-98777142D01*
X110085714Y-98586666D01*
X110133333Y-98491428D01*
X110228571Y-98443809D01*
X110323809Y-98443809D01*
X110419047Y-98920000D01*
X109752380Y-97396190D02*
X109752380Y-96824761D01*
X110752380Y-97110476D02*
X109752380Y-97110476D01*
X110752380Y-96491428D02*
X110085714Y-96491428D01*
X109752380Y-96491428D02*
X109800000Y-96539047D01*
X109847619Y-96491428D01*
X109800000Y-96443809D01*
X109752380Y-96491428D01*
X109847619Y-96491428D01*
X110704761Y-95634285D02*
X110752380Y-95729523D01*
X110752380Y-95920000D01*
X110704761Y-96015238D01*
X110609523Y-96062857D01*
X110228571Y-96062857D01*
X110133333Y-96015238D01*
X110085714Y-95920000D01*
X110085714Y-95729523D01*
X110133333Y-95634285D01*
X110228571Y-95586666D01*
X110323809Y-95586666D01*
X110419047Y-96062857D01*
D10*
X120585714Y-94072380D02*
X120109523Y-94072380D01*
X120109523Y-93072380D01*
X120919047Y-93548571D02*
X121252380Y-93548571D01*
X121395238Y-94072380D02*
X120919047Y-94072380D01*
X120919047Y-93072380D01*
X121395238Y-93072380D01*
X121823809Y-94072380D02*
X121823809Y-93072380D01*
X122157142Y-93786666D01*
X122490476Y-93072380D01*
X122490476Y-94072380D01*
X123728571Y-94072380D02*
X123728571Y-93072380D01*
X123728571Y-93548571D02*
X124300000Y-93548571D01*
X124300000Y-94072380D02*
X124300000Y-93072380D01*
X124728571Y-93786666D02*
X125204761Y-93786666D01*
X124633333Y-94072380D02*
X124966666Y-93072380D01*
X125300000Y-94072380D01*
X125633333Y-94072380D02*
X125633333Y-93072380D01*
X126061904Y-94024761D02*
X126204761Y-94072380D01*
X126442857Y-94072380D01*
X126538095Y-94024761D01*
X126585714Y-93977142D01*
X126633333Y-93881904D01*
X126633333Y-93786666D01*
X126585714Y-93691428D01*
X126538095Y-93643809D01*
X126442857Y-93596190D01*
X126252380Y-93548571D01*
X126157142Y-93500952D01*
X126109523Y-93453333D01*
X126061904Y-93358095D01*
X126061904Y-93262857D01*
X126109523Y-93167619D01*
X126157142Y-93120000D01*
X126252380Y-93072380D01*
X126490476Y-93072380D01*
X126633333Y-93120000D01*
X128300000Y-93072380D02*
X127823809Y-93072380D01*
X127776190Y-93548571D01*
X127823809Y-93500952D01*
X127919047Y-93453333D01*
X128157142Y-93453333D01*
X128252380Y-93500952D01*
X128300000Y-93548571D01*
X128347619Y-93643809D01*
X128347619Y-93881904D01*
X128300000Y-93977142D01*
X128252380Y-94024761D01*
X128157142Y-94072380D01*
X127919047Y-94072380D01*
X127823809Y-94024761D01*
X127776190Y-93977142D01*
X128966666Y-93072380D02*
X129061904Y-93072380D01*
X129157142Y-93120000D01*
X129204761Y-93167619D01*
X129252380Y-93262857D01*
X129300000Y-93453333D01*
X129300000Y-93691428D01*
X129252380Y-93881904D01*
X129204761Y-93977142D01*
X129157142Y-94024761D01*
X129061904Y-94072380D01*
X128966666Y-94072380D01*
X128871428Y-94024761D01*
X128823809Y-93977142D01*
X128776190Y-93881904D01*
X128728571Y-93691428D01*
X128728571Y-93453333D01*
X128776190Y-93262857D01*
X128823809Y-93167619D01*
X128871428Y-93120000D01*
X128966666Y-93072380D01*
X129728571Y-93691428D02*
X130490476Y-93691428D01*
X130966666Y-94072380D02*
X130966666Y-93072380D01*
X131347619Y-93072380D01*
X131442857Y-93120000D01*
X131490476Y-93167619D01*
X131538095Y-93262857D01*
X131538095Y-93405714D01*
X131490476Y-93500952D01*
X131442857Y-93548571D01*
X131347619Y-93596190D01*
X130966666Y-93596190D01*
G04 #@! TO.C,C2*
X134295238Y-107905714D02*
X134295238Y-108572380D01*
X134057142Y-107524761D02*
X133819047Y-108239047D01*
X134438095Y-108239047D01*
X134819047Y-108477142D02*
X134866666Y-108524761D01*
X134819047Y-108572380D01*
X134771428Y-108524761D01*
X134819047Y-108477142D01*
X134819047Y-108572380D01*
X135200000Y-107572380D02*
X135866666Y-107572380D01*
X135438095Y-108572380D01*
X136247619Y-107905714D02*
X136247619Y-108572380D01*
X136247619Y-108000952D02*
X136295238Y-107953333D01*
X136390476Y-107905714D01*
X136533333Y-107905714D01*
X136628571Y-107953333D01*
X136676190Y-108048571D01*
X136676190Y-108572380D01*
X137485714Y-108048571D02*
X137152380Y-108048571D01*
X137152380Y-108572380D02*
X137152380Y-107572380D01*
X137628571Y-107572380D01*
G04 #@! TO.C,C3*
X127076190Y-107805714D02*
X127076190Y-108472380D01*
X126838095Y-107424761D02*
X126600000Y-108139047D01*
X127219047Y-108139047D01*
X127504761Y-107472380D02*
X128171428Y-107472380D01*
X127742857Y-108472380D01*
X128552380Y-107805714D02*
X128552380Y-108472380D01*
X128552380Y-107900952D02*
X128600000Y-107853333D01*
X128695238Y-107805714D01*
X128838095Y-107805714D01*
X128933333Y-107853333D01*
X128980952Y-107948571D01*
X128980952Y-108472380D01*
X129314285Y-107805714D02*
X129695238Y-107805714D01*
X129457142Y-108472380D02*
X129457142Y-107615238D01*
X129504761Y-107520000D01*
X129600000Y-107472380D01*
X129695238Y-107472380D01*
G04 #@! TO.C,C1*
X142476190Y-107805714D02*
X142476190Y-108472380D01*
X142238095Y-107424761D02*
X142000000Y-108139047D01*
X142619047Y-108139047D01*
X142904761Y-107472380D02*
X143571428Y-107472380D01*
X143142857Y-108472380D01*
X143952380Y-107805714D02*
X143952380Y-108472380D01*
X143952380Y-107900952D02*
X144000000Y-107853333D01*
X144095238Y-107805714D01*
X144238095Y-107805714D01*
X144333333Y-107853333D01*
X144380952Y-107948571D01*
X144380952Y-108472380D01*
X144714285Y-107805714D02*
X145095238Y-107805714D01*
X144857142Y-108472380D02*
X144857142Y-107615238D01*
X144904761Y-107520000D01*
X145000000Y-107472380D01*
X145095238Y-107472380D01*
D12*
G04 #@! TO.C,C2*
X137470000Y-106990000D02*
X133830000Y-106990000D01*
X137470000Y-106990000D02*
X137470000Y-106745000D01*
X137470000Y-104895000D02*
X137470000Y-104650000D01*
X133830000Y-104895000D02*
X133830000Y-104650000D01*
X133830000Y-106990000D02*
X133830000Y-106745000D01*
X137470000Y-104650000D02*
X133830000Y-104650000D01*
G04 #@! TO.C,C3*
X126230000Y-106990000D02*
X129870000Y-106990000D01*
X126230000Y-106745000D02*
X126230000Y-106990000D01*
X129870000Y-106745000D02*
X129870000Y-106990000D01*
X126230000Y-104650000D02*
X126230000Y-104895000D01*
X129870000Y-104650000D02*
X129870000Y-104895000D01*
X126230000Y-104650000D02*
X129870000Y-104650000D01*
G04 #@! TO.C,C1*
X145170000Y-104895000D02*
X145170000Y-104650000D01*
X145170000Y-104650000D02*
X141530000Y-104650000D01*
X141530000Y-104895000D02*
X141530000Y-104650000D01*
X145170000Y-106990000D02*
X141530000Y-106990000D01*
X141530000Y-106990000D02*
X141530000Y-106745000D01*
X145170000Y-106990000D02*
X145170000Y-106745000D01*
G04 #@! TO.C,J2*
X113340000Y-96720000D02*
X113340000Y-102780000D01*
X113340000Y-102780000D02*
X115460000Y-102780000D01*
X115460000Y-96720000D02*
X115460000Y-102780000D01*
X113340000Y-96720000D02*
X115460000Y-96720000D01*
X113340000Y-95720000D02*
X113340000Y-94660000D01*
X113340000Y-94660000D02*
X114400000Y-94660000D01*
G04 #@! TO.C,J1*
X152539999Y-103580001D02*
X152539999Y-92580001D01*
X142039999Y-92280001D02*
X142039999Y-91280001D01*
X131039999Y-91280001D02*
X131039999Y-92280001D01*
X152539999Y-92580001D02*
X119539999Y-92580001D01*
X119539999Y-103580001D02*
X152539999Y-103580001D01*
X119539999Y-92580001D02*
X119539999Y-103580001D01*
X142039999Y-91280001D02*
X131039999Y-91280001D01*
G04 #@! TD*
M02*
