G04 #@! TF.GenerationSoftware,KiCad,Pcbnew,(6.0.0)*
G04 #@! TF.CreationDate,2022-01-04T09:55:11+00:00*
G04 #@! TF.ProjectId,LEM_Breakout_Board,4c454d5f-4272-4656-916b-6f75745f426f,rev?*
G04 #@! TF.SameCoordinates,Original*
G04 #@! TF.FileFunction,Profile,NP*
%FSLAX46Y46*%
G04 Gerber Fmt 4.6, Leading zero omitted, Abs format (unit mm)*
G04 Created by KiCad (PCBNEW (6.0.0)) date 2022-01-04 09:55:11*
%MOMM*%
%LPD*%
G01*
G04 APERTURE LIST*
G04 #@! TA.AperFunction,Profile*
%ADD10C,0.050000*%
G04 #@! TD*
G04 APERTURE END LIST*
D10*
X111900000Y-89720000D02*
X111900000Y-94620000D01*
X153400000Y-89720000D02*
X153400000Y-108220000D01*
X152400000Y-109220000D02*
X112900000Y-109220000D01*
X109100000Y-102820000D02*
X110900000Y-102820000D01*
X109100000Y-102820000D02*
G75*
G03*
X108900000Y-103020000I1J-200001D01*
G01*
X111700000Y-94820000D02*
G75*
G03*
X111900000Y-94620000I-1J200001D01*
G01*
X108900000Y-94620000D02*
G75*
G03*
X109100000Y-94820000I200001J1D01*
G01*
X111900000Y-103020000D02*
G75*
G03*
X111700000Y-102820000I-200001J-1D01*
G01*
X110900000Y-102820000D02*
X111700000Y-102820000D01*
X106900000Y-93820000D02*
X106900000Y-103820000D01*
X108900000Y-103820000D02*
X108900000Y-103020000D01*
X108900000Y-93820000D02*
G75*
G03*
X106900000Y-93820000I-1000000J0D01*
G01*
X106900000Y-103820000D02*
G75*
G03*
X108900000Y-103820000I1000000J0D01*
G01*
X108900000Y-94620000D02*
X108900000Y-93820000D01*
X111700000Y-94820000D02*
X109100000Y-94820000D01*
X152400000Y-109220000D02*
G75*
G03*
X153400000Y-108220000I1J999999D01*
G01*
X111900000Y-103020000D02*
X111900000Y-108220000D01*
X152400000Y-88720000D02*
X112900000Y-88720000D01*
X111900000Y-108220000D02*
G75*
G03*
X112900000Y-109220000I999999J-1D01*
G01*
X112900000Y-88720000D02*
G75*
G03*
X111900000Y-89720000I-1J-999999D01*
G01*
X153400000Y-89720000D02*
G75*
G03*
X152400000Y-88720000I-999999J1D01*
G01*
M02*
